<svg id="Layer_2" data-name="Layer 2" xmlns="http://www.w3.org/2000/svg" xmlns:xlink="http://www.w3.org/1999/xlink" width="85" height="85" viewBox="0 0 85 85">
  <defs>
    <linearGradient id="linear-gradient" x1="0.097" y1="0.186" x2="0.804" y2="0.799" gradientUnits="objectBoundingBox">
      <stop offset="0" stop-opacity="0.251"/>
      <stop offset="1" stop-opacity="0"/>
    </linearGradient>
  </defs>
  <g id="Layer_1" data-name="Layer 1">
    <g id="C">
      <rect id="Background" width="85" height="85" rx="42.5" fill="#e85f5b"/>
      <path id="Shadow" d="M203.4,135.26a42.566,42.566,0,0,1-29.163,32.878l-23-22.995c2.748,2.6,6.734,3.5,13.071,3.5a47.44,47.44,0,0,0,10.731-.956,1.569,1.569,0,0,0,1.381-1.647v-5.153a.7.7,0,0,0-.8-.8H164.311c-3.134,0-5.153-.85-6.163-2.6-.956-1.753-1.434-5.047-1.434-9.987s.478-8.234,1.434-9.934c1.009-1.7,3.028-2.55,6.163-2.55h11.316a.7.7,0,0,0,.8-.8v-5.153a1.61,1.61,0,0,0-.285-1.062Z" transform="translate(-119.101 -85.05)" fill="url(#linear-gradient)"/>
      <path id="C-2" data-name="C" d="M158.513,101.706c1.009.266,1.381.638,1.381,1.647v5.153a.7.7,0,0,1-.8.8H147.781c-3.134,0-5.153.85-6.163,2.55-.956,1.7-1.434,4.994-1.434,9.934s.478,8.234,1.434,9.987c1.009,1.753,3.028,2.6,6.163,2.6H159.1a.7.7,0,0,1,.8.8v5.153a1.569,1.569,0,0,1-1.381,1.647,47.44,47.44,0,0,1-10.731.956c-7.066,0-11.209-1.116-13.972-4.462-2.709-3.4-3.559-8.234-3.559-16.681,0-8.234,1.169-13.759,3.559-16.681s7.066-4.356,13.972-4.356A50.1,50.1,0,0,1,158.513,101.706Z" transform="translate(-102.572 -79.341)" fill="#fff"/>
    </g>
  </g>
</svg>
