<svg xmlns="http://www.w3.org/2000/svg" xmlns:xlink="http://www.w3.org/1999/xlink" width="505" height="284" viewBox="0 0 505 284">
  <defs>
    <clipPath id="clip-path">
      <rect id="Rect치ngulo_7433" data-name="Rect치ngulo 7433" width="80.997" height="66.704" fill="#e85f5b"/>
    </clipPath>
  </defs>
  <g id="Grupo_87317" data-name="Grupo 87317" transform="translate(-285 -4626.3)">
    <path id="Trazado_152818" data-name="Trazado 152818" d="M1909.2,1083.354c-23.443-99.781-127.574-175-252.5-175s-229.057,75.219-252.5,175Z" transform="translate(-1119.203 3826.946)" fill="#fff2f1"/>
    <g id="Grupo_86958" data-name="Grupo 86958" transform="translate(1669.698 5302.028) rotate(180)" opacity="0.61">
      <g id="Grupo_86889" data-name="Grupo 86889" transform="translate(1285.698 406)">
        <g id="Grupo_86895" data-name="Grupo 86895">
          <g id="Grupo_86894" data-name="Grupo 86894" clip-path="url(#clip-path)">
            <path id="Trazado_152651" data-name="Trazado 152651" d="M5.294,2.646A2.647,2.647,0,1,1,2.647,0,2.647,2.647,0,0,1,5.294,2.646M40.5,0a2.647,2.647,0,1,0,2.647,2.647A2.647,2.647,0,0,0,40.5,0M78.35,0A2.647,2.647,0,1,0,81,2.646,2.647,2.647,0,0,0,78.35,0M2.647,30.7a2.647,2.647,0,1,0,2.647,2.647A2.647,2.647,0,0,0,2.647,30.7m37.852,0a2.647,2.647,0,1,0,2.647,2.647A2.647,2.647,0,0,0,40.5,30.7m37.852,0A2.647,2.647,0,1,0,81,33.351,2.647,2.647,0,0,0,78.35,30.7M2.647,61.409a2.647,2.647,0,1,0,2.647,2.647,2.647,2.647,0,0,0-2.647-2.647m37.852,0a2.647,2.647,0,1,0,2.647,2.647A2.647,2.647,0,0,0,40.5,61.409m37.852,0A2.647,2.647,0,1,0,81,64.056a2.647,2.647,0,0,0-2.647-2.647" transform="translate(0 0)" fill="#e85f5b"/>
          </g>
        </g>
        <g id="Grupo_86896" data-name="Grupo 86896" transform="translate(0 94.025)">
          <g id="Grupo_86894-2" data-name="Grupo 86894" clip-path="url(#clip-path)">
            <path id="Trazado_152651-2" data-name="Trazado 152651" d="M5.294,2.646A2.647,2.647,0,1,1,2.647,0,2.647,2.647,0,0,1,5.294,2.646M40.5,0a2.647,2.647,0,1,0,2.647,2.647A2.647,2.647,0,0,0,40.5,0M78.35,0A2.647,2.647,0,1,0,81,2.646,2.647,2.647,0,0,0,78.35,0M2.647,30.7a2.647,2.647,0,1,0,2.647,2.647A2.647,2.647,0,0,0,2.647,30.7m37.852,0a2.647,2.647,0,1,0,2.647,2.647A2.647,2.647,0,0,0,40.5,30.7m37.852,0A2.647,2.647,0,1,0,81,33.351,2.647,2.647,0,0,0,78.35,30.7M2.647,61.409a2.647,2.647,0,1,0,2.647,2.647,2.647,2.647,0,0,0-2.647-2.647m37.852,0a2.647,2.647,0,1,0,2.647,2.647A2.647,2.647,0,0,0,40.5,61.409m37.852,0A2.647,2.647,0,1,0,81,64.056a2.647,2.647,0,0,0-2.647-2.647" transform="translate(0 0)" fill="#e85f5b"/>
          </g>
        </g>
      </g>
    </g>
    <g id="Grupo_86957" data-name="Grupo 86957" transform="translate(0 51.3)">
      <ellipse id="Elipse_4074" data-name="Elipse 4074" cx="48" cy="10" rx="48" ry="10" transform="translate(360 4839)" fill="#fbdfde"/>
      <g id="Grupo_86956" data-name="Grupo 86956" transform="translate(-3298.948 2812.998)">
        <path id="Trazado_152803" data-name="Trazado 152803" d="M3682.522,2642.2s.641,10.341,2.642,10.489c.266.02,10.147.02,10.147.02h12.756a4.375,4.375,0,0,0-3.912-3.755c-3.687-.643-9.858-3.235-12.092-8.107C3689.714,2635.715,3682.522,2642.2,3682.522,2642.2Z" transform="translate(-1.888 -617.095)" fill="#12263f"/>
        <path id="Trazado_152804" data-name="Trazado 152804" d="M3679.908,2322.062a26.3,26.3,0,0,0,6.828,1.283,25.053,25.053,0,0,0,6.375-.91s.723-6.981,4.7-22.364c2.083-8.062,5.057-18.43,9.289-31.311,11.7-35.6,15.258-56.429,15.583-58.4.018-.1.025-.155.025-.155l-.038-.017-35.972-15.794s4.446,49.067-1.226,67.9a79.316,79.316,0,0,0-2.059,9.023C3679.825,2291.773,3679.908,2322.062,3679.908,2322.062Z" transform="translate(0 -296.244)" fill="#636363"/>
        <path id="Trazado_152805" data-name="Trazado 152805" d="M3692.49,2271.315l14.4,28.755c2.083-8.062,5.058-18.43,9.289-31.311,11.7-35.6,15.258-56.429,15.583-58.4,0-.058-.007-.114-.014-.172l-35.971-15.794s4.445,49.067-1.227,67.9A79.321,79.321,0,0,0,3692.49,2271.315Z" transform="translate(-9.083 -296.244)" fill="#4d4d4d"/>
        <path id="Trazado_152806" data-name="Trazado 152806" d="M3783.536,2642.2s.641,10.341,2.642,10.489c.267.02,23.012.413,23.012.413a4.821,4.821,0,0,0-4.02-4.148c-3.687-.643-9.858-3.235-12.092-8.107C3790.728,2635.715,3783.536,2642.2,3783.536,2642.2Z" transform="translate(-74.806 -617.095)" fill="#12263f"/>
        <path id="Trazado_152807" data-name="Trazado 152807" d="M3757.6,2198.548a512.094,512.094,0,0,1-5.034,70.836c-5.5,39.04-3.637,55.612-3.637,55.612a37.479,37.479,0,0,1-5.3,1.349,24.075,24.075,0,0,1-7.872-.911s-7.874-39.055-5.616-58.6-10.783-67.052-10.783-67.052Z" transform="translate(-28.475 -299.245)" fill="#636363"/>
        <path id="Trazado_152808" data-name="Trazado 152808" d="M3702.9,1926.543s-18.577,18.862-19.481,26.2,8.965,18.81,8.965,18.81Z" transform="translate(-2.492 -102.895)" fill="#b94743"/>
        <path id="Trazado_152809" data-name="Trazado 152809" d="M3765.156,1890.231l7.02,4.6,10.146-1.891c-.141-.819-.811-4.213-1.42-7.289-.037-.181-.074-.362-.108-.54-.522-2.616-.974-4.863-.974-4.863l-9.476-4.181-3.533-1.558c.009.055.274,2.9.311,3.319A24.162,24.162,0,0,1,3765.156,1890.231Z" transform="translate(-61.538 -65.335)" fill="#fcbdb6"/>
        <path id="Trazado_152810" data-name="Trazado 152810" d="M3778.674,1914.35c-.2-.083-13.855-3.7-15.162-3.265s-2.079,2.958-2.079,2.958l19.662,4.445S3781.186,1915.407,3778.674,1914.35Z" transform="translate(-58.851 -91.71)" fill="#b94743"/>
        <path id="Trazado_152811" data-name="Trazado 152811" d="M3699.846,2002.439c2.038,9.295,35.949,10.4,44.689,1.96.994-.962,1.043-5.436.668-11.469-.734-11.787-3.089-29.518-3.181-38.576a71.693,71.693,0,0,0-1.447-12.912,104.829,104.829,0,0,0-4.3-15.455s-16.563-5.354-19.662-4.443C3701.682,1925.929,3697.808,1993.143,3699.846,2002.439Z" transform="translate(-14.03 -99.21)" fill="#e85f5b"/>
        <path id="Trazado_152812" data-name="Trazado 152812" d="M3821.359,2040.279c-.733-11.787-3.088-29.518-3.18-38.576a71.778,71.778,0,0,0-1.447-12.912l-9.964-1.759S3797.027,2026.821,3821.359,2040.279Z" transform="translate(-90.186 -146.559)" fill="#b94743"/>
        <path id="Trazado_152813" data-name="Trazado 152813" d="M3831.233,2115.383a2.345,2.345,0,0,0,.747,2.713c1.426,1.09,2.352,2.855,2.025,4.147s-3.456,3.4-4.541,3.056-3.049-1.216-3.054-2.72c0-.72-1.485-5.973,1.16-8.011S3831.233,2115.383,3831.233,2115.383Z" transform="translate(-105.455 -238.093)" fill="#fcbdb6"/>
        <path id="Trazado_152814" data-name="Trazado 152814" d="M3801.728,1930.833s9.75,1.369,17.492,12.779,12.836,19.893,11.41,24.005-14.427,18.375-16.668,18.375-5.858-1.63-6.062-5.3c0,0,8.673-13.754,6.87-15.809-.771-.878-11.4-9.864-12.989-5.789C3799.155,1965.839,3801.728,1930.833,3801.728,1930.833Z" transform="translate(-87.123 -105.992)" fill="#e85f5b"/>
        <path id="Trazado_152815" data-name="Trazado 152815" d="M3774.076,1882c2.081,3.524,9.834,6.573,13.069,7.693-.037-.181-.073-.363-.108-.54-.523-2.616-.974-4.863-.974-4.863l-9.477-4.181C3774.492,1880.084,3773.217,1880.553,3774.076,1882Z" transform="translate(-67.781 -69.378)" fill="#f9a6a0"/>
        <path id="Trazado_152816" data-name="Trazado 152816" d="M3775.472,1827.874s-15.264,4.762-18.083-4.79-6.688-15.369,2.938-18.813,12.6-.361,14.321,2.6S3779.37,1826.39,3775.472,1827.874Z" transform="translate(-53.618 -13.534)" fill="#fcbdb6"/>
        <path id="Trazado_152817" data-name="Trazado 152817" d="M3756.976,1792.416s-.974,11.114-3.271,10.632-4.383-.84-4.047,2.51,3.524,7.219-3.56,7.812-17.268-17.676-15.321-21.135C3736.391,1782.254,3765.091,1780.24,3756.976,1792.416Z" transform="translate(-36.545 0)" fill="#501506"/>
      </g>
      <rect id="Rect치ngulo_7479" data-name="Rect치ngulo 7479" width="190" height="284" transform="translate(285 4575)" fill="none"/>
    </g>
  </g>
</svg>
