<?xml version="1.0" encoding="utf-8"?>
<!-- Generator: Adobe Illustrator 26.0.1, SVG Export Plug-In . SVG Version: 6.00 Build 0)  -->
<svg version="1.1" id="Capa_1" xmlns="http://www.w3.org/2000/svg" xmlns:xlink="http://www.w3.org/1999/xlink" x="0px" y="0px"
	 viewBox="0 0 1030 707.5" style="enable-background:new 0 0 1030 707.5;" xml:space="preserve">
<style type="text/css">
	.st0{fill:#FBDFDE;}
	.st1{fill:#F6F6F6;}
	.st2{fill:#FFFFFF;}
	.st3{fill:#161615;}
	.st4{font-family:'Roboto-Regular';}
	.st5{font-size:16px;}
	.st6{fill:#3D1F71;}
	.st7{fill:#6C6C6C;}
	.st8{fill:#F1F2F2;}
	.st9{fill:#E6E7E8;}
	.st10{fill:#D1D3D4;}
	.st11{fill:#939598;}
	.st12{fill:#808285;}
	.st13{fill:#414042;}
	.st14{fill:#AFAFAF;}
	.st15{fill:#636363;}
	.st16{fill:#E63950;}
	.st17{fill:#D10028;}
	.st18{fill:#FCC14A;}
	.st19{fill:#FFA91A;}
	.st20{fill:#5E9CF7;}
	.st21{fill:#478CF7;}
	.st22{fill:#377DE2;}
	.st23{fill:#2266D3;}
	.st24{fill:#FFC91D;}
	.st25{fill:#DC9600;}
	.st26{fill:#D2D2D2;}
	.st27{fill:#00A0C8;}
	.st28{fill:#0A5078;}
	.st29{fill:#0082AA;}
</style>
<g>
	<path id="Rectángulo_7451" class="st0" d="M72.1,43.4h198.9c15.9,0,28.8,12.9,28.8,28.8v101c0,15.9-12.9,28.8-28.8,28.8H72.1
		c-15.9,0-28.8-12.9-28.8-28.8v-101C43.4,56.2,56.2,43.4,72.1,43.4z"/>
	<path id="Rectángulo_7467" class="st1" d="M71.8,283h198.9c15.9,0,28.8,12.9,28.8,28.8v101c0,15.9-12.9,28.8-28.8,28.8H71.8
		c-15.9,0-28.8-12.9-28.8-28.8v-101C43,295.9,55.9,283,71.8,283z"/>
	<path id="Rectángulo_7465" class="st1" d="M438.8,43h198.9c15.9,0,28.8,12.9,28.8,28.8v101c0,15.9-12.9,28.8-28.8,28.8H438.8
		c-15.9,0-28.8-12.9-28.8-28.8v-101C410,55.9,422.9,43,438.8,43z"/>
	<circle id="Elipse_4060" class="st0" cx="43.4" cy="43.4" r="43.4"/>
	<circle id="Elipse_4061" class="st2" cx="43.4" cy="43.4" r="31.5"/>
	<text transform="matrix(1 0 0 1 77.7229 107.4099)" class="st3 st4 st5">El suceso o realización de </text>
	<text transform="matrix(1 0 0 1 85.6059 126.6099)" class="st3 st4 st5">cada uno de los hechos </text>
	<text transform="matrix(1 0 0 1 81.6019 145.8099)" class="st3 st4 st5">económicos registrados.</text>
	<path id="Rectángulo_7452" class="st0" d="M71.8,522h198.9c15.9,0,28.8,12.9,28.8,28.8v128c0,15.9-12.9,28.8-28.8,28.8H71.8
		c-15.9,0-28.8-12.9-28.8-28.8v-128C43,534.9,55.9,522,71.8,522z"/>
	<path id="Rectángulo_8811" class="st0" d="M802.3,522h198.9c15.9,0,28.8,12.9,28.8,28.8v128c0,15.9-12.9,28.8-28.8,28.8H802.3
		c-15.9,0-28.8-12.9-28.8-28.8v-128C773.5,534.9,786.4,522,802.3,522z"/>
	<circle id="Elipse_4062" class="st0" cx="43.4" cy="521.8" r="43.4"/>
	<circle id="Elipse_4140" class="st0" cx="773.9" cy="521.8" r="43.4"/>
	<circle id="Elipse_4063" class="st2" cx="43.4" cy="521.8" r="31.5"/>
	<circle id="Elipse_4141" class="st2" cx="773.9" cy="521.8" r="31.5"/>
	<text transform="matrix(1 0 0 1 76.8362 563)" class="st3 st4 st5">Realizar los ajustes de los </text>
	<text transform="matrix(1 0 0 1 75.8592 582.2)" class="st3 st4 st5">hallazgos por omisiones u </text>
	<text transform="matrix(1 0 0 1 68.1882 601.4)" class="st3 st4 st5">errores de registro, con el fin </text>
	<text transform="matrix(1 0 0 1 81.4842 620.6)" class="st3 st4 st5">de validar la información </text>
	<text transform="matrix(1 0 0 1 71.6412 639.8)" class="st3 st4 st5">para que los saldos reflejen </text>
	<text transform="matrix(1 0 0 1 80.5902 659)" class="st3 st4 st5">la información correcta y </text>
	<text transform="matrix(1 0 0 1 91.7972 678.2)" class="st3 st4 st5">completa del periodo.</text>
	<text transform="matrix(1 0 0 1 805.6592 600.2276)" class="st3 st4 st5">Por último, se elaboran los </text>
	<text transform="matrix(1 0 0 1 817.3152 619.4276)" class="st3 st4 st5">estados financieros del </text>
	<text transform="matrix(1 0 0 1 870.6713 638.6276)" class="st3 st4 st5">periodo.</text>
	<circle id="Elipse_4064" class="st1" cx="43.4" cy="282.5" r="31.5"/>
	<text transform="matrix(1 0 0 1 79.2934 357.3276)" class="st3 st4 st5">Construcción del balance </text>
	<text transform="matrix(1 0 0 1 105.0274 376.5276)" class="st3 st4 st5">de comprobación.</text>
	<g id="Grupo_86924" transform="translate(600 3165.429)">
		<rect id="Rectángulo_7453" x="-285" y="-3042" class="st6" width="44.4" height="5"/>
		<g id="Grupo_86923" transform="translate(34.41 0)">
			<path id="Trazado_152775" class="st6" d="M-285-3031l8.5-8.5l-8.5-8.5h7.2l8.5,8.5l-8.5,8.5H-285z"/>
		</g>
	</g>
	<g id="Grupo_86953" transform="translate(968.916 3165.429)">
		<rect id="Rectángulo_7453-2" x="-285" y="-3042" class="st6" width="44.4" height="5"/>
		<g id="Grupo_86923-2" transform="translate(34.41 0)">
			<path id="Trazado_152775-2" class="st6" d="M-285-3031l8.5-8.5l-8.5-8.5h7.2l8.5,8.5l-8.5,8.5H-285z"/>
		</g>
	</g>
	<g id="Grupo_86928" transform="translate(-1934.933 3104.94)">
		<rect id="Rectángulo_7455" x="2834.2" y="-2896.5" class="st6" width="5" height="61.7"/>
		<g id="Grupo_86927" transform="translate(0 19)">
			<path id="Trazado_152777" class="st6" d="M2828.2-2863.7l8.5,8.5l8.5-8.5v7.2l-8.5,8.5l-8.5-8.5V-2863.7z"/>
		</g>
	</g>
	<g id="Grupo_86930" transform="translate(-1934.933 3109.94)">
		<rect id="Rectángulo_7456" x="2095.6" y="-2660.7" class="st6" width="5" height="59.7"/>
		<g id="Grupo_86929">
			<path id="Trazado_152778" class="st6" d="M2089.6-2610.9l8.5,8.5l8.5-8.5v7.2l-8.5,8.5l-8.5-8.5V-2610.9z"/>
		</g>
	</g>
	<g id="Grupo_88181" transform="translate(969.916 3649.099)">
		<rect id="Rectángulo_7457" x="-654.9" y="-3042" class="st6" width="414.3" height="5"/>
		<g id="Grupo_86931" transform="translate(34.41 0)">
			<path id="Trazado_152779" class="st6" d="M-285-3031l8.5-8.5l-8.5-8.5h7.2l8.5,8.5l-8.5,8.5H-285z"/>
		</g>
	</g>
	<g id="Grupo_86938" transform="translate(600 3401.384)">
		<rect id="Rectángulo_7460" x="-279.3" y="-3042" class="st6" width="44.4" height="5"/>
		<g id="Grupo_86937" transform="translate(0 0)">
			<path id="Trazado_152782" class="st6" d="M-269.3-3048l-8.5,8.5l8.5,8.5h-7.2l-8.5-8.5l8.5-8.5H-269.3z"/>
		</g>
	</g>
	<g id="Grupo_86954" transform="translate(968.916 3401.384)">
		<rect id="Rectángulo_7460-2" x="-279.3" y="-3042" class="st6" width="44.4" height="5"/>
		<g id="Grupo_86937-2" transform="translate(0 0)">
			<path id="Trazado_152782-2" class="st6" d="M-269.3-3048l-8.5,8.5l8.5,8.5h-7.2l-8.5-8.5l8.5-8.5H-269.3z"/>
		</g>
	</g>
	<path id="Rectángulo_7462" class="st0" d="M802.3,43.4h198.9c15.9,0,28.8,12.9,28.8,28.8v101c0,15.9-12.9,28.8-28.8,28.8H802.3
		c-15.9,0-28.8-12.9-28.8-28.8v-101C773.5,56.2,786.4,43.4,802.3,43.4z"/>
	<path id="Rectángulo_7468" class="st1" d="M802.3,283h198.9c15.9,0,28.8,12.9,28.8,28.8v101c0,15.9-12.9,28.8-28.8,28.8H802.3
		c-15.9,0-28.8-12.9-28.8-28.8v-101C773.5,295.9,786.4,283,802.3,283z"/>
	<circle id="Elipse_4065" class="st0" cx="773.5" cy="43.4" r="43.4"/>
	<circle id="Elipse_4066" class="st2" cx="773.5" cy="43.4" r="31.5"/>
	<text transform="matrix(1 0 0 1 836.3004 86.7339)" class="st3 st4 st5">Reconocimiento y </text>
	<text transform="matrix(1 0 0 1 807.8284 105.9339)" class="st3 st4 st5">medición inicial del hecho </text>
	<text transform="matrix(1 0 0 1 803.3714 125.1339)" class="st3 st4 st5">económico de acuerdo con </text>
	<text transform="matrix(1 0 0 1 805.2574 144.3338)" class="st3 st4 st5">la operación comercial y el </text>
	<text transform="matrix(1 0 0 1 839.5194 163.5339)" class="st3 st4 st5">soporte contable </text>
	<text transform="matrix(1 0 0 1 864.3284 182.7339)" class="st3 st4 st5">generado.</text>
	<circle id="Elipse_4069" class="st1" cx="773.5" cy="282.6" r="31.5"/>
	<text transform="matrix(1 0 0 1 806.4532 358)" class="st3 st4 st5">Haber realizado el registro </text>
	<text transform="matrix(1 0 0 1 830.6012 377.2)" class="st3 st4 st5">en el libro de diario.</text>
	<circle id="Elipse_4070" class="st1" cx="408.5" cy="43.5" r="31.5"/>
	<text transform="matrix(1 0 0 1 479.874 89)" class="st3 st4 st5">Se cuente con los </text>
	<text transform="matrix(1 0 0 1 446.058 108.2)" class="st3 st4 st5">documentos contables que </text>
	<text transform="matrix(1 0 0 1 472.691 127.4)" class="st3 st4 st5">evidencian el hecho </text>
	<text transform="matrix(1 0 0 1 455.581 146.6)" class="st3 st4 st5">(facturas, títulos valores, </text>
	<text transform="matrix(1 0 0 1 492.378 165.8)" class="st3 st4 st5">créditos, etc.).</text>
	<path id="Rectángulo_7464" class="st0" d="M438.8,283h198.9c15.9,0,28.8,12.9,28.8,28.8v101c0,15.9-12.9,28.8-28.8,28.8H438.8
		c-15.9,0-28.8-12.9-28.8-28.8v-101C410,295.9,422.9,283,438.8,283z"/>
	<circle id="Elipse_4072" class="st0" cx="408.5" cy="282.6" r="43.4"/>
	<circle id="Elipse_4073" class="st2" cx="408.5" cy="282.5" r="31.5"/>
	<text transform="matrix(1 0 0 1 441.1367 338.1279)" class="st3 st4 st5">Haber realizado el traslado </text>
	<text transform="matrix(1 0 0 1 438.6217 357.3279)" class="st3 st4 st5">o registro de la información </text>
	<text transform="matrix(1 0 0 1 461.0037 376.528)" class="st3 st4 st5">al libro de mayor y en </text>
	<text transform="matrix(1 0 0 1 465.1217 395.728)" class="st3 st4 st5">cuentas de balance.</text>
	<g id="Grupo_86942" transform="translate(-1935.764 3091.274)">
		<path id="Trazado_152784" class="st7" d="M1968.2-3036.7c-1.3-1.4-1.9-3.3-1.8-5.2v-11.3c-0.1-1.9,0.5-3.8,1.8-5.2
			c1.4-1.3,3.3-2,5.3-1.9c1.9-0.1,3.9,0.5,5.3,1.8c1.3,1.4,1.9,3.3,1.8,5.2v11.3c0.1,1.9-0.5,3.8-1.8,5.2
			C1975.7-3034.2,1971.3-3034.3,1968.2-3036.7L1968.2-3036.7z M1976.3-3039.1c0.6-0.8,0.9-1.8,0.9-2.8v-11.3c0.1-1-0.2-2-0.9-2.8
			c-0.7-0.7-1.7-1.1-2.7-1c-1-0.1-2,0.3-2.7,1c-0.6,0.8-0.9,1.8-0.9,2.8v11.3c-0.1,1,0.2,2,0.9,2.8
			C1972.4-3037.9,1974.7-3037.9,1976.3-3039.1L1976.3-3039.1z"/>
		<path id="Trazado_152785" class="st7" d="M1990.2-3035.1h-3.5v-21.1l-3.5,2.2v-3.6l3.5-2.4h3.5L1990.2-3035.1z"/>
	</g>
	<g id="Grupo_86943" transform="translate(-1935.764 3091.036)">
		<path id="Trazado_152786" class="st7" d="M1964.6-2797.5c-1.3-1.4-1.9-3.3-1.8-5.2v-11.3c-0.1-1.9,0.5-3.8,1.8-5.2
			c3.1-2.5,7.5-2.5,10.6,0c1.3,1.4,1.9,3.3,1.8,5.2v11.3c0.1,1.9-0.5,3.8-1.8,5.2C1972-2795,1967.7-2795,1964.6-2797.5z
			 M1972.6-2799.9c0.6-0.8,0.9-1.8,0.9-2.8v-11.3c0.1-1-0.2-2-0.9-2.8c-1.6-1.3-3.9-1.3-5.5,0c-0.6,0.8-0.9,1.8-0.9,2.8v11.3
			c-0.1,1,0.2,2,0.9,2.8C1968.7-2798.6,1971-2798.6,1972.6-2799.9L1972.6-2799.9z"/>
		<path id="Trazado_152787" class="st7" d="M1983.2-2796.5c-1-0.6-1.9-1.5-2.4-2.6c-0.6-1.3-0.8-2.7-0.8-4.1v0c0-1,0.1-2,0.3-2.9
			c0.2-1,0.5-2,0.9-3c0.1-0.2,0.1-0.3,0.2-0.5c0.1-0.2,0.2-0.3,0.2-0.5l5.4-10.7h3.8l-6.3,12.4l0-0.6c0.3-0.5,0.7-1,1.2-1.2
			c0.6-0.3,1.2-0.5,1.9-0.4c1.2,0,2.3,0.3,3.3,0.9c0.9,0.6,1.7,1.5,2.1,2.5c0.5,1.3,0.8,2.6,0.7,4v0c0,1.4-0.2,2.8-0.8,4.1
			c-0.5,1.1-1.3,2-2.4,2.6C1988.3-2795.3,1985.5-2795.3,1983.2-2796.5L1983.2-2796.5z M1989.5-2800c0.6-0.8,1-1.9,0.9-2.9v0
			c0.1-1.2-0.3-2.3-0.9-3.2c-0.7-0.8-1.7-1.2-2.7-1.1c-0.9,0-1.8,0.4-2.4,1.1c-0.6,1-0.9,2.1-0.9,3.2v0c-0.1,1,0.3,2.1,0.9,2.9
			C1985.8-2798.6,1988-2798.6,1989.5-2800L1989.5-2800z"/>
	</g>
	<g id="Grupo_86944" transform="translate(-1935.764 3091.274)">
		<path id="Trazado_152788" class="st7" d="M2694.7-3036.7c-1.3-1.4-1.9-3.3-1.8-5.2v-11.3c-0.1-1.9,0.5-3.8,1.8-5.2
			c1.4-1.3,3.3-2,5.3-1.9c1.9-0.1,3.9,0.5,5.3,1.8c1.3,1.4,1.9,3.3,1.8,5.2v11.3c0.1,1.9-0.5,3.8-1.8,5.2
			C2702.2-3034.2,2697.8-3034.3,2694.7-3036.7L2694.7-3036.7z M2702.7-3039.1c0.6-0.8,0.9-1.8,0.9-2.8v-11.3c0.1-1-0.2-2-0.9-2.8
			c-0.7-0.7-1.7-1.1-2.7-1c-1-0.1-2,0.3-2.7,1c-0.6,0.8-0.9,1.8-0.9,2.8v11.3c-0.1,1,0.2,2,0.9,2.8
			C2698.9-3037.9,2701.1-3037.9,2702.7-3039.1L2702.7-3039.1z"/>
		<path id="Trazado_152789" class="st7" d="M2713.2-3035.6c-1-0.5-1.9-1.2-2.6-2.2c-0.7-1-1.1-2.2-1.2-3.5h3.6
			c0.1,0.6,0.3,1.2,0.7,1.7c0.3,0.5,0.8,0.8,1.3,1c0.6,0.2,1.3,0.3,1.9,0.3c1,0.1,1.9-0.3,2.7-0.9c0.7-0.7,1-1.6,1-2.6v-0.7
			c0.1-1-0.3-2.1-0.9-2.9c-0.7-0.7-1.6-1.1-2.6-1h-1.8v-3.3h1.8c0.8,0,1.7-0.3,2.3-0.9c0.6-0.7,0.9-1.6,0.8-2.5v-0.8
			c0.1-0.8-0.3-1.7-0.8-2.3c-0.7-0.6-1.5-0.9-2.4-0.8c-0.5,0-1.1,0.1-1.6,0.3c-0.5,0.2-0.9,0.6-1.2,1c-0.4,0.5-0.6,1.1-0.7,1.7h-3.5
			c0.2-1.2,0.6-2.4,1.3-3.5c0.6-0.9,1.4-1.7,2.4-2.2c1-0.5,2.2-0.8,3.3-0.8c1.8-0.1,3.6,0.5,5,1.7c1.2,1.3,1.9,3,1.8,4.8v0.4
			c0,1.2-0.3,2.3-1,3.2c-0.7,1-1.7,1.7-2.9,2c1.3,0.2,2.4,1,3.2,2c0.8,1.2,1.2,2.6,1.1,4v0.4c0,1.3-0.3,2.6-0.8,3.7
			c-0.5,1-1.4,1.8-2.4,2.3c-1.2,0.6-2.5,0.8-3.9,0.8C2715.6-3034.8,2714.4-3035.1,2713.2-3035.6z"/>
	</g>
	<g id="Grupo_86945" transform="translate(-1935.764 3091.274)">
		<path id="Trazado_152790" class="st7" d="M2693.6-2797.5c-1.3-1.4-1.9-3.3-1.8-5.2v-11.3c-0.1-1.9,0.5-3.8,1.8-5.2
			c3.1-2.5,7.5-2.5,10.6,0c1.3,1.4,1.9,3.3,1.8,5.2v11.3c0.1,1.9-0.5,3.8-1.8,5.2C2701.1-2795,2696.7-2795,2693.6-2797.5z
			 M2701.6-2799.9c0.6-0.8,0.9-1.8,0.9-2.8v-11.3c0.1-1-0.2-2-0.9-2.8c-1.6-1.3-3.9-1.3-5.5,0c-0.6,0.8-0.9,1.8-0.9,2.8v11.3
			c-0.1,1,0.2,2,0.9,2.8C2697.7-2798.6,2700-2798.6,2701.6-2799.9L2701.6-2799.9z"/>
		<path id="Trazado_152791" class="st7" d="M2709.2-2802.7l8.3-18h3.6l-8.1,17.8h12.2v3.2h-16V-2802.7z M2719.9-2810.5h3.4v14.6
			h-3.4V-2810.5z"/>
	</g>
	<g id="Grupo_86947" transform="translate(-1934.703 3091.274)">
		<path id="Trazado_152794" class="st7" d="M2329.5-3036.7c-1.3-1.4-1.9-3.3-1.8-5.2v-11.3c-0.1-1.9,0.5-3.8,1.8-5.2
			c1.4-1.3,3.3-2,5.3-1.9c1.9-0.1,3.9,0.5,5.3,1.8c1.3,1.4,1.9,3.3,1.8,5.2v11.3c0.1,1.9-0.5,3.8-1.8,5.2
			C2337-3034.2,2332.6-3034.3,2329.5-3036.7L2329.5-3036.7z M2337.5-3039.1c0.6-0.8,0.9-1.8,0.9-2.8v-11.3c0.1-1-0.2-2-0.9-2.8
			c-0.7-0.7-1.7-1.1-2.7-1c-1-0.1-2,0.3-2.7,1c-0.6,0.8-0.9,1.8-0.9,2.8v11.3c-0.1,1,0.2,2,0.9,2.8
			C2333.7-3037.9,2335.9-3037.9,2337.5-3039.1L2337.5-3039.1z"/>
		<path id="Trazado_152795" class="st7" d="M2345.1-3038.1l8.7-11.6c0.5-0.6,0.9-1.3,1.2-2.1c0.3-0.6,0.4-1.3,0.4-2v0
			c0.1-0.9-0.3-1.7-0.9-2.3c-0.7-0.6-1.6-0.9-2.5-0.8c-0.9,0-1.8,0.3-2.5,0.9c-0.7,0.7-1.1,1.6-1.1,2.5v0h-3.6v0
			c0.2-1.3,0.6-2.5,1.3-3.6c0.6-1,1.4-1.8,2.5-2.3c1.1-0.5,2.3-0.8,3.5-0.8c1.3,0,2.6,0.2,3.8,0.8c1,0.5,1.8,1.2,2.4,2.2
			c0.6,1.1,0.9,2.3,0.8,3.5v0c0,0.9-0.2,1.9-0.5,2.8c-0.4,1-0.9,1.9-1.5,2.8l-7.2,9.8h9.4v3.3h-14L2345.1-3038.1z"/>
	</g>
	<g id="Grupo_86948" transform="translate(-1934.558 3091.036)">
		<path id="Trazado_152796" class="st7" d="M2329.4-2797.5c-1.3-1.4-1.9-3.3-1.8-5.2v-11.3c-0.1-1.9,0.5-3.8,1.8-5.2
			c3.1-2.5,7.5-2.5,10.6,0c1.3,1.4,1.9,3.3,1.8,5.2v11.3c0.1,1.9-0.5,3.8-1.8,5.2C2336.8-2795,2332.4-2795,2329.4-2797.5z
			 M2337.4-2799.9c0.6-0.8,0.9-1.8,0.9-2.8v-11.3c0.1-1-0.2-2-0.9-2.8c-1.6-1.3-3.9-1.3-5.5,0c-0.6,0.8-0.9,1.8-0.9,2.8v11.3
			c-0.1,1,0.2,2,0.9,2.8C2333.5-2798.6,2335.8-2798.6,2337.4-2799.9L2337.4-2799.9z"/>
		<path id="Trazado_152797" class="st7" d="M2348.9-2796.4c-1-0.5-1.8-1.2-2.4-2.1c-0.6-1-1.1-2.2-1.2-3.4v0h3.5v0
			c0.1,0.8,0.5,1.6,1.1,2.1c0.7,0.5,1.5,0.8,2.4,0.8c1,0.1,1.9-0.4,2.6-1.1c0.7-0.9,1-2,0.9-3.2v-2.1c0.1-1.1-0.3-2.2-0.9-3.1
			c-0.6-0.8-1.6-1.2-2.6-1.1c-0.6,0-1.2,0.2-1.7,0.5c-0.6,0.4-1.1,0.9-1.5,1.4h-3.2v-13.1h12.7v3.3h-9.2v5.6
			c0.4-0.4,0.9-0.6,1.5-0.8c0.5-0.2,1.1-0.3,1.6-0.3c1.3,0,2.6,0.3,3.7,0.9c1,0.6,1.8,1.5,2.3,2.6c0.6,1.3,0.8,2.7,0.8,4.1v2.1
			c0,1.4-0.2,2.8-0.8,4.1c-0.5,1.1-1.3,2-2.4,2.6c-1.2,0.6-2.5,0.9-3.8,0.9C2351.1-2795.6,2349.9-2795.9,2348.9-2796.4z"/>
	</g>
	<g id="Grupo_86950" transform="translate(-1935.764 3091.274)">
		<path id="Trazado_152800" class="st7" d="M1964.8-2558.3c-1.3-1.4-1.9-3.3-1.8-5.2v-11.3c-0.1-1.9,0.5-3.8,1.8-5.2
			c3.1-2.5,7.5-2.5,10.6,0c1.3,1.4,1.9,3.3,1.8,5.2v11.3c0.1,1.9-0.5,3.8-1.8,5.2C1972.3-2555.8,1967.9-2555.8,1964.8-2558.3
			L1964.8-2558.3z M1972.8-2560.7c0.6-0.8,0.9-1.8,0.9-2.8v-11.3c0.1-1-0.2-2-0.9-2.8c-1.6-1.3-3.9-1.3-5.5,0
			c-0.6,0.8-0.9,1.8-0.9,2.8v11.3c-0.1,1,0.2,2,0.9,2.8C1969-2559.4,1971.2-2559.4,1972.8-2560.7L1972.8-2560.7z"/>
		<path id="Trazado_152801" class="st7" d="M1993.6-2578.4l-6.4,21.7h-3.7l6.4-21.5h-6.3v3.6h-3.5v-6.9h13.5V-2578.4z"/>
	</g>
	<g id="Grupo_88180" transform="translate(-1571.301 3090.798)">
		<path id="Trazado_152798" class="st7" d="M2328.9-2558.3c-1.3-1.4-1.9-3.3-1.8-5.2v-11.3c-0.1-1.9,0.5-3.8,1.8-5.2
			c3.1-2.5,7.5-2.5,10.6,0c1.3,1.4,1.9,3.3,1.8,5.2v11.3c0.1,1.9-0.5,3.8-1.8,5.2C2336.4-2555.8,2332-2555.8,2328.9-2558.3
			L2328.9-2558.3z M2336.9-2560.7c0.6-0.8,0.9-1.8,0.9-2.8v-11.3c0.1-1-0.2-2-0.9-2.8c-1.6-1.3-3.9-1.3-5.5,0
			c-0.6,0.8-0.9,1.8-0.9,2.8v11.3c-0.1,1,0.2,2,0.9,2.8C2333.1-2559.4,2335.3-2559.4,2336.9-2560.7L2336.9-2560.7z"/>
		<path id="Trazado_152799" class="st7" d="M2348.2-2557.2c-1.1-0.5-2-1.4-2.6-2.4c-0.6-1.1-1-2.4-0.9-3.6v-0.4
			c0-1.2,0.3-2.4,0.9-3.5c0.6-1,1.4-1.9,2.5-2.5c-0.9-0.5-1.6-1.2-2.1-2.1c-0.5-0.9-0.8-1.9-0.8-2.9v-0.6c0-1.2,0.3-2.4,0.9-3.4
			c0.6-1,1.4-1.8,2.5-2.3c2.3-1.1,5-1.1,7.4,0c1,0.5,1.9,1.3,2.5,2.3c0.6,1,0.9,2.2,0.9,3.4v0.6c0,1-0.3,2-0.8,2.9
			c-0.5,0.9-1.3,1.6-2.1,2.1c1.1,0.6,1.9,1.4,2.5,2.5c0.6,1.1,1,2.3,0.9,3.5v0.4c0,1.3-0.3,2.5-0.9,3.6c-0.6,1-1.5,1.9-2.6,2.4
			C2353.6-2556.1,2350.7-2556.1,2348.2-2557.2L2348.2-2557.2z M2354.3-2560.2c0.6-0.3,1.1-0.8,1.4-1.3c0.3-0.6,0.5-1.3,0.5-2v-0.2
			c0-0.7-0.2-1.4-0.5-2c-0.3-0.6-0.8-1-1.4-1.3c-1.4-0.6-2.9-0.6-4.3,0c-0.6,0.3-1.1,0.8-1.4,1.3c-0.3,0.6-0.5,1.3-0.5,2v0.3
			c0,0.7,0.2,1.4,0.5,2c0.3,0.6,0.8,1,1.4,1.3c0.7,0.3,1.4,0.5,2.1,0.5C2352.9-2559.7,2353.6-2559.9,2354.3-2560.2L2354.3-2560.2z
			 M2354-2571.4c0.5-0.3,1-0.7,1.2-1.3c0.3-0.6,0.5-1.3,0.4-1.9v-0.2c0-0.6-0.1-1.3-0.4-1.8c-0.3-0.5-0.7-1-1.2-1.2
			c-1.2-0.6-2.5-0.6-3.7,0c-0.5,0.3-1,0.7-1.2,1.2c-0.3,0.6-0.5,1.2-0.4,1.9v0.3c0,0.7,0.1,1.3,0.4,1.9c0.3,0.5,0.7,1,1.2,1.3
			C2351.4-2570.8,2352.8-2570.8,2354-2571.4L2354-2571.4z"/>
	</g>
	<rect id="Rectángulo_8812" x="410" y="528" class="st2" width="250" height="175"/>
	<g id="Grupo_88249" transform="translate(-39.77 -15)">
		<g id="plan-de-negocios" transform="translate(762.769 3599)">
			<g id="Grupo_88189" transform="translate(0 0)">
				<g id="Grupo_88188">
					<g id="Grupo_88182" transform="translate(0 0.001)">
						<path id="Trazado_155551" class="st8" d="M-193.5-3048h-84.9c-3.7,0-6.6,3-6.6,6.6l0,0v146.2c0,3.7,3,6.6,6.6,6.6c0,0,0,0,0,0
							h111.9c3.7,0,6.6-3,6.6-6.6c0,0,0,0,0,0v-119.2L-193.5-3048z"/>
					</g>
					<g id="Grupo_88183" transform="translate(2.658 7.475)">
						<path id="Trazado_155552" class="st2" d="M-283.7-3001.8c-0.7,0-1.3-0.6-1.3-1.3c0,0,0,0,0,0v-37.9c0-0.7,0.6-1.3,1.3-1.3
							c0.7,0,1.3,0.6,1.3,1.3v37.9C-282.3-3002.4-282.9-3001.8-283.7-3001.8C-283.7-3001.8-283.7-3001.8-283.7-3001.8z M-283.7-3045
							c-0.7,0-1.3-0.6-1.3-1.3c0,0,0,0,0,0v-0.3c0-0.7,0.6-1.3,1.3-1.3c0.7,0,1.3,0.6,1.3,1.3l0,0v0.3
							C-282.3-3045.6-282.9-3045-283.7-3045L-283.7-3045z"/>
					</g>
					<g id="Grupo_88184" transform="translate(0 33.658)">
						<path id="Trazado_155553" class="st9" d="M-159.8-3048h-6.6v112.5c0,3.7-3,6.6-6.6,6.6l0,0H-285c0,3.7,3,6.6,6.6,6.6
							c0,0,0,0,0,0h111.9c3.7,0,6.6-3,6.6-6.6c0,0,0,0,0,0L-159.8-3048z"/>
					</g>
					<g id="Grupo_88185" transform="translate(0.591 33.658)">
						<path id="Trazado_155554" class="st10" d="M-160.4-3048h-3.3v115.8c0,3.7-3,6.6-6.6,6.6l0,0h-111.9c-0.9,0-1.9-0.2-2.7-0.6
							c1.1,2.4,3.4,3.9,6.1,3.9H-167c3.7,0,6.6-3,6.6-6.6l0,0L-160.4-3048z"/>
					</g>
					<g id="Grupo_88186" transform="translate(91.539)">
						<path id="Trazado_155555" class="st11" d="M-285-3021v-27l33.7,33.7h-27C-282-3014.3-285-3017.3-285-3021z"/>
					</g>
					<g id="Grupo_88187" transform="translate(92.131 29.748)">
						<path id="Trazado_155556" class="st12" d="M-255.2-3047.4h-27c-0.9,0-1.9-0.2-2.7-0.6c1.1,2.4,3.4,3.9,6.1,3.9h27
							L-255.2-3047.4z"/>
					</g>
				</g>
			</g>
			<g id="Grupo_88195" transform="translate(15.426 83.282)">
				<g id="Grupo_88190" transform="translate(41.198 13.29)">
					<path id="Trazado_155557" class="st13" d="M-263.7-3045.3h-19.9c-0.7,0-1.3-0.6-1.3-1.3c0-0.7,0.6-1.3,1.3-1.3l0,0h19.9
						c0.7,0,1.3,0.6,1.3,1.3C-262.4-3045.9-263-3045.3-263.7-3045.3z"/>
				</g>
				<g id="Grupo_88191" transform="translate(41.198)">
					<path id="Trazado_155558" class="st13" d="M-263.7-3045.3h-19.9c-0.7,0-1.3-0.6-1.3-1.3c0-0.7,0.6-1.3,1.3-1.3l0,0h19.9
						c0.7,0,1.3,0.6,1.3,1.3C-262.4-3045.9-263-3045.3-263.7-3045.3z"/>
				</g>
				<g id="Grupo_88192" transform="translate(41.198 26.579)">
					<path id="Trazado_155559" class="st13" d="M-263.7-3045.3h-19.9c-0.7,0-1.3-0.6-1.3-1.3c0-0.7,0.6-1.3,1.3-1.3l0,0h19.9
						c0.7,0,1.3,0.6,1.3,1.3C-262.4-3045.9-263-3045.3-263.7-3045.3z"/>
				</g>
				<g id="Grupo_88193" transform="translate(0 39.869)">
					<path id="Trazado_155560" class="st13" d="M-222.5-3045.3h-61.1c-0.7,0-1.3-0.6-1.3-1.3c0-0.7,0.6-1.3,1.3-1.3l0,0h61.1
						c0.7,0,1.3,0.6,1.3,1.3C-221.2-3045.9-221.8-3045.3-222.5-3045.3z"/>
				</g>
				<g id="Grupo_88194" transform="translate(0 53.159)">
					<path id="Trazado_155561" class="st13" d="M-222.5-3045.3h-61.1c-0.7,0-1.3-0.6-1.3-1.3c0-0.7,0.6-1.3,1.3-1.3l0,0h61.1
						c0.7,0,1.3,0.6,1.3,1.3C-221.2-3045.9-221.8-3045.3-222.5-3045.3z"/>
				</g>
			</g>
			<g id="Grupo_88206" transform="translate(15.426 21.817)">
				<g id="Grupo_88197" transform="translate(46.04)">
					<g id="Grupo_88196">
						<path id="Trazado_155562" class="st14" d="M-285-3046.7v44.2h12.2v-44.2c0-0.7-0.6-1.3-1.3-1.3l0,0h-9.6
							C-284.4-3048-285-3047.4-285-3046.7L-285-3046.7z"/>
					</g>
				</g>
				<g id="Grupo_88198" transform="translate(46.04)">
					<path id="Trazado_155563" class="st15" d="M-274.1-3048h-2v38.9c0,1.8-1.5,3.3-3.3,3.3h-5.6v3.3h12.2v-44.2
						C-272.8-3047.4-273.4-3048-274.1-3048L-274.1-3048z"/>
				</g>
				<g id="Grupo_88200" transform="translate(5.507 28.171)">
					<g id="Grupo_88199">
						<path id="Trazado_155564" class="st16" d="M-285-3046.7v16h12.2v-16c0-0.7-0.6-1.3-1.3-1.3l0,0h-9.6
							C-284.4-3048-285-3047.4-285-3046.7L-285-3046.7z"/>
					</g>
				</g>
				<g id="Grupo_88201" transform="translate(5.507 28.171)">
					<path id="Trazado_155565" class="st17" d="M-274.1-3048h-2v10.7c0,1.8-1.5,3.3-3.3,3.3h-5.6v3.3h12.2v-16
						C-272.8-3047.4-273.4-3048-274.1-3048L-274.1-3048z"/>
				</g>
				<g id="Grupo_88203" transform="translate(25.774 12.729)">
					<g id="Grupo_88202">
						<path id="Trazado_155566" class="st18" d="M-285-3046.7v31.5h12.2v-31.5c0-0.7-0.6-1.3-1.3-1.3l0,0h-9.6
							C-284.4-3048-285-3047.4-285-3046.7L-285-3046.7z"/>
					</g>
				</g>
				<g id="Grupo_88204" transform="translate(25.773 12.729)">
					<path id="Trazado_155567" class="st19" d="M-274.1-3048h-2v26.1c0,1.8-1.5,3.3-3.3,3.3h-5.6v3.3h12.2v-31.5
						C-272.8-3047.4-273.4-3048-274.1-3048L-274.1-3048z"/>
				</g>
				<g id="Grupo_88205" transform="translate(0 44.188)">
					<path id="Trazado_155568" class="st13" d="M-222.5-3045.3h-61.1c-0.7,0-1.3-0.6-1.3-1.3c0-0.7,0.6-1.3,1.3-1.3c0,0,0,0,0,0
						h61.1c0.7,0,1.3,0.6,1.3,1.3C-221.2-3045.9-221.8-3045.3-222.5-3045.3C-222.5-3045.3-222.5-3045.3-222.5-3045.3z"/>
				</g>
			</g>
			<g id="Grupo_88216" transform="translate(85.333 69.771)">
				<g id="Grupo_88211" transform="translate(0 0)">
					<g id="Grupo_88207">
						<path id="Trazado_155569" class="st20" d="M-285-3044.7v76.4c0,5.5,4.5,10,10,10h60.2v-86.4c0-1.8-1.5-3.3-3.3-3.3h-63.5
							C-283.5-3048-285-3046.5-285-3044.7z"/>
					</g>
					<g id="Grupo_88208" transform="translate(1.464)">
						<path id="Trazado_155570" class="st21" d="M-219.6-3048v86.4h-60.2c-1.8,0-3.6-0.5-5.2-1.5c1.8,3,5,4.8,8.5,4.8h60.2v-86.4
							C-216.3-3046.5-217.8-3048-219.6-3048z"/>
					</g>
					<g id="Grupo_88209" transform="translate(9.555 73.879)">
						<path id="Trazado_155571" class="st22" d="M-215.2-3041c0,4.6-3.5,8.4-8,8.8H-285c4.9-0.4,8.5-4.7,8.1-9.6
							c-0.2-2.5-1.4-4.7-3.4-6.2h61.6C-216.5-3046.3-215.2-3043.7-215.2-3041L-215.2-3041z"/>
					</g>
					<g id="Grupo_88210" transform="translate(9.555 73.879)">
						<path id="Trazado_155572" class="st23" d="M-218.7-3048h-0.7c2,4.4,0.1,9.7-4.4,11.7c-0.9,0.4-1.9,0.7-2.8,0.8h-52.2
							c-1.5,1.9-3.8,3.1-6.2,3.3h61.7c4.9-0.5,8.5-4.8,8-9.7C-215.5-3044.3-216.7-3046.5-218.7-3048L-218.7-3048z"/>
					</g>
				</g>
				<g id="Grupo_88215" transform="translate(9.73 8.51)">
					<g id="Grupo_88212">
						<path id="Trazado_155573" class="st2" d="M-276.4-3030.9c-4.7,0-8.6-3.8-8.6-8.6c0-4.7,3.8-8.6,8.6-8.6c4.7,0,8.6,3.8,8.6,8.6
							C-267.9-3034.7-271.7-3030.9-276.4-3030.9z M-276.4-3045.3c-3.3,0-5.9,2.6-5.9,5.9s2.6,5.9,5.9,5.9c3.3,0,5.9-2.6,5.9-5.9
							c0,0,0,0,0,0C-270.5-3042.7-273.2-3045.3-276.4-3045.3z"/>
					</g>
					<g id="Grupo_88213" transform="translate(32.611 40.992)">
						<path id="Trazado_155574" class="st2" d="M-276.4-3030.9c-4.7,0-8.6-3.8-8.6-8.6c0-4.7,3.8-8.6,8.6-8.6c4.7,0,8.6,3.8,8.6,8.6
							C-267.9-3034.7-271.7-3030.9-276.4-3030.9z M-276.4-3045.3c-3.3,0-5.9,2.6-5.9,5.9s2.6,5.9,5.9,5.9c3.3,0,5.9-2.6,5.9-5.9
							C-270.5-3042.7-273.2-3045.3-276.4-3045.3L-276.4-3045.3z"/>
					</g>
					<g id="Grupo_88214" transform="translate(0 1.445)">
						<path id="Trazado_155575" class="st2" d="M-240.5-3040.9l4.9-4.9c0.5-0.5,0.5-1.4,0-1.9c-0.5-0.5-1.3-0.5-1.8,0l-4.9,4.9
							l-4.9-4.9c-0.5-0.5-1.4-0.5-1.9,0.1c-0.5,0.5-0.5,1.3,0,1.8l4.9,4.9l-4.9,4.9c-0.5,0.5-0.6,1.3,0,1.9c0.5,0.5,1.3,0.5,1.9,0
							c0,0,0,0,0,0l4.9-4.9l4.9,4.9c0.5,0.5,1.4,0.5,1.9,0c0.5-0.5,0.5-1.3,0-1.8L-240.5-3040.9z"/>
						<path id="Trazado_155576" class="st2" d="M-276-3001.3l4.9-4.9c0.5-0.5,0.5-1.3,0-1.9s-1.3-0.6-1.9,0c0,0,0,0,0,0l-4.9,4.9
							l-4.9-4.9c-0.5-0.5-1.4-0.5-1.9,0c-0.5,0.5-0.5,1.3,0,1.8l4.9,4.9l-4.9,4.9c-0.5,0.5-0.6,1.3,0,1.9c0.5,0.5,1.3,0.6,1.9,0
							c0,0,0,0,0,0l4.9-4.9l4.9,4.9c0.5,0.5,1.3,0.6,1.9,0c0.5-0.5,0.6-1.3,0-1.9c0,0,0,0,0,0L-276-3001.3z"/>
						<path id="Trazado_155577" class="st2" d="M-243-3033.1c-0.7-0.1-1.4,0.4-1.5,1.1c-1,6.1-5,20.2-20.1,26.8l1.3-2.5
							c0.3-0.7,0.1-1.5-0.6-1.8c-0.7-0.3-1.5-0.1-1.8,0.6c0,0,0,0,0,0l-2.8,5.6c-0.3,0.7-0.1,1.5,0.6,1.8c0,0,0.1,0,0.1,0.1l5.4,2
							c0.7,0.3,1.5-0.1,1.7-0.7c0.3-0.7-0.1-1.5-0.7-1.7c0,0,0,0,0,0l-2.1-0.8c16.4-7.1,20.6-22.3,21.7-28.8
							C-241.8-3032.3-242.3-3033-243-3033.1L-243-3033.1z"/>
					</g>
				</g>
			</g>
			<g id="Grupo_88221" transform="translate(16.755 80.458)">
				<g id="Grupo_88217" transform="translate(0)">
					<circle id="Elipse_4143" class="st16" cx="-266.7" cy="-3029.7" r="18.3"/>
				</g>
				<g id="Grupo_88218" transform="translate(5.277 2.773)">
					<path id="Trazado_155578" class="st17" d="M-262.3-3048c7.1,7.2,7,18.7-0.1,25.8c-6,6-15.3,7-22.5,2.5
						c7.1,7.2,18.7,7.3,25.8,0.2c7.2-7.1,7.3-18.7,0.2-25.8C-260-3046.4-261.1-3047.2-262.3-3048L-262.3-3048z"/>
				</g>
				<g id="Grupo_88219" transform="translate(0)">
					<path id="Trazado_155579" class="st14" d="M-285-3029.7c0,5,2,9.8,5.6,13.2l12.6-13.2v-18.3C-276.8-3048-285-3039.8-285-3029.7
						z"/>
				</g>
				<g id="Grupo_88220" transform="translate(4.901 0.001)">
					<path id="Trazado_155580" class="st24" d="M-285-3042.2l13.4,12.4v-18.3C-276.7-3048-281.5-3045.9-285-3042.2z"/>
				</g>
			</g>
		</g>
		<g id="Icons" transform="translate(872.343 3616.701)">
			<g id="Grupo_88248" transform="translate(0 0)">
				<g id="Grupo_88241" transform="translate(66.517 0) rotate(40)">
					<g id="Grupo_88231" transform="translate(0 17.703)">
						<path id="Trazado_155590" class="st18" d="M-2177.5-2151.7h17.7v44.3h-17.7V-2151.7z"/>
					</g>
					<g id="Grupo_88232" transform="translate(0 61.96)">
						<path id="Trazado_155591" class="st18" d="M-2177.5-2151.7h17.7l0,26.6h-17.7V-2151.7z"/>
					</g>
					<g id="Grupo_88233" transform="translate(15.49 61.96)">
						<path id="Trazado_155592" class="st25" d="M-2177.5-2151.7h2.2v26.6h-2.2V-2151.7z"/>
					</g>
					<g id="Grupo_88234" transform="translate(15.49 17.703)">
						<path id="Trazado_155593" class="st25" d="M-2177.5-2151.7h2.2v44.3h-2.2V-2151.7z"/>
					</g>
					<g id="Grupo_88235" transform="translate(0 88.515)">
						<path id="Trazado_155594" class="st26" d="M-2177.5-2151.7l4.4,8.9h8.9l4.4-8.9H-2177.5z"/>
					</g>
					<g id="Grupo_88236" transform="translate(0 8.851)">
						<path id="Trazado_155595" class="st27" d="M-2159.8-2142.9h-17.7v-4.4c0-2.4,2-4.4,4.4-4.4c0,0,0,0,0,0h13.3V-2142.9z"/>
					</g>
					<g id="Grupo_88237" transform="translate(4.426 97.366)">
						<path id="Trazado_155596" class="st28" d="M-2177.5-2151.7l2.4,4.9c0.5,1.1,1.9,1.5,3,1c0.4-0.2,0.8-0.6,1-1l2.4-4.9H-2177.5z
							"/>
					</g>
					<g id="Grupo_88238" transform="translate(17.703 8.851)">
						<path id="Trazado_155597" class="st29" d="M-2177.5-2116.3v-35.4c2.4,0,4.4,2,4.4,4.4c0,0,0,0,0,0v26.6
							C-2173.1-2118.3-2175.1-2116.3-2177.5-2116.3C-2177.5-2116.3-2177.5-2116.3-2177.5-2116.3z"/>
					</g>
					<g id="Grupo_88239" transform="translate(4.426 0)">
						<path id="Trazado_155598" class="st26" d="M-2173.1-2151.7c-2.4,0-4.4,2-4.4,4.4c0,0,0,0,0,0v4.4h8.9v-4.4
							C-2168.7-2149.7-2170.7-2151.7-2173.1-2151.7C-2173.1-2151.7-2173.1-2151.7-2173.1-2151.7z"/>
					</g>
					<g id="Grupo_88240" transform="translate(15.49 8.851)">
						<path id="Trazado_155599" class="st29" d="M-2177.5-2151.7h2.2v8.9h-2.2V-2151.7z"/>
					</g>
				</g>
			</g>
		</g>
	</g>
</g>
</svg>
