<svg xmlns="http://www.w3.org/2000/svg" width="819" height="174.5" viewBox="0 0 819 174.5">
  <g id="Grupo_87317" data-name="Grupo 87317" transform="translate(5923.272 1446.709)">
    <path id="Trazado_153883" data-name="Trazado 153883" d="M255.135-677.983v174.5h819V-608.417l-69.629-69.566Z" transform="translate(-6178.407 -768.726)" fill="#fff"/>
    <path id="Trazado_153884" data-name="Trazado 153884" d="M1004.506-677.983s19.245,41.885,7.909,60.6l61.72,8.963Z" transform="translate(-6178.407 -768.726)" fill="#dbdbda"/>
    <g id="contador_1_" data-name="contador (1)" transform="translate(-5919.272 -1403.875)">
      <g id="Grupo_87171" data-name="Grupo 87171" transform="translate(10 10)">
        <path id="Trazado_153885" data-name="Trazado 153885" d="M119.151,227.742A24.222,24.222,0,0,1,95,203.59V196h48.3v7.59A24.222,24.222,0,0,1,119.151,227.742Z" transform="translate(-75.449 -153.218)" fill="#6e83b7"/>
        <path id="Trazado_153886" data-name="Trazado 153886" d="M27.842,335.57,43.352,332h20.7l15.51,3.57A23,23,0,0,1,97.4,357.985V371.1H10V357.985A23,23,0,0,1,27.842,335.57Z" transform="translate(-10 -257.936)" fill="#ffb0aa"/>
        <g id="Grupo_87166" data-name="Grupo 87166" transform="translate(11.961 103.966)">
          <path id="Trazado_153887" data-name="Trazado 153887" d="M318,462h4.6v9.2H318Z" transform="translate(-259.117 -462)" fill="#ff7b7b"/>
          <path id="Trazado_153888" data-name="Trazado 153888" d="M62,462h4.6v9.2H62Z" transform="translate(-62 -462)" fill="#ff7b7b"/>
        </g>
        <g id="Grupo_87169" data-name="Grupo 87169" transform="translate(29.603 74.064)">
          <path id="Trazado_153889" data-name="Trazado 153889" d="M142.449,332h20.7l3.749.863L152.8,371.1l-14.1-38.24Z" transform="translate(-138.7 -332)" fill="#edeff1"/>
          <path id="Trazado_153890" data-name="Trazado 153890" d="M142.449,332h20.7l3.749.863-7.261,19.692-6.839-7.9-6.839,7.9L138.7,332.863Z" transform="translate(-138.7 -332)" fill="#d3d3d3"/>
          <g id="Grupo_87167" data-name="Grupo 87167" transform="translate(0)">
            <path id="Trazado_153891" data-name="Trazado 153891" d="M210.351,332l3.749.863-6.667,18.079L200,342.351Z" transform="translate(-185.9 -332)" fill="#edeff1"/>
            <path id="Trazado_153892" data-name="Trazado 153892" d="M142.449,332l-3.749.863,6.667,18.079,7.433-8.591Z" transform="translate(-138.7 -332)" fill="#edeff1"/>
          </g>
          <g id="Grupo_87168" data-name="Grupo 87168" transform="translate(9.829 10.351)">
            <path id="Trazado_153893" data-name="Trazado 153893" d="M183.4,414.349H188l1.971,8.579L185.7,434.51l-4.271-11.582Z" transform="translate(-181.433 -405.758)" fill="#6e83b7"/>
            <path id="Trazado_153894" data-name="Trazado 153894" d="M190,409.349h4.6v1.15H190Z" transform="translate(-188.029 -401.908)" fill="#466089"/>
            <path id="Trazado_153895" data-name="Trazado 153895" d="M188.108,377l3.552,4.105-1.252,3.335h-4.6l-1.252-3.335Z" transform="translate(-183.838 -377)" fill="#6e83b7"/>
          </g>
        </g>
        <path id="Trazado_153896" data-name="Trazado 153896" d="M155,295.731V284h20.7v11.731a10.351,10.351,0,0,1-20.7,0Z" transform="translate(-121.648 -220.976)" fill="#ffd3b3"/>
        <path id="Trazado_153897" data-name="Trazado 153897" d="M165.351,291.33A26.329,26.329,0,0,1,155,289.215V284h20.7v5.215A26.329,26.329,0,0,1,165.351,291.33Z" transform="translate(-121.648 -220.976)" fill="#fcb98b"/>
        <g id="Grupo_87170" data-name="Grupo 87170" transform="translate(16.331 21.851)">
          <path id="Trazado_153898" data-name="Trazado 153898" d="M84.22,146h2.76v11.961H84.22A3.22,3.22,0,0,1,81,154.74v-5.52A3.22,3.22,0,0,1,84.22,146Z" transform="translate(-81 -136.569)" fill="#ffd3b3"/>
          <path id="Trazado_153899" data-name="Trazado 153899" d="M295.76,146H293v11.961h2.76a3.22,3.22,0,0,0,3.22-3.22v-5.52A3.22,3.22,0,0,0,295.76,146Z" transform="translate(-244.237 -136.569)" fill="#ffd3b3"/>
          <path id="Trazado_153900" data-name="Trazado 153900" d="M149.782,105v22.675a21.392,21.392,0,0,1-42.782,0V105Z" transform="translate(-101.02 -105)" fill="#ffd3b3"/>
        </g>
        <path id="Trazado_153901" data-name="Trazado 153901" d="M119.151,10A24.222,24.222,0,0,0,95,34.151v7.13h2.76V53.242l3.45-12.191c13.085-.375,24.111-2.409,29.672-8.971,0,0,2,6.291,6.44,8.971l3.22,12.191V41.282h2.76v-7.13A24.222,24.222,0,0,0,119.151,10Z" transform="translate(-75.449 -10)" fill="#6e83b7"/>
      </g>
      <g id="Grupo_87172" data-name="Grupo 87172" transform="translate(88.316 39.322)">
        <circle id="Elipse_4092" data-name="Elipse 4092" cx="14" cy="14" r="14" transform="translate(-0.316 -0.156)" fill="#ffe352"/>
        <circle id="Elipse_4093" data-name="Elipse 4093" cx="12.5" cy="12.5" r="12.5" transform="translate(0.684 0.844)" fill="#ffb236"/>
        <circle id="Elipse_4094" data-name="Elipse 4094" cx="11" cy="11" r="11" transform="translate(2.684 2.844)" fill="#ffe352"/>
        <path id="Trazado_153902" data-name="Trazado 153902" d="M394.6,163.2a1.84,1.84,0,1,1,1.84-1.84h2.76a4.608,4.608,0,0,0-3.22-4.388V155.2h-2.76v1.776a4.6,4.6,0,0,0,1.38,8.988,1.84,1.84,0,1,1-1.84,1.84H390a4.608,4.608,0,0,0,3.22,4.388v1.776h2.76v-1.776a4.6,4.6,0,0,0-1.38-8.988Z" transform="translate(-380.911 -151.124)" fill="#6e83b7"/>
      </g>
      <g id="Grupo_87177" data-name="Grupo 87177" transform="translate(80.844 66.583)">
        <g id="Grupo_87173" data-name="Grupo 87173">
          <path id="Trazado_153903" data-name="Trazado 153903" d="M358.6,312.583H319.725A1.725,1.725,0,0,1,318,310.858V257.725A1.725,1.725,0,0,1,319.725,256H358.6a1.725,1.725,0,0,1,1.725,1.725v53.133A1.725,1.725,0,0,1,358.6,312.583Z" transform="translate(-318 -256)" fill="#6e83b7"/>
          <path id="Trazado_153904" data-name="Trazado 153904" d="M318,315.5h42.322v1.15H318Z" transform="translate(-318 -301.814)" fill="#466089"/>
          <path id="Trazado_153905" data-name="Trazado 153905" d="M0,0H7.36V34.5H0Z" transform="translate(38.412 3.45) rotate(90)" fill="#80d6fb"/>
          <path id="Trazado_153906" data-name="Trazado 153906" d="M0,0H1.15V34.5H0Z" transform="translate(38.412 9.661) rotate(90)" fill="#46bee8"/>
        </g>
        <g id="Grupo_87174" data-name="Grupo 87174" transform="translate(3.91 18.171)">
          <path id="Trazado_153907" data-name="Trazado 153907" d="M350.411,351.1H335.69a.69.69,0,0,1-.69-.69V335.69a.69.69,0,0,1,.69-.69h14.721a.69.69,0,0,1,.69.69v14.721A.69.69,0,0,1,350.411,351.1Z" transform="translate(-335 -335)" fill="#edeff1"/>
          <path id="Trazado_153908" data-name="Trazado 153908" d="M430.411,351.1H415.69a.69.69,0,0,1-.69-.69V335.69a.69.69,0,0,1,.69-.69h14.721a.69.69,0,0,1,.69.69v14.721A.69.69,0,0,1,430.411,351.1Z" transform="translate(-396.599 -335)" fill="#edeff1"/>
          <path id="Trazado_153909" data-name="Trazado 153909" d="M350.411,431.1H335.69a.69.69,0,0,1-.69-.69V415.69a.69.69,0,0,1,.69-.69h14.721a.69.69,0,0,1,.69.69v14.721A.69.69,0,0,1,350.411,431.1Z" transform="translate(-335 -396.599)" fill="#edeff1"/>
          <path id="Trazado_153910" data-name="Trazado 153910" d="M430.411,431.1H415.69a.69.69,0,0,1-.69-.69V415.69a.69.69,0,0,1,.69-.69h14.721a.69.69,0,0,1,.69.69v14.721A.69.69,0,0,1,430.411,431.1Z" transform="translate(-396.599 -396.599)" fill="#edeff1"/>
        </g>
        <g id="Grupo_87176" data-name="Grupo 87176" transform="translate(7.015 21.276)">
          <path id="Trazado_153911" data-name="Trazado 153911" d="M358.391,352.3h-3.8v-3.8h-2.3v3.8h-3.8v2.3h3.8v3.8h2.3v-3.8h3.8Z" transform="translate(-348.5 -348.5)" fill="#6e83b7"/>
          <path id="Trazado_153912" data-name="Trazado 153912" d="M359.587,432.341l-1.626-1.627-2.81,2.81-2.81-2.81-1.626,1.627,2.809,2.809-2.809,2.809,1.626,1.627,2.81-2.81,2.81,2.81,1.626-1.627-2.809-2.809Z" transform="translate(-350.206 -411.804)" fill="#6e83b7"/>
          <path id="Trazado_153913" data-name="Trazado 153913" d="M428.5,365h9.891v2.3H428.5Z" transform="translate(-410.099 -361.205)" fill="#6e83b7"/>
          <g id="Grupo_87175" data-name="Grupo 87175" transform="translate(18.401 18.131)">
            <circle id="Elipse_4095" data-name="Elipse 4095" cx="1.349" cy="1.349" r="1.349" transform="translate(3.596)" fill="#6e83b7"/>
            <circle id="Elipse_4096" data-name="Elipse 4096" cx="1.349" cy="1.349" r="1.349" transform="translate(3.596 7.733)" fill="#6e83b7"/>
            <path id="Trazado_153914" data-name="Trazado 153914" d="M428.5,445h9.891v2.3H428.5Z" transform="translate(-428.5 -440.935)" fill="#6e83b7"/>
          </g>
        </g>
      </g>
    </g>
  </g>
</svg>
