<svg id="Grupo_88092" data-name="Grupo 88092" xmlns="http://www.w3.org/2000/svg" xmlns:xlink="http://www.w3.org/1999/xlink" width="609.958" height="338.989" viewBox="0 0 609.958 338.989">
  <defs>
    <clipPath id="clip-path">
      <rect id="Rectángulo_8564" data-name="Rectángulo 8564" width="609.958" height="338.989" fill="none"/>
    </clipPath>
    <clipPath id="clip-path-3">
      <rect id="Rectángulo_8512" data-name="Rectángulo 8512" width="109.878" height="50.853" transform="translate(250.796 260.96)" fill="none"/>
    </clipPath>
    <clipPath id="clip-path-4">
      <rect id="Rectángulo_8514" data-name="Rectángulo 8514" width="140.182" height="137.252" transform="translate(145.244 136.771)" fill="none"/>
    </clipPath>
    <clipPath id="clip-path-5">
      <rect id="Rectángulo_8515" data-name="Rectángulo 8515" width="147.216" height="137.252" transform="translate(319.016 136.771)" fill="none"/>
    </clipPath>
    <clipPath id="clip-path-6">
      <rect id="Rectángulo_8554" data-name="Rectángulo 8554" width="24.13" height="62.682" transform="translate(495.48 229.264)" fill="none"/>
    </clipPath>
    <clipPath id="clip-path-7">
      <rect id="Rectángulo_8555" data-name="Rectángulo 8555" width="48.819" height="20.834" transform="translate(477.866 197.739)" fill="none"/>
    </clipPath>
    <clipPath id="clip-path-8">
      <rect id="Rectángulo_8558" data-name="Rectángulo 8558" width="4.986" height="4.986" transform="translate(505.019 141.569)" fill="none"/>
    </clipPath>
    <clipPath id="clip-path-9">
      <rect id="Rectángulo_8559" data-name="Rectángulo 8559" width="8.855" height="15.486" transform="translate(138.289 319.096)" fill="none"/>
    </clipPath>
  </defs>
  <g id="Grupo_88115" data-name="Grupo 88115" clip-path="url(#clip-path)">
    <g id="Grupo_88114" data-name="Grupo 88114">
      <g id="Grupo_88113" data-name="Grupo 88113" clip-path="url(#clip-path)">
        <path id="Trazado_155274" data-name="Trazado 155274" d="M554.367,338.8H90.152L90,338.639a258.135,258.135,0,0,1-33.016-39.487,192.125,192.125,0,0,1-23.579-48.8c-9.275-29.037-13.932-63.186-13.113-96.157.932-37.541,8.93-70.793,23.128-96.161C58.687,30.741,80.687,12.923,108.787,5.076,123.625.934,139.264.71,156.6,4.394c13.665,2.9,28.529,8.346,45.442,16.635,18.713,9.172,36.97,20.03,54.627,30.532,15.312,9.107,31.146,18.524,47.2,26.8,19.381,9.984,37.045,17.138,54,21.87,19.907,5.556,39.032,7.689,56.841,6.339,15.411-1.168,31.726-4.691,47.5-8.1,24.269-5.241,49.363-10.66,71.878-7.68a72.4,72.4,0,0,1,31.924,11.794c10.457,7.093,19.244,17.079,26.863,30.528a133.342,133.342,0,0,1,16.2,51.844,176.72,176.72,0,0,1-3.26,55.738,208.7,208.7,0,0,1-19.31,53.325,190.015,190.015,0,0,1-31.987,44.617ZM90.6,337.768H553.9a189.062,189.062,0,0,0,31.655-44.215,207.759,207.759,0,0,0,19.218-53.068,175.7,175.7,0,0,0,3.244-55.425A132.347,132.347,0,0,0,591.945,133.6c-7.539-13.308-16.221-23.18-26.542-30.181a71.35,71.35,0,0,0-31.456-11.616c-22.324-2.956-47.324,2.443-71.5,7.665-15.814,3.415-32.166,6.947-47.653,8.12-17.939,1.36-37.189-.786-57.22-6.376-17.028-4.752-34.759-11.932-54.206-21.95-16.087-8.288-31.935-17.713-47.261-26.829-17.638-10.49-35.877-21.338-54.551-30.49C184.725,13.7,169.943,8.284,156.367,5.4c-17.154-3.646-32.621-3.429-47.284.665-27.821,7.768-49.6,25.418-64.736,52.46-31.1,55.576-26.95,138.24-9.93,191.529a191.091,191.091,0,0,0,23.457,48.542A256.808,256.808,0,0,0,90.6,337.768Z" fill="#d3dfff"/>
        <path id="Trazado_155275" data-name="Trazado 155275" d="M563.977,261.365C598.015,162.792,595.8,9.765,456.817.383c-45.459-3.07-91.71,12.908-133.891,27.491C288,39.948,243.226,57.686,232.334,95.76c-4.275,14.946-5.509,42.207-27.83,40.643-59.3-4.156-128.213-41.51-167.689,22.943C2.89,214.736,26.267,293.984,72.948,338.27H510.677c22.879-21.1,42.292-45.026,53.3-76.9" fill="#e7e3ee"/>
        <rect id="Rectángulo_8511" data-name="Rectángulo 8511" width="109.878" height="77.26" transform="translate(250.796 260.956)" fill="#7c63a6"/>
        <g id="Grupo_88094" data-name="Grupo 88094" opacity="0.6" style="isolation: isolate">
          <g id="Grupo_88093" data-name="Grupo 88093">
            <g id="Grupo_88092-2" data-name="Grupo 88092" clip-path="url(#clip-path-3)">
              <path id="Trazado_155276" data-name="Trazado 155276" d="M360.674,311.813,250.8,303.674V260.96H360.674Z" fill="#7c63a6"/>
            </g>
          </g>
        </g>
        <path id="Trazado_155277" data-name="Trazado 155277" d="M162.487,81.6h286.5a34.021,34.021,0,0,1,34.021,34.021v138.86a34.021,34.021,0,0,1-34.023,34.019h-286.5a34.022,34.022,0,0,1-34.021-34.019V115.616A34.021,34.021,0,0,1,162.487,81.6" fill="#7c63a6"/>
        <rect id="Rectángulo_8513" data-name="Rectángulo 8513" width="320.987" height="182.683" transform="translate(145.244 91.341)" fill="#fff"/>
        <g id="Grupo_88097" data-name="Grupo 88097" opacity="0.3" style="isolation: isolate">
          <g id="Grupo_88096" data-name="Grupo 88096">
            <g id="Grupo_88095" data-name="Grupo 88095" clip-path="url(#clip-path-4)">
              <path id="Trazado_155278" data-name="Trazado 155278" d="M285.426,141.865V274.023H145.244V136.771h134.02c3.4,0,6.162,2.28,6.162,5.094" fill="#86a7ff"/>
            </g>
          </g>
        </g>
        <g id="Grupo_88100" data-name="Grupo 88100" opacity="0.3" style="isolation: isolate">
          <g id="Grupo_88099" data-name="Grupo 88099">
            <g id="Grupo_88098" data-name="Grupo 88098" clip-path="url(#clip-path-5)">
              <path id="Trazado_155279" data-name="Trazado 155279" d="M466.232,136.771V274.023H319.016V141.865c0-2.813,2.758-5.094,6.161-5.094Z" fill="#86a7ff"/>
            </g>
          </g>
        </g>
        <path id="Trazado_155280" data-name="Trazado 155280" d="M95.841,235.615a8.215,8.215,0,0,0,8.215,8.215H263.518a8.215,8.215,0,0,0,8.215-8.215V72.662H95.841Z" fill="#fff"/>
        <path id="Trazado_155281" data-name="Trazado 155281" d="M263.518,244.349H104.057a8.738,8.738,0,0,1-8.729-8.729V72.149H272.247V235.615a8.738,8.738,0,0,1-8.729,8.734M96.355,73.176v162.44a7.71,7.71,0,0,0,7.7,7.7H263.518a7.71,7.71,0,0,0,7.7-7.7V73.176Z" fill="#3a6bea"/>
        <path id="Trazado_155282" data-name="Trazado 155282" d="M263.518,54.664H104.056a8.215,8.215,0,0,0-8.215,8.215v9.783H271.733V62.879A8.215,8.215,0,0,0,263.518,54.664Z" fill="#3a6bea"/>
        <path id="Trazado_155283" data-name="Trazado 155283" d="M272.247,73.176H95.328v-10.3a8.739,8.739,0,0,1,8.729-8.729H263.518a8.738,8.738,0,0,1,8.729,8.729ZM96.355,72.149H271.22v-9.27a7.71,7.71,0,0,0-7.7-7.7H104.057a7.71,7.71,0,0,0-7.7,7.7Z" fill="#3a6bea"/>
        <path id="Trazado_155284" data-name="Trazado 155284" d="M109.022,60a3.594,3.594,0,1,1-3.594,3.594A3.594,3.594,0,0,1,109.022,60" fill="#fff"/>
        <path id="Trazado_155285" data-name="Trazado 155285" d="M256.181,135.817H111.395V87.039H256.181ZM112.422,134.79H255.154V88.066H112.422Z" fill="#dadada"/>
        <rect id="Rectángulo_8516" data-name="Rectángulo 8516" width="143.759" height="1.027" transform="translate(111.908 122.852)" fill="#dadada"/>
        <rect id="Rectángulo_8517" data-name="Rectángulo 8517" width="143.759" height="1.027" transform="translate(111.908 110.914)" fill="#dadada"/>
        <rect id="Rectángulo_8518" data-name="Rectángulo 8518" width="143.759" height="1.027" transform="translate(111.908 98.977)" fill="#dadada"/>
        <rect id="Rectángulo_8519" data-name="Rectángulo 8519" width="1.027" height="47.751" transform="translate(240.778 87.552)" fill="#dadada"/>
        <rect id="Rectángulo_8520" data-name="Rectángulo 8520" width="1.027" height="47.751" transform="translate(226.402 87.552)" fill="#dadada"/>
        <rect id="Rectángulo_8521" data-name="Rectángulo 8521" width="1.027" height="47.751" transform="translate(212.026 87.552)" fill="#dadada"/>
        <rect id="Rectángulo_8522" data-name="Rectángulo 8522" width="1.027" height="47.751" transform="translate(197.65 87.552)" fill="#dadada"/>
        <rect id="Rectángulo_8523" data-name="Rectángulo 8523" width="1.027" height="47.751" transform="translate(183.275 87.552)" fill="#dadada"/>
        <rect id="Rectángulo_8524" data-name="Rectángulo 8524" width="1.027" height="47.751" transform="translate(168.899 87.552)" fill="#dadada"/>
        <rect id="Rectángulo_8525" data-name="Rectángulo 8525" width="1.027" height="47.751" transform="translate(154.523 87.552)" fill="#dadada"/>
        <rect id="Rectángulo_8526" data-name="Rectángulo 8526" width="1.027" height="47.751" transform="translate(140.147 87.552)" fill="#dadada"/>
        <rect id="Rectángulo_8527" data-name="Rectángulo 8527" width="1.027" height="47.751" transform="translate(125.771 87.552)" fill="#dadada"/>
        <path id="Trazado_155286" data-name="Trazado 155286" d="M255.03,135.8a18.251,18.251,0,0,0-3.885-5.828c-2.076-1.812-4.654-2.148-6.569-.857a10.282,10.282,0,0,0-1.272,1.114c-1.218,1.181-2.735,2.651-4.677,1.866a7.21,7.21,0,0,1-3.009-2.695,9.847,9.847,0,0,0-1.582-1.786c-1.456-1.184-3.263-1.091-5.687.293l-.165.094c-1.458.836-3.273,1.877-4.968-.1A6.4,6.4,0,0,1,222,124.663a6.27,6.27,0,0,0-.832-2.572c-1.477-2.09-3.523-2.817-5.611-2-1.057.415-2.285,1.842-3.584,3.353-1.89,2.2-3.983,4.63-6.242,4.63a3.3,3.3,0,0,1-1.661-.461c-1.793-1.019-1.658-3.238-1.539-5.195.11-1.815.215-3.528-.986-4.282-1.532-.961-3.52.758-4.482,2.148-1.443,2.084-3.842,4.081-5.947,3.842-.893-.1-2.131-.658-2.959-2.733a11.9,11.9,0,0,1-.455-5.171,15.588,15.588,0,0,0-.037-3.359c-.26-1.6-1.547-3.736-3.59-3.493-1.452.172-2.171,1.492-2.932,2.89a10.191,10.191,0,0,1-1.443,2.189,2.659,2.659,0,0,1-2.565,1.073c-.951-.253-1.672-1.264-2.085-2.926-.02-.08-.044-.184-.072-.307-.522-2.3-.917-2.634-1.063-2.671-.02,0-.137.024-.338.256a3.626,3.626,0,0,0-.51,2.413,5.892,5.892,0,0,1-.313,2.356,3.26,3.26,0,0,1-2.547,1.877,4.71,4.71,0,0,1-4.125-1.353c-1.4-1.53-1.932-3.872-1.583-6.961.28-2.487.229-9.171-1.558-10.2-.448-.256-1.056-.1-1.808.461-1.094.818-1.759,3.009-1.932,4.817a27.546,27.546,0,0,1-3.5,10.991,4.431,4.431,0,0,1-2.84,2.491,2.711,2.711,0,0,1-2.111-.56,4.555,4.555,0,0,1-1.673-3.042,12.191,12.191,0,0,1,.121-2.9,14.35,14.35,0,0,0,.157-2.152c-.043-1.494-.878-3.114-2.2-3.239-.685-.067-2.012,1.123-3.077,2.077-1.556,1.393-2.9,2.6-4.03,2.178-.625-.231-1-.9-1.153-2.038-.026-.193-.039-.408-.052-.635-.06-.989-.152-1.756-.737-1.883a1.02,1.02,0,0,0-.947.164c-.959.79-.9,3.667-.871,5.387a11.2,11.2,0,0,1-.052,1.946,4.185,4.185,0,0,1-2.07,2.792,2.46,2.46,0,0,1-2.182.084c-1.5-.694-1.768-2.519-1.837-4.031l-.464-10.236c-.055-1.216-.256-2.887-1.367-3.364a1.556,1.556,0,0,0-1.232.019,3.582,3.582,0,0,0-1.8,1.89,12.994,12.994,0,0,0-.57,1.859,10.072,10.072,0,0,1-.984,2.729,3.941,3.941,0,0,1-2.8,1.847,2.323,2.323,0,0,1-2-.688c-.878-.931-.733-2.2-.6-3.323a7.511,7.511,0,0,0,.072-1.641,2.672,2.672,0,0,0-1.437-2.067,5.24,5.24,0,0,0-4.46-.117l-.441-.927a6.254,6.254,0,0,1,5.4.146,3.647,3.647,0,0,1,1.959,2.848,8.284,8.284,0,0,1-.072,1.875c-.117,1.029-.219,1.917.332,2.5a1.283,1.283,0,0,0,1.14.372,2.9,2.9,0,0,0,2.031-1.35,9.132,9.132,0,0,0,.872-2.458,14.053,14.053,0,0,1,.619-2.006,4.586,4.586,0,0,1,2.361-2.443,2.583,2.583,0,0,1,2.021-.01c1.64.7,1.92,2.769,1.987,4.261l.464,10.236c.056,1.222.247,2.684,1.243,3.146a1.417,1.417,0,0,0,1.286-.068,3.154,3.154,0,0,0,1.528-2.078,11.687,11.687,0,0,0,.032-1.725c-.041-2.149-.1-5.093,1.245-6.2a2.047,2.047,0,0,1,1.807-.362c1.393.3,1.485,1.819,1.546,2.824.013.208.025.4.045.562.09.677.273,1.129.491,1.21.548.2,1.96-1.058,2.988-1.98,1.4-1.256,2.727-2.441,3.859-2.334,1.961.185,3.077,2.319,3.132,4.232a15.332,15.332,0,0,1-.164,2.306,11.25,11.25,0,0,0-.12,2.656,3.545,3.545,0,0,0,1.272,2.339,1.69,1.69,0,0,0,1.324.367c.956-.158,1.634-1.146,2.117-1.989a26.514,26.514,0,0,0,3.369-10.579c.181-1.885.9-4.467,2.34-5.542,1.111-.83,2.1-1.009,2.934-.529,2.944,1.688,2.078,11.107,2.067,11.2-.313,2.782.131,4.852,1.321,6.153a3.646,3.646,0,0,0,3.2,1.034,2.265,2.265,0,0,0,1.774-1.27,5.1,5.1,0,0,0,.23-1.948,4.473,4.473,0,0,1,.76-3.087,1.341,1.341,0,0,1,1.364-.58c1.012.254,1.467,1.909,1.815,3.44.026.115.048.213.067.287.3,1.222.81,2.038,1.352,2.182s1.14-.352,1.56-.791a9.34,9.34,0,0,0,1.283-1.97c.813-1.493,1.734-3.184,3.714-3.419,2.466-.29,4.339,1.981,4.724,4.347a16.582,16.582,0,0,1,.048,3.584,11.147,11.147,0,0,0,.384,4.73c.514,1.288,1.227,1.992,2.121,2.093,1.679.192,3.759-1.632,4.987-3.406,1.422-2.054,3.867-3.692,5.873-2.433,1.716,1.078,1.583,3.275,1.465,5.214-.111,1.819-.215,3.537,1.022,4.24,2.165,1.231,4.428-1.4,6.617-3.946,1.385-1.61,2.693-3.13,3.987-3.639,2.527-.993,5.078-.11,6.826,2.361a7.142,7.142,0,0,1,1,2.985A5.558,5.558,0,0,0,224,127.23c1.088,1.269,2.058.806,3.678-.123l.166-.1c2.8-1.6,5.042-1.665,6.845-.2a10.722,10.722,0,0,1,1.755,1.966,6.312,6.312,0,0,0,2.574,2.36c1.229.5,2.214-.331,3.577-1.651A11,11,0,0,1,244,128.254c2.313-1.56,5.382-1.193,7.819.935a19.03,19.03,0,0,1,4.13,6.147Z" fill="#3a6bea"/>
        <path id="Trazado_155287" data-name="Trazado 155287" d="M145.251,103.955a2.311,2.311,0,1,1,1.911,2.651,2.311,2.311,0,0,1-1.911-2.651" fill="#102048"/>
        <path id="Trazado_155288" data-name="Trazado 155288" d="M212.4,120.328a2.311,2.311,0,1,1-2.311,2.311,2.311,2.311,0,0,1,2.311-2.311" fill="#102048"/>
        <rect id="Rectángulo_8528" data-name="Rectángulo 8528" width="10.611" height="77.71" transform="translate(112.036 151.301)" fill="#86a7ff"/>
        <rect id="Rectángulo_8529" data-name="Rectángulo 8529" width="10.611" height="67.091" transform="translate(134.184 162.002)" fill="#d3dfff"/>
        <rect id="Rectángulo_8530" data-name="Rectángulo 8530" width="10.611" height="53.689" transform="translate(156.333 175.506)" fill="#86a7ff"/>
        <rect id="Rectángulo_8531" data-name="Rectángulo 8531" width="10.611" height="45.439" transform="translate(178.481 183.797)" fill="#d3dfff"/>
        <rect id="Rectángulo_8532" data-name="Rectángulo 8532" width="10.611" height="58.272" transform="translate(200.63 170.852)" fill="#86a7ff"/>
        <rect id="Rectángulo_8533" data-name="Rectángulo 8533" width="10.611" height="37.092" transform="translate(222.778 192.106)" fill="#d3dfff"/>
        <rect id="Rectángulo_8534" data-name="Rectángulo 8534" width="10.611" height="16.391" transform="translate(244.927 213.156)" fill="#86a7ff"/>
        <path id="Trazado_155289" data-name="Trazado 155289" d="M332.369,72.662V235.615a8.215,8.215,0,0,0,8.215,8.215H500.046a8.215,8.215,0,0,0,8.215-8.215V72.662Z" fill="#fff"/>
        <path id="Trazado_155290" data-name="Trazado 155290" d="M500.047,244.349H340.585a8.738,8.738,0,0,1-8.729-8.729V72.149H508.775V235.615a8.739,8.739,0,0,1-8.728,8.734M332.883,73.176v162.44a7.71,7.71,0,0,0,7.7,7.7H500.045a7.711,7.711,0,0,0,7.7-7.7V73.176Z" fill="#3a6bea"/>
        <path id="Trazado_155291" data-name="Trazado 155291" d="M508.261,62.879a8.215,8.215,0,0,0-8.215-8.215H340.584a8.215,8.215,0,0,0-8.215,8.215v9.783H508.261Z" fill="#3a6bea"/>
        <path id="Trazado_155292" data-name="Trazado 155292" d="M508.775,73.176H331.856v-10.3a8.738,8.738,0,0,1,8.729-8.729H500.047a8.738,8.738,0,0,1,8.729,8.729ZM332.883,72.149H507.748v-9.27a7.711,7.711,0,0,0-7.7-7.7H340.585a7.711,7.711,0,0,0-7.7,7.7Z" fill="#3a6bea"/>
        <path id="Trazado_155293" data-name="Trazado 155293" d="M346.406,60a3.594,3.594,0,1,1-3.594,3.594A3.594,3.594,0,0,1,346.406,60" fill="#fff"/>
        <rect id="Rectángulo_8535" data-name="Rectángulo 8535" width="10.611" height="77.71" transform="translate(481.456 151.301)" fill="#86a7ff"/>
        <rect id="Rectángulo_8536" data-name="Rectángulo 8536" width="10.611" height="74.676" transform="translate(459.307 154.358)" fill="#d3dfff"/>
        <rect id="Rectángulo_8537" data-name="Rectángulo 8537" width="10.611" height="62.153" transform="translate(437.159 166.961)" fill="#e85f5b"/>
        <rect id="Rectángulo_8538" data-name="Rectángulo 8538" width="10.611" height="53.408" transform="translate(415.01 175.732)" fill="#d3dfff"/>
        <rect id="Rectángulo_8539" data-name="Rectángulo 8539" width="10.611" height="37.436" transform="translate(392.862 191.892)" fill="#e85f5b"/>
        <rect id="Rectángulo_8540" data-name="Rectángulo 8540" width="10.611" height="24.142" transform="translate(370.713 205.264)" fill="#d3dfff"/>
        <rect id="Rectángulo_8541" data-name="Rectángulo 8541" width="10.611" height="16.391" transform="translate(348.565 213.156)" fill="#e85f5b"/>
        <path id="Trazado_155294" data-name="Trazado 155294" d="M377.462,163.356H357.654a3.075,3.075,0,0,0-3.075,3.075v12.1a3.075,3.075,0,0,0,3.075,3.075h12.452l3.738,5.881,3.746-5.894a3.068,3.068,0,0,0,2.946-3.062v-12.1a3.075,3.075,0,0,0-3.074-3.075" fill="#86a7ff"/>
        <path id="Trazado_155295" data-name="Trazado 155295" d="M367.557,167.455l1.567,3.174,3.5.509-2.535,2.471.6,3.489-3.133-1.647-3.133,1.647.6-3.489-2.535-2.471,3.5-.509Z" fill="#fff"/>
        <path id="Trazado_155296" data-name="Trazado 155296" d="M492.709,135.817H347.923V87.039H492.709ZM348.95,134.79H491.684V88.066H348.95Z" fill="#dadada"/>
        <rect id="Rectángulo_8542" data-name="Rectángulo 8542" width="143.759" height="1.027" transform="translate(348.437 122.852)" fill="#dadada"/>
        <rect id="Rectángulo_8543" data-name="Rectángulo 8543" width="143.759" height="1.027" transform="translate(348.437 110.914)" fill="#dadada"/>
        <rect id="Rectángulo_8544" data-name="Rectángulo 8544" width="143.759" height="1.027" transform="translate(348.437 98.977)" fill="#dadada"/>
        <rect id="Rectángulo_8545" data-name="Rectángulo 8545" width="1.027" height="47.751" transform="translate(477.306 87.552)" fill="#dadada"/>
        <rect id="Rectángulo_8546" data-name="Rectángulo 8546" width="1.027" height="47.751" transform="translate(462.93 87.552)" fill="#dadada"/>
        <rect id="Rectángulo_8547" data-name="Rectángulo 8547" width="1.027" height="47.751" transform="translate(448.554 87.552)" fill="#dadada"/>
        <rect id="Rectángulo_8548" data-name="Rectángulo 8548" width="1.027" height="47.751" transform="translate(434.178 87.552)" fill="#dadada"/>
        <rect id="Rectángulo_8549" data-name="Rectángulo 8549" width="1.027" height="47.751" transform="translate(419.803 87.552)" fill="#dadada"/>
        <rect id="Rectángulo_8550" data-name="Rectángulo 8550" width="1.027" height="47.751" transform="translate(405.427 87.552)" fill="#dadada"/>
        <rect id="Rectángulo_8551" data-name="Rectángulo 8551" width="1.027" height="47.751" transform="translate(391.051 87.552)" fill="#dadada"/>
        <rect id="Rectángulo_8552" data-name="Rectángulo 8552" width="1.027" height="47.751" transform="translate(376.675 87.552)" fill="#dadada"/>
        <rect id="Rectángulo_8553" data-name="Rectángulo 8553" width="1.027" height="47.751" transform="translate(362.299 87.552)" fill="#dadada"/>
        <path id="Trazado_155297" data-name="Trazado 155297" d="M360.2,127.837a4.262,4.262,0,0,1-.843-.088c-2.287-.462-2.7-2.516-3.036-4.168-.346-1.711-.625-2.766-1.942-2.878-1.516-.129-4.1,1.8-5.373,3.143l-.747-.7c.97-1.027,3.98-3.653,6.207-3.461,2.15.183,2.527,2.05,2.861,3.7.382,1.89.724,3.06,2.233,3.365,2.506.507,3.53-2.044,4.441-4.933l3.174-10.059a11.56,11.56,0,0,1,2.3-4.644c1.218-1.288,3.438-2.1,5.154-1.063,1.283.774,1.935,2.265,1.937,4.433,0,.392-.012.8-.024,1.238a11.276,11.276,0,0,0,.484,4.683,2.25,2.25,0,0,0,1.347,1.222,1.418,1.418,0,0,0,1.213-.186c1.2-.776,1.337-2.227,1.489-3.764a9.226,9.226,0,0,1,.568-2.807,3.081,3.081,0,0,1,4.032-1.638c3.428,1.255,3.27,5.395,3.165,8.134l-.011.3c-.071,1.956.148,4.7,1.6,6.686a2.574,2.574,0,0,0,2.074,1.2,2.065,2.065,0,0,0,1.641-1.154,10.331,10.331,0,0,0,.917-4.615c.026-.5.051-.98.1-1.439l.684-7.27c.283-3.012,1.329-4.812,3.022-5.208a2.35,2.35,0,0,1,1.972.326c.87.616,1.4,1.876,1.614,3.852a11.63,11.63,0,0,1,0,1.771c-.105,2.076-.061,3.467,1.449,3.861a2.527,2.527,0,0,0,2.5-1.208,8.727,8.727,0,0,0,.993-3.573c.047-.358.095-.713.152-1.062.4-2.435.9-5.3,1.594-8.107l.009-.036c.386-1.568.915-3.716,2.561-4.669a2.9,2.9,0,0,1,2.835-.227c1.473.712,2.384,2.754,2.634,4.462a21.4,21.4,0,0,1,.115,3.48,14.589,14.589,0,0,0,.359,4.5c.42,1.346,1.771,3.035,3.467,2.577,1.8-.488,2.18-2.05,2.614-3.857.084-.352.172-.715.271-1.066.8-2.827,1.891-6.7,4.338-9.2a4.841,4.841,0,0,1,5.781-.84c2.853,1.574,2.826,5.011,2.8,8.043a14.469,14.469,0,0,0,.337,4.19,3.774,3.774,0,0,0,2.4,2.737,3.047,3.047,0,0,0,2.525-.249,6.6,6.6,0,0,0,2.524-4.209l.135-.647c.648-3.11,1.535-7.369,3.542-9.725a4.756,4.756,0,0,1,4.973-1.717,5.5,5.5,0,0,1,3.834,4.437c.046.262.086.525.127.788a10.251,10.251,0,0,0,.546,2.35,2.6,2.6,0,0,0,2,1.768,3.034,3.034,0,0,0,2.727-1.337,12.268,12.268,0,0,0,1.362-2.478c.245-.538.5-1.093.794-1.625,2.7-4.832,8.374-6.726,12.789-6.888,5.13-.188,10.1,1.427,14.483,2.851l-.317.977c-4.3-1.4-9.181-2.983-14.128-2.8-4.136.151-9.442,1.9-11.929,6.362-.277.5-.521,1.031-.757,1.55a13.215,13.215,0,0,1-1.484,2.681,4.049,4.049,0,0,1-3.678,1.725,3.634,3.634,0,0,1-2.814-2.4,11.189,11.189,0,0,1-.611-2.584c-.038-.256-.078-.512-.123-.766a4.472,4.472,0,0,0-3.092-3.624,3.768,3.768,0,0,0-3.921,1.392c-1.837,2.156-2.693,6.267-3.319,9.269l-.136.65a7.4,7.4,0,0,1-3.005,4.881,4.035,4.035,0,0,1-3.344.349,4.8,4.8,0,0,1-3.086-3.407,15.109,15.109,0,0,1-.385-4.51c.022-2.88.045-5.858-2.271-7.136a3.813,3.813,0,0,0-4.552.659c-2.264,2.311-3.316,6.037-4.083,8.757-.094.332-.178.685-.261,1.027-.446,1.857-.951,3.962-3.345,4.609-2.133.577-4.073-1.206-4.715-3.263a15.357,15.357,0,0,1-.4-4.833,20.334,20.334,0,0,0-.1-3.31c-.21-1.437-.987-3.164-2.065-3.685a1.906,1.906,0,0,0-1.873.191c-1.268.734-1.717,2.559-2.078,4.026l-.009.037c-.683,2.77-1.181,5.613-1.579,8.028-.056.338-.1.683-.147,1.03a9.473,9.473,0,0,1-1.145,3.99,3.5,3.5,0,0,1-3.63,1.649c-2.431-.635-2.306-3.1-2.215-4.907a10.769,10.769,0,0,0,.009-1.607c-.224-2.048-.769-2.831-1.186-3.126a1.348,1.348,0,0,0-1.145-.164c-1.626.38-2.1,2.86-2.234,4.3l-.684,7.27c-.041.438-.066.9-.091,1.4a11.208,11.208,0,0,1-1.06,5.087,3.077,3.077,0,0,1-2.475,1.654,3.531,3.531,0,0,1-2.951-1.617c-1.627-2.22-1.876-5.211-1.8-7.331l.012-.307c.1-2.588.234-6.132-2.492-7.131a2.065,2.065,0,0,0-2.724,1.052c-.005.012-.01.025-.016.037a8.423,8.423,0,0,0-.485,2.493c-.161,1.631-.343,3.48-1.951,4.525a2.438,2.438,0,0,1-2.058.311,3.261,3.261,0,0,1-1.994-1.779,11.965,11.965,0,0,1-.577-5.142c.012-.427.024-.831.024-1.207,0-1.784-.487-2.979-1.441-3.555-1.255-.757-2.935-.107-3.877.89a10.79,10.79,0,0,0-2.064,4.247L364.988,122.1c-.7,2.205-1.812,5.741-4.788,5.741" fill="#3a6bea"/>
        <path id="Trazado_155298" data-name="Trazado 155298" d="M392.276,123.237a2.311,2.311,0,1,1-2.311,2.311,2.311,2.311,0,0,1,2.311-2.311" fill="#102048"/>
        <path id="Trazado_155299" data-name="Trazado 155299" d="M477.765,90.376a2.311,2.311,0,1,1-2.311,2.311,2.311,2.311,0,0,1,2.311-2.311" fill="#102048"/>
        <path id="Trazado_155300" data-name="Trazado 155300" d="M565.645,276.327a8.646,8.646,0,0,1-1.479,2.3c-3.378,3.584-8.307-.38-11.7-10.854l-6.671-13.689,2.567-11.727s2.085-4.21,5.545-5.771a6.142,6.142,0,0,1,5.576.205c6.675,3.429,9.592,32.183,6.162,39.536" fill="#102048"/>
        <path id="Trazado_155301" data-name="Trazado 155301" d="M565.645,276.327a8.646,8.646,0,0,1-1.479,2.3c.113-31.69-5.74-40.593-10.259-42.041a6.145,6.145,0,0,1,5.576.205c6.675,3.429,9.591,32.183,6.162,39.536" fill="#86a7ff"/>
        <path id="Trazado_155302" data-name="Trazado 155302" d="M524.6,302.892a8.631,8.631,0,0,1-1.948,1.919c-4.083,2.755-8.021-2.194-9.028-13.157l-3.507-14.82,5.079-10.877s2.958-3.65,6.677-4.413a6.142,6.142,0,0,1,5.395,1.424c5.759,4.812,2.292,33.5-2.668,39.924" fill="#102048"/>
        <path id="Trazado_155303" data-name="Trazado 155303" d="M524.595,302.892a8.63,8.63,0,0,1-1.948,1.919c7.067-30.892,3.311-40.863-.779-43.268a6.138,6.138,0,0,1,5.4,1.424c5.76,4.813,2.293,33.5-2.668,39.925" fill="#86a7ff"/>
        <path id="Trazado_155304" data-name="Trazado 155304" d="M519.608,278.812a63.173,63.173,0,0,1-8.924,7.856,36.986,36.986,0,0,1-9.8,5.278c-6.325,2.095-12.99,1.366-17.734-6.716-8.842-15.044-6.932-49.363-5.289-66.656.606-6.315,1.181-10.361,1.181-10.361l29.523-7.958.349,2.5.976,6.9,5.432,38.7Z" fill="#1f3c88"/>
        <g id="Grupo_88103" data-name="Grupo 88103" opacity="0.6" style="isolation: isolate">
          <g id="Grupo_88102" data-name="Grupo 88102">
            <g id="Grupo_88101" data-name="Grupo 88101" clip-path="url(#clip-path-6)">
              <path id="Trazado_155305" data-name="Trazado 155305" d="M519.61,278.812s-8.965,9.91-18.72,13.134c-10.618-21.575-2.331-62.682-2.331-62.682l16.769,19.09Z" fill="#102048"/>
            </g>
          </g>
        </g>
        <path id="Trazado_155306" data-name="Trazado 155306" d="M552.47,267.772s-17.077,29.78-36.794,22.417a13.031,13.031,0,0,1-4.991-3.522c-12.333-13.4-13.863-55.483-13.966-72.365-.031-4.426.041-7.116.041-7.116s5.925-2.177,12.158-4.436c6.562-2.372,13.452-4.847,14.11-4.98,1.407-.277,2.618,1.191,3.656,3.81,4.867,12.271,5.935,49.763,5.935,49.763l15.742-8.985c7.7,8.727,4.109,25.414,4.109,25.414" fill="#1f3c88"/>
        <path id="Trazado_155307" data-name="Trazado 155307" d="M498.563,251.071c-1.172-8.357-1.817-19.475-1.916-21.274l-7.627-5.376.592-.84,8.034,5.664.013.249c.007.123.656,12.406,1.921,21.435Z" fill="#3a6bea"/>
        <path id="Trazado_155308" data-name="Trazado 155308" d="M526.267,275.913a10.513,10.513,0,0,1-10.457-9.459l-6.98-69.486,1.022-.1,6.98,69.486a9.48,9.48,0,0,0,14.9,6.8l21.816-15.383.592.839-21.815,15.383a10.5,10.5,0,0,1-6.058,1.92" fill="#3a6bea"/>
        <g id="Grupo_88106" data-name="Grupo 88106" opacity="0.6" style="isolation: isolate">
          <g id="Grupo_88105" data-name="Grupo 88105">
            <g id="Grupo_88104" data-name="Grupo 88104" clip-path="url(#clip-path-7)">
              <path id="Trazado_155309" data-name="Trazado 155309" d="M526.685,201.578a139.435,139.435,0,0,1-16.79,8.071c-3.933,1.6-8.359,3.2-13.175,4.652a138.21,138.21,0,0,1-18.854,4.272c.606-6.315,1.181-10.361,1.181-10.361l29.523-7.958.349,2.5c6.562-2.372,13.452-4.847,14.11-4.98,1.407-.283,2.618,1.186,3.656,3.8" fill="#102048"/>
            </g>
          </g>
        </g>
        <path id="Trazado_155310" data-name="Trazado 155310" d="M461.847,111.17l-5.73,9.673-7.363-1.2c-.339-1.653-.7-3.389-1.037-5.134-1.52-7.825-2.762-15.783-1.356-16.687,1-.647,1.53.7,1.807,1.92-.246-2.095-.411-5.473.924-6.11,1.407-.667,2.157,2.855,2.475,4.95-.2-2.044-.349-5.586,1.037-6.49,1.561-1.017,2.146,4.159,2.331,6.377-.082-1.777-.082-5.371,1.263-5.7,1.6-.38,1.92,7.64,1.961,9.355,0-.924.123-3.5,1.458-3.358,1.635.164,2.23,12.4,2.23,12.4" fill="#f9b384"/>
        <path id="Trazado_155311" data-name="Trazado 155311" d="M461.847,111.17l-5.73,9.673-7.363-1.2c-.339-1.653-.7-3.389-1.037-5.134Z" fill="#e28b6d"/>
        <path id="Trazado_155312" data-name="Trazado 155312" d="M506.774,156.1,486.965,178.9l-2.27,2.608c-6.542-1.766-12.086-6.654-16.708-12.949-13.533-18.412-19.233-48.921-19.233-48.921l13.093-8.472c14.89,58.02,44.927,44.927,44.927,44.927" fill="#eb5d60"/>
        <path id="Trazado_155313" data-name="Trazado 155313" d="M487.437,176.2l-.472,2.7-2.27,2.608c-6.541-1.766-12.087-6.654-16.708-12.949,3.781,2.841,13.371,9.4,19.45,7.641" fill="#ab4446"/>
        <path id="Trazado_155314" data-name="Trazado 155314" d="M527.578,201.506c-10.207,6.808-22.91,8.77-34.863,9.448-3.481.2-6.962.257-10.444.113a19.823,19.823,0,0,1-5.278-.544c-3.081-1.027-1.027-3.594,1.54-5.9s3.594-37.482,3.594-37.482L506.771,156.1l19,5.648.39,14.377.216,7.681.257,9.406a5.682,5.682,0,0,0,2.012,4.159c1.839,1.581.525,3.081-1.068,4.138" fill="#e85f5b"/>
        <path id="Trazado_155315" data-name="Trazado 155315" d="M526.377,183.8a14.357,14.357,0,0,1-6.254-4.087l6.038-3.594Z" fill="#ab4446"/>
        <path id="Trazado_155316" data-name="Trazado 155316" d="M565.156,121.7l2.715,10.911,7.4.961c.8-1.487,1.641-3.046,2.466-4.621,3.7-7.06,7.173-14.328,6.084-15.6-.768-.9-1.666.23-2.282,1.321.837-1.936,1.964-5.126.867-6.119-1.156-1.043-2.885,2.116-3.791,4.032.783-1.9,1.937-5.252.868-6.515-1.2-1.422-3.249,3.369-4.062,5.44.588-1.678,1.619-5.121.424-5.822-1.426-.824-4.031,6.768-4.562,8.4.265-.885.886-3.39-.434-3.635-1.607-.309-5.693,11.247-5.693,11.247" fill="#f9b384"/>
        <path id="Trazado_155317" data-name="Trazado 155317" d="M565.156,121.7l2.715,10.911,7.4.961c.8-1.487,1.641-3.046,2.466-4.622Z" fill="#e28b6d"/>
        <path id="Trazado_155318" data-name="Trazado 155318" d="M508.571,155.327s34.4,6.932,56.585-33.626l10.115,11.871s-28.564,46.866-55.146,46.144Z" fill="#eb5d60"/>
        <path id="Trazado_155319" data-name="Trazado 155319" d="M504.552,169.654a11.287,11.287,0,0,1-7.655-3.2l.754-.7c.239.258,5.96,6.247,13.946.2l.62.818a12.6,12.6,0,0,1-7.665,2.882" fill="#ab4446"/>
        <rect id="Rectángulo_8556" data-name="Rectángulo 8556" width="24.864" height="1.027" transform="matrix(0.062, -0.998, 0.998, 0.062, 480.246, 193.633)" fill="#ab4446"/>
        <path id="Trazado_155320" data-name="Trazado 155320" d="M569.394,141.484c-4.288-4.288-8.478-12.617-8.654-12.97l.918-.459c.042.085,4.292,8.533,8.461,12.7Z" fill="#ab4446"/>
        <rect id="Rectángulo_8557" data-name="Rectángulo 8557" width="15.586" height="1.027" transform="translate(450.543 127.332) rotate(-31.071)" fill="#ab4446"/>
        <path id="Trazado_155321" data-name="Trazado 155321" d="M513.719,144.212l-1.872,14.466a6.051,6.051,0,0,1-6.776,5.228h0a6.051,6.051,0,0,1-5.224-6.779h0l1.871-14.466Z" fill="#f9b384"/>
        <path id="Trazado_155322" data-name="Trazado 155322" d="M506.955,148.994s-1.653,6.219-7.106,8.093l1.292-9.985Z" fill="#102048"/>
        <path id="Trazado_155323" data-name="Trazado 155323" d="M498.187,132.453a110.235,110.235,0,0,0-2.331,14.674c-.2,3.514,4.466,8.974,12.8,1.4l5.132-4.876.4-8.431-7.695-3.419Z" fill="#f9b384"/>
        <path id="Trazado_155324" data-name="Trazado 155324" d="M512.034,143.16s.776-4.661-1.346-6.32c0,0-12.25,3.7-17.858-7.157a8.989,8.989,0,0,0,7.715-1.426c3.725-2.522,10.133-4.056,13.652,2.2,0,0,8.8-.42,2.256,12.67Z" fill="#652b14"/>
        <path id="Trazado_155325" data-name="Trazado 155325" d="M510.831,141.738c1.4-2,3.9-2.663,5.591-1.481s1.924,3.76.525,5.76-3.9,2.663-5.591,1.481-1.924-3.76-.525-5.76" fill="#f9b384"/>
        <path id="Trazado_155326" data-name="Trazado 155326" d="M498.983,140.608a.685.685,0,1,1-.685-.685h0a.684.684,0,0,1,.684.684Z" fill="#102048"/>
        <path id="Trazado_155327" data-name="Trazado 155327" d="M504.163,140.993a.685.685,0,1,1-.685-.685h0a.684.684,0,0,1,.684.684Z" fill="#102048"/>
        <path id="Trazado_155328" data-name="Trazado 155328" d="M500.056,138.682a.258.258,0,0,1-.191-.085,2.238,2.238,0,0,0-2.6-.373.257.257,0,1,1-.267-.439.151.151,0,0,1,.028-.015,2.767,2.767,0,0,1,3.219.483.257.257,0,0,1-.19.429Z" fill="#102048"/>
        <path id="Trazado_155329" data-name="Trazado 155329" d="M505.66,139.709a.255.255,0,0,1-.191-.086,2.557,2.557,0,0,0-3.068-.543.257.257,0,0,1-.242-.453,3.114,3.114,0,0,1,3.693.654.257.257,0,0,1-.021.363.252.252,0,0,1-.17.065Z" fill="#102048"/>
        <path id="Trazado_155330" data-name="Trazado 155330" d="M499.767,147.708a4.235,4.235,0,0,1-.656-.045.257.257,0,0,1,.085-.506A4.154,4.154,0,0,0,502.685,146a.257.257,0,1,1,.4.325l-.015.017a4.373,4.373,0,0,1-3.3,1.368" fill="#102048"/>
        <g id="Grupo_88109" data-name="Grupo 88109" opacity="0.4" style="isolation: isolate">
          <g id="Grupo_88108" data-name="Grupo 88108">
            <g id="Grupo_88107" data-name="Grupo 88107" clip-path="url(#clip-path-8)">
              <path id="Trazado_155331" data-name="Trazado 155331" d="M507.512,141.569a2.493,2.493,0,1,1-2.493,2.493,2.493,2.493,0,0,1,2.493-2.493" fill="#eb5d60"/>
            </g>
          </g>
        </g>
        <path id="Trazado_155332" data-name="Trazado 155332" d="M500.2,140.993l-2.161,3.069,2.269,1.065Z" fill="#a50e0e"/>
        <path id="Trazado_155333" data-name="Trazado 155333" d="M512.635,144.673a.257.257,0,0,1-.257-.257.272.272,0,0,1,.008-.063,2.859,2.859,0,0,1,1.3-1.687,2.909,2.909,0,0,1,2.41-.031.257.257,0,1,1-.144.493.144.144,0,0,1-.029-.01,2.423,2.423,0,0,0-2,0,2.348,2.348,0,0,0-1.049,1.361.256.256,0,0,1-.244.194" fill="#102048"/>
        <path id="Trazado_155334" data-name="Trazado 155334" d="M114.714,209.752l-3.979,10.911,13.093,3.209,3.209-13.606Z" fill="#e28b6d"/>
        <path id="Trazado_155335" data-name="Trazado 155335" d="M134.654,204.35c-1.142,6.749-6.74,11.15-14.682,9.424-6.275-1.364-10.593-6.055-8.069-14.224,2.148-6.952,7.932-11.378,14.334-10.9,7.94.585,9.684,8.208,8.417,15.7" fill="#102048"/>
        <path id="Trazado_155336" data-name="Trazado 155336" d="M41.076,319.1,20.2,338.271H48.483L53.912,320.3Z" fill="#1f3c88"/>
        <path id="Trazado_155337" data-name="Trazado 155337" d="M71.883,317.9l-17.971,2.4-5.429,17.971H74.621s-2.31-20.8-2.738-20.371" fill="#e28b6d"/>
        <path id="Trazado_155338" data-name="Trazado 155338" d="M125.282,311.755l-18.711,26.366-.113.164H57.681v-.021l1.243-11.2.842-7.548.483-4.333L87.8,311.24l-2.054-14.027a28.737,28.737,0,0,1-2.578-13.627,34.777,34.777,0,0,1,3.091-12.734l25.5-.852,1.191,3.676,3.183,9.838Z" fill="#7d69ed"/>
        <path id="Trazado_155339" data-name="Trazado 155339" d="M67.6,319.1l-20.88,19.169H75.011L80.44,320.3Z" fill="#1f3c88"/>
        <path id="Trazado_155340" data-name="Trazado 155340" d="M98.411,317.9,80.44,320.3l-5.429,17.971h26.138s-2.31-20.8-2.738-20.371" fill="#e28b6d"/>
        <path id="Trazado_155341" data-name="Trazado 155341" d="M146.159,327.507a16.572,16.572,0,0,1-6.973,7.075c-8.5,4.631-21.144,3.06-32.614,3.543-1.787.072-3.512.123-5.155.164-4.21.082-7.866.062-10.5,0-.39,0-.75-.01-1.1-.021-2.044-.051-3.225-.1-3.225-.1L87.2,319.4l.164-5.237,30.55-2.567-10.649-26.987-4.241-10.751,9.92-.175,17.252-.288,2.865-.051s.534,1.222,1.4,3.317c.113.277.226.555.349.863,3.584,8.77,11.049,29.072,12.179,41.579.338,3.6.143,6.558-.833,8.407" fill="#7d69ed"/>
        <path id="Trazado_155342" data-name="Trazado 155342" d="M134.809,277.521a72.612,72.612,0,0,1-18.679,6,85.408,85.408,0,0,1-8.862,1.089,107.516,107.516,0,0,1-24.1-1.017,34.772,34.772,0,0,1,3.091-12.734l25.5-.852,1.191,3.676L130.2,273.4l4.262,3.265Z" fill="#5b4dad"/>
        <g id="Grupo_88112" data-name="Grupo 88112" opacity="0.4" style="isolation: isolate">
          <g id="Grupo_88111" data-name="Grupo 88111">
            <g id="Grupo_88110" data-name="Grupo 88110" clip-path="url(#clip-path-9)">
              <path id="Trazado_155343" data-name="Trazado 155343" d="M146.159,327.507a16.572,16.572,0,0,1-6.973,7.075,11.384,11.384,0,0,1,7.8-15.486c.344,3.606.149,6.563-.827,8.411" fill="#5b4dad"/>
            </g>
          </g>
        </g>
        <path id="Trazado_155344" data-name="Trazado 155344" d="M87.111,338.184l-1.026-.033L86.87,313.7l.444-.047c.306-.032,30.726-3.252,41.935-2.572l-.062,1.025c-10.385-.628-37.511,2.127-41.319,2.522Z" fill="#5b4dad"/>
        <path id="Trazado_155345" data-name="Trazado 155345" d="M111.794,312.11l-6.612-17.464a30.082,30.082,0,0,1-5.606-4.447l.752-.7a30.012,30.012,0,0,0,5.536,4.359l.153.092,6.738,17.8Z" fill="#5b4dad"/>
        <rect id="Rectángulo_8560" data-name="Rectángulo 8560" width="8.492" height="1.026" transform="translate(66.035 338.524) rotate(-63.049)" fill="#fff"/>
        <rect id="Rectángulo_8561" data-name="Rectángulo 8561" width="8.492" height="1.026" transform="translate(37.282 338.011) rotate(-63.049)" fill="#fff"/>
        <path id="Trazado_155346" data-name="Trazado 155346" d="M94.817,226.7c-7.184,13.125-11.654,27.283-14.36,42.11a5,5,0,0,0,3.2,5.608c16.593,5.963,33.829,6.594,51.593,2.846a4.989,4.989,0,0,0,3.951-4.99c-.182-8.362-.358-27.755,1.48-40.1Z" fill="#fcc14a"/>
        <path id="Trazado_155347" data-name="Trazado 155347" d="M106.541,191.011s8.3-7.445,7.723-8.343c-.657-1.023-1.95-.745-2.583-.53-.224.091-.369.144-.369.144.12-.054.244-.1.369-.144,1.061-.429,4.023-1.748,3.247-2.808-.66-.9-2.781-.578-2.781-.578s3.637-2.845,1.669-3.016a10.225,10.225,0,0,0-4.3.9s2.332-2.182,1.219-2.439c-.581-.134-7.5,2.591-15.811,7.571,2.339,3.589,6.04,9.023,8.345,12.387Z" fill="#e28b6d"/>
        <path id="Trazado_155348" data-name="Trazado 155348" d="M163.362,214.16l-6.867-20.043-13.24,6.271c1.822,7.712,3.934,15.655,3.934,15.655-27.341,9.755-56.479-8.857-56.479-8.857l12.559-13.031c-2.305-3.365-6.006-8.8-8.345-12.387a92.424,92.424,0,0,0-18.029,13.811,19.315,19.315,0,0,0-2.022,24.752l16.18,20.4,47.922,3.808,17.672-11.229a16.393,16.393,0,0,0,6.717-19.15Z" fill="#fbc343"/>
        <path id="Trazado_155349" data-name="Trazado 155349" d="M74.655,198.327a12.577,12.577,0,0,1,1.7,5.333,16.863,16.863,0,0,1-4.021,11.707c.093.273.212.536.317.8A17.738,17.738,0,0,0,77.123,203.6a13.35,13.35,0,0,0-1.993-5.952c-.163.224-.319.452-.475.682" fill="#fff"/>
        <path id="Trazado_155350" data-name="Trazado 155350" d="M163.914,216.251a15.347,15.347,0,0,0-5.87,5.551,15.8,15.8,0,0,0-1.662,11.675l.262-.167c.143-.091.273-.2.413-.293a15,15,0,0,1,1.648-10.82,14.563,14.563,0,0,1,5.333-5.148c-.039-.266-.07-.533-.124-.8" fill="#fff"/>
        <path id="Trazado_155351" data-name="Trazado 155351" d="M139.118,266.676a60.419,60.419,0,0,1-20.834,2.875,93.354,93.354,0,0,1-15.35-2.622c-2.8-.64-5.685-1.3-8.556-1.8a48.913,48.913,0,0,0-13.058-.713q-.083.393-.164.786a47.841,47.841,0,0,1,13.089.685c2.851.5,5.731,1.158,8.517,1.8a93.5,93.5,0,0,0,15.478,2.641q1.38.078,2.748.077a63.511,63.511,0,0,0,18.138-2.911c0-.276-.005-.541-.008-.818" fill="#fff"/>
        <path id="Trazado_155352" data-name="Trazado 155352" d="M102.681,216.639a19.946,19.946,0,0,0,.822-3.217c-.247-.1-.493-.193-.734-.289a17.9,17.9,0,0,1-.822,3.272,21.492,21.492,0,0,0-.8,2.984c-.934,5.6,3.147,11.808,9.1,13.83a16.271,16.271,0,0,0,5.238.834,22.049,22.049,0,0,0,11.749-3.639c5.046-3.236,8.825-7.987,11.868-12.278-.354.06-.708.108-1.062.16-2.925,4.066-6.519,8.454-11.222,11.47-5.277,3.386-11.381,4.406-16.323,2.724-5.608-1.9-9.459-7.725-8.584-12.974a20.861,20.861,0,0,1,.77-2.877" fill="#fff"/>
        <path id="Trazado_155353" data-name="Trazado 155353" d="M156.345,193.677a60.172,60.172,0,0,0-6.447-13.354c-1.127-1.732-2.17-3.122-2.709-3.3-1.144-.381-.448,3.409-.013,5.388.181.677.27,1.159.27,1.159s-.12-.472-.27-1.159c-.4-1.476-1.233-3.88-2.554-4.233-1.636-.437-.217,4.862.247,6.466.092.275.138.465.138.465s-.055-.182-.138-.465a4.035,4.035,0,0,0-1.916-2.487c-1.54-.642.642,6.931.642,6.931s-1.2-3.423-2.738-3.038c-.743.186.7,7.162,2.4,14.339l13.239-6.271Z" fill="#e28b6d"/>
        <path id="Trazado_155354" data-name="Trazado 155354" d="M61.976,187.465a9.686,9.686,0,0,1-8.244-5.416,12.135,12.135,0,0,1-2.791.993c-3.252.707-6.587-.452-8.109-2.818a7.724,7.724,0,0,1-1-5.054c-3.22,1.7-7.48,2.56-9.684-.271-1.65-2.119-1.04-5.056-.437-7.082A43.417,43.417,0,0,1,45.28,147.152l.66.787A42.382,42.382,0,0,0,32.695,168.11c-.855,2.873-.771,4.83.263,6.158,1.207,1.55,4.269,2.4,8.928-.3l.133-.078a23.17,23.17,0,0,1,.561-2.263,56.482,56.482,0,0,1,9.574-18.612c2.141-2.74,4.483-3.834,6.425-3a4.279,4.279,0,0,1,2.272,4.309,10.027,10.027,0,0,1-1.771,4.42,48.439,48.439,0,0,1-16.13,15.792,7.269,7.269,0,0,0,.745,5.136c1.511,2.348,4.7,2.874,7.028,2.37a11.227,11.227,0,0,0,2.617-.942,9.689,9.689,0,0,1,2.01-9.629c1.336-1.438,2.953-2.04,4.324-1.61a3.045,3.045,0,0,1,1.79,1.559,4.353,4.353,0,0,1,.278,3.253,9.383,9.383,0,0,1-3.248,4.1,27.57,27.57,0,0,1-3.855,2.789,8.767,8.767,0,0,0,7.37,4.877Zm-3.2-16.717a4,4,0,0,0-2.673,1.418,8.775,8.775,0,0,0-1.846,8.431,27.257,27.257,0,0,0,3.579-2.611,8.415,8.415,0,0,0,2.926-3.625,3.348,3.348,0,0,0-.209-2.47,2.064,2.064,0,0,0-1.187-1.055,1.973,1.973,0,0,0-.591-.088Zm-1.541-19.987c-1.8,0-3.532,1.94-4.27,2.884a55.447,55.447,0,0,0-9.4,18.27c-.118.4-.233.814-.337,1.241A47.418,47.418,0,0,0,58.209,158.2a9.15,9.15,0,0,0,1.618-3.958,3.284,3.284,0,0,0-1.653-3.282,2.376,2.376,0,0,0-.94-.194Z" fill="#102048"/>
        <rect id="Rectángulo_8562" data-name="Rectángulo 8562" width="598.338" height="1.027" transform="translate(0 337.757)" fill="#102048"/>
      </g>
    </g>
  </g>
</svg>
