<svg xmlns="http://www.w3.org/2000/svg" width="108" height="108" viewBox="0 0 108 108">
  <g id="Grupo_87313" data-name="Grupo 87313" transform="translate(-351 -706)">
    <circle id="Elipse_4052" data-name="Elipse 4052" cx="54" cy="54" r="54" transform="translate(351 706)" fill="#fcc14a"/>
    <g id="Grupo_86918" data-name="Grupo 86918" transform="translate(364.201 725)">
      <path id="Trazado_152715" data-name="Trazado 152715" d="M144.251,5.493a1.131,1.131,0,0,0-.768-.4L91.67.669A1.128,1.128,0,0,0,90.447,1.7L85.06,64.776A1.13,1.13,0,0,0,86.09,66L137.9,70.424c.033,0,.065,0,.1,0a1.131,1.131,0,0,0,1.125-1.034l5.387-63.076A1.131,1.131,0,0,0,144.251,5.493Z" transform="translate(-68.952 -0.571)" fill="#d5d9de"/>
      <path id="Trazado_152716" data-name="Trazado 152716" d="M66.543,63.8,58.647.99A1.129,1.129,0,0,0,57.384.01L5.788,6.5a1.13,1.13,0,0,0-.98,1.263L12.7,70.57a1.131,1.131,0,0,0,1.12.99,1.162,1.162,0,0,0,.142-.009l51.6-6.487a1.13,1.13,0,0,0,.98-1.263Z" transform="translate(0 0)" fill="#eaecee"/>
      <path id="Trazado_152717" data-name="Trazado 152717" d="M114.111,46.506h-52a1.131,1.131,0,0,0-1.131,1.131v63.306a1.131,1.131,0,0,0,1.131,1.131h52a1.131,1.131,0,0,0,1.131-1.131V47.637A1.131,1.131,0,0,0,114.111,46.506Z" transform="translate(-48.267 -39.955)" fill="#f4f6f7"/>
      <path id="Trazado_152718" data-name="Trazado 152718" d="M155.708,141.46H142.142V127.895a1.131,1.131,0,0,0-1.13-1.13,15.826,15.826,0,1,0,15.826,15.826A1.13,1.13,0,0,0,155.708,141.46Z" transform="translate(-103.429 -108.908)" fill="#55697a"/>
      <path id="Trazado_152719" data-name="Trazado 152719" d="M262.753,94.661a1.131,1.131,0,0,0-1.131,1.131v14.7a1.131,1.131,0,0,0,1.131,1.131h14.7a1.131,1.131,0,0,0,1.13-1.131A15.845,15.845,0,0,0,262.753,94.661Z" transform="translate(-220.648 -81.327)" fill="#fd8e61"/>
      <path id="Trazado_152720" data-name="Trazado 152720" d="M318.93,95.679a1.131,1.131,0,0,1-.939-1.758l4.522-6.783a1.13,1.13,0,0,1,.941-.5h5.652a1.131,1.131,0,0,1,0,2.261h-5.047l-4.186,6.279A1.129,1.129,0,0,1,318.93,95.679Z" transform="translate(-268.914 -74.432)" fill="#6b7b8b"/>
      <path id="Trazado_152721" data-name="Trazado 152721" d="M294.629,282.532H284.455A1.131,1.131,0,0,1,283.5,282l-5.652-9.044a1.13,1.13,0,1,1,1.917-1.2l5.32,8.512h9.548a1.13,1.13,0,0,1,0,2.261Z" transform="translate(-234.437 -233.023)" fill="#95a1ac"/>
      <g id="Grupo_86917" data-name="Grupo 86917" transform="translate(18.365 52.9)">
        <path id="Trazado_152722" data-name="Trazado 152722" d="M111.281,377.822h-9.044a1.13,1.13,0,1,1,0-2.261h9.044a1.13,1.13,0,0,1,0,2.261Z" transform="translate(-101.107 -375.561)" fill="#d5d9de"/>
        <path id="Trazado_152723" data-name="Trazado 152723" d="M207.59,377.822h-9.044a1.13,1.13,0,1,1,0-2.261h9.044a1.13,1.13,0,1,1,0,2.261Z" transform="translate(-183.85 -375.561)" fill="#d5d9de"/>
        <path id="Trazado_152724" data-name="Trazado 152724" d="M116.934,417.951h-14.7a1.13,1.13,0,1,1,0-2.261h14.7a1.13,1.13,0,1,1,0,2.261Z" transform="translate(-101.107 -410.038)" fill="#d5d9de"/>
        <path id="Trazado_152725" data-name="Trazado 152725" d="M242.067,417.951h-3.391a1.13,1.13,0,1,1,0-2.261h3.391a1.13,1.13,0,1,1,0,2.261Z" transform="translate(-218.327 -410.038)" fill="#d5d9de"/>
        <path id="Trazado_152726" data-name="Trazado 152726" d="M106.759,458.08h-4.522a1.13,1.13,0,1,1,0-2.261h4.522a1.13,1.13,0,1,1,0,2.261Z" transform="translate(-101.107 -444.514)" fill="#d5d9de"/>
        <path id="Trazado_152727" data-name="Trazado 152727" d="M180.009,458.08H166.444a1.13,1.13,0,0,1,0-2.261h13.566a1.13,1.13,0,0,1,0,2.261Z" transform="translate(-156.269 -444.514)" fill="#d5d9de"/>
      </g>
    </g>
  </g>
</svg>
