<svg xmlns="http://www.w3.org/2000/svg" xmlns:xlink="http://www.w3.org/1999/xlink" width="190" height="196.193" viewBox="0 0 190 196.193">
  <defs>
    <clipPath id="clip-path">
      <rect id="Rectángulo_8353" data-name="Rectángulo 8353" width="77.441" height="186.388" fill="none"/>
    </clipPath>
  </defs>
  <g id="Grupo_87696" data-name="Grupo 87696" transform="translate(-1125 -21314.807)">
    <ellipse id="Elipse_4137" data-name="Elipse 4137" cx="95" cy="10.5" rx="95" ry="10.5" transform="translate(1125 21490)" fill="#e8e8e8"/>
    <g id="calculadora_1_" data-name="calculadora (1)" transform="translate(1128 21363.121)">
      <path id="Trazado_154989" data-name="Trazado 154989" d="M156.5,129.444V8.63A8.63,8.63,0,0,0,147.87,0H48.63A8.63,8.63,0,0,0,40,8.63V129.444a8.63,8.63,0,0,0,8.63,8.63h99.24A8.63,8.63,0,0,0,156.5,129.444Z" fill="#35495c"/>
      <path id="Trazado_154990" data-name="Trazado 154990" d="M330.157,360h25.889a2.158,2.158,0,0,1,2.157,2.157v25.889a2.158,2.158,0,0,1-2.157,2.157H330.157A2.158,2.158,0,0,1,328,388.046V362.157A2.158,2.158,0,0,1,330.157,360Z" transform="translate(-210.334 -262.917)" fill="#b0c4d9"/>
      <path id="Trazado_154991" data-name="Trazado 154991" d="M74.157,40h94.925a2.158,2.158,0,0,1,2.157,2.157V80.99a2.158,2.158,0,0,1-2.157,2.157H74.157A2.158,2.158,0,0,1,72,80.99V42.157A2.158,2.158,0,0,1,74.157,40Z" transform="translate(-23.37 -29.213)" fill="#89c763"/>
      <g id="Grupo_87690" data-name="Grupo 87690" transform="translate(48.63 97.083)">
        <path id="Trazado_154992" data-name="Trazado 154992" d="M74.157,360h25.889a2.158,2.158,0,0,1,2.157,2.157v25.889a2.158,2.158,0,0,1-2.157,2.157H74.157A2.158,2.158,0,0,1,72,388.046V362.157A2.158,2.158,0,0,1,74.157,360Z" transform="translate(-72 -360)" fill="#576d7e"/>
        <path id="Trazado_154993" data-name="Trazado 154993" d="M202.157,360h25.889a2.158,2.158,0,0,1,2.157,2.157v25.889a2.158,2.158,0,0,1-2.157,2.157H202.157A2.158,2.158,0,0,1,200,388.046V362.157A2.158,2.158,0,0,1,202.157,360Z" transform="translate(-165.482 -360)" fill="#576d7e"/>
      </g>
      <path id="Trazado_154994" data-name="Trazado 154994" d="M330.157,232h25.889a2.158,2.158,0,0,1,2.157,2.157v25.889a2.158,2.158,0,0,1-2.157,2.157H330.157A2.158,2.158,0,0,1,328,260.046V234.157A2.158,2.158,0,0,1,330.157,232Z" transform="translate(-210.334 -169.436)" fill="#de333f"/>
      <g id="Grupo_87691" data-name="Grupo 87691" transform="translate(48.63 62.564)">
        <path id="Trazado_154995" data-name="Trazado 154995" d="M74.157,232h25.889a2.158,2.158,0,0,1,2.157,2.157v25.889a2.158,2.158,0,0,1-2.157,2.157H74.157A2.158,2.158,0,0,1,72,260.046V234.157A2.158,2.158,0,0,1,74.157,232Z" transform="translate(-72 -232)" fill="#576d7e"/>
        <path id="Trazado_154996" data-name="Trazado 154996" d="M202.157,232h25.889a2.158,2.158,0,0,1,2.157,2.157v25.889a2.158,2.158,0,0,1-2.157,2.157H202.157A2.158,2.158,0,0,1,200,260.046V234.157A2.158,2.158,0,0,1,202.157,232Z" transform="translate(-165.482 -232)" fill="#576d7e"/>
      </g>
      <g id="Grupo_87692" data-name="Grupo 87692" transform="translate(55.102 69.037)">
        <path id="Trazado_154997" data-name="Trazado 154997" d="M111.1,262.472h-4.315v-4.315a2.157,2.157,0,1,0-4.315,0v4.315H98.157a2.157,2.157,0,1,0,0,4.315h4.315V271.1a2.157,2.157,0,0,0,4.315,0v-4.315H111.1a2.157,2.157,0,1,0,0-4.315Z" transform="translate(-96 -256)" fill="#e2e5e7"/>
        <path id="Trazado_154998" data-name="Trazado 154998" d="M239.1,284.315H226.157a2.157,2.157,0,1,1,0-4.315H239.1a2.157,2.157,0,0,1,0,4.315Z" transform="translate(-189.482 -273.528)" fill="#e2e5e7"/>
      </g>
      <g id="Grupo_87693" data-name="Grupo 87693" transform="translate(124.138 105.712)">
        <path id="Trazado_154999" data-name="Trazado 154999" d="M354.157,396.315H367.1a2.157,2.157,0,1,0,0-4.315H354.157a2.157,2.157,0,1,0,0,4.315Z" transform="translate(-352 -392)" fill="#35495c"/>
        <path id="Trazado_155000" data-name="Trazado 155000" d="M367.1,424H354.157a2.157,2.157,0,0,0,0,4.315H367.1a2.157,2.157,0,0,0,0-4.315Z" transform="translate(-352 -415.37)" fill="#35495c"/>
      </g>
      <g id="Grupo_87694" data-name="Grupo 87694" transform="translate(89.62 66.879)">
        <path id="Trazado_155001" data-name="Trazado 155001" d="M239.1,408H226.157a2.157,2.157,0,0,0,0,4.315H239.1a2.157,2.157,0,0,0,0-4.315Z" transform="translate(-224 -364.852)" fill="#e2e5e7"/>
        <ellipse id="Elipse_4135" data-name="Elipse 4135" cx="1.662" cy="2.492" rx="1.662" ry="2.492" transform="translate(6.873 36.3)" fill="#e2e5e7"/>
        <ellipse id="Elipse_4136" data-name="Elipse 4136" cx="1.662" cy="2.492" rx="1.662" ry="2.492" transform="translate(6.873 49.593)" fill="#e2e5e7"/>
        <path id="Trazado_155002" data-name="Trazado 155002" d="M355.037,269.572a11.065,11.065,0,0,1-7.767-3.15,10.659,10.659,0,0,1-.2-15.072c.067-.069.136-.136.2-.2a11.175,11.175,0,0,1,15.555,0,2.174,2.174,0,0,1-3.051,3.1c-.019-.019-.039-.037-.056-.056a6.688,6.688,0,0,0-9.342,0,6.471,6.471,0,0,0-.015,9.154l.015.015a6.688,6.688,0,0,0,9.342,0,2.157,2.157,0,0,1,3.051-.056c.019.019.039.037.056.056a2.157,2.157,0,0,1,.013,3.051l-.013.013A11.069,11.069,0,0,1,355.037,269.572Z" transform="translate(-311.673 -247.998)" fill="#e2e5e7"/>
      </g>
      <path id="Trazado_155003" data-name="Trazado 155003" d="M169.083,40H74.157A2.158,2.158,0,0,0,72,42.157v4.315a2.158,2.158,0,0,1,2.157-2.157h94.925a2.158,2.158,0,0,1,2.157,2.157V42.157A2.158,2.158,0,0,0,169.083,40Z" transform="translate(-23.37 -29.213)" fill="#3cb54a"/>
      <path id="Trazado_155004" data-name="Trazado 155004" d="M354.787,105.889h-4.315A6.472,6.472,0,0,1,344,99.417V86.472A6.472,6.472,0,0,1,350.472,80h4.315a6.472,6.472,0,0,1,6.472,6.472V99.417A6.472,6.472,0,0,1,354.787,105.889Zm-4.315-21.574a2.158,2.158,0,0,0-2.157,2.157V99.417a2.158,2.158,0,0,0,2.157,2.157h4.315a2.158,2.158,0,0,0,2.157-2.157V86.472a2.158,2.158,0,0,0-2.157-2.157Z" transform="translate(-222.019 -58.426)" fill="#0e9347"/>
      <path id="Trazado_155005" data-name="Trazado 155005" d="M113.226,398.818l2.783-2.783a2.157,2.157,0,0,0-3.042-3.042l-2.783,2.783-2.783-2.783a2.157,2.157,0,0,0-3.042,3.042l2.783,2.783-2.783,2.783a2.157,2.157,0,0,0,2.807,3.277,2.207,2.207,0,0,0,.235-.235l2.783-2.783,2.783,2.783a2.157,2.157,0,0,0,3.042-3.042Z" transform="translate(-46.453 -286.634)" fill="#e2e5e7"/>
      <path id="Trazado_155006" data-name="Trazado 155006" d="M175.555,36.315v116.5a4.314,4.314,0,0,1-4.315,4.315H76.315A4.314,4.314,0,0,0,72,161.444h99.24a8.63,8.63,0,0,0,8.63-8.63V32h0A4.314,4.314,0,0,0,175.555,36.315Z" transform="translate(-23.37 -23.37)" fill="#123247"/>
      <path id="Trazado_155007" data-name="Trazado 155007" d="M359.731,372.315v19.417H340.315A4.314,4.314,0,0,0,336,396.046h25.889a2.158,2.158,0,0,0,2.157-2.157V368h0A4.314,4.314,0,0,0,359.731,372.315Z" transform="translate(-216.176 -268.76)" fill="#99b5cd"/>
      <path id="Trazado_155008" data-name="Trazado 155008" d="M359.731,244.315v19.417H340.315A4.314,4.314,0,0,0,336,268.046h25.889a2.158,2.158,0,0,0,2.157-2.157V240h0A4.314,4.314,0,0,0,359.731,244.315Z" transform="translate(-216.176 -175.278)" fill="#c61c31"/>
      <g id="Grupo_87695" data-name="Grupo 87695" transform="translate(50.787 64.722)">
        <path id="Trazado_155009" data-name="Trazado 155009" d="M231.731,244.315v19.417H212.315A4.314,4.314,0,0,0,208,268.046h25.889a2.158,2.158,0,0,0,2.157-2.157V240h0A4.314,4.314,0,0,0,231.731,244.315Z" transform="translate(-173.482 -240)" fill="#3f556b"/>
        <path id="Trazado_155010" data-name="Trazado 155010" d="M231.731,372.315v19.417H212.315A4.314,4.314,0,0,0,208,396.046h25.889a2.158,2.158,0,0,0,2.157-2.157V368h0A4.314,4.314,0,0,0,231.731,372.315Z" transform="translate(-173.482 -333.482)" fill="#3f556b"/>
        <path id="Trazado_155011" data-name="Trazado 155011" d="M103.731,244.315v19.417H84.315A4.314,4.314,0,0,0,80,268.046h25.889a2.158,2.158,0,0,0,2.157-2.157V240h0A4.314,4.314,0,0,0,103.731,244.315Z" transform="translate(-80 -240)" fill="#3f556b"/>
        <path id="Trazado_155012" data-name="Trazado 155012" d="M103.731,372.315v19.417H84.315A4.314,4.314,0,0,0,80,396.046h25.889a2.158,2.158,0,0,0,2.157-2.157V368h0A4.314,4.314,0,0,0,103.731,372.315Z" transform="translate(-80 -333.482)" fill="#3f556b"/>
      </g>
      <path id="Trazado_155013" data-name="Trazado 155013" d="M72,0h99.24a4.314,4.314,0,0,1-4.315,4.315H76.315A4.314,4.314,0,0,1,72,0Z" transform="translate(-23.37)" fill="#435970"/>
    </g>
    <g id="Grupo_87689" data-name="Grupo 87689" transform="translate(1125 21314.807)">
      <g id="Grupo_87688" data-name="Grupo 87688" clip-path="url(#clip-path)">
        <path id="Trazado_154975" data-name="Trazado 154975" d="M217.143,43.839c.145.3.3.588.466.868a15.578,15.578,0,0,0,5.271,5.165c1.716,1.113,1.059,3.658.682,5.346a16.411,16.411,0,0,1-2.02,5.007,16.269,16.269,0,0,1-4.265.294,1.978,1.978,0,0,1-.845-.2c-.979-.563-.907-2.841-.98-3.791a23.587,23.587,0,0,1,1.99-11.449c-.733.149-1.467.288-2.2.411.259.161.549.371.566.683.035.644-.373.642-.844.844a7.91,7.91,0,0,1-1.882.268,20.423,20.423,0,0,1-6.126.05,2.09,2.09,0,0,1-.2.348,45.114,45.114,0,0,1-3.182,3.763q-3.279,3.786-6.742,7.405c-.21.219-.43.428-.641.647l.264.057-7.44,1.885-.232.059c-.277.07-.17.432.083.433.014,0,.023.011.039.009l1.211-.192a.168.168,0,0,0,.149-.153l6.955-1.762a.2.2,0,0,0,.116-.09c1.888.419,3.771.857,5.647,1.33,5.252,1.325,11.27,2.305,16.028,5.219a81.733,81.733,0,0,1-1.384,9.695A30.986,30.986,0,0,1,216.2,81.5a6.412,6.412,0,0,1-2.371,3.3,4.661,4.661,0,0,1-5.5-.848l1.509-2.994.042-.224-.125-.122c-1.128-.715-2.225-1.565-3.389-2.183-1.033-.549-2.208-.807-3.255-1.33-2.344-1.171-4.677-2.365-6.978-3.617a72.611,72.611,0,0,1-10.181-6.388,27.4,27.4,0,0,1-2.781-2.331c-1.732-1.517-3.408-3.748-1.855-5.93a16.826,16.826,0,0,1,4.8-4.1c1.959-1.254,3.881-2.566,5.855-3.8a65.963,65.963,0,0,1,11.989-6.137c.158-.058.317-.116.477-.173.427-.152.86-.29,1.292-.428a9.764,9.764,0,0,1,3.23-1.137,19.1,19.1,0,0,1,3.042-.424,26.811,26.811,0,0,1,4.934.052,1.123,1.123,0,0,0-.049.192,1.8,1.8,0,0,0,.244.965" transform="translate(-180.71 -34.504)" fill="#f08162"/>
        <path id="Trazado_154976" data-name="Trazado 154976" d="M133.334,169.379a7.933,7.933,0,0,1-1.748.332,8.372,8.372,0,0,1-5.342-1.341,9.538,9.538,0,0,1-.9-.8c-.066-.066-.125-.136-.19-.2-.214-.225-.421-.457-.614-.7-.065-.082-.126-.166-.188-.249q-.264-.354-.5-.729c-.062-.1-.124-.2-.183-.3-.141-.241-.271-.488-.395-.739-.04-.079-.088-.154-.125-.234-.009-.02-.022-.055-.035-.089-.165-.442-.6-2.019-.984-3.171l-.029-.087a5.62,5.62,0,0,0-.453-1.122,5.448,5.448,0,0,0,.431-.543,9.686,9.686,0,0,0,.663-1.2,10.934,10.934,0,0,0,5.441,3.121q1,.29,2.027.5c.772.163,1.552.284,2.335.383a16.64,16.64,0,0,0,4.26,3.6,4.324,4.324,0,0,1-.416,1.178h0a4.936,4.936,0,0,1-3.053,2.389" transform="translate(-82.346 -128.312)" fill="#f08162"/>
        <path id="Trazado_154977" data-name="Trazado 154977" d="M41.77,223.771c-.168-.774-.342-1.485-.55-2.151.664,1.028,1.218,2.062,1.6,2.688l.15.247a48.946,48.946,0,0,1,4.2,9.031A109,109,0,0,1,51.246,250.2a149.825,149.825,0,0,1,2.228,15.63,73.17,73.17,0,0,1,.209,7.857,60.26,60.26,0,0,1-.8,7.657,9.745,9.745,0,0,1,.174,1.675,16.857,16.857,0,0,1-.05,3.283.826.826,0,0,1-.22.563c-.158.133-.469.07-.482-.136a12.581,12.581,0,0,1-.4,3.214,1.323,1.323,0,0,1-.344.69.49.49,0,0,1-.7-.015,3.186,3.186,0,0,1-.686,2.214.778.778,0,0,1-.729.371c-.5-.127-.393-.893-.7-1.3a.426.426,0,0,1-.264.642.691.691,0,0,1-.7-.358,2,2,0,0,1-.218-.8q-.263-2.079-.465-4.164c-.348.98-.084,2.3-1.042,3.047-.109.085-.281.145-.371.04l-.054-.157a19.485,19.485,0,0,1,.8-7.968,1.373,1.373,0,0,1,.29-.617,1.332,1.332,0,0,1,.471-.273c.108-.043.248-.1.389-.149a23.969,23.969,0,0,0-.446-5.653,142.846,142.846,0,0,0-5.456-22.251c-.871-2.605-1.819-5.184-2.789-7.754,1.315-4.223,2.921-8.194,3.346-12.727a29.441,29.441,0,0,0-.474-8.987" transform="translate(16.379 -179.744)" fill="#f08162"/>
        <path id="Trazado_154978" data-name="Trazado 154978" d="M155.583,945.124l-.046-.306h.282s.97,5.055.672,7.484H134.11s.3-3.172,2.825-4.362c2.19-1.031,10.7-3.063,12.934-3.589l.531,1.51c3.5,2.747,5.183-.737,5.183-.737" transform="translate(-104.446 -765.915)" fill="#280f0e"/>
        <path id="Trazado_154979" data-name="Trazado 154979" d="M0,952.664s.3-3.172,2.825-4.362c2.086-.982,9.906-2.873,12.576-3.5l.265.587c3.186,2.711,5.4.159,5.4.159l-.081-.364h.723s.97,5.055.673,7.484Z" transform="translate(55.005 -766.277)" fill="#280f0e"/>
        <path id="Trazado_154980" data-name="Trazado 154980" d="M20.256,815.157l-.265-.587-2.39-5.288-10.342-21.6c3.076-.641,6.129-1.415,9.145-2.282a15.411,15.411,0,0,0,2.441-1.166c.152.621.3,1.241.454,1.864,2.082,8.6,4.234,18.931,5.871,27.03l.4,1.828.081.364s-2.213,2.552-5.4-.159" transform="translate(50.415 -636.048)" fill="#fcc14a"/>
        <path id="Trazado_154981" data-name="Trazado 154981" d="M49.008,737.622,43.3,725.7a90.469,90.469,0,0,0,14.375-3.186q1.5,5.789,2.919,11.662a15.412,15.412,0,0,1-2.441,1.165c-3.016.867-6.069,1.641-9.145,2.282" transform="translate(8.666 -585.993)" fill="#f08162"/>
        <path id="Trazado_154982" data-name="Trazado 154982" d="M78.615,489.446a.18.18,0,0,0,.149-.2c-.4-5.132-1-10.228-1.173-15.373a12.843,12.843,0,0,0,5.516-.285.229.229,0,0,0-.122-.442,12.319,12.319,0,0,1-4.993.317,32.281,32.281,0,0,0,11.161-2.814c.268-.122.035-.517-.231-.4a31.918,31.918,0,0,1-19.3,2.26c-.289-.057-.411.385-.122.442a32.222,32.222,0,0,0,7.311.585c.1,0,.2,0,.306-.008.088,2.98.328,5.943.594,8.905.2,2.268.42,4.535.6,6.809a.234.234,0,0,0,.236.217c.533,4.652,1.1,9.854,1.666,15.127-1.785.221-3.575.422-5.364.618a32.781,32.781,0,0,1-10.111-.67c-4.511-19.585-5.8-33.677-5.983-42.768.019-1.462.086-4.358.1-4.751a29.6,29.6,0,0,1,.94-7.851c1.34.566,1.353,5.071,1.7,6.482.521,2.115,1.649,4.282,3.656,5.127.706.3,1.485.415,2.159.779,1.785.968,2.293,3.308,3.754,4.717a4.656,4.656,0,0,0,3.65,1.261,7.949,7.949,0,0,0,1.948-.519,7.51,7.51,0,0,1,3.838-.827c.838.146,1.595.618,2.436.749,1.732.27,1.919-.6,2.208-1.876a4.7,4.7,0,0,1,2.343-3.438c.745-.4,1.582-.608,2.355-.955a5,5,0,0,0,.575-.3,23.77,23.77,0,0,1,.179,6.187,20.872,20.872,0,0,0-.283,4.379,14.541,14.541,0,0,0,.781,3.044c3,8.949,5.517,17.833,7.849,26.84A90.428,90.428,0,0,1,84.561,504Z" transform="translate(-32.595 -364.298)" fill="#7486a1"/>
        <path id="Trazado_154983" data-name="Trazado 154983" d="M161.536,742.881c1.789-.2,3.578-.4,5.364-.617.459,4.3.865,8.65,1.219,12.774a73.479,73.479,0,0,1-12.6.391,114.346,114.346,0,0,1-4.092-13.217,32.781,32.781,0,0,0,10.111.67" transform="translate(-119.289 -601.969)" fill="#f08162"/>
        <path id="Trazado_154984" data-name="Trazado 154984" d="M151.816,810.091c.771,9.014,1.286,16.962,1.533,21.063l.727,4.773.047.306s-1.687,3.484-5.183.737l-.531-1.51-.733-2.084-.024,0c-2.825-8.4-5.9-15.914-8.438-22.891a73.491,73.491,0,0,0,12.6-.391" transform="translate(-102.987 -657.023)" fill="#fcc14a"/>
        <path id="Trazado_154985" data-name="Trazado 154985" d="M130.471,232.879a4.7,4.7,0,0,0-2.343,3.438c-.289,1.274-.477,2.145-2.208,1.875-.841-.131-1.6-.6-2.436-.749a7.51,7.51,0,0,0-3.838.827,7.951,7.951,0,0,1-1.949.519,4.654,4.654,0,0,1-3.649-1.261c-1.462-1.409-1.97-3.749-3.754-4.717-.674-.365-1.452-.482-2.159-.779-2.007-.845-3.135-3.012-3.657-5.127-.348-1.411-.36-5.916-1.7-6.482a29.6,29.6,0,0,0-.94,7.852c-.012.393-.078,3.289-.1,4.751-.007.5-.007.834,0,.84-1.05-.731-1.071-2.448-2.181-3.086-.79-.454-1.967-.243-2.485-.993s.076-1.716.609-2.44a27.623,27.623,0,0,0,4.05-8.527c1.03-3.294,2.731-6.371,3.812-9.659,1.282-3.9,2.41-8.487.448-12.368-.75-1.482-1.9-2.726-2.769-4.139a7.848,7.848,0,0,1-1.177-4.344c.006-.215.8-3.673,1-3.461.05.053.111.1.163.148a4.661,4.661,0,0,0,5.5.848,6.412,6.412,0,0,0,2.371-3.3,31,31,0,0,0,1.421-5.512,81.772,81.772,0,0,0,1.384-9.695c0-.056.011-.113.015-.169a6.98,6.98,0,0,1,.915-.039c.02,0,.044.023.07.059a5.644,5.644,0,0,1,.453,1.122l.029.087c.379,1.152.819,2.729.984,3.171.012.034.026.069.035.089.038.08.086.155.125.234.124.251.254.5.395.739.059.1.121.2.183.3q.235.375.5.73c.062.083.123.167.188.249.193.243.4.475.614.7.064.067.123.138.19.2a9.534,9.534,0,0,0,.9.8,8.371,8.371,0,0,0,5.342,1.341,7.919,7.919,0,0,0,1.748-.331,4.935,4.935,0,0,0,3.053-2.389,4.315,4.315,0,0,0,.416-1.178,7.577,7.577,0,0,1,3.142,4.376c.208.666.382,1.377.55,2.151a29.435,29.435,0,0,1,.475,8.987c-.426,4.533-2.032,8.5-3.346,12.727-.082.265-.167.527-.247.793-1.338,4.482-1.184,9.775-.45,14.342A37.587,37.587,0,0,0,132.211,224c.642,1.658,3.018,4.457,2.413,6.227a2.736,2.736,0,0,1-1.223,1.391,5.047,5.047,0,0,1-.575.3c-.774.347-1.611.55-2.355.955" transform="translate(-75.586 -135.551)" fill="#fcc14a"/>
        <path id="Trazado_154986" data-name="Trazado 154986" d="M118.873,579.658c-.175-2.274-.391-4.542-.6-6.809-.266-2.962-.506-5.925-.594-8.905-.1,0-.2,0-.306.008a32.227,32.227,0,0,1-7.311-.585c-.289-.057-.167-.5.122-.442a31.916,31.916,0,0,0,19.3-2.26c.266-.121.5.273.231.4a32.279,32.279,0,0,1-11.161,2.815,12.324,12.324,0,0,0,4.993-.317.229.229,0,0,1,.122.442,12.838,12.838,0,0,1-5.516.285c.172,5.145.778,10.242,1.173,15.373a.18.18,0,0,1-.149.2.219.219,0,0,1-.31-.2" transform="translate(-73.164 -454.707)" fill="#395c8e"/>
        <path id="Trazado_154987" data-name="Trazado 154987" d="M330.384,132.022a.2.2,0,0,1-.116.09l-6.956,1.762a.168.168,0,0,1-.149.153l-1.211.192c-.015,0-.024-.008-.039-.009-.253,0-.36-.364-.083-.433l.233-.059,7.44-1.885.642-.163a.228.228,0,0,1,.238.352" transform="translate(-313.76 -106.785)" fill="#552c2d"/>
        <path id="Trazado_154988" data-name="Trazado 154988" d="M90.4,33.015a10.933,10.933,0,0,1-5.441-3.121,5.838,5.838,0,0,1-.773-1.156A1.44,1.44,0,0,1,84,28.063a1.75,1.75,0,0,1,.459-.936,16.25,16.25,0,0,0,.94-1.405,16.424,16.424,0,0,0,2.02-5.007c.377-1.687,1.033-4.233-.682-5.346A15.574,15.574,0,0,1,81.468,10.2c-.163-.28-.321-.567-.466-.868a1.8,1.8,0,0,1-.244-.965,1.113,1.113,0,0,1,.05-.192,2.5,2.5,0,0,1,.151-.381A14.16,14.16,0,0,1,88.729.671a13.087,13.087,0,0,1,12.994,2.791,16.09,16.09,0,0,1,2.161,2.564,13.955,13.955,0,0,1,2.025,6.925c.263,5.175-1.333,10.109-.449,15.3a20.418,20.418,0,0,0,1.293,4.669,29.083,29.083,0,0,1-11.987.98c-.783-.1-1.562-.221-2.335-.383q-1.022-.215-2.027-.5" transform="translate(-44.568 -0.001)" fill="#700c0f"/>
      </g>
    </g>
  </g>
</svg>
