<svg xmlns="http://www.w3.org/2000/svg" width="108" height="108" viewBox="0 0 108 108">
  <g id="Grupo_87314" data-name="Grupo 87314" transform="translate(-614 -706)">
    <circle id="Elipse_4053" data-name="Elipse 4053" cx="54" cy="54" r="54" transform="translate(614 706)" fill="#fcc14a"/>
    <g id="Grupo_86916" data-name="Grupo 86916" transform="translate(242.671 160)">
      <g id="Grupo_86915" data-name="Grupo 86915" transform="translate(387 566)">
        <path id="Trazado_152697" data-name="Trazado 152697" d="M69.919,0H25.348A4.353,4.353,0,0,0,21,4.348V65.226a4.353,4.353,0,0,0,4.348,4.348H69.919a4.353,4.353,0,0,0,4.348-4.348V4.348A4.353,4.353,0,0,0,69.919,0Z" transform="translate(-17.739)" fill="#6b7b8b"/>
        <path id="Trazado_152698" data-name="Trazado 152698" d="M65.571,81.226a1.087,1.087,0,0,0,1.087-1.087V17.087A1.087,1.087,0,0,0,65.571,16H21.585A4.32,4.32,0,0,0,21,18.174V79.052a4.32,4.32,0,0,0,.585,2.174Z" transform="translate(-17.739 -13.826)" fill="#55697a"/>
        <path id="Trazado_152699" data-name="Trazado 152699" d="M330.435,96h-4.348A1.087,1.087,0,0,0,325,97.087v10.871a1.087,1.087,0,0,0,1.087,1.087h4.348a2.174,2.174,0,0,0,2.174-2.174v-8.7A2.174,2.174,0,0,0,330.435,96Z" transform="translate(-278.035 -82.955)" fill="#fd8e61"/>
        <path id="Trazado_152700" data-name="Trazado 152700" d="M330.435,208h-4.348A1.087,1.087,0,0,0,325,209.087v10.871a1.087,1.087,0,0,0,1.087,1.087h4.348a2.174,2.174,0,0,0,2.174-2.174v-8.7A2.174,2.174,0,0,0,330.435,208Z" transform="translate(-278.035 -179.736)" fill="#fddd88"/>
        <path id="Trazado_152701" data-name="Trazado 152701" d="M330.435,320h-4.348A1.087,1.087,0,0,0,325,321.087v10.871a1.087,1.087,0,0,0,1.087,1.087h4.348a2.174,2.174,0,0,0,2.174-2.174v-8.7A2.174,2.174,0,0,0,330.435,320Z" transform="translate(-278.035 -276.516)" fill="#49dfe5"/>
        <path id="Trazado_152702" data-name="Trazado 152702" d="M29,41.325V97.378A1.325,1.325,0,0,0,30.325,98.7h38.66a1.325,1.325,0,0,0,1.325-1.325V41.325A1.325,1.325,0,0,0,68.985,40H30.325A1.325,1.325,0,0,0,29,41.325Zm6.787,44.323a3.262,3.262,0,1,1,2.986-2.986A3.262,3.262,0,0,1,35.787,85.648Zm0-13.045a3.262,3.262,0,1,1,2.986-2.986A3.262,3.262,0,0,1,35.787,72.6Zm0-13.045a3.262,3.262,0,1,1,2.986-2.986A3.262,3.262,0,0,1,35.787,59.557Z" transform="translate(-24.652 -34.565)" fill="#f4f6f7"/>
        <g id="Grupo_86913" data-name="Grupo 86913" transform="translate(0 20.655)">
          <path id="Trazado_152703" data-name="Trazado 152703" d="M5.7,154.174h-7.61A1.087,1.087,0,0,1-3,153.087,1.087,1.087,0,0,1-1.913,152H5.7a1.087,1.087,0,0,1,0,2.174Z" transform="translate(3 -152)" fill="#d5d9de"/>
          <path id="Trazado_152704" data-name="Trazado 152704" d="M5.7,250.174h-7.61A1.087,1.087,0,0,1-3,249.087,1.087,1.087,0,0,1-1.913,248H5.7a1.087,1.087,0,1,1,0,2.174Z" transform="translate(3 -234.955)" fill="#d5d9de"/>
          <path id="Trazado_152705" data-name="Trazado 152705" d="M5.7,346.174h-7.61A1.087,1.087,0,0,1-3,345.087,1.087,1.087,0,0,1-1.913,344H5.7a1.087,1.087,0,1,1,0,2.174Z" transform="translate(3 -317.91)" fill="#d5d9de"/>
          <path id="Trazado_152706" data-name="Trazado 152706" d="M134,154.174H110.087a1.087,1.087,0,0,1,0-2.174H134a1.087,1.087,0,0,1,0,2.174Z" transform="translate(-93.781 -152)" fill="#d5d9de"/>
          <path id="Trazado_152707" data-name="Trazado 152707" d="M134,250.174H110.087a1.087,1.087,0,1,1,0-2.174H134a1.087,1.087,0,0,1,0,2.174Z" transform="translate(-93.781 -234.955)" fill="#d5d9de"/>
          <path id="Trazado_152708" data-name="Trazado 152708" d="M134,346.174H110.087a1.087,1.087,0,1,1,0-2.174H134a1.087,1.087,0,1,1,0,2.174Z" transform="translate(-93.781 -317.91)" fill="#d5d9de"/>
        </g>
        <g id="Grupo_86914" data-name="Grupo 86914" transform="translate(64.75 5.435)">
          <path id="Trazado_152709" data-name="Trazado 152709" d="M470.086,315.345a1.087,1.087,0,0,1-.044-2.173l2.219-.093V298.087a1.087,1.087,0,1,1,2.174,0v16.035a1.087,1.087,0,0,1-1.042,1.086l-3.261.136Z" transform="translate(-466.282 -262.077)" fill="#55697a"/>
          <path id="Trazado_152710" data-name="Trazado 152710" d="M450.087,46.523A1.087,1.087,0,0,1,449,45.435V41.087a1.087,1.087,0,1,1,2.174,0v4.348A1.087,1.087,0,0,1,450.087,46.523Z" transform="translate(-449 -40)" fill="#55697a"/>
        </g>
        <path id="Trazado_152711" data-name="Trazado 152711" d="M442.435,112.613l-3.261,2.174L437,112.613v-29.9A2.718,2.718,0,0,1,439.718,80h0a2.718,2.718,0,0,1,2.718,2.718Z" transform="translate(-373.881 -69.129)" fill="#fddd88"/>
        <path id="Trazado_152712" data-name="Trazado 152712" d="M440.8,80.228a2.716,2.716,0,0,0-3.8,2.49v29.9l1.087,1.087,1.087-1.087v-29.9A2.717,2.717,0,0,1,440.8,80.228Z" transform="translate(-373.881 -69.129)" fill="#fcd56a"/>
        <path id="Trazado_152713" data-name="Trazado 152713" d="M442.435,320v16.306a2.174,2.174,0,0,1-2.174,2.174h-1.087A2.174,2.174,0,0,1,437,336.308V320" transform="translate(-373.881 -276.518)" fill="#76e7eb"/>
        <path id="Trazado_152714" data-name="Trazado 152714" d="M437,320v16.306a2.174,2.174,0,0,0,2.174,2.174h1.087a2.172,2.172,0,0,0,.544-.071,2.173,2.173,0,0,1-1.631-2.1V320" transform="translate(-373.881 -276.518)" fill="#1bd7de"/>
      </g>
    </g>
  </g>
</svg>
