<svg xmlns="http://www.w3.org/2000/svg" width="184" height="187" viewBox="0 0 184 187">
  <g id="Grupo_88172" data-name="Grupo 88172" transform="translate(-966 -14039)">
    <ellipse id="Elipse_4139" data-name="Elipse 4139" cx="92" cy="7" rx="92" ry="7" transform="translate(966 14212)" fill="#f9a2a0"/>
    <g id="Grupo_87242" data-name="Grupo 87242">
      <g id="Grupo_87243" data-name="Grupo 87243">
        <circle id="Elipse_4111" data-name="Elipse 4111" cx="92" cy="92" r="92" transform="translate(966 14039)" fill="#fff"/>
        <g id="Grupo_87238" data-name="Grupo 87238" transform="translate(1004.495 14077.496)">
          <g id="cambio-de-divisas" transform="translate(0 0)">
            <path id="Trazado_154014" data-name="Trazado 154014" d="M96.286,20.631a53.651,53.651,0,0,0-93.357,45l15.838-7.6A36.92,36.92,0,0,1,80.385,28.254L68.518,33.976l9.14,3.212L97.785,44.26l10.284-29.268Z" transform="translate(-2 -2.007)" fill="#7c63a6"/>
            <path id="Trazado_154015" data-name="Trazado 154015" d="M112.587,203,96.9,210.539A36.924,36.924,0,0,1,35.363,241.58l11.889-5.7-29.268-10.3L7.7,254.863,19.5,249.2A53.626,53.626,0,0,0,112.587,203Z" transform="translate(-6.496 -160.557)" fill="#e85f5b"/>
            <g id="Grupo_87230" data-name="Grupo 87230" transform="translate(0.038 12.964)">
              <path id="Trazado_154016" data-name="Trazado 154016" d="M3.07,261.614a53.979,53.979,0,0,1-.887-8.214,52.231,52.231,0,0,0,.887,10.537l15.838-7.6q-.063-1.14-.063-2.281Z" transform="translate(-2.179 -213.278)" fill="#3d1f71"/>
              <path id="Trazado_154017" data-name="Trazado 154017" d="M142.9,79.6a36.905,36.905,0,0,0-61.661,28.55,36.88,36.88,0,0,1,59.908-27.684Z" transform="translate(-64.531 -68.641)" fill="#3d1f71"/>
              <path id="Trazado_154018" data-name="Trazado 154018" d="M346.268,90.366l-26.48-9.312L317,82.405l29.268,10.284L356.552,63.4l-.971.465Z" transform="translate(-250.52 -63.4)" fill="#3d1f71"/>
            </g>
            <g id="Grupo_87231" data-name="Grupo 87231" transform="translate(1.204 49.897)">
              <path id="Trazado_154019" data-name="Trazado 154019" d="M430.327,238.3l-.127.063c.084.781.106,1.542.148,2.323C430.348,239.884,430.348,239.1,430.327,238.3Z" transform="translate(-340.982 -238.3)" fill="#be3f3b"/>
              <path id="Trazado_154020" data-name="Trazado 154020" d="M140.553,359.928l10.136-4.857L147.9,354.1l-9.1,4.371C139.349,358.957,139.94,359.443,140.553,359.928Z" transform="translate(-111.116 -329.647)" fill="#be3f3b"/>
              <path id="Trazado_154021" data-name="Trazado 154021" d="M83.34,297.559A53.706,53.706,0,0,1,19.5,284.192L8.671,289.387,7.7,292.175l11.8-5.659A53.6,53.6,0,0,0,113.727,250.3,53.653,53.653,0,0,1,83.34,297.559Z" transform="translate(-7.7 -247.766)" fill="#be3f3b"/>
            </g>
            <g id="Grupo_87232" data-name="Grupo 87232" transform="translate(38.264 30.005)">
              <path id="Trazado_154022" data-name="Trazado 154022" d="M197.306,191.338v-4.16A24.987,24.987,0,0,1,183.2,180.97l4.181-4.962a19.937,19.937,0,0,0,9.9,4.962V169.926c-4.308-1.035-7.475-2.365-9.481-4.054-2.006-1.668-3-4.139-3-7.433a10.4,10.4,0,0,1,3.463-8.067,14.045,14.045,0,0,1,9.017-3.421V144.1h3.674v2.914a24.125,24.125,0,0,1,11.931,4.266l-3.717,5.258a18.19,18.19,0,0,0-8.193-3.294V163.95h.169c4.392,1.035,7.623,2.407,9.693,4.16s3.1,4.287,3.1,7.6a10.292,10.292,0,0,1-3.548,8.109,14.842,14.842,0,0,1-9.4,3.421v4.1Zm-4.033-36.764a4.377,4.377,0,0,0-.317,6.208,11.555,11.555,0,0,0,4.35,2.133v-9.862A6.917,6.917,0,0,0,193.273,154.574Zm12.058,24.981a4.039,4.039,0,0,0,1.6-3.294,4.1,4.1,0,0,0-1.267-3.167,12.361,12.361,0,0,0-4.709-2.2V181.16a8.222,8.222,0,0,0,4.371-1.6Z" transform="translate(-183.2 -144.1)" fill="#d5ab54"/>
            </g>
          </g>
        </g>
      </g>
    </g>
  </g>
</svg>
