<svg xmlns="http://www.w3.org/2000/svg" width="108" height="108" viewBox="0 0 108 108">
  <g id="Grupo_87315" data-name="Grupo 87315" transform="translate(-876 -706)">
    <circle id="Elipse_4054" data-name="Elipse 4054" cx="54" cy="54" r="54" transform="translate(876 706)" fill="#fcc14a"/>
    <g id="Grupo_86908" data-name="Grupo 86908" transform="translate(519 -6.719)">
      <g id="Grupo_86907" data-name="Grupo 86907" transform="translate(365 735.719)">
        <g id="Grupo_86906" data-name="Grupo 86906">
          <path id="Trazado_152663" data-name="Trazado 152663" d="M106.424,88H25.446A1.5,1.5,0,0,0,24,89.544v55.594a1.5,1.5,0,0,0,1.446,1.544h80.978a1.5,1.5,0,0,0,1.446-1.544V89.544A1.5,1.5,0,0,0,106.424,88Z" transform="translate(-19.426 -88)" fill="#eaecee"/>
          <path id="Trazado_152664" data-name="Trazado 152664" d="M27.049,145.138V89.544A1.535,1.535,0,0,1,28.574,88H25.525A1.535,1.535,0,0,0,24,89.544v55.594a1.535,1.535,0,0,0,1.525,1.544h3.049A1.535,1.535,0,0,1,27.049,145.138Z" transform="translate(-19.426 -88)" fill="#d5d9de"/>
          <path id="Trazado_152665" data-name="Trazado 152665" d="M91.565,384H1.453A1.49,1.49,0,0,0,0,385.525v1.525a4.476,4.476,0,0,0,4.36,4.574h84.3a4.476,4.476,0,0,0,4.36-4.574v-1.525A1.49,1.49,0,0,0,91.565,384Z" transform="translate(0 -326.842)" fill="#6b7b8b"/>
          <path id="Trazado_152666" data-name="Trazado 152666" d="M91.511,390.1H7.263a4.475,4.475,0,0,1-4.358-4.574V384H1.453A1.49,1.49,0,0,0,0,385.525v1.525a4.475,4.475,0,0,0,4.358,4.574H88.606a4.262,4.262,0,0,0,3.258-1.541C91.747,390.092,91.63,390.1,91.511,390.1Z" transform="translate(0 -326.842)" fill="#55697a"/>
          <path id="Trazado_152667" data-name="Trazado 152667" d="M106.424,88H25.446A1.487,1.487,0,0,0,24,89.525v6.1h83.87v-6.1A1.487,1.487,0,0,0,106.424,88Z" transform="translate(-19.426 -88)" fill="#6b7b8b"/>
          <path id="Trazado_152668" data-name="Trazado 152668" d="M28.574,88H25.525A1.525,1.525,0,0,0,24,89.525v6.1h3.049v-6.1A1.525,1.525,0,0,1,28.574,88Z" transform="translate(-19.426 -88)" fill="#55697a"/>
          <g id="Grupo_86903" data-name="Grupo 86903" transform="translate(38.597 3.379)">
            <circle id="Elipse_4056" data-name="Elipse 4056" cx="1.319" cy="1.319" r="1.319" transform="translate(6.593 0)" fill="#40566a"/>
            <ellipse id="Elipse_4057" data-name="Elipse 4057" cx="1.978" cy="1.319" rx="1.978" ry="1.319" transform="translate(11.868 0)" fill="#40566a"/>
            <ellipse id="Elipse_4058" data-name="Elipse 4058" cx="1.978" cy="1.319" rx="1.978" ry="1.319" transform="translate(0 0)" fill="#40566a"/>
            <path id="Trazado_152669" data-name="Trazado 152669" d="M239.624,387.049h-6.1A1.525,1.525,0,0,1,232,385.525V384h9.148v1.525A1.525,1.525,0,0,1,239.624,387.049Z" transform="translate(-228.662 -330.221)" fill="#40566a"/>
          </g>
          <path id="Trazado_152670" data-name="Trazado 152670" d="M89.454,179.444a1.552,1.552,0,0,1-1.074-2.517l8.5-10.673a1.355,1.355,0,0,1,1.464-.474l8.868,2.728,3.689-6.621a1.386,1.386,0,0,1,1.39-.729l10.641,1.432,9.422-10.146a1.344,1.344,0,0,1,1.942-.062l12.744,12.2a1.608,1.608,0,0,1,.118,2.153,1.347,1.347,0,0,1-2,.127l-11.746-11.243-8.968,9.656a1.359,1.359,0,0,1-1.177.435l-10.413-1.4-3.774,6.772a1.373,1.373,0,0,1-1.6.682l-9.039-2.781-7.905,9.931A1.373,1.373,0,0,1,89.454,179.444Z" transform="translate(-71.266 -139.553)" fill="#49dfe5"/>
          <path id="Trazado_152671" data-name="Trazado 152671" d="M123.4,173.345a1.4,1.4,0,0,1-1.178-.679L111.93,156.044l-7.28,9.145a1.347,1.347,0,0,1-1.925.227l-4.863-3.927-7.663,5.5a1.355,1.355,0,0,1-1.964-.423,1.6,1.6,0,0,1,.393-2.114l8.5-6.1a1.334,1.334,0,0,1,1.635.049l4.6,3.717L111,152.531a1.37,1.37,0,0,1,2.253.147l10.37,16.749,8.691-9.358a1.346,1.346,0,0,1,2,0l3.094,3.331,7.517-10.791a1.351,1.351,0,0,1,1.982-.3,1.6,1.6,0,0,1,.283,2.135l-8.5,12.2a1.365,1.365,0,0,1-2.134.163l-3.247-3.5L124.4,172.9A1.367,1.367,0,0,1,123.4,173.345Z" transform="translate(-71.227 -139.589)" fill="#fd8e61"/>
          <g id="Grupo_86904" data-name="Grupo 86904" transform="translate(35.789 43.212)">
            <path id="Trazado_152672" data-name="Trazado 152672" d="M204.574,315.049h-3.049a1.525,1.525,0,0,1,0-3.049h3.049a1.525,1.525,0,0,1,0,3.049Z" transform="translate(-200 -312)" fill="#49dfe5"/>
            <path id="Trazado_152673" data-name="Trazado 152673" d="M260.2,315.049H249.525a1.525,1.525,0,0,1,0-3.049H260.2a1.525,1.525,0,0,1,0,3.049Z" transform="translate(-238.852 -312)" fill="#49dfe5"/>
          </g>
          <g id="Grupo_86905" data-name="Grupo 86905" transform="translate(35.69 49.386)">
            <path id="Trazado_152674" data-name="Trazado 152674" d="M204.574,347.049h-3.049a1.525,1.525,0,0,1,0-3.049h3.049a1.525,1.525,0,1,1,0,3.049Z" transform="translate(-200 -344)" fill="#fd8e61"/>
            <path id="Trazado_152675" data-name="Trazado 152675" d="M263.247,347.049H249.525a1.525,1.525,0,0,1,0-3.049h13.722a1.525,1.525,0,0,1,0,3.049Z" transform="translate(-238.852 -344)" fill="#fd8e61"/>
          </g>
          <path id="Trazado_152676" data-name="Trazado 152676" d="M367.853,249.987a1.525,1.525,0,0,0,1.525-1.525v-.991a4.5,4.5,0,0,0-3.964-4.465v-1.481a1.525,1.525,0,0,0-3.049,0v1.556a4.993,4.993,0,0,0,1.029,9.88h.991a1.944,1.944,0,1,1,0,3.888H362.9a1.45,1.45,0,0,1-1.448-1.448,1.525,1.525,0,1,0-3.049,0,4.5,4.5,0,0,0,3.964,4.465v1.481a1.525,1.525,0,1,0,3.049,0V259.79a4.993,4.993,0,0,0-1.029-9.88h-.991a1.944,1.944,0,1,1,0-3.888h1.487a1.45,1.45,0,0,1,1.449,1.449v.991A1.525,1.525,0,0,0,367.853,249.987Z" transform="translate(-293.692 -210.507)" fill="#bfc7cd"/>
        </g>
      </g>
    </g>
  </g>
</svg>
