<svg xmlns="http://www.w3.org/2000/svg" xmlns:xlink="http://www.w3.org/1999/xlink" width="505" height="176.624" viewBox="0 0 505 176.624">
  <defs>
    <clipPath id="clip-path">
      <rect id="Rectángulo_7433" data-name="Rectángulo 7433" width="79.718" height="65.65" fill="#e85f5b"/>
    </clipPath>
    <clipPath id="clip-path-3">
      <rect id="Rectángulo_7957" data-name="Rectángulo 7957" width="326.154" height="175.748" fill="none"/>
    </clipPath>
    <clipPath id="clip-path-5">
      <rect id="Rectángulo_7943" data-name="Rectángulo 7943" width="169.044" height="37.816" fill="none"/>
    </clipPath>
    <clipPath id="clip-path-6">
      <rect id="Rectángulo_7944" data-name="Rectángulo 7944" width="129.501" height="55.749" fill="none"/>
    </clipPath>
    <clipPath id="clip-path-7">
      <rect id="Rectángulo_7945" data-name="Rectángulo 7945" width="74.742" height="17.128" fill="none"/>
    </clipPath>
    <clipPath id="clip-path-8">
      <rect id="Rectángulo_7946" data-name="Rectángulo 7946" width="169.205" height="33.491" fill="none"/>
    </clipPath>
    <clipPath id="clip-path-9">
      <rect id="Rectángulo_7947" data-name="Rectángulo 7947" width="200.557" height="98.094" fill="#e85f5b"/>
    </clipPath>
    <clipPath id="clip-path-10">
      <rect id="Rectángulo_7948" data-name="Rectángulo 7948" width="106.279" height="125.471" fill="none"/>
    </clipPath>
    <clipPath id="clip-path-11">
      <rect id="Rectángulo_7949" data-name="Rectángulo 7949" width="105.292" height="145.203" fill="none"/>
    </clipPath>
    <clipPath id="clip-path-12">
      <rect id="Rectángulo_7950" data-name="Rectángulo 7950" width="84.655" height="78.696" fill="none"/>
    </clipPath>
    <clipPath id="clip-path-13">
      <rect id="Rectángulo_7951" data-name="Rectángulo 7951" width="91.277" height="54.437" fill="none"/>
    </clipPath>
    <clipPath id="clip-path-14">
      <rect id="Rectángulo_7952" data-name="Rectángulo 7952" width="102.814" height="148.694" fill="none"/>
    </clipPath>
    <clipPath id="clip-path-15">
      <rect id="Rectángulo_7953" data-name="Rectángulo 7953" width="93.544" height="152.01" fill="none"/>
    </clipPath>
    <clipPath id="clip-path-16">
      <rect id="Rectángulo_7954" data-name="Rectángulo 7954" width="112.27" height="118.375" fill="none"/>
    </clipPath>
    <clipPath id="clip-path-17">
      <rect id="Rectángulo_7955" data-name="Rectángulo 7955" width="105.07" height="119.719" fill="none"/>
    </clipPath>
  </defs>
  <g id="Grupo_88179" data-name="Grupo 88179" transform="translate(-915 -1061)">
    <g id="Grupo_87530" data-name="Grupo 87530">
      <g id="Grupo_87485" data-name="Grupo 87485" transform="translate(-11.189 619.957)">
        <g id="Grupo_86888" data-name="Grupo 86888" transform="translate(926.189 441.043)">
          <path id="Trazado_152654" data-name="Trazado 152654" d="M1909.2,1084.977c-23.443-100.706-127.574-176.623-252.5-176.623s-229.057,75.917-252.5,176.623Z" transform="translate(-1404.203 -908.354)" fill="#fbdfde"/>
        </g>
        <g id="Grupo_86889" data-name="Grupo 86889" transform="translate(1314.014 454.024)">
          <g id="Grupo_86895" data-name="Grupo 86895">
            <g id="Grupo_86894" data-name="Grupo 86894" clip-path="url(#clip-path)">
              <path id="Trazado_152651" data-name="Trazado 152651" d="M5.21,2.6A2.605,2.605,0,1,1,2.6,0,2.605,2.605,0,0,1,5.21,2.6M39.859,0A2.605,2.605,0,1,0,42.464,2.6,2.605,2.605,0,0,0,39.859,0M77.113,0a2.605,2.605,0,1,0,2.6,2.605A2.605,2.605,0,0,0,77.113,0M2.6,30.219A2.605,2.605,0,1,0,5.21,32.824,2.605,2.605,0,0,0,2.6,30.219m37.254,0a2.605,2.605,0,1,0,2.605,2.605,2.605,2.605,0,0,0-2.605-2.605m37.254,0a2.605,2.605,0,1,0,2.6,2.605,2.605,2.605,0,0,0-2.6-2.605M2.6,60.439a2.605,2.605,0,1,0,2.605,2.6,2.605,2.605,0,0,0-2.605-2.6m37.254,0a2.605,2.605,0,1,0,2.605,2.6,2.605,2.605,0,0,0-2.605-2.6m37.254,0a2.605,2.605,0,1,0,2.6,2.6,2.605,2.605,0,0,0-2.6-2.6" transform="translate(0 0)" fill="#e85f5b"/>
            </g>
          </g>
          <g id="Grupo_86896" data-name="Grupo 86896" transform="translate(0 92.54)">
            <g id="Grupo_86894-2" data-name="Grupo 86894" clip-path="url(#clip-path)">
              <path id="Trazado_152651-2" data-name="Trazado 152651" d="M5.21,2.6A2.605,2.605,0,1,1,2.6,0,2.605,2.605,0,0,1,5.21,2.6M39.859,0A2.605,2.605,0,1,0,42.464,2.6,2.605,2.605,0,0,0,39.859,0M77.113,0a2.605,2.605,0,1,0,2.6,2.605A2.605,2.605,0,0,0,77.113,0M2.6,30.219A2.605,2.605,0,1,0,5.21,32.824,2.605,2.605,0,0,0,2.6,30.219m37.254,0a2.605,2.605,0,1,0,2.605,2.605,2.605,2.605,0,0,0-2.605-2.605m37.254,0a2.605,2.605,0,1,0,2.6,2.605,2.605,2.605,0,0,0-2.6-2.605M2.6,60.439a2.605,2.605,0,1,0,2.605,2.6,2.605,2.605,0,0,0-2.605-2.6m37.254,0a2.605,2.605,0,1,0,2.605,2.6,2.605,2.605,0,0,0-2.605-2.6m37.254,0a2.605,2.605,0,1,0,2.6,2.6,2.605,2.605,0,0,0-2.6-2.6" transform="translate(0 0)" fill="#e85f5b"/>
            </g>
          </g>
        </g>
      </g>
      <g id="Grupo_87529" data-name="Grupo 87529" transform="translate(1020 1061.876)">
        <g id="Grupo_87528" data-name="Grupo 87528" clip-path="url(#clip-path-3)">
          <g id="Grupo_87527" data-name="Grupo 87527">
            <g id="Grupo_87526" data-name="Grupo 87526" clip-path="url(#clip-path-3)">
              <g id="Grupo_87489" data-name="Grupo 87489" transform="translate(154.156 137.931)" opacity="0.2" style="mix-blend-mode: multiply;isolation: isolate">
                <g id="Grupo_87488" data-name="Grupo 87488">
                  <g id="Grupo_87487" data-name="Grupo 87487" clip-path="url(#clip-path-5)">
                    <path id="Trazado_154390" data-name="Trazado 154390" d="M382.281,193.3l-68.971,34.63a6.36,6.36,0,0,1-5.184.234l-94.889-37.374Z" transform="translate(-213.237 -190.794)" fill="#662d91"/>
                  </g>
                </g>
              </g>
              <path id="Trazado_154391" data-name="Trazado 154391" d="M419.744,175.836v14.528s-67.6,29.094-69.877,28.174-4.628-11.809-1.441-14.529,71.318-28.173,71.318-28.173" transform="translate(-96.107 -48.718)" fill="#f2efe3"/>
              <path id="Trazado_154392" data-name="Trazado 154392" d="M195.956,154.424c.662,1.384,107.536,35.887,109.108,35.495,0,0,52.27-19.673,75.011-29.76L272.547,124.991s-77.743,27.025-76.591,29.433" transform="translate(-54.29 -34.631)" fill="#3f92a9"/>
              <g id="Grupo_87492" data-name="Grupo 87492" transform="translate(196.285 90.36)" opacity="0.2" style="mix-blend-mode: multiply;isolation: isolate">
                <g id="Grupo_87491" data-name="Grupo 87491">
                  <g id="Grupo_87490" data-name="Grupo 87490" clip-path="url(#clip-path-6)">
                    <path id="Trazado_154393" data-name="Trazado 154393" d="M271.553,171.581c.662,1.384,76.936,9.538,78.507,9.145,0,0,28.211-10.481,50.953-20.568L293.485,124.991s-23.083,44.182-21.932,46.59" transform="translate(-271.512 -124.991)" fill="#662d91"/>
                  </g>
                </g>
              </g>
              <path id="Trazado_154394" data-name="Trazado 154394" d="M195.442,179.539c.662,1.384,108.7,36.58,110.273,36.188,0,0-3.185-5.609-.368-15.6L195.691,165.7s-1.4,11.427-.249,13.835" transform="translate(-54.025 -45.911)" fill="#4eb0cb"/>
              <path id="Trazado_154395" data-name="Trazado 154395" d="M346.772,202.258l72.784-28.57s1.834-.849,2.033.392-1.588,1.935-2.878,2.431-69.2,27.8-70.258,29.085-.468,10.2.938,10.664,69.259-27.774,69.259-27.774,2.461-1.172,2.7-.117-.938,1.992-5.508,3.867-62.7,26.368-65.626,26.368-3.072-.743-3.072-.743-5.682-5.816-.368-15.6" transform="translate(-95.45 -48.045)" fill="#2d7488"/>
              <path id="Trazado_154396" data-name="Trazado 154396" d="M396.212,128.392a6.9,6.9,0,0,0,1.142.1c-.032,0-.093-.007-.18-.017Z" transform="translate(-109.777 -35.573)" fill="#692d91"/>
              <path id="Trazado_154397" data-name="Trazado 154397" d="M370.378,132.2a1.939,1.939,0,0,1,.7-.406c2.06-3.328,4.355-4.151,4.355-4.151l-136.82-6.155-30.041,16.393,127.765,18.082c6.791-12.2,23.945-14.77,34.041-23.764" transform="translate(-57.788 -33.661)" fill="#6a4f9a"/>
              <path id="Trazado_154398" data-name="Trazado 154398" d="M395.356,153.613c-3.127,4.307-4.9,18.762-1.3,22.833s9.794-2.006,14.16-5.487c3.708-2.956,14.262-11.865,17.362-14.486v-21l-.038.018c-1.345.586-27.059,13.815-30.185,18.122" transform="translate(-108.627 -37.535)" fill="#fff"/>
              <path id="Trazado_154399" data-name="Trazado 154399" d="M427.037,154.213c-.767-1.062-1.888,0-1.888,0l-.87.736c-3.1,2.621-13.653,11.53-17.36,14.486-4.367,3.481-10.561,9.558-14.16,5.487s-1.829-18.526,1.3-22.833,28.841-17.536,30.185-18.122l.038-.018c1.322-.586,2.132-1.41,1.825-2.878-.311-1.483-1.379-1.035-1.69-1.035s-12.982,6.738-29.484,16.352c0,0-5.19,1.858-6.968,11.325a37.238,37.238,0,0,0-.593,6.884,34.958,34.958,0,0,0,.5,6.222c1.49,8.237,5.853,9.275,6.85,9.4l.207.019c5.889,0,27.21-19.952,29.334-21.486s3.54-3.481,2.773-4.543" transform="translate(-107.327 -36.011)" fill="#61537b"/>
              <path id="Trazado_154400" data-name="Trazado 154400" d="M335.778,168.529c0-15.516,7.56-18.209,7.56-18.209l-136.819-6.155s-12.053,11.8,0,27.57l135.65,12.333.962.087c-1.208-.155-7.354-1.633-7.354-15.625" transform="translate(-55.735 -39.943)" fill="#9a81c5"/>
              <g id="Grupo_87495" data-name="Grupo 87495" transform="translate(206.96 106.749)" opacity="0.2" style="mix-blend-mode: multiply;isolation: isolate">
                <g id="Grupo_87494" data-name="Grupo 87494">
                  <g id="Grupo_87493" data-name="Grupo 87493" clip-path="url(#clip-path-7)">
                    <path id="Trazado_154401" data-name="Trazado 154401" d="M286.278,147.661l1.054,3.965,51.121,12.956a6.829,6.829,0,0,0,7.853-3.78c3.681-7.864,14.714-9.778,14.714-9.778Z" transform="translate(-286.278 -147.661)" fill="#662d91"/>
                  </g>
                </g>
              </g>
              <path id="Trazado_154402" data-name="Trazado 154402" d="M397.722,128.531h.027l-.207-.019c.086.011.148.016.18.017" transform="translate(-110.146 -35.607)" fill="#7739a6"/>
              <path id="Trazado_154403" data-name="Trazado 154403" d="M408.749,99.981v19.954l-49.136,23.9-8.347-5.312-.949-9.58,7.494-7.036Z" transform="translate(-97.061 -27.701)" fill="#fffdf5"/>
              <path id="Trazado_154404" data-name="Trazado 154404" d="M367.636,89.543,246.646,69.028l-53.971,20.64,118.791,24.114Z" transform="translate(-53.384 -19.125)" fill="#d19b17"/>
              <g id="Grupo_87498" data-name="Grupo 87498" transform="translate(139.29 49.903)" opacity="0.2" style="mix-blend-mode: multiply;isolation: isolate">
                <g id="Grupo_87497" data-name="Grupo 87497">
                  <g id="Grupo_87496" data-name="Grupo 87496" clip-path="url(#clip-path-8)">
                    <path id="Trazado_154405" data-name="Trazado 154405" d="M334.136,102.518l27.743-13.952L246.646,69.028l-53.971,20.64,55.7,5.386Z" transform="translate(-192.674 -69.028)" fill="#662d91"/>
                  </g>
                </g>
              </g>
              <path id="Trazado_154406" data-name="Trazado 154406" d="M353.286,121.538,406.1,98.219s3.03-1.893,3.354-.92-1.19,2.218-3.463,3.138-49.125,21.746-49.125,21.746a11.424,11.424,0,0,0-5.864,13.173c2.089,9.559,11.245,4.9,15.583,2.811s39.679-19.84,39.679-19.84,2.41-1.687,2.811-.642-.883,2.008-3.213,3.132-48.05,24.847-52.58,24.833-9.67-16-9.67-16l6.506-7.229Z" transform="translate(-95.205 -26.881)" fill="#b0800c"/>
              <path id="Trazado_154407" data-name="Trazado 154407" d="M191.731,97.578c-1.692,1.354-4.569,14.383,0,21.491,0,0,117.1,26.905,118.791,26.736,0,0-5.584-2.707-5.246-12.691s5.246-11.422,5.246-11.422Z" transform="translate(-52.44 -27.036)" fill="#fcc14a"/>
              <path id="Trazado_154408" data-name="Trazado 154408" d="M425.436,63.11V78.772s-34.637,18.072-36.5,17.951-5.843-17.469,0-19.878,36.5-13.734,36.5-13.734" transform="translate(-106.912 -17.486)" fill="#fff"/>
              <path id="Trazado_154409" data-name="Trazado 154409" d="M194.988,64.143s40.481-11.857,43.534-12.122,135.424,5.9,135.424,5.9L334.777,72.635Z" transform="translate(-54.025 -14.411)" fill="#d5435c"/>
              <path id="Trazado_154410" data-name="Trazado 154410" d="M386.083,74.9,424.43,60.38s1.757-.691,1.979.492-.444,2.143-1.922,2.66S389.6,76.17,388.718,77.278s-2.955,4.213-2.955,11.012,3.177,5.986,3.177,5.986L423.674,76.76s1.922-1.1,2,.113-.739,1.735-1.848,2.326-35.115,18.4-37.738,18.3-6.9-7.875-5.717-12.679,5.717-9.919,5.717-9.919" transform="translate(-105.331 -16.674)" fill="#b43148"/>
              <path id="Trazado_154411" data-name="Trazado 154411" d="M334.279,77.25S195.764,67.663,194.49,68.759s-2.41,19.722.69,21.64,134.99,9.449,139.1,9.449c0,0-8.629-9.176,0-22.6" transform="translate(-53.527 -19.027)" fill="#f7516d"/>
              <g id="Grupo_87501" data-name="Grupo 87501" transform="translate(1.662 72.999)" opacity="0.2" style="mix-blend-mode: multiply;isolation: isolate">
                <g id="Grupo_87500" data-name="Grupo 87500">
                  <g id="Grupo_87499" data-name="Grupo 87499" clip-path="url(#clip-path-9)">
                    <path id="Trazado_154412" data-name="Trazado 154412" d="M201.058,124.517q-4.161-.769-8.333-1.465l.061-.864c-.857-.217-1.695-.417-2.542-.622l.158-2.266c-2.222-.639-4.42-1.209-6.6-1.739q.1-1.4.2-2.806c-3.041-.622-6.025-1.141-8.956-1.576q.088-1.264.177-2.53c-52.432-7.251-70.084,7.764-70.012,7.165-.012.6-15.4-16.723-68.334-16.839q-.088,1.264-.176,2.529c-2.963.023-5.99.121-9.088.314q-.1,1.4-.2,2.806c-2.237.22-4.493.479-6.783.8l-.158,2.266c-.868.085-1.725.166-2.6.262q-.029.433-.06.864-4.228.11-8.455.292c-1,.043-1.935.581-1.973,1.131L2.3,184.843c-.032.458.58.759,1.419.7a490.493,490.493,0,0,1,85.089,1.549c-.158,2.268,2.631,3.322,11.278,3.906,8.643.625,11.553-.031,11.712-2.3a490.524,490.524,0,0,1,84.476,10.31c.823.174,1.47-.04,1.5-.5l5.077-72.6c.038-.55-.813-1.213-1.8-1.395" transform="translate(-2.299 -100.976)" fill="#e85f5b"/>
                  </g>
                </g>
              </g>
              <path id="Trazado_154413" data-name="Trazado 154413" d="M112.075,39.279,29.83,7.946a1.644,1.644,0,0,0-2.245.988L.036,126.418a1.579,1.579,0,0,0,1.141,1.79l83.462,28.074Z" transform="translate(0 -2.166)" fill="#6163c7"/>
              <path id="Trazado_154414" data-name="Trazado 154414" d="M151.514,79.811l-11.16-4.3-23.338,99.526c-.855,3.644,1.631,5.909,10.305,7.943s11.907,1.11,12.762-2.534l23.338-99.526Z" transform="translate(-32.377 -20.922)" fill="#6163c7"/>
              <path id="Trazado_154415" data-name="Trazado 154415" d="M176.421,58.818l87.6,8.5a1.644,1.644,0,0,1,1.572,1.883l-27.55,117.485a1.58,1.58,0,0,1-1.818,1.1l-87.241-11.955Z" transform="translate(-41.279 -16.297)" fill="#6163c7"/>
              <g id="Grupo_87504" data-name="Grupo 87504" transform="translate(107.705 42.521)" opacity="0.2" style="mix-blend-mode: multiply;isolation: isolate">
                <g id="Grupo_87503" data-name="Grupo 87503">
                  <g id="Grupo_87502" data-name="Grupo 87502" clip-path="url(#clip-path-10)">
                    <path id="Trazado_154416" data-name="Trazado 154416" d="M255.262,66.465,176.42,58.818l-27.437,117,82.713,8.468Z" transform="translate(-148.983 -58.818)" fill="#662d91"/>
                  </g>
                </g>
              </g>
              <g id="Grupo_87507" data-name="Grupo 87507" transform="translate(6.783 8.913)" opacity="0.2" style="mix-blend-mode: multiply;isolation: isolate">
                <g id="Grupo_87506" data-name="Grupo 87506">
                  <g id="Grupo_87505" data-name="Grupo 87505" clip-path="url(#clip-path-11)">
                    <path id="Trazado_154417" data-name="Trazado 154417" d="M40.652,12.329l74.023,28.2-27.437,117L9.383,128.346Z" transform="translate(-9.383 -12.329)" fill="#662d91"/>
                  </g>
                </g>
              </g>
              <g id="Grupo_87510" data-name="Grupo 87510" transform="translate(11.089 79.943)" opacity="0.2" style="mix-blend-mode: multiply;isolation: isolate">
                <g id="Grupo_87509" data-name="Grupo 87509">
                  <g id="Grupo_87508" data-name="Grupo 87508" clip-path="url(#clip-path-12)">
                    <path id="Trazado_154418" data-name="Trazado 154418" d="M99.995,189.278l-10.84-5.662L15.34,154.533l33.893-43.951,48.5,30.6Z" transform="translate(-15.34 -110.582)" fill="#662d91"/>
                  </g>
                </g>
              </g>
              <g id="Grupo_87513" data-name="Grupo 87513" transform="translate(95.744 110.713)" opacity="0.2" style="mix-blend-mode: multiply;isolation: isolate">
                <g id="Grupo_87512" data-name="Grupo 87512">
                  <g id="Grupo_87511" data-name="Grupo 87511" clip-path="url(#clip-path-13)">
                    <path id="Trazado_154419" data-name="Trazado 154419" d="M132.439,201.071l12.227-.253,79.049,6.764-10.822-54.437-57.047,5.844Z" transform="translate(-132.439 -153.145)" fill="#662d91"/>
                  </g>
                </g>
              </g>
              <path id="Trazado_154420" data-name="Trazado 154420" d="M126.964,46.509S97.484,23.257,42.63,10.394L15.339,126.774c49.784,6.629,84.655,34.745,84.655,34.745Z" transform="translate(-4.25 -2.88)" fill="#b3b0a8"/>
              <path id="Trazado_154421" data-name="Trazado 154421" d="M101.442,160.357S68.8,129.4,20.562,121.208L47.532,6.2c48.236,8.188,80.88,39.149,80.88,39.149Z" transform="translate(-5.697 -1.717)" fill="#ccc9c0"/>
              <g id="Grupo_87516" data-name="Grupo 87516" transform="translate(19.003 9.945)" opacity="0.05" style="mix-blend-mode: multiply;isolation: isolate">
                <g id="Grupo_87515" data-name="Grupo 87515">
                  <g id="Grupo_87514" data-name="Grupo 87514" clip-path="url(#clip-path-14)">
                    <path id="Trazado_154422" data-name="Trazado 154422" d="M103.027,162.451S72.112,132.67,26.286,124.943L52.36,13.757c45.825,7.727,76.74,37.508,76.74,37.508Z" transform="translate(-26.286 -13.757)" fill="#662d91"/>
                  </g>
                </g>
              </g>
              <path id="Trazado_154423" data-name="Trazado 154423" d="M104.462,159.131s-27.464-29.507-73-42.346L58.432,1.774c45.535,12.841,73,42.347,73,42.347" transform="translate(-8.718 -0.492)" fill="#e6e3d8"/>
              <g id="Grupo_87519" data-name="Grupo 87519" transform="translate(28.397 6.629)" opacity="0.05" style="mix-blend-mode: multiply;isolation: isolate">
                <g id="Grupo_87518" data-name="Grupo 87518">
                  <g id="Grupo_87517" data-name="Grupo 87517" clip-path="url(#clip-path-15)">
                    <path id="Trazado_154424" data-name="Trazado 154424" d="M106.627,161.18s-25.2-28.314-67.348-40.3L65.475,9.17c42.146,11.984,67.348,40.3,67.348,40.3" transform="translate(-39.28 -9.17)" fill="#662d91"/>
                  </g>
                </g>
              </g>
              <path id="Trazado_154425" data-name="Trazado 154425" d="M108.256,158.64s-11.239-26.182-63.1-43.629L72.127,0c51.86,17.447,63.1,43.63,63.1,43.63Z" transform="translate(-12.512)" fill="#fffdf5"/>
              <path id="Trazado_154426" data-name="Trazado 154426" d="M116.213,29.642A142.444,142.444,0,0,0,91.183,16.91L90.13,21.4a133.7,133.7,0,0,1,25.032,12.721Z" transform="translate(-24.972 -4.685)" fill="#ccc9c0"/>
              <path id="Trazado_154427" data-name="Trazado 154427" d="M134.453,64.392q-.591-.577-1.216-1.163A140.317,140.317,0,0,0,87.178,33.989L88.231,29.5c18.725,7.454,30.352,15.82,37.063,21.9a58.342,58.342,0,0,1,9.647,10.918Z" transform="translate(-24.154 -8.173)" fill="#ccc9c0"/>
              <path id="Trazado_154428" data-name="Trazado 154428" d="M125.393,66.91c-.922-.937-1.932-1.914-3.052-2.927-6.71-6.078-18.338-14.443-37.063-21.9l-1.053,4.492a138.046,138.046,0,0,1,40.288,24.081Z" transform="translate(-23.336 -11.661)" fill="#ccc9c0"/>
              <path id="Trazado_154429" data-name="Trazado 154429" d="M113.4,86.547C106.414,80.811,95.541,73.7,79.376,67.263l-1.053,4.492A136.025,136.025,0,0,1,112.4,90.832Z" transform="translate(-21.701 -18.636)" fill="#ccc9c0"/>
              <path id="Trazado_154430" data-name="Trazado 154430" d="M122.645,114.746q-.591-.576-1.216-1.163A140.317,140.317,0,0,0,75.37,84.343l1.053-4.492c18.725,7.454,30.352,15.82,37.063,21.9a58.342,58.342,0,0,1,9.647,10.918Z" transform="translate(-20.883 -22.124)" fill="#ccc9c0"/>
              <path id="Trazado_154431" data-name="Trazado 154431" d="M119.694,127.334q-.591-.576-1.216-1.163A140.316,140.316,0,0,0,72.419,96.931l1.053-4.492c18.725,7.454,30.352,15.82,37.063,21.9a58.381,58.381,0,0,1,9.648,10.918Z" transform="translate(-20.065 -25.612)" fill="#ccc9c0"/>
              <path id="Trazado_154432" data-name="Trazado 154432" d="M116.742,139.922q-.591-.576-1.216-1.163a140.316,140.316,0,0,0-46.059-29.239l1.053-4.492c18.725,7.454,30.352,15.82,37.063,21.9a58.319,58.319,0,0,1,9.647,10.918Z" transform="translate(-19.247 -29.1)" fill="#ccc9c0"/>
              <path id="Trazado_154433" data-name="Trazado 154433" d="M85.041,125.823a153.145,153.145,0,0,0-17.473-8.207l-1.053,4.492A132.287,132.287,0,0,1,84,130.282Z" transform="translate(-18.429 -32.588)" fill="#ccc9c0"/>
              <path id="Trazado_154434" data-name="Trazado 154434" d="M110.838,165.1q-.591-.576-1.216-1.163A140.317,140.317,0,0,0,63.563,134.7l1.053-4.492c18.725,7.453,30.352,15.819,37.063,21.9a58.342,58.342,0,0,1,9.647,10.918Z" transform="translate(-17.611 -36.076)" fill="#ccc9c0"/>
              <path id="Trazado_154435" data-name="Trazado 154435" d="M107.886,177.687q-.591-.576-1.216-1.163a140.317,140.317,0,0,0-46.059-29.239l1.053-4.492c18.725,7.454,30.352,15.82,37.063,21.9a58.342,58.342,0,0,1,9.647,10.918Z" transform="translate(-16.793 -39.563)" fill="#ccc9c0"/>
              <path id="Trazado_154436" data-name="Trazado 154436" d="M120.253,163.361c6.679,7.04,8.81,12,8.81,12l26.97-115.01Z" transform="translate(-33.318 -16.721)" fill="#f2efe3"/>
              <path id="Trazado_154437" data-name="Trazado 154437" d="M159.409,59.469s36.743-7.722,91.6,5.141L223.716,180.99c-47.542-16.194-91.277-6.511-91.277-6.511Z" transform="translate(-36.695 -15.84)" fill="#ccc9c0"/>
              <path id="Trazado_154438" data-name="Trazado 154438" d="M132.439,173.206s43-13.222,89.852.887l26.97-115.01c-46.847-14.109-89.852-.887-89.852-.887Z" transform="translate(-36.695 -14.566)" fill="#e6e3d8"/>
              <g id="Grupo_87522" data-name="Grupo 87522" transform="translate(95.744 40.724)" opacity="0.05" style="mix-blend-mode: multiply;isolation: isolate">
                <g id="Grupo_87521" data-name="Grupo 87521">
                  <g id="Grupo_87520" data-name="Grupo 87520" clip-path="url(#clip-path-16)">
                    <path id="Trazado_154439" data-name="Trazado 154439" d="M132.439,174.247s41.2-13.083,85.951.459L244.708,62.472c-44.752-13.543-85.95-.459-85.95-.459Z" transform="translate(-132.439 -56.331)" fill="#662d91"/>
                  </g>
                </g>
              </g>
              <path id="Trazado_154440" data-name="Trazado 154440" d="M132.439,172.172s37.718-14.222,84.214-5.481l26.97-115.01c-46.5-8.741-84.215,5.481-84.215,5.481Z" transform="translate(-36.695 -13.532)" fill="#f2efe3"/>
              <g id="Grupo_87525" data-name="Grupo 87525" transform="translate(95.744 38.92)" opacity="0.05" style="mix-blend-mode: multiply;isolation: isolate">
                <g id="Grupo_87524" data-name="Grupo 87524">
                  <g id="Grupo_87523" data-name="Grupo 87523" clip-path="url(#clip-path-17)">
                    <path id="Trazado_154441" data-name="Trazado 154441" d="M132.439,173.556s35.454-14.008,78.971-5.9l26.1-111.3c-43.517-8.112-78.971,5.9-78.971,5.9Z" transform="translate(-132.439 -53.836)" fill="#662d91"/>
                  </g>
                </g>
              </g>
              <path id="Trazado_154442" data-name="Trazado 154442" d="M132.439,170.458S154.146,152,208.356,159.428l26.97-115.01c-54.21-7.426-75.917,11.031-75.917,11.031Z" transform="translate(-36.695 -11.819)" fill="#fff"/>
              <path id="Trazado_154443" data-name="Trazado 154443" d="M203.856,57.606a89.278,89.278,0,0,0-9.535,2.11,58.369,58.369,0,0,0-13.494,5.491l-.488,2.079q.786-.254,1.606-.5a150.808,150.808,0,0,1,20.871-4.743Z" transform="translate(-49.966 -15.961)" fill="#ccc9c0"/>
              <path id="Trazado_154444" data-name="Trazado 154444" d="M177.386,79.268q.786-.254,1.606-.5a140.3,140.3,0,0,1,54.256-5.716l1.053-4.492c-20.086-1.647-34.221.677-42.934,3.138a58.364,58.364,0,0,0-13.495,5.491Z" transform="translate(-49.148 -18.842)" fill="#ccc9c0"/>
              <path id="Trazado_154445" data-name="Trazado 154445" d="M226.323,80.813c-17.437-.909-29.94,1.224-37.907,3.474a58.379,58.379,0,0,0-13.495,5.491l-.487,2.079q.786-.254,1.606-.5a141.545,141.545,0,0,1,49.241-6.1Z" transform="translate(-48.33 -22.331)" fill="#ccc9c0"/>
              <path id="Trazado_154446" data-name="Trazado 154446" d="M183.223,110.606c-.24.065-.478.131-.71.2a58.4,58.4,0,0,0-13.495,5.491l-.487,2.079q.785-.253,1.606-.5c3.853-1.164,7.9-2.227,12.117-3.135Z" transform="translate(-46.694 -30.645)" fill="#ccc9c0"/>
              <path id="Trazado_154447" data-name="Trazado 154447" d="M165.578,129.622q.786-.254,1.606-.5a140.3,140.3,0,0,1,54.256-5.716l1.053-4.492c-20.086-1.647-34.221.677-42.934,3.138a58.364,58.364,0,0,0-13.495,5.491Z" transform="translate(-45.876 -32.794)" fill="#ccc9c0"/>
              <path id="Trazado_154448" data-name="Trazado 154448" d="M162.626,142.21q.786-.254,1.606-.5a140.3,140.3,0,0,1,54.256-5.715l1.053-4.492c-20.086-1.647-34.221.677-42.934,3.138a58.378,58.378,0,0,0-13.495,5.491Z" transform="translate(-45.058 -36.281)" fill="#ccc9c0"/>
              <path id="Trazado_154449" data-name="Trazado 154449" d="M189.83,144.485a96.537,96.537,0,0,0-16.173,3.005,58.364,58.364,0,0,0-13.495,5.491l-.488,2.079q.786-.253,1.606-.5a148.252,148.252,0,0,1,27.5-5.593Z" transform="translate(-44.24 -40.032)" fill="#ccc9c0"/>
              <path id="Trazado_154450" data-name="Trazado 154450" d="M156.723,167.386q.786-.254,1.606-.5a140.3,140.3,0,0,1,54.256-5.716l1.053-4.492c-20.086-1.647-34.221.677-42.934,3.138a58.377,58.377,0,0,0-13.495,5.491Z" transform="translate(-43.423 -43.257)" fill="#ccc9c0"/>
              <path id="Trazado_154451" data-name="Trazado 154451" d="M153.771,179.975q.786-.254,1.606-.5a140.3,140.3,0,0,1,54.256-5.716l1.053-4.492c-20.086-1.647-34.221.677-42.934,3.138a58.378,58.378,0,0,0-13.495,5.491Z" transform="translate(-42.605 -46.745)" fill="#ccc9c0"/>
              <path id="Trazado_154452" data-name="Trazado 154452" d="M150.819,192.563q.786-.254,1.606-.5a140.3,140.3,0,0,1,54.256-5.716l1.053-4.492c-20.086-1.647-34.221.677-42.934,3.138a58.364,58.364,0,0,0-13.495,5.491Z" transform="translate(-41.787 -50.233)" fill="#ccc9c0"/>
            </g>
          </g>
        </g>
      </g>
    </g>
  </g>
</svg>
