<svg xmlns="http://www.w3.org/2000/svg" xmlns:xlink="http://www.w3.org/1999/xlink" width="763.497" height="482" viewBox="0 0 763.497 482">
  <defs>
    <clipPath id="clip-path">
      <rect id="Rectángulo_8350" data-name="Rectángulo 8350" width="744" height="482" fill="none"/>
    </clipPath>
    <linearGradient id="linear-gradient" x1="1" y1="0.476" x2="-0.096" y2="1.177" gradientUnits="objectBoundingBox">
      <stop offset="0" stop-color="#fafafa"/>
      <stop offset="1" stop-color="#747474"/>
    </linearGradient>
  </defs>
  <g id="Grupo_88188" data-name="Grupo 88188" transform="translate(-7197.503 12855)">
    <g id="Grupo_87680" data-name="Grupo 87680" transform="translate(7217.094 -12855)">
      <g id="Grupo_87681" data-name="Grupo 87681">
        <g id="Grupo_87680-2" data-name="Grupo 87680" transform="translate(-0.094)" clip-path="url(#clip-path)">
          <path id="Trazado_154960" data-name="Trazado 154960" d="M0,0V254.393s14.5,30.26,18.941,34.512S98.484,426.2,98.484,426.2l5.359,44.693s-1.246.441,2.91,11.11h637.52V0Z" transform="translate(0.095)" fill="#fff"/>
          <path id="Trazado_154961" data-name="Trazado 154961" d="M102.58,448.874s-.734,24.772,4.174,33.126c0,0-24.47-38.262-30.392-48.811C52.507,390.694.95,258.528.95,258.528L0,254.393s5.662,13.253,11.533,20.056,88.794,88.282,88.794,93.747a43.958,43.958,0,0,1-.41,7.45c-.2,2.267,2.663,73.228,2.663,73.228" transform="translate(0.095)" fill="#160d0b" opacity="0.05"/>
        </g>
      </g>
    </g>
    <path id="Trazado_154965" data-name="Trazado 154965" d="M124.466,478.9l-.107-.193c.035.065.071.129.107.193m-.107-.193c-11.557-21.122,17.087-64.239,28.153-123.9C80.409,319.488,23.148,295.113,0,254.521Z" transform="matrix(0.998, 0.07, -0.07, 0.998, 7230.909, -12861.417)" fill="url(#linear-gradient)"/>
  </g>
</svg>
