<svg xmlns="http://www.w3.org/2000/svg" xmlns:xlink="http://www.w3.org/1999/xlink" width="85" height="208.65" viewBox="0 0 85 208.65">
  <defs>
    <clipPath id="clip-path">
      <rect id="Rectángulo_8349" data-name="Rectángulo 8349" width="84.045" height="202.651" fill="none"/>
    </clipPath>
  </defs>
  <g id="Grupo_87679" data-name="Grupo 87679" transform="translate(-285 -12195.35)">
    <ellipse id="Elipse_4134" data-name="Elipse 4134" cx="42.5" cy="6" rx="42.5" ry="6" transform="translate(285 12392)" fill="#afafaf"/>
    <g id="Grupo_87678" data-name="Grupo 87678" transform="translate(285 12195.35)">
      <g id="Grupo_87677" data-name="Grupo 87677" clip-path="url(#clip-path)">
        <path id="Trazado_154946" data-name="Trazado 154946" d="M74.732,225.081a20.475,20.475,0,0,0-2.4,2.85c-.916,1.29-1.674,2.57-2.24,3.511a14.736,14.736,0,0,0,4.637-6.361" transform="translate(-55.721 -178.925)" fill="#e85f5b"/>
        <path id="Trazado_154947" data-name="Trazado 154947" d="M93.584,294.926c-.279.106-.561.2-.845.3a14.88,14.88,0,0,0,2.217,4.765,42.992,42.992,0,0,1-1.372-5.063" transform="translate(-73.722 -234.448)" fill="#e85f5b"/>
        <path id="Trazado_154948" data-name="Trazado 154948" d="M159.046,48.372c-1.822.987-3.709,1.9-3.348,4.4a8.559,8.559,0,0,0,1.448,3.1c.229.378,2,3.7.312,3.13a1.9,1.9,0,0,1-.658-.494,2.034,2.034,0,0,0-2.089-.662,1.425,1.425,0,0,0-.78,1.078c-.21,1.094.386,2.235.639,3.271a2.784,2.784,0,0,1,.079.537,1.293,1.293,0,0,1,.006.184,1.838,1.838,0,0,1-.4.881,4.53,4.53,0,0,1-5.334,1.462c.009.205.013.4.006.567-.088,2-.3,3.975-.553,5.946-.017.137-.047.3-.076.472a19.372,19.372,0,0,1,.44,2.175,14.616,14.616,0,0,0,9.189-2.663,5.651,5.651,0,0,1,.616-.373q.578-.448,1.186-.851c-.27-.4-.665-.774-.915-1.155a11.937,11.937,0,0,1-1.361-2.951,24.272,24.272,0,0,1-.719-3.073,18.154,18.154,0,0,0,5.512.511,2.146,2.146,0,0,0,.917-.218c1.063-.611.985-3.083,1.064-4.115A25.591,25.591,0,0,0,162.066,47.1c.8.162,1.592.313,2.392.446-.282.175-.6.4-.614.742-.038.7.4.7.916.916a8.579,8.579,0,0,0,2.042.291,22.38,22.38,0,0,0,6.6.063.772.772,0,0,1-.1-.356,1.179,1.179,0,0,1,.445-.79,11.67,11.67,0,0,1,1.816-1.588,3.137,3.137,0,0,0-.591-.557,10.1,10.1,0,0,0-3.714-1.363,20.728,20.728,0,0,0-3.3-.46,26.94,26.94,0,0,0-6.159.174,7.837,7.837,0,0,1-.4,1.08,5.736,5.736,0,0,1-2.346,2.67" transform="translate(-117.886 -35.259)" fill="#ffbfad"/>
        <path id="Trazado_154949" data-name="Trazado 154949" d="M135.6,947.537l.035-.4H134.9s-1.053,5.486-.73,8.122h24.289s-.323-3.443-3.066-4.733c-2.228-1.049-10.491-3.056-13.513-3.772l-.074.595c-1.13,3.292-6.208.183-6.208.183" transform="translate(-106.61 -752.614)" fill="#280f0e"/>
        <path id="Trazado_154950" data-name="Trazado 154950" d="M141.4,940.938l-.035.395s5.078,3.109,6.208-.183l.074-.595.2-1.6h-6.269Z" transform="translate(-112.379 -746.41)" fill="#f08162"/>
        <path id="Trazado_154951" data-name="Trazado 154951" d="M24.35,955.33s-.323-3.442-3.066-4.733c-2.212-1.041-10.366-3.025-13.443-3.755l-.145.578c-1.13,3.292-6.209.183-6.209.183l.088-.4H.791s-1.053,5.486-.73,8.122Z" transform="translate(0 -752.68)" fill="#280f0e"/>
        <path id="Trazado_154952" data-name="Trazado 154952" d="M13.466,940.276l.146-.578.425-1.688-6.2-.155-.489,2.209-.088.395s5.079,3.109,6.208-.183" transform="translate(-5.77 -745.535)" fill="#f08162"/>
        <path id="Trazado_154953" data-name="Trazado 154953" d="M14.709,550.926l22.87-55.989c.519-5.749,1.079-11.5,1.267-17.266a13.936,13.936,0,0,1-5.992-.308.249.249,0,0,1,.132-.48,13.372,13.372,0,0,0,5.419.344,35.032,35.032,0,0,1-12.112-3.055c-.291-.133-.038-.561.251-.429A34.638,34.638,0,0,0,47.491,476.2c.313-.061.446.418.132.48a34.965,34.965,0,0,1-7.934.635c-.11,0-.221,0-.331-.009-.081,2.708-.247,5.41-.454,8.11-.388,5.063-.918,10.117-1.309,15.18a.244.244,0,0,1-.47.078c-2.427,21.9-5.2,50.257-5.2,50.257h9.434c22.522-66.944,17.642-97.98,17.267-100.1-.76.856-4.312,2.108-5.068,2.4a31.437,31.437,0,0,1-6.479,1.731,32.387,32.387,0,0,1-6.864.328,31.808,31.808,0,0,1-6.155-.955,21.225,21.225,0,0,1-5.309-1.734,21.1,21.1,0,0,0-2.343,4.917,26.275,26.275,0,0,0-1.67,12.211,22.655,22.655,0,0,1,.308,4.753,15.793,15.793,0,0,1-.848,3.3c-4.872,14.533-8.573,28.906-12.18,43.808-2.259,9.335-5.675,20.291-7.451,29.081l1.129.028,6.2.155Z" transform="translate(-3.627 -358.381)" fill="#3d1f71"/>
        <path id="Trazado_154954" data-name="Trazado 154954" d="M54.882,140.382a32.387,32.387,0,0,0,6.864-.328,31.437,31.437,0,0,0,6.479-1.731c.755-.291,4.308-1.543,5.068-2.4a.469.469,0,0,0,.15-.3c-.244-4.374-2.273-8.413-3.736-12.542s-2.34-8.861-.364-12.771c.813-1.609,2.057-2.958,3.005-4.492,2.56-4.14.828-8.436-1.256-12.32.107-.049.214-.1.318-.152,7.1-3.542,18.157-8.723,25.122-14.066a27.706,27.706,0,0,0,3.131-2.6c1.88-1.647,3.7-4.068,2.013-6.436-1.536-2.159-4.02-3.594-6.114-5.141a89.806,89.806,0,0,0-10.736-6.816q-2.85-1.539-5.807-2.87a6.36,6.36,0,0,0-1.807-.718,1.6,1.6,0,0,0-.606.05,2.505,2.505,0,0,0-.63.3,11.66,11.66,0,0,0-1.816,1.588,1.178,1.178,0,0,0-.445.79.772.772,0,0,0,.1.356,2.3,2.3,0,0,0,.256.364Q79.238,64.4,84.849,70.266c.228.238.468.465.7.7l-.286.061,8.073,2.046.253.064c.3.076.184.469-.09.471-.016,0-.025.011-.042.009l-1.315-.208a.182.182,0,0,1-.161-.166l-7.548-1.912a.212.212,0,0,1-.126-.1c-2.049.455-4.093.93-6.128,1.444-5.937,1.5-12.778,2.586-18.034,6.068q-.608.4-1.186.851a5.648,5.648,0,0,0-.616.373,14.616,14.616,0,0,1-9.19,2.663,20.321,20.321,0,0,1,.176,3.938A24.73,24.73,0,0,1,46.1,97.229a14.971,14.971,0,0,1-2.91,3.858,14.783,14.783,0,0,1-4.113,2.5c-.148.064-.3.121-.453.182a51.889,51.889,0,0,0,2.133,7.3.228.228,0,0,1-.248.3.246.246,0,0,1-.231-.169q-.252-.713-.5-1.434a.213.213,0,0,1-.3-.029,14.176,14.176,0,0,1-2.636-5.324,11.963,11.963,0,0,1-6.921.263,7.412,7.412,0,0,1-1.453-.622c-1.445,3.2-2.7,6.452-3.949,9.918a18.579,18.579,0,0,0-1.5,6.025c-.032,3.831,3.341,6.113,6.271,8.4a53.808,53.808,0,0,0,12.5,7.1c.177.073.364.14.553.2a.2.2,0,0,1-.077-.254,38.829,38.829,0,0,0,2.046-7,71.613,71.613,0,0,1-6.781-7.665,3.006,3.006,0,0,1-.684-1.3,2.825,2.825,0,0,1,.338-1.512c.979-2.246,2.149-4.412,3.333-6.573.9,2.342,1.932,4.642,2.986,6.918a16.892,16.892,0,0,1,.982,9.771.263.263,0,0,1,.35.29,38.874,38.874,0,0,1-2.09,7.2.269.269,0,0,1-.377.133,1.225,1.225,0,0,0,.4,1.493,3.334,3.334,0,0,0,.644.5,21.214,21.214,0,0,0,5.309,1.734,31.8,31.8,0,0,0,6.155.955" transform="translate(-18.299 -43.475)" fill="#e85f5b"/>
        <path id="Trazado_154955" data-name="Trazado 154955" d="M93.13,299.267a14.877,14.877,0,0,1-2.217-4.765c-.157.052-.313.111-.471.159a14.177,14.177,0,0,0,2.636,5.324.213.213,0,0,0,.3.029q.244.72.5,1.434a.247.247,0,0,0,.231.169.228.228,0,0,0,.248-.3,51.9,51.9,0,0,1-2.133-7.3c-.154.063-.308.127-.464.186a42.988,42.988,0,0,0,1.372,5.063" transform="translate(-71.896 -233.726)" fill="#434817"/>
        <path id="Trazado_154956" data-name="Trazado 154956" d="M117.3,420.021a38.856,38.856,0,0,0,2.09-7.2.263.263,0,0,0-.35-.29.2.2,0,0,0-.13.157c-.013.068-.03.135-.043.2a38.834,38.834,0,0,1-2.046,7,.2.2,0,0,0,.077.254.217.217,0,0,0,.025.012.269.269,0,0,0,.377-.134" transform="translate(-92.849 -327.926)" fill="#434817"/>
        <path id="Trazado_154957" data-name="Trazado 154957" d="M121.332,589.32c.39-5.062.921-10.116,1.309-15.18.207-2.7.373-5.4.454-8.11.11,0,.221.006.331.009a34.967,34.967,0,0,0,7.934-.635c.314-.061.181-.541-.132-.479a34.638,34.638,0,0,1-20.947-2.453c-.289-.132-.542.3-.251.429a35.031,35.031,0,0,0,12.112,3.054,13.368,13.368,0,0,1-5.419-.344.249.249,0,0,0-.133.48,13.937,13.937,0,0,0,5.992.308c-.188,5.77-.748,11.517-1.267,17.266-.17,1.884-.336,3.768-.481,5.654,0,.035.019.051.028.078a.244.244,0,0,0,.47-.078" transform="translate(-87.365 -447.11)" fill="#461714"/>
        <path id="Trazado_154958" data-name="Trazado 154958" d="M321.71,133.858a.211.211,0,0,0,.126.1l7.548,1.912a.182.182,0,0,0,.161.166l1.315.208c.017,0,.026-.009.042-.009.274,0,.391-.395.09-.47l-.253-.064-8.073-2.046-.7-.177a.247.247,0,0,0-.259.382" transform="translate(-255.706 -106.098)" fill="#434817"/>
        <path id="Trazado_154959" data-name="Trazado 154959" d="M43.686,60.934c.159-.048.314-.106.471-.159.284-.094.567-.191.845-.3.156-.059.309-.123.463-.186s.3-.118.453-.182a14.782,14.782,0,0,0,4.113-2.5,14.958,14.958,0,0,0,2.91-3.858A24.726,24.726,0,0,0,56.165,43.1a20.319,20.319,0,0,0-.176-3.938,19.385,19.385,0,0,0-.44-2.175,17.7,17.7,0,0,0-1.929-4.658c-1.445-2.4-3.471-4.419-4.886-6.84a9.13,9.13,0,0,1-1.271-6.775,19.586,19.586,0,0,0,1.649,3.765,20.79,20.79,0,0,0,5.705,6.817A5.432,5.432,0,0,0,56.173,30a4.53,4.53,0,0,0,5.334-1.462,1.838,1.838,0,0,0,.4-.881,1.29,1.29,0,0,0-.006-.184,2.752,2.752,0,0,0-.079-.537c-.252-1.035-.849-2.177-.639-3.271a1.424,1.424,0,0,1,.78-1.078,2.033,2.033,0,0,1,2.088.662,1.9,1.9,0,0,0,.658.494c1.693.573-.083-2.752-.312-3.13a8.556,8.556,0,0,1-1.448-3.1c-.361-2.5,1.525-3.411,3.348-4.4a5.736,5.736,0,0,0,2.346-2.67,7.82,7.82,0,0,0,.4-1.08,7.5,7.5,0,0,0,.338-2.2,7.306,7.306,0,0,0-2.244-5.153A5.786,5.786,0,0,1,65.05,4.871,6.648,6.648,0,0,0,61.624.119.587.587,0,0,0,61.05.052a.647.647,0,0,0-.21.334,5.92,5.92,0,0,1-2.376,2.7,23.649,23.649,0,0,1-3.273,1.624C52.657,5.85,50.1,7.374,48.6,9.642c-3.117-.089-5.827.25-8.155,2.622a12.784,12.784,0,0,0-3.31,9.249,16.745,16.745,0,0,0,1.881,7.311c.726,1.393,1.645,2.676,2.482,4,2.077,3.295,3.7,7.123,3.226,10.988a11.142,11.142,0,0,1-.57,2.339,14.737,14.737,0,0,1-4.637,6.361c-.188.154-.372.316-.566.461a9.633,9.633,0,0,1-3.481,1.781,4.884,4.884,0,0,1-3.791-.539C31.3,56.806,33,59.293,35.311,60.576a7.383,7.383,0,0,0,1.453.622,11.962,11.962,0,0,0,6.921-.263" transform="translate(-25.14 0)" fill="#7b3e1c"/>
      </g>
    </g>
  </g>
</svg>
