<svg xmlns="http://www.w3.org/2000/svg" width="190" height="124.491" viewBox="0 0 190 124.491">
  <g id="Grupo_86980" data-name="Grupo 86980" transform="translate(-1020 -2763.509)">
    <g id="ciclo" transform="translate(1045.156 2763.509)">
      <path id="Trazado_153309" data-name="Trazado 153309" d="M58.606,29.668a36.865,36.865,0,0,0-9.011,2.756A36.451,36.451,0,0,0,33,47.45a37.663,37.663,0,0,0-2.974,6.6L16.274,49.386A51.549,51.549,0,0,1,43.627,19.18,51.484,51.484,0,0,1,57.9,15.071l-4.783-4.783L63.407,0,86.128,22.721,63.407,45.443,53.119,35.155Zm62.219,69.481L117.073,85.11l-5.561,1.49A51.193,51.193,0,0,0,102.8,31.545L92,41.265a36.7,36.7,0,0,1,5.89,40.261l-2.371-8.85L81.484,76.427,89.8,107.462Zm-113.752-1,8.316-31.035,31.024,8.313L42.662,89.466l-7.506-2.011q.531.728,1.1,1.431a36.558,36.558,0,0,0,36.12,12.772l3.013,14.21A51.179,51.179,0,0,1,25,98.036q-1.1-1.364-2.106-2.79L21.112,101.9Z" transform="translate(0 0)" fill="#3d1f71" fill-rule="evenodd"/>
      <path id="Trazado_153310" data-name="Trazado 153310" d="M37.111,22.721A51.311,51.311,0,0,1,57.9,15.071l-4.783-4.783L63.407,0,86.128,22.721H37.111Zm3.6,88.249L15.389,67.114,7.073,98.148,21.112,101.9l1.783-6.653q1,1.425,2.106,2.79A51.189,51.189,0,0,0,40.709,110.97Zm49.09-3.508,26.026-45.079A50.8,50.8,0,0,1,111.512,86.6l5.561-1.49,3.751,14.039Z" fill="#674a99" fill-rule="evenodd"/>
    </g>
    <rect id="Rectángulo_7483" data-name="Rectángulo 7483" width="190" height="124" transform="translate(1020 2764)" fill="none"/>
  </g>
</svg>
