<svg xmlns="http://www.w3.org/2000/svg" xmlns:xlink="http://www.w3.org/1999/xlink" width="435.764" height="367.137" viewBox="0 0 435.764 367.137">
  <defs>
    <radialGradient id="radial-gradient" cx="373.13" cy="-393.495" r="1688.269" gradientTransform="matrix(0.461, 0.157, -0.058, 0.775, -5261.673, -7709.879)" gradientUnits="objectBoundingBox">
      <stop offset="0" stop-color="#f85e80"/>
      <stop offset="0.031" stop-color="#f85e80"/>
      <stop offset="0.452" stop-color="#f85480"/>
      <stop offset="0.751" stop-color="#f85079"/>
      <stop offset="1" stop-color="#f84a70"/>
    </radialGradient>
    <radialGradient id="radial-gradient-2" cx="515.681" cy="-671.407" r="1437.94" gradientTransform="matrix(0.548, 0.157, -0.087, 0.988, -5011.322, 460.942)" xlink:href="#radial-gradient"/>
    <radialGradient id="radial-gradient-3" cx="1101.873" cy="-348.697" r="1552.404" gradientTransform="matrix(1.014, 0.107, -0.109, 0.994, -3396.652, 941.323)" gradientUnits="objectBoundingBox">
      <stop offset="0" stop-color="#ffffe5"/>
      <stop offset="0.031" stop-color="#ffffe5"/>
      <stop offset="0.452" stop-color="#ffe5e5"/>
      <stop offset="0.657" stop-color="#ffdede"/>
      <stop offset="0.94" stop-color="#fcc"/>
      <stop offset="1" stop-color="#ffc8c8"/>
    </radialGradient>
    <radialGradient id="radial-gradient-4" cx="3.636" cy="4.573" r="9.472" gradientTransform="translate(-20.88) scale(0.505 1)" gradientUnits="objectBoundingBox">
      <stop offset="0" stop-color="#8f86d9"/>
      <stop offset="0.308" stop-color="#8f86d9"/>
      <stop offset="1" stop-color="#8f72c2"/>
    </radialGradient>
    <radialGradient id="radial-gradient-5" cx="1.533" cy="1.239" r="2.959" gradientTransform="translate(-6.338) scale(0.521 1)" gradientUnits="objectBoundingBox">
      <stop offset="0" stop-color="#ffefe6"/>
      <stop offset="0.308" stop-color="#ffefe6"/>
      <stop offset="1" stop-color="#ffcbce"/>
    </radialGradient>
    <radialGradient id="radial-gradient-6" cx="169.822" cy="-8.419" r="141.997" gradientTransform="translate(313.64) scale(1.212 1)" gradientUnits="objectBoundingBox">
      <stop offset="0" stop-color="#f85881"/>
      <stop offset="0.308" stop-color="#f85881"/>
      <stop offset="1" stop-color="#f84b74"/>
    </radialGradient>
    <radialGradient id="radial-gradient-7" cx="-8.414" cy="-21.513" r="62.934" gradientTransform="matrix(0.294, -0.531, 0.184, 0.847, 1737.158, -3856.538)" gradientUnits="objectBoundingBox">
      <stop offset="0" stop-color="#90aa9e"/>
      <stop offset="0.45" stop-color="#889c8f"/>
      <stop offset="1" stop-color="#819081"/>
    </radialGradient>
    <radialGradient id="radial-gradient-8" cx="-8.323" cy="22.1" r="60.89" gradientTransform="matrix(0.306, 0.521, 0.187, -0.854, 2129.142, -33324.539)" xlink:href="#radial-gradient-7"/>
    <clipPath id="clip-path">
      <rect id="Rect치ngulo_5142" data-name="Rect치ngulo 5142" width="44.633" height="1.436" transform="translate(448.709 1839.34)" fill="none"/>
    </clipPath>
  </defs>
  <g id="Grupo_86876" data-name="Grupo 86876" transform="translate(-377.318 -1532.995)">
    <g id="Grupo_53755" data-name="Grupo 53755">
      <g id="Grupo_53754" data-name="Grupo 53754">
        <path id="Trazado_100469" data-name="Trazado 100469" d="M720.516,1684.837c-77.07-23.937,12.289-45.324-57.9-80.986-48.778-24.783-146.108-5.243-184.591,23.22-2.566,1.9-30.5,18.2-15.92,46.8,30.382,59.609-29.724,37.309-50.429,82.389-21.967,47.826-1.995,98.726,63.269,98.726H734.112C803.16,1848.644,838.2,1721.387,720.516,1684.837Z" fill="#41b093"/>
      </g>
    </g>
    <path id="Trazado_152539" data-name="Trazado 152539" d="M772.339,1900.132H418.061a40.743,40.743,0,0,1-40.743-40.743v-32.15H813.082v32.15a40.743,40.743,0,0,1-40.743,40.743" fill="#fcfbed"/>
    <g id="Grupo_53792" data-name="Grupo 53792">
      <g id="Grupo_53766" data-name="Grupo 53766">
        <g id="Grupo_53760" data-name="Grupo 53760">
          <g id="Grupo_53756" data-name="Grupo 53756">
            <path id="Trazado_100470" data-name="Trazado 100470" d="M615.813,1600.047a26.349,26.349,0,1,1-26.35-26.349A26.35,26.35,0,0,1,615.813,1600.047Z" fill="#fcc14a"/>
          </g>
          <g id="Grupo_53757" data-name="Grupo 53757">
            <path id="Trazado_100471" data-name="Trazado 100471" d="M610.04,1600.047a20.576,20.576,0,1,1-20.577-20.576A20.577,20.577,0,0,1,610.04,1600.047Z" fill="#ffd180"/>
          </g>
          <g id="Grupo_53758" data-name="Grupo 53758">
            <path id="Trazado_100472" data-name="Trazado 100472" d="M593.877,1576.69a23.8,23.8,0,0,1,18.206,16.041.623.623,0,0,0,1.186-.383,25.051,25.051,0,0,0-19.162-16.883.623.623,0,1,0-.23,1.225Z" fill="#fff"/>
          </g>
          <g id="Grupo_53759" data-name="Grupo 53759">
            <path id="Trazado_100473" data-name="Trazado 100473" d="M589.111,1614.544h1.7a1.188,1.188,0,0,0,1.188-1.188v-.293a1.186,1.186,0,0,1,.946-1.162,10.01,10.01,0,0,0,2.334-.757,7.915,7.915,0,0,0,2.269-1.567,5.983,5.983,0,0,0,1.319-1.986,5.865,5.865,0,0,0,.428-2.175,7.436,7.436,0,0,0-1.225-4.2,8.156,8.156,0,0,0-1.284-1.507,12.657,12.657,0,0,0-1.507-1.19,14.717,14.717,0,0,0-1.559-.916q-.756-.384-1.408-.685c-.026-.012-.052-.023-.079-.033q-.715-.267-1.441-.584a13.085,13.085,0,0,1-1.336-.668,5.069,5.069,0,0,1-.967-.7,1.006,1.006,0,0,1-.377-.7,1.051,1.051,0,0,1,.514-.9,2.979,2.979,0,0,1,1.644-.351,17.344,17.344,0,0,1,2.423.154c.725.1,1.369.328,1.987.4a2.962,2.962,0,0,0,3.586-2.817,1.191,1.191,0,0,0-.613-1.182,9.045,9.045,0,0,0-.833-.4,13.335,13.335,0,0,0-1.721-.591,15.033,15.033,0,0,0-1.781-.368q-.336-.048-.661-.086a1.186,1.186,0,0,1-1.051-1.179v-.3a1.188,1.188,0,0,0-1.189-1.188h-1.7a1.188,1.188,0,0,0-1.188,1.188v.473a1.182,1.182,0,0,1-.95,1.163,10.64,10.64,0,0,0-2.236.67,7.406,7.406,0,0,0-2.2,1.413,5.286,5.286,0,0,0-1.276,1.858,5.756,5.756,0,0,0-.411,2.158,6.558,6.558,0,0,0,.282,1.986,6.286,6.286,0,0,0,.78,1.627,7.244,7.244,0,0,0,1.147,1.327,11.513,11.513,0,0,0,1.387,1.079,15.221,15.221,0,0,0,1.507.882q.75.384,1.468.718c.027.013.054.024.081.034q1.273.489,2.185.909a12.317,12.317,0,0,1,1.515.814,3.431,3.431,0,0,1,.874.762,1.3,1.3,0,0,1,.282.788,1,1,0,0,1-.282.753,1.847,1.847,0,0,1-.754.42,4.786,4.786,0,0,1-1.079.188q-.608.043-1.276.043a12.59,12.59,0,0,1-1.935-.154c-.662-.1-1.3-.313-1.969-.42-4.341-.7-3.648,3.482-3.648,3.482a1.193,1.193,0,0,0,.754,1.109,19.784,19.784,0,0,0,2.628.83,24.445,24.445,0,0,0,2.481.466,1.191,1.191,0,0,1,1.039,1.178v.182A1.188,1.188,0,0,0,589.111,1614.544Z" fill="#fff"/>
          </g>
        </g>
        <g id="Grupo_53765" data-name="Grupo 53765">
          <g id="Grupo_53761" data-name="Grupo 53761">
            <path id="Trazado_100474" data-name="Trazado 100474" d="M430.6,1802.383a21.278,21.278,0,1,1-21.278-21.278A21.277,21.277,0,0,1,430.6,1802.383Z" fill="#fcc14a"/>
          </g>
          <g id="Grupo_53762" data-name="Grupo 53762">
            <path id="Trazado_100475" data-name="Trazado 100475" d="M425.935,1802.383a16.616,16.616,0,1,1-16.616-16.615A16.616,16.616,0,0,1,425.935,1802.383Z" fill="#ffd180"/>
          </g>
          <g id="Grupo_53763" data-name="Grupo 53763">
            <path id="Trazado_100476" data-name="Trazado 100476" d="M412.883,1783.521a19.223,19.223,0,0,1,14.7,12.954.5.5,0,0,0,.957-.309,20.227,20.227,0,0,0-15.474-13.634.5.5,0,1,0-.185.989Z" fill="#fff"/>
          </g>
          <g id="Grupo_53764" data-name="Grupo 53764">
            <path id="Trazado_100477" data-name="Trazado 100477" d="M409.034,1814.09h1.372a.96.96,0,0,0,.96-.96v-.236a.957.957,0,0,1,.763-.938,8.1,8.1,0,0,0,1.885-.612,6.4,6.4,0,0,0,1.833-1.265,4.844,4.844,0,0,0,1.065-1.6,4.736,4.736,0,0,0,.345-1.757,5.99,5.99,0,0,0-.989-3.388,6.591,6.591,0,0,0-1.037-1.217,10.216,10.216,0,0,0-1.217-.961,11.954,11.954,0,0,0-1.258-.74q-.612-.309-1.138-.553l-.063-.026q-.579-.216-1.164-.472a10.722,10.722,0,0,1-1.079-.539,4.147,4.147,0,0,1-.781-.567.814.814,0,0,1-.3-.567.85.85,0,0,1,.414-.726,2.409,2.409,0,0,1,1.328-.284,14.021,14.021,0,0,1,1.957.125c.585.083,1.106.265,1.6.325a2.392,2.392,0,0,0,2.9-2.275.964.964,0,0,0-.495-.955,7.337,7.337,0,0,0-.672-.324,10.9,10.9,0,0,0-1.39-.478,12.321,12.321,0,0,0-1.438-.3q-.271-.039-.534-.069a.958.958,0,0,1-.849-.952v-.239a.96.96,0,0,0-.96-.96h-1.372a.96.96,0,0,0-.96.96v.382a.955.955,0,0,1-.767.939,8.609,8.609,0,0,0-1.805.541,5.971,5.971,0,0,0-1.777,1.141,4.26,4.26,0,0,0-1.03,1.5,4.654,4.654,0,0,0-.332,1.743,5.29,5.29,0,0,0,.228,1.6,5.108,5.108,0,0,0,.629,1.314,5.9,5.9,0,0,0,.927,1.071,9.279,9.279,0,0,0,1.12.872,12.589,12.589,0,0,0,1.217.712q.606.31,1.186.58c.021.01.043.019.064.027q1.031.395,1.765.734a10.005,10.005,0,0,1,1.224.657,2.761,2.761,0,0,1,.7.616,1.046,1.046,0,0,1,.228.636.807.807,0,0,1-.228.608,1.479,1.479,0,0,1-.608.339,3.865,3.865,0,0,1-.872.152q-.49.034-1.03.035a10.191,10.191,0,0,1-1.563-.125c-.535-.083-1.052-.252-1.59-.338-3.506-.562-2.946,2.811-2.946,2.811a.963.963,0,0,0,.609.9,15.838,15.838,0,0,0,2.122.671,20.012,20.012,0,0,0,2,.377.96.96,0,0,1,.838.95v.147A.96.96,0,0,0,409.034,1814.09Z" fill="#fff"/>
          </g>
        </g>
      </g>
      <g id="Grupo_53781" data-name="Grupo 53781">
        <g id="Grupo_53780" data-name="Grupo 53780">
          <path id="Trazado_100478" data-name="Trazado 100478" d="M754.987,1836.784l-141.831-32.123a10.588,10.588,0,0,1-7.989-12.666l44.753-197.6a10.59,10.59,0,0,1,12.667-7.989l141.831,32.123a10.588,10.588,0,0,1,7.989,12.666l-44.753,197.6A10.59,10.59,0,0,1,754.987,1836.784Z" fill="#fcc14a"/>
          <path id="Trazado_100479" data-name="Trazado 100479" d="M760.524,1828.315l-148.716-33.681,45.242-199.759,148.716,33.681h0Z" fill="#fff"/>
          <path id="Trazado_100480" data-name="Trazado 100480" d="M615.12,1780.011l41.93-185.136,148.716,33.681h0l-50.324,190.837Z" fill="#dadada"/>
          <path id="Trazado_100481" data-name="Trazado 100481" d="M753,1809.1,594.92,1776.03l62.129-181.155,148.716,33.681h0Z" fill="#fff"/>
          <path id="Trazado_100482" data-name="Trazado 100482" d="M621.868,1699.127c-.149-.12-.3-.235-.451-.356l-14.8,43.155C615.886,1740.377,640.353,1726.9,621.868,1699.127Z" fill="#dadada"/>
          <path id="Trazado_100483" data-name="Trazado 100483" d="M773.459,1621.53l-1.948,8.6c-.349,1.538-2.383,2.387-4.544,1.9l-11.428-2.588-17.656-4s-3.239,1.37-9.818-.12-8.415-4.009-8.415-4.009l-17.656-4-11.428-2.588c-2.161-.49-3.631-2.133-3.283-3.67l1.948-8.6,13.431,3.041,15.654,3.546,12.629,2.86.8.181,12.63,2.861,15.653,3.545,13.431,3.042m.615-2.716-13.43-3.041-15.654-3.545-12.629-2.861-.8-.181-12.63-2.861-15.653-3.545-13.43-3.041a2.784,2.784,0,0,0-3.331,2.1l-1.948,8.6c-.7,3.083,1.666,6.158,5.383,7l11.428,2.588,16.844,3.815c1.237,1.135,3.946,3,9.227,4.193,5.411,1.225,8.932.7,10.542.284l16.932,3.835,11.428,2.588c3.717.842,7.175-.914,7.874-4l1.948-8.6A2.784,2.784,0,0,0,774.074,1618.814Z" fill="#b2b2b2"/>
          <path id="Trazado_100484" data-name="Trazado 100484" d="M773.745,1620.267l-1.949,8.6c-.348,1.538-2.382,2.387-4.543,1.9l-11.428-2.589-17.656-4s-3.24,1.37-9.819-.12-8.414-4.01-8.414-4.01l-17.656-4-11.428-2.589c-2.161-.489-3.631-2.132-3.283-3.67l1.948-8.6,13.431,3.042,15.654,3.545,12.629,2.861.8.181,12.629,2.86,15.653,3.545,13.431,3.042m.615-2.715-13.43-3.042-15.654-3.545-12.63-2.86-.8-.181-12.63-2.861-15.653-3.545-13.43-3.042a2.784,2.784,0,0,0-3.33,2.1l-1.949,8.6c-.7,3.083,1.666,6.158,5.383,7l11.428,2.589,16.844,3.814c1.237,1.136,3.945,3,9.227,4.194,5.41,1.225,8.932.7,10.541.284l16.932,3.835,11.429,2.588c3.716.841,7.175-.915,7.874-4l1.948-8.6A2.784,2.784,0,0,0,774.36,1617.552Z" fill="#dadada"/>
          <path id="Trazado_100485" data-name="Trazado 100485" d="M766.424,1622.228l2.444-10.789a5.178,5.178,0,0,0-3.906-6.193l-14.743-3.339-31.56-7.148-14.744-3.339a5.177,5.177,0,0,0-6.193,3.906l-2.443,10.789Z" fill="#4b4b4b"/>
          <g id="Grupo_53767" data-name="Grupo 53767">
            <path id="Trazado_100486" data-name="Trazado 100486" d="M701.057,1695.641l-30.27-6.995a1,1,0,0,0-1.132.655.77.77,0,0,0,.541,1.04l30.27,7a1,1,0,0,0,1.132-.655A.77.77,0,0,0,701.057,1695.641Z" fill="#353535"/>
            <path id="Trazado_100487" data-name="Trazado 100487" d="M702.413,1691.75l-15.341-3.533.006-.022-14.935-3.44a1,1,0,0,0-1.132.655.77.77,0,0,0,.541,1.04l3.369.776-.006.022,26.907,6.2a1,1,0,0,0,1.132-.655A.77.77,0,0,0,702.413,1691.75Z" fill="#353535"/>
            <path id="Trazado_100488" data-name="Trazado 100488" d="M703.769,1687.858l-30.271-6.994a1,1,0,0,0-1.131.655.77.77,0,0,0,.541,1.04l30.27,6.995a1,1,0,0,0,1.132-.655A.772.772,0,0,0,703.769,1687.858Z" fill="#353535"/>
          </g>
          <g id="Grupo_53768" data-name="Grupo 53768">
            <path id="Trazado_100489" data-name="Trazado 100489" d="M693.857,1719.148l-30.27-6.995a1,1,0,0,0-1.132.655.771.771,0,0,0,.541,1.041l30.27,6.994a1,1,0,0,0,1.132-.655A.771.771,0,0,0,693.857,1719.148Z" fill="#353535"/>
            <path id="Trazado_100490" data-name="Trazado 100490" d="M695.212,1715.257l-15.34-3.533.006-.022-14.936-3.44a1,1,0,0,0-1.131.655.769.769,0,0,0,.541,1.04l3.369.776-.007.022,26.908,6.2a1,1,0,0,0,1.132-.655A.771.771,0,0,0,695.212,1715.257Z" fill="#353535"/>
            <path id="Trazado_100491" data-name="Trazado 100491" d="M696.568,1711.366l-30.27-6.995a1,1,0,0,0-1.132.655.771.771,0,0,0,.541,1.04l30.27,6.995a1,1,0,0,0,1.132-.655A.77.77,0,0,0,696.568,1711.366Z" fill="#353535"/>
          </g>
          <g id="Grupo_53769" data-name="Grupo 53769">
            <path id="Trazado_100492" data-name="Trazado 100492" d="M755.7,1710.677l-30.27-6.995a1,1,0,0,0-1.132.655.771.771,0,0,0,.541,1.041l30.27,6.994a1,1,0,0,0,1.132-.655A.77.77,0,0,0,755.7,1710.677Z" fill="#353535"/>
            <path id="Trazado_100493" data-name="Trazado 100493" d="M757.051,1706.786l-15.341-3.533.006-.022-14.935-3.44a1,1,0,0,0-1.132.655.77.77,0,0,0,.541,1.04l3.369.776-.006.022,26.907,6.2a1,1,0,0,0,1.132-.655A.77.77,0,0,0,757.051,1706.786Z" fill="#353535"/>
            <path id="Trazado_100494" data-name="Trazado 100494" d="M758.407,1702.9l-30.271-6.995a1,1,0,0,0-1.131.655.77.77,0,0,0,.541,1.04l30.27,6.995a1,1,0,0,0,1.132-.655A.771.771,0,0,0,758.407,1702.9Z" fill="#353535"/>
          </g>
          <g id="Grupo_53770" data-name="Grupo 53770">
            <path id="Trazado_100495" data-name="Trazado 100495" d="M770.362,1664.653l-30.271-6.995a1,1,0,0,0-1.131.655.77.77,0,0,0,.541,1.04l30.27,6.995a1,1,0,0,0,1.132-.655A.771.771,0,0,0,770.362,1664.653Z" fill="#353535"/>
            <path id="Trazado_100496" data-name="Trazado 100496" d="M771.717,1660.762l-15.34-3.534.006-.021-14.936-3.44a1,1,0,0,0-1.132.655.771.771,0,0,0,.542,1.04l3.369.776-.007.021,26.908,6.2a1,1,0,0,0,1.132-.655A.771.771,0,0,0,771.717,1660.762Z" fill="#353535"/>
            <path id="Trazado_100497" data-name="Trazado 100497" d="M773.073,1656.87l-30.27-6.995a1,1,0,0,0-1.132.655.77.77,0,0,0,.541,1.04l30.27,6.995a1,1,0,0,0,1.132-.655A.77.77,0,0,0,773.073,1656.87Z" fill="#353535"/>
          </g>
          <g id="Grupo_53771" data-name="Grupo 53771">
            <path id="Trazado_100498" data-name="Trazado 100498" d="M748.495,1734.184l-30.27-6.995a1,1,0,0,0-1.132.655.771.771,0,0,0,.541,1.041l30.27,6.994a1,1,0,0,0,1.132-.654A.772.772,0,0,0,748.495,1734.184Z" fill="#353535"/>
            <path id="Trazado_100499" data-name="Trazado 100499" d="M749.85,1730.293l-15.34-3.533.006-.022-14.936-3.44a1,1,0,0,0-1.131.655.769.769,0,0,0,.541,1.04l3.369.776-.007.022,26.908,6.2a1,1,0,0,0,1.132-.655A.771.771,0,0,0,749.85,1730.293Z" fill="#353535"/>
            <path id="Trazado_100500" data-name="Trazado 100500" d="M751.206,1726.4l-30.27-6.995a1,1,0,0,0-1.132.655.771.771,0,0,0,.541,1.04l30.27,6.995a1,1,0,0,0,1.132-.655A.77.77,0,0,0,751.206,1726.4Z" fill="#353535"/>
          </g>
          <g id="Grupo_53772" data-name="Grupo 53772">
            <path id="Trazado_100501" data-name="Trazado 100501" d="M726.47,1788.4,696.2,1781.4a1,1,0,0,0-1.132.655.77.77,0,0,0,.541,1.04l30.27,6.995a1,1,0,0,0,1.132-.655A.77.77,0,0,0,726.47,1788.4Z" fill="#353535"/>
            <path id="Trazado_100502" data-name="Trazado 100502" d="M727.826,1784.508l-15.341-3.534.006-.021-14.935-3.44a1,1,0,0,0-1.132.654.771.771,0,0,0,.541,1.041l3.369.776-.006.021,26.907,6.2a1,1,0,0,0,1.132-.655A.77.77,0,0,0,727.826,1784.508Z" fill="#353535"/>
            <path id="Trazado_100503" data-name="Trazado 100503" d="M729.182,1780.616l-30.271-6.995a1,1,0,0,0-1.131.655.769.769,0,0,0,.541,1.04l30.27,6.995a1,1,0,0,0,1.132-.655A.771.771,0,0,0,729.182,1780.616Z" fill="#353535"/>
          </g>
          <g id="Grupo_53773" data-name="Grupo 53773">
            <path id="Trazado_100504" data-name="Trazado 100504" d="M656.245,1676.428l10.028,2.31-3.541,10.163-10.028-2.31,3.541-10.163m-2.024-.8-3.759,10.788a1.681,1.681,0,0,0,1.181,2.269l10.644,2.452a2.187,2.187,0,0,0,2.469-1.429l3.759-10.788a1.681,1.681,0,0,0-1.181-2.27l-10.644-2.452A2.186,2.186,0,0,0,654.221,1675.625Z" fill="#fe504f"/>
            <path id="Trazado_100505" data-name="Trazado 100505" d="M669.752,1674.86l-10.407,8.739.008-.007a1.025,1.025,0,0,1-.349.208.307.307,0,0,1-.172.007.63.63,0,0,1-.211-.1,1.538,1.538,0,0,1-.326-.306l-1.187.979,1.3-.82-2.534-4.347a1.4,1.4,0,0,0-1.99-.365,1.526,1.526,0,0,0-.607,2.005l2.535,4.347a1.467,1.467,0,0,0,.111.16,3.952,3.952,0,0,0,.858.788,3.226,3.226,0,0,0,1.074.468,3.308,3.308,0,0,0,1.7-.068,4.421,4.421,0,0,0,1.539-.848l.007-.007,10.407-8.739a1.377,1.377,0,1,0-1.758-2.095Z" fill="#353535"/>
          </g>
          <g id="Grupo_53774" data-name="Grupo 53774">
            <path id="Trazado_100506" data-name="Trazado 100506" d="M703.822,1713.317l10.027,2.31-3.541,10.163-10.027-2.31,3.541-10.163m-2.025-.8-3.758,10.788a1.681,1.681,0,0,0,1.18,2.27l10.645,2.451a2.186,2.186,0,0,0,2.469-1.428l3.758-10.789a1.68,1.68,0,0,0-1.18-2.269l-10.645-2.452A2.187,2.187,0,0,0,701.8,1712.513Z" fill="#fe504f"/>
            <path id="Trazado_100507" data-name="Trazado 100507" d="M717.328,1711.749l-10.407,8.739.008-.007a1.041,1.041,0,0,1-.348.208.316.316,0,0,1-.172.007.646.646,0,0,1-.212-.1,1.537,1.537,0,0,1-.326-.306l-1.186.979,1.3-.82-2.535-4.347a1.4,1.4,0,0,0-1.989-.365,1.525,1.525,0,0,0-.607,2.005l2.535,4.347a1.222,1.222,0,0,0,.111.159,3.974,3.974,0,0,0,.857.789,3.239,3.239,0,0,0,1.075.468,3.325,3.325,0,0,0,1.7-.068,4.4,4.4,0,0,0,1.539-.849l.008-.006,10.407-8.739a1.377,1.377,0,1,0-1.759-2.095Z" fill="#353535"/>
          </g>
          <g id="Grupo_53775" data-name="Grupo 53775">
            <path id="Trazado_100508" data-name="Trazado 100508" d="M711.73,1690.617l10.028,2.31-3.541,10.163-10.027-2.31,3.54-10.163m-2.024-.8-3.758,10.789a1.68,1.68,0,0,0,1.18,2.269l10.644,2.452a2.186,2.186,0,0,0,2.469-1.429L724,1693.106a1.681,1.681,0,0,0-1.18-2.27l-10.645-2.452A2.187,2.187,0,0,0,709.706,1689.813Z" fill="#fe504f"/>
          </g>
          <g id="Grupo_53776" data-name="Grupo 53776">
            <path id="Trazado_100509" data-name="Trazado 100509" d="M767.554,1677.995l-105.8-24.228a1,1,0,0,0-1.132.655.77.77,0,0,0,.541,1.04l105.795,24.228a1,1,0,0,0,1.132-.655A.771.771,0,0,0,767.554,1677.995Z" fill="#353535"/>
            <path id="Trazado_100510" data-name="Trazado 100510" d="M768.909,1674.1l-105.794-24.228a1,1,0,0,0-1.132.654.77.77,0,0,0,.541,1.04L768.319,1675.8a1,1,0,0,0,1.132-.655A.77.77,0,0,0,768.909,1674.1Z" fill="#353535"/>
          </g>
          <g id="Grupo_53777" data-name="Grupo 53777">
            <path id="Trazado_100511" data-name="Trazado 100511" d="M734.2,1774.247,628.4,1750.019a1,1,0,0,0-1.131.654.771.771,0,0,0,.541,1.041l105.794,24.228a1,1,0,0,0,1.132-.655A.77.77,0,0,0,734.2,1774.247Z" fill="#353535"/>
            <path id="Trazado_100512" data-name="Trazado 100512" d="M735.555,1770.355,629.76,1746.127a1,1,0,0,0-1.132.655.771.771,0,0,0,.541,1.04l105.795,24.228a1,1,0,0,0,1.132-.654A.771.771,0,0,0,735.555,1770.355Z" fill="#353535"/>
            <path id="Trazado_100513" data-name="Trazado 100513" d="M738.819,1758.332,633.025,1734.1a1,1,0,0,0-1.132.655.77.77,0,0,0,.541,1.04l105.795,24.228a1,1,0,0,0,1.131-.655A.77.77,0,0,0,738.819,1758.332Z" fill="#353535"/>
          </g>
          <path id="Trazado_100514" data-name="Trazado 100514" d="M765.1,1686.016,659.3,1661.788a1,1,0,0,0-1.132.655c-.158.453-1.234,3.543-1.356,3.891a.771.771,0,0,0,.541,1.04L763.151,1691.6a1,1,0,0,0,1.132-.655c.132-.38,1.288-3.7,1.356-3.891A.77.77,0,0,0,765.1,1686.016Z" fill="#353535"/>
          <g id="Grupo_53778" data-name="Grupo 53778">
            <path id="Trazado_100515" data-name="Trazado 100515" d="M743.411,1747.563l-105.794-24.228a1,1,0,0,0-1.132.655.77.77,0,0,0,.541,1.04l105.795,24.228a1,1,0,0,0,1.131-.655A.77.77,0,0,0,743.411,1747.563Z" fill="#353535"/>
            <path id="Trazado_100516" data-name="Trazado 100516" d="M744.767,1743.672l-105.8-24.228a1,1,0,0,0-1.131.655.77.77,0,0,0,.541,1.04l105.794,24.228a1,1,0,0,0,1.132-.655A.77.77,0,0,0,744.767,1743.672Z" fill="#353535"/>
          </g>
          <g id="Grupo_53779" data-name="Grupo 53779">
            <path id="Trazado_100517" data-name="Trazado 100517" d="M649.847,1699.805l10.028,2.31-3.541,10.163-10.028-2.31,3.541-10.163m-2.024-.8-3.759,10.788a1.681,1.681,0,0,0,1.181,2.27l10.644,2.452a2.186,2.186,0,0,0,2.469-1.429l3.759-10.788a1.681,1.681,0,0,0-1.181-2.27l-10.644-2.452A2.187,2.187,0,0,0,647.823,1699Z" fill="#fe504f"/>
          </g>
        </g>
        <path id="Trazado_100518" data-name="Trazado 100518" d="M766.083,1609.1a5.762,5.762,0,0,0-2.68-1.9,7.707,7.707,0,0,0-1.529-.4l-19.1-4.342a.732.732,0,1,0-.324,1.428h0l19.17,4.357.036,0a6.411,6.411,0,0,1,2.012.674,3.74,3.74,0,0,1,1.253,1.063,2.914,2.914,0,0,1,.537,1.761,5.167,5.167,0,0,1-.239,1.479.732.732,0,1,0,1.4.42,6.62,6.62,0,0,0,.3-1.9A4.387,4.387,0,0,0,766.083,1609.1Z" fill="#fff"/>
      </g>
      <path id="Trazado_100519" data-name="Trazado 100519" d="M504.6,1598.027h0l-.009.007-.033.027.042-.034m-.1-3.98-1.263,8.38,9.094,4.81-7.831-13.19m-5.812-9.789-2.9,18.179s2.357,11.078,8.694,16.335q.342.284.69.525a108.554,108.554,0,0,0-2.8-17.327l.523.277c-1.99-2.951-1.424-7.771-.449-11.655l-3.76-6.334" fill="#236780"/>
      <path id="Trazado_100520" data-name="Trazado 100520" d="M538.095,1639.124c-20.87-11.871-14.169-25.757-14.169-25.757l-21.546-11.4c9.089,38.9-6.028,36.277-3.892,46.168,6.476,17.446,29.137,39.072,39.392,33.268,5.829-3.3,47.562-34.088.215-42.282" fill="#f29d7e"/>
      <path id="Trazado_100521" data-name="Trazado 100521" d="M526.8,1629.723c-6.536-8.759-2.873-16.356-2.873-16.356l-21.546-11.4c2.13,9.114,10.627,35.293,21.4,34.918,3.618-.126,2.423-5.791,3.016-7.165" fill="#f85e8f"/>
      <path id="Trazado_100522" data-name="Trazado 100522" d="M531.031,1827.239l6.527-14.387.44,14.387h44.234l-9.178-61.633H492.541l-13.247,61.633Z" fill="#184657"/>
      <path id="Trazado_100523" data-name="Trazado 100523" d="M573.6,1656.773c-7.108-11.656-31.777-15.2-31.777-15.2l17.786,59.467c43.57,35.091,46.193,42.337,58.662,10.534,0,0-38.416-44.545-44.671-54.8" fill="#e85f5b"/>
      <path id="Trazado_100524" data-name="Trazado 100524" d="M511.3,1648.756h0m-.02-.018.005.005-.005-.005m-.022-.019.009.008-.009-.008m-.022-.018.011.009-.011-.009m-.021-.019.012.01-.012-.01m-.029-.026.021.018-.021-.018" fill="#fbe3e9"/>
      <path id="Trazado_100525" data-name="Trazado 100525" d="M566.3,1650.312s-15.551-10.848-28.981-11.978l-3.587,21.747-32.725-21.271c-20.289.981-32.177,15.452-32.177,15.452l-49.189,60.347s3.119,28.794,33.352,21.956l27.528-24.7,7.724,69.624s74.645,19.142,101.279-11.812L566.3,1650.312" fill="#e85f5b"/>
      <path id="Trazado_100526" data-name="Trazado 100526" d="M509.4,1608.073l.089.042-.089-.042" fill="url(#radial-gradient)"/>
      <path id="Trazado_100527" data-name="Trazado 100527" d="M511.6,1608.432l.1.053-.1-.053" fill="url(#radial-gradient-2)"/>
      <path id="Trazado_100528" data-name="Trazado 100528" d="M505.956,1593.267l-.009.009-.038.039.047-.048m0,0h0" fill="url(#radial-gradient-3)"/>
      <path id="Trazado_100529" data-name="Trazado 100529" d="M525.5,1570.525l-9.331,6.178c4.461-.876,8.581-1.7,12.23-2.435l-2.9-3.743" fill="url(#radial-gradient-4)"/>
      <path id="Trazado_100530" data-name="Trazado 100530" d="M528.4,1574.268c-3.649.739-7.769,1.559-12.23,2.435l-11.657,7.718a43.483,43.483,0,0,0-2.057,6.171l2.052,3.455.294-1.954,35.609-2.316L528.4,1574.268" fill="url(#radial-gradient-5)"/>
      <path id="Trazado_100531" data-name="Trazado 100531" d="M502.9,1602.247c.1.142.2.279.3.412l.035-.232-.34-.18" fill="url(#radial-gradient-6)"/>
      <path id="Trazado_100532" data-name="Trazado 100532" d="M522.273,1567.791c-49.489.645-22.633,46.766-20.792,40.288,1.624,8.48,9.7,16.353,18.7,18.109,17.25,3.366,20.636-19.436,20.636-19.436a116.752,116.752,0,0,1-.536-12.018C540.944,1577.778,538.824,1567.337,522.273,1567.791Z" fill="#f29d7e"/>
      <path id="Trazado_100533" data-name="Trazado 100533" d="M540.284,1594.734c.432-11.11-.33-19.421-5.561-23.7-.676,5.256-2,14.308-10.88,18.147a113.2,113.2,0,0,1,5.759,13.137c9.9-1.979,1.8,6.659,1.8,6.659s-20.516,18.9-5.939,17.636,15.357-19.856,15.357-19.856A116.752,116.752,0,0,1,540.284,1594.734Z" fill="#f29d7e"/>
      <path id="Trazado_100534" data-name="Trazado 100534" d="M541.482,1576.087s12.872-22.034-21.271-14.726c0,0,1.188-5.79-7.527-4.581-9.993,1.386-22.521,13.049-18.326,20.507,0,0-15.271,7.854.871,24.187,0,0-.239-20.156,6.143,2.014l1.294.035c7.68-9.248,2.6-17.618,2.6-17.618,5.89,4.69,28.252,1.2,15.489-3.927,0,0,9.49,2.509,13.308.873,2.355-1.01,2.836-4.364-.763-5.782,0,0,4.472.436,5.781,1.745s1.459,11.406,1.459,11.406C544.779,1589.476,555.008,1573.906,541.482,1576.087Z" fill="#236780"/>
      <path id="Trazado_100535" data-name="Trazado 100535" d="M524.249,1655.678l.008,0-.008,0" fill="#ffcd91"/>
      <path id="Trazado_100536" data-name="Trazado 100536" d="M521.647,1692.779a.355.355,0,0,0,.259.091h0a2.219,2.219,0,0,1-.262-.091" fill="url(#radial-gradient-7)"/>
      <path id="Trazado_100537" data-name="Trazado 100537" d="M555.889,1658.846a.356.356,0,0,0-.262.094,2.368,2.368,0,0,1,.262-.094" fill="url(#radial-gradient-8)"/>
      <path id="Trazado_100538" data-name="Trazado 100538" d="M521.384,1596.615c0,1.49-.86,2.7-1.92,2.7s-1.919-1.209-1.919-2.7.859-2.7,1.919-2.7S521.384,1595.124,521.384,1596.615Z" fill="#2d2d2d"/>
      <path id="Trazado_100539" data-name="Trazado 100539" d="M535.181,1596.015c0,1.491-.86,2.7-1.92,2.7s-1.919-1.208-1.919-2.7.859-2.7,1.919-2.7S535.181,1594.524,535.181,1596.015Z" fill="#2d2d2d"/>
      <path id="Trazado_100540" data-name="Trazado 100540" d="M519.922,1613.8a6.821,6.821,0,0,0,1.2,1.646,5.878,5.878,0,0,0,1.528,1.14,4.852,4.852,0,0,0,2.218.534,6.519,6.519,0,0,0,3.325-1.018.757.757,0,1,0-.772-1.3,5.013,5.013,0,0,1-2.553.806,3.342,3.342,0,0,1-1.532-.369,4.731,4.731,0,0,1-1.538-1.315,5.614,5.614,0,0,1-.391-.571c-.043-.071-.074-.127-.093-.164l-.02-.038,0-.007-.193.095.194-.094h0l-.193.095.194-.094a.757.757,0,1,0-1.364.658Z" fill="#fff"/>
      <path id="Trazado_100541" data-name="Trazado 100541" d="M482.481,1665.43l.01.023a59.331,59.331,0,0,1,4.308,21.9,43.7,43.7,0,0,1-5.279,21.415.757.757,0,0,0,1.324.736,45.2,45.2,0,0,0,5.469-22.151,60.631,60.631,0,0,0-4.45-22.548.758.758,0,0,0-1.382.621Z" fill="#aa3131"/>
      <path id="Trazado_100542" data-name="Trazado 100542" d="M510.2,1662.777l9.363-7.959,14.176,5.263-30.561-21.414.842-5.618s-5.758,1.171-6.226,6.554S510.2,1662.777,510.2,1662.777Z" fill="#e85f5b"/>
      <path id="Trazado_100543" data-name="Trazado 100543" d="M546.6,1651.893l-12.523,8.309-1.521-24.461-4.292-3.882a20.434,20.434,0,0,1,10.027,3.765C542.517,1638.988,546.6,1651.893,546.6,1651.893Z" fill="#e85f5b"/>
      <path id="Trazado_100544" data-name="Trazado 100544" d="M538.976,1654.195l8.6,1.854-.133-.933a51.539,51.539,0,0,0-2.671-9.954,36.146,36.146,0,0,0-3.619-6.492c-.507.043,2.665,7.349,3.617,10.614.5,1.72.846,3.23,1.064,4.307.059.291.108.547.149.771l-6.146-4.027-6.374,10.214s-12.989-7.17-13.268-6.938l-9.842,8.184c-1.533-2.415-7.088-11.171-9.192-14.578a19.816,19.816,0,0,1-2.25-5.3c-.192-.722-.308-1.324-.377-1.741-.034-.208-.056-.371-.069-.479-.007-.055-.012-.095-.014-.122l0-.028v-.006a.657.657,0,1,0-1.308.115,20.837,20.837,0,0,0,2.9,8.246c2.463,3.988,9.6,15.221,9.6,15.222l.4.63,9.316-7.746,14.623,6.182Z" fill="#aa3131"/>
      <path id="Trazado_100545" data-name="Trazado 100545" d="M509.344,1787.732h0a15.56,15.56,0,0,1-4.334,5.55c-3.267,2.811-8.767,5.813-17.836,6.6a.657.657,0,0,0,.114,1.308c9.458-.819,15.292-4.025,18.742-7.061a16.505,16.505,0,0,0,4.546-5.947.657.657,0,1,0-1.232-.456Z" fill="#2d2d2d"/>
      <g id="Grupo_53786" data-name="Grupo 53786">
        <g id="Grupo_53784" data-name="Grupo 53784">
          <g id="Grupo_53783" data-name="Grupo 53783">
            <g id="Grupo_53782" data-name="Grupo 53782">
              <path id="Trazado_100546" data-name="Trazado 100546" d="M460.234,1761.08l-14.871,9.61a5.73,5.73,0,0,1-6.22-9.626l14.87-9.61Z" fill="#4b4b4b"/>
              <path id="Trazado_100547" data-name="Trazado 100547" d="M632.52,1632.5l.027.042,32.026-13.7,3.086,4.777-25.644,23.571.014.021-.039.026Z" fill="#fcc14a"/>
              <path id="Trazado_100548" data-name="Trazado 100548" d="M581.2,1686.524l-106.9,69.08a11.223,11.223,0,0,0,13.487.977l38.56-24.917a3.619,3.619,0,0,1,3.928,6.079l-38.56,24.916a18.464,18.464,0,0,1-23.629-3.04l-6.2,4.006-3.17-4.905-3.169-4.905-3.17-4.906,44.076-28.481h0l34.591-22.352,40.651-26.269Z" fill="#fcc14a"/>
              <rect id="Rect치ngulo_5141" data-name="Rect치ngulo 5141" width="72.382" height="17.521" transform="matrix(0.84, -0.543, 0.543, 0.84, 571.687, 1671.808)" fill="#4b4b4b"/>
            </g>
          </g>
          <path id="Trazado_100549" data-name="Trazado 100549" d="M670.057,1621.128l-2.746,1.7c-.038.026-.078.049-.116.075l-2.012-3.114,2.823-1.706,7.046-2.55Z" fill="#1d1d1b"/>
        </g>
        <g id="Grupo_53785" data-name="Grupo 53785">
          <path id="Trazado_100550" data-name="Trazado 100550" d="M636.7,1634.406l27.13-12.036a.732.732,0,0,0-.593-1.338L636.1,1633.068a.732.732,0,1,0,.594,1.338" fill="#fff"/>
        </g>
      </g>
      <g id="Grupo_53787" data-name="Grupo 53787">
        <path id="Trazado_100551" data-name="Trazado 100551" d="M576.624,1662.387a2.649,2.649,0,0,0,2.94,2.536c1.715-.163,6.172,10.2,8.213,12.84l14.067,53.471s20.049,6.485,24.581-12.9-24.233-41.705-24.233-41.705c-.066-.256,4.592-2.64,4.811-6.438s-.052-3.8,2.28-5.279.679-3.266.679-3.266c-2.532-.919-5.222.643-7.323,2.981-.027-.043-.048-.085-.072-.128-.111-.275-.245-.582-.389-.9-.1-.336-1.349-3.01-1.067-3.068-.255-3.129-1.43-6.977-5.694-6.871,0,0-2.135,1.17-.394,3.313a4.38,4.38,0,0,1,.9,2.418c-.079-.005-.159-.006-.238-.009-1.319-2.953-4.064-7.184-8.465-5.173,0,0-1.5,1.914.94,3.2a4.8,4.8,0,0,1,2.082,2.531c-2.13-2.433-6.02-5.692-9.639-2.456,0,0-.869,2.274,1.846,2.779a5.427,5.427,0,0,1,3.318,2.6l-.227.139C583.364,1661.341,578.634,1658.72,576.624,1662.387Z" fill="#f29d7e"/>
      </g>
      <g id="Grupo_53788" data-name="Grupo 53788">
        <path id="Trazado_100552" data-name="Trazado 100552" d="M611.987,1685.682c-6.308,3.9-12.673,7.733-19.129,11.4l8.986,34.156s20.049,6.485,24.581-12.9C629.15,1706.679,619.845,1693.969,611.987,1685.682Z" fill="#e85f5b"/>
      </g>
      <g id="Grupo_53789" data-name="Grupo 53789">
        <path id="Trazado_100553" data-name="Trazado 100553" d="M600.766,1724l-6.968-26.752,16.285-9.414a.8.8,0,0,0-.8-1.379l-17.335,10.021,7.274,27.925a.8.8,0,1,0,1.541-.4Z" fill="#aa3131"/>
      </g>
      <path id="Trazado_100554" data-name="Trazado 100554" d="M523.843,1722.927c.035-.08.07-.162.1-.244a5.425,5.425,0,0,1,3.044,2.913c.887,2.616,3.014,1.431,3.014,1.431,2.686-4.044-1.094-7.429-3.806-9.19a4.794,4.794,0,0,1,2.8,1.7c1.623,2.235,3.3.473,3.3.473,1.363-4.643-3.217-6.757-6.328-7.64-.014-.078-.027-.157-.042-.234a4.378,4.378,0,0,1,2.52.54c2.37,1.418,3.223-.862,3.223-.862-.5-4.236-4.48-4.85-7.613-4.656-.018.288-2.842-.566-3.189-.618-.337-.1-.66-.186-.948-.256-.046-.018-.09-.033-.137-.053,2.014-2.413,3.177-5.3,1.906-7.674,0,0-2.005-1.381-3.136,1.138s-1.172,2.253-4.9,3.01-5.423,5.709-5.685,5.681l-61.248,1.408,1.5,37.534s51.412-18.484,60.68-24.513c2.9,1.644,13.8,4.576,13.88,6.3a2.651,2.651,0,0,0,2.93,2.549C529.06,1729.147,525.791,1724.839,523.843,1722.927Z" fill="#f29d7e"/>
      <path id="Trazado_100555" data-name="Trazado 100555" d="M485.748,1708.27l-55.6.676c-7.391,1.231-14.576,5.826-14.576,19.038,0,27.2,30.745,20.122,30.745,20.122s27.014-8.421,45.613-16.372C489.851,1723.912,487.711,1716.1,485.748,1708.27Z" fill="#e85f5b"/>
      <g id="Grupo_53790" data-name="Grupo 53790">
        <path id="Trazado_100556" data-name="Trazado 100556" d="M431.563,1709.229l53.9-.524,5.52,22.961a.761.761,0,1,0,1.48-.356l-5.8-24.139-55.117.535a.762.762,0,1,0,.015,1.523Z" fill="#aa3131"/>
      </g>
      <g id="Grupo_53791" data-name="Grupo 53791">
        <path id="Trazado_152558" data-name="Trazado 152558" d="M682.872,1574.927H667.23a6.216,6.216,0,0,1-6.216-6.216h0v-15.642a6.216,6.216,0,0,1,6.216-6.216h15.642a6.216,6.216,0,0,1,6.218,6.214v15.647a6.216,6.216,0,0,1-6.216,6.216h0" fill="#46acc3"/>
        <path id="Trazado_152559" data-name="Trazado 152559" d="M673.721,1565.954c0-.982.3-1.462,1.342-1.462,1,0,1.36.42,1.36,1.462,0,1.02-.36,1.462-1.36,1.462-1.042,0-1.342-.441-1.342-1.462m.521-3.826c-.161-2.885-.34-6.07-.34-8.756,0-.521.28-.58,1.162-.58.9,0,1.182.06,1.182.58,0,2.685-.181,5.866-.341,8.756-.019.361-.22.4-.841.4-.6,0-.8-.04-.821-.4" fill="#fff"/>
      </g>
      <path id="Trazado_152570" data-name="Trazado 152570" d="M520.546,1606.04h0a3.906,3.906,0,1,0-4.491,3.217,3.908,3.908,0,0,0,4.491-3.217" fill="#ed6d53"/>
      <path id="Trazado_152573" data-name="Trazado 152573" d="M513.029,1593.161a.37.37,0,0,1-.569-.443,12.667,12.667,0,0,1,.638-1.168,11.4,11.4,0,0,1,.818-1.064,9.493,9.493,0,0,1,2.076-1.757,10.134,10.134,0,0,1,1.235-.614l.321-.125.332-.1.33-.1c.113-.027.227-.046.34-.069a5.675,5.675,0,0,1,2.765.061.367.367,0,0,1-.054.714l-.058.008a11.418,11.418,0,0,0-2.281.576,12.729,12.729,0,0,0-2.1,1.014c-.331.211-.663.417-.978.66-.335.209-.629.484-.949.73-.164.119-.3.266-.457.4l-.461.405c-.3.283-.589.58-.92.852Z" fill="#236780"/>
      <path id="Trazado_152573-2" data-name="Trazado 152573" d="M540,1590.615c-.409-.128-.788-.294-1.172-.445l-.58-.2c-.193-.066-.377-.15-.573-.2-.389-.108-.765-.251-1.154-.32-.383-.106-.768-.173-1.154-.244a12.724,12.724,0,0,0-2.332-.149,11.391,11.391,0,0,0-2.331.323l-.056.014a.367.367,0,0,1-.318-.642,5.684,5.684,0,0,1,2.539-1.094c.114-.021.227-.047.341-.064l.344-.031.346-.031.344,0a9.906,9.906,0,0,1,1.376.105,9.494,9.494,0,0,1,2.583.848,11.271,11.271,0,0,1,1.158.679,12.756,12.756,0,0,1,1.03.843.37.37,0,0,1-.361.625Z" fill="#236780"/>
      <path id="Trazado_152571" data-name="Trazado 152571" d="M524.935,1608.574l5.418.722a1.619,1.619,0,0,0,1.746-2.122l-3.251-9.6Z" fill="#ed6d53"/>
      <path id="Trazado_100557" data-name="Trazado 100557" d="M540.7,1606.332l-.236-4.3a3.906,3.906,0,1,0,.064,6.688Z" fill="#ed6d53"/>
      <path id="Trazado_152562" data-name="Trazado 152562" d="M553.787,1548.405a3.8,3.8,0,0,1,0-7.6h0c.108,0,.214.008.319.016a5.705,5.705,0,0,1,10.777.017,3.691,3.691,0,0,1,2.145.361,4.9,4.9,0,1,1,4.316,7.209Z" transform="translate(-1.001 -4)" fill="#9fd4e0"/>
      <path id="Trazado_152562-2" data-name="Trazado 152562" d="M449.738,1606.9a3.8,3.8,0,1,1,0-7.6h0c.108,0,.213.008.319.016a5.705,5.705,0,0,1,10.777.016,3.7,3.7,0,0,1,2.144.362,4.9,4.9,0,1,1,4.316,7.209Z" fill="#9fd4e0"/>
      <path id="Trazado_152562-3" data-name="Trazado 152562" d="M621.068,1623.451a3.069,3.069,0,1,1,0-6.138h0c.087,0,.172.007.257.013a4.606,4.606,0,0,1,8.7.013,3,3,0,0,1,1.732.292,3.954,3.954,0,1,1,3.485,5.821Z" fill="#9fd4e0"/>
      <path id="Trazado_100558" data-name="Trazado 100558" d="M531.153,1827.239,538.8,1810l28.193-9.649a.656.656,0,1,0-.426-1.242l-28.735,9.834-8.118,18.3Z" fill="#2d2d2d"/>
      <path id="Trazado_100559" data-name="Trazado 100559" d="M480.028,1827.239l10.278-43.593a.657.657,0,0,0-1.279-.3l-10.349,43.9Z" fill="#2d2d2d"/>
    </g>
    <path id="Trazado_152553" data-name="Trazado 152553" d="M426.457,1673.713h-18.4a7.312,7.312,0,0,1-7.312-7.312h0v-18.4a7.312,7.312,0,0,1,7.312-7.312h18.4a7.311,7.311,0,0,1,7.312,7.312h0v18.4a7.312,7.312,0,0,1-7.312,7.312h0" fill="#e85f5b"/>
    <g id="Grupo_53793" data-name="Grupo 53793">
      <path id="Trazado_100560" data-name="Trazado 100560" d="M409.562,1664.258a3.6,3.6,0,0,1,1.019-1.893q1.02-1.236,3.925-4.308,1.4-1.467,2.674-2.668t2.005-1.816q.726-.614,2.178-1.808t1.7-1.432a9.079,9.079,0,0,1,1.46-1.159q.426-.223.426.433a1.988,1.988,0,0,1-.559,1.18,30,30,0,0,1-2.193,2.228q-1.633,1.549-3.359,3.3t-3.736,4.064q-1,1.159-1.9,2.332t-1.508,2.047q-.615.871-.852,1.145a.65.65,0,0,1-.461.272q-.294,0-.559-.712A3.564,3.564,0,0,1,409.562,1664.258Zm7.206-15.307a1.062,1.062,0,0,1,.629.412,1.73,1.73,0,0,1,.209.97,6,6,0,0,1-.642,2.507,7.049,7.049,0,0,1-1.725,2.333,3.425,3.425,0,0,1-2.3.956,1.921,1.921,0,0,1-1.523-.7,2.819,2.819,0,0,1-.6-1.9,4.843,4.843,0,0,1,.712-2.445,6.333,6.333,0,0,1,1.872-2.039,4.044,4.044,0,0,1,2.332-.81.938.938,0,0,1,.607.175A1.876,1.876,0,0,1,416.768,1648.951Zm-3.575,5.432a2.612,2.612,0,0,0,1.7-.7,5.422,5.422,0,0,0,1.32-1.655,3.688,3.688,0,0,0,.5-1.613c0-.512-.145-.768-.433-.768a5.383,5.383,0,0,0-.538.112,1,1,0,0,1-.719-.028.354.354,0,0,0-.077-.056.183.183,0,0,0-.091-.028q-.182,0-.838.579a6.062,6.062,0,0,0-1.166,1.425,3.323,3.323,0,0,0-.51,1.739,1.019,1.019,0,0,0,.251.719A.789.789,0,0,0,413.193,1654.383Zm9.33,3.925a1.151,1.151,0,0,1,.663.482,2.761,2.761,0,0,1,.161,1.152,4.839,4.839,0,0,1-.8,2.577,8.018,8.018,0,0,1-1.837,2.095,3.075,3.075,0,0,1-1.655.817,1.785,1.785,0,0,1-1.306-.838,3.164,3.164,0,0,1-.663-2.025,4.39,4.39,0,0,1,.656-2.137,6.4,6.4,0,0,1,1.7-1.955,3.409,3.409,0,0,1,2.074-.8A1.226,1.226,0,0,1,422.523,1658.308Zm-4.232,4.344a1.424,1.424,0,0,0,.314,1.061.7.7,0,0,0,.845.028,4.026,4.026,0,0,0,1.187-1.061,8.373,8.373,0,0,0,1.1-1.788,3.8,3.8,0,0,0,.406-1.383c0-.437-.145-.656-.433-.656a2.955,2.955,0,0,0-1.209.523,5.792,5.792,0,0,0-1.536,1.39A3,3,0,0,0,418.291,1662.652Z" fill="#fff"/>
    </g>
    <g id="Grupo_53794" data-name="Grupo 53794">
      <path id="Trazado_100561" data-name="Trazado 100561" d="M680.118,1641.042l-.155.783a43.14,43.14,0,0,1-4.447,2.982,15.978,15.978,0,0,1-3.751,1.6,7.235,7.235,0,0,1-3.275.173,4.631,4.631,0,0,1-2.132-.959,3.4,3.4,0,0,1-1.11-1.79,5.5,5.5,0,0,1-.01-2.449,8.43,8.43,0,0,1,.789-2.2,12.758,12.758,0,0,1,1.473-2.224,21.845,21.845,0,0,1,2.094-2.208q1.2-1.114,2.762-2.295a25.9,25.9,0,0,1,3.117-2.043,18.235,18.235,0,0,1,2.671-1.232,10.719,10.719,0,0,1,2.126-.529,4.965,4.965,0,0,1,1.548-.009,1.815,1.815,0,0,1,.966.492,1.887,1.887,0,0,1,.483.972,3.376,3.376,0,0,1-.022,1.321,6.467,6.467,0,0,1-1.526,2.845,18.359,18.359,0,0,1-2.949,2.766,21,21,0,0,1-3.144,2.013,3.886,3.886,0,0,1-2.006.623,1.021,1.021,0,0,1-.633-.431.911.911,0,0,1-.188-.732,3.043,3.043,0,0,1,1.056-1.518,14.1,14.1,0,0,1,1.943-1.474,3.527,3.527,0,0,1,1.191-.61c.055.011.079.041.069.089a1.094,1.094,0,0,1-.2.348,1.211,1.211,0,0,0-.192.3c-.013.064.006.1.054.11.135.027.6-.26,1.4-.863a17.419,17.419,0,0,0,2.265-2.061,4.556,4.556,0,0,0,1.241-2,.854.854,0,0,0-.046-.565.56.56,0,0,0-.414-.276,5.184,5.184,0,0,0-2.829.862,26.4,26.4,0,0,0-4.205,2.786,25.094,25.094,0,0,0-3.866,3.772,8.822,8.822,0,0,0-1.988,3.724,4.143,4.143,0,0,0-.03,1.708,2.305,2.305,0,0,0,.666,1.194,2.558,2.558,0,0,0,1.308.635,7.942,7.942,0,0,0,4.229-.578A28.406,28.406,0,0,0,680.118,1641.042Z" fill="#fe504f"/>
      <path id="Trazado_100562" data-name="Trazado 100562" d="M687.749,1642.574l-.159.806a6.511,6.511,0,0,1-1.466.712,2.887,2.887,0,0,1-1.423-.08q-1.935,1.545-3.125,1.309a1.94,1.94,0,0,1-1.14-.688,3.152,3.152,0,0,1-.645-1.391,4.4,4.4,0,0,1,.009-1.788,3.7,3.7,0,0,1,.849-1.609,7.869,7.869,0,0,1,1.671-1.491,7.685,7.685,0,0,1,2-.968,3.742,3.742,0,0,1,1.82-.16,1.964,1.964,0,0,1,.858.35.551.551,0,0,1,.229.553.921.921,0,0,1-.388.5,1.043,1.043,0,0,1,.565.442,1.468,1.468,0,0,1,.007.846,5.28,5.28,0,0,1-.559,1.4,7.394,7.394,0,0,1-1.066,1.5l.174.259.18.036a.9.9,0,0,0,.424-.023,2.573,2.573,0,0,0,.4-.147C687.081,1642.9,687.343,1642.769,687.749,1642.574Zm-1.856-3.657q-1.119.405-1.924.752a8.364,8.364,0,0,0-1.4.75,2.71,2.71,0,0,0-.861.875q-.567,1.289-.59,1.4-.156.795.951,1.014a3.881,3.881,0,0,0,1.912-.548,3.2,3.2,0,0,1,.009-1.125,4.253,4.253,0,0,1,.618-1.485A13.053,13.053,0,0,1,685.893,1638.917Z" fill="#fe504f"/>
      <path id="Trazado_100563" data-name="Trazado 100563" d="M696.267,1642.017q-2.585,1.943-2.768,2.869c-.069.345.039.546.319.6a1.854,1.854,0,0,0,.981-.188q.634-.255,2.011-.961l-.164.831q-2.043,1.349-3.1,1.915a2.726,2.726,0,0,1-1.642.452q-.988-.2-.73-1.5a2.538,2.538,0,0,1,.27-.736,5.161,5.161,0,0,1,.485-.711q.289-.36.873-1.029c.388-.443.832-.947,1.335-1.506a7.777,7.777,0,0,0-2,1.044,13.727,13.727,0,0,0-1.387,1.009q-.585.492-1.263,1.1a10.354,10.354,0,0,1-.972.809.724.724,0,0,1-.549.148c-.257-.05-.441-.367-.551-.947a5.067,5.067,0,0,1,.046-1.942,2.883,2.883,0,0,1,.355-1.007,7.132,7.132,0,0,1,.8-.942,12.059,12.059,0,0,1,1.8-1.589,1.736,1.736,0,0,1,1.274-.368,1.268,1.268,0,0,1,.593.255.447.447,0,0,1,.155.456.547.547,0,0,1-.122.238,1.42,1.42,0,0,1-.21.209c-.075.06-.228.176-.462.346q-2.322,1.731-2.443,2.359-.069.349.159.394c.1.018.313-.1.652-.353s.774-.59,1.312-1.005a19.931,19.931,0,0,1,1.864-1.264,16.911,16.911,0,0,1,2.352-1.175,2.048,2.048,0,0,1,1.148-.236c.128.025.221.227.274.6a3.22,3.22,0,0,1-.023,1.109Q696.894,1641.577,696.267,1642.017Z" fill="#fe504f"/>
      <path id="Trazado_100564" data-name="Trazado 100564" d="M702.19,1638.957l.518.1a6.812,6.812,0,0,1,1.476-1.391,1.729,1.729,0,0,1,1.274-.243c.442.088.643.231.6.432-.019.1-.244.323-.672.68a10.833,10.833,0,0,0-.995.918l.712.228c.208.067.371.119.487.158a19.042,19.042,0,0,1-2.237,2.273c-.222-.059-.407-.11-.558-.153l-.457-.128-.564-.155q-.856.92-1.46,1.657a10.71,10.71,0,0,0-.972,1.379,4.076,4.076,0,0,0-.491,1.255q-.165.829.5.961a2.451,2.451,0,0,0,1.3-.251q.836-.342,2.276-1.109l-.159.807q-3.948,2.889-5.5,2.581a1.082,1.082,0,0,1-.791-.595,1.737,1.737,0,0,1-.116-1.149,3.781,3.781,0,0,1,.4-1.023c.2-.384.549-.958,1.032-1.722-.13.074-.255.148-.373.219l-.328.2c-.1.059-.205.122-.317.187s-.228.133-.341.2l.164-.831a18.986,18.986,0,0,0,3.793-3.117c-.118-.032-.23-.06-.333-.084s-.227-.052-.372-.08a4.322,4.322,0,0,0-1.078-.113c-.1.005-.2.013-.287.024a.683.683,0,0,1-.183.008c-.031-.007-.044-.033-.033-.082a2.692,2.692,0,0,1,.729-1.094,4.428,4.428,0,0,1,.949-.851,1.877,1.877,0,0,1,.954-.268A7.1,7.1,0,0,1,702.19,1638.957Z" fill="#fe504f"/>
      <path id="Trazado_100565" data-name="Trazado 100565" d="M704.728,1643.713a14.92,14.92,0,0,1,4.041-1.767,7.036,7.036,0,0,1,2.82-.281.676.676,0,0,1,.429.3,1.632,1.632,0,0,1,.247.555,1.187,1.187,0,0,1,.046.434.352.352,0,0,1-.232.286,3.276,3.276,0,0,1-.639.13q.047.21.119.538c.048.218.084.393.109.527a.971.971,0,0,1,.007.346,2.591,2.591,0,0,1-.8.962q-.74.673-1.048,1a1.72,1.72,0,0,0-.416.869q-.176.891.643,1.053.844.167,2.949-1.057l-.145.735q-3.712,2.781-5.028,2.522a.747.747,0,0,1-.607-.438,1.717,1.717,0,0,1-.019-.949,8.7,8.7,0,0,1,1.231-2.622q-2.144,1.6-3.162,2.259a2.4,2.4,0,0,1-1.571.547c-.177-.035-.368-.23-.572-.588a4.439,4.439,0,0,1-.471-1.326,3.924,3.924,0,0,1-.008-1.572,3.6,3.6,0,0,1,.294-.924,2.347,2.347,0,0,1,.576-.693A10.95,10.95,0,0,1,704.728,1643.713Zm6.031-.186a26.519,26.519,0,0,0-4.942,1.552,2.767,2.767,0,0,0-1.738,1.8,1.366,1.366,0,0,0,.008.659.41.41,0,0,0,.312.318,1.338,1.338,0,0,0,.5-.076,9.644,9.644,0,0,0,2.7-1.488Q708.884,1645.3,710.759,1643.527Z" fill="#fe504f"/>
      <path id="Trazado_100566" data-name="Trazado 100566" d="M720.87,1649.165l-.155.782a4.216,4.216,0,0,1-2.133.406,2.964,2.964,0,0,1-.816-.3,13.757,13.757,0,0,1-2.258,1.644,2.509,2.509,0,0,1-1.686.331,1.546,1.546,0,0,1-1.2-1.226,5.244,5.244,0,0,1-.022-2.457,9.42,9.42,0,0,1,1.981-3.945,23.623,23.623,0,0,1,3.622-3.677,26.166,26.166,0,0,1,3.806-2.632,4.851,4.851,0,0,1,2.326-.88q.518.1.377.813-.624,3.156-10.267,9.409c-.045.141-.109.425-.193.85q-.327,1.662.564,1.838a1.161,1.161,0,0,0,.76-.144,11.922,11.922,0,0,0,1.3-.863,2.808,2.808,0,0,1-.1-1.02,2.6,2.6,0,0,1,.826-1.326,6.658,6.658,0,0,1,1.5-1.087,2.11,2.11,0,0,1,1.116-.362q.493.1.353.809a3.927,3.927,0,0,1-.54,1.244,13.157,13.157,0,0,1-1.167,1.571,3.438,3.438,0,0,0,.277.311.67.67,0,0,0,.346.15A2.458,2.458,0,0,0,720.87,1649.165Zm-5.762-3.014a12.354,12.354,0,0,0,1.512-1.035q.778-.615,2.3-1.9,1.457-1.239,2.32-2.087a17.3,17.3,0,0,0,1.329-1.434,2.557,2.557,0,0,0,.511-.824c.025-.121,0-.188-.059-.2q-.267-.053-1.275.656a21.512,21.512,0,0,0-2.381,2.013q-1.895,1.8-2.766,2.732A9.593,9.593,0,0,0,715.108,1646.151Z" fill="#fe504f"/>
      <path id="Trazado_100567" data-name="Trazado 100567" d="M726.656,1650.146l-.175.89q-3.176,2.839-4.754,2.528a1.517,1.517,0,0,1-1.159-1.2,5.418,5.418,0,0,1,0-2.547,9.414,9.414,0,0,1,1.155-2.806,21.361,21.361,0,0,1,2.225-3.128,22.171,22.171,0,0,1,2.61-2.636,7.646,7.646,0,0,1,2.29-1.431,1.243,1.243,0,0,1,.61-.1.331.331,0,0,1,.293.288,2.5,2.5,0,0,1-.067.782,9.09,9.09,0,0,1-2.172,3.844,25.348,25.348,0,0,1-4.778,4.23,5.59,5.59,0,0,0-.311.939,2.211,2.211,0,0,0,.084,1.319,1.076,1.076,0,0,0,.827.663,1.2,1.2,0,0,0,.7-.107,6.742,6.742,0,0,0,.852-.438Q725.332,1650.96,726.656,1650.146Zm-3.172-2.879a12.175,12.175,0,0,0,1.486-1.159,17.821,17.821,0,0,0,1.433-1.456,14.145,14.145,0,0,0,1.129-1.441,3.19,3.19,0,0,0,.507-1.013c.036-.185-.01-.29-.138-.316a.736.736,0,0,0-.3.078,8,8,0,0,0-2.115,2.029A14.254,14.254,0,0,0,723.484,1647.267Z" fill="#fe504f"/>
      <path id="Trazado_100568" data-name="Trazado 100568" d="M728.363,1651.071l-.06.3a1.66,1.66,0,0,0,.131,1.177,1.18,1.18,0,0,0,.837.578,3.082,3.082,0,0,0,1.277-.036,6.743,6.743,0,0,0,1.4-.485q.719-.335,1.773-.927l-.145.735a15.244,15.244,0,0,1-3.05,2.007,4.142,4.142,0,0,1-2.593.395,2.056,2.056,0,0,1-1.534-1.166,3.787,3.787,0,0,1-.176-2.4,4.629,4.629,0,0,1,1.042-2.177,8.937,8.937,0,0,1,2.357-1.793,7.591,7.591,0,0,1,2.052-.822,4.181,4.181,0,0,1,1.692-.078,1.444,1.444,0,0,1,.845.436.94.94,0,0,1,.179.842,2.552,2.552,0,0,1-.865,1.4,6.638,6.638,0,0,1-2.022,1.153A18.031,18.031,0,0,1,728.363,1651.071Zm.276-.76a6.987,6.987,0,0,0,2.061-.681,5.433,5.433,0,0,0,1.374-.974,1.911,1.911,0,0,0,.533-.764c.036-.185-.029-.294-.2-.328a1.8,1.8,0,0,0-.758.139,5.822,5.822,0,0,0-1.13.528,5.4,5.4,0,0,0-1.105.869A3.433,3.433,0,0,0,728.639,1650.311Z" fill="#fe504f"/>
    </g>
    <g id="Grupo_53797" data-name="Grupo 53797">
      <path id="Trazado_152545" data-name="Trazado 152545" d="M482.2,1828.045H480.03a6.644,6.644,0,0,1-6.635-6.637V1818.2a6.644,6.644,0,0,1,6.635-6.637H482.2a6.644,6.644,0,0,1,6.635,6.637v3.211a6.644,6.644,0,0,1-6.635,6.637m-2.171-12.652a2.809,2.809,0,0,0-2.8,2.805v3.211a2.808,2.808,0,0,0,2.8,2.8H482.2a2.807,2.807,0,0,0,2.805-2.8V1818.2a2.809,2.809,0,0,0-2.805-2.805Z" fill="#fff"/>
      <path id="Trazado_152546" data-name="Trazado 152546" d="M478.523,1834.265H461.43c-1.643-4.576-3.379-18.962-3.04-24.519h23.179c.084,5.184-1.346,19.736-3.041,24.519" fill="#fff"/>
      <path id="Trazado_152547" data-name="Trazado 152547" d="M487.605,1839.339H454.927a6.412,6.412,0,0,1-4.666-2.019l-2.281-2.422a.384.384,0,0,1,.278-.646h46.018a.384.384,0,0,1,.383.385.389.389,0,0,1-.1.261l-2.281,2.422a6.412,6.412,0,0,1-4.667,2.019" fill="#cbe8ee"/>
      <path id="Trazado_152548" data-name="Trazado 152548" d="M448.194,1835.137a.348.348,0,0,1,.065-.009h46.017a.359.359,0,0,1,.066.009l.213-.226a.381.381,0,0,0-.013-.54.387.387,0,0,0-.266-.106H448.258a.382.382,0,0,0-.384.38.377.377,0,0,0,.106.266Z" fill="#fff"/>
      <g id="Grupo_86843" data-name="Grupo 86843" opacity="0.58">
        <g id="Grupo_86842" data-name="Grupo 86842">
          <g id="Grupo_53796" data-name="Grupo 53796">
            <g id="Grupo_53795" data-name="Grupo 53795" clip-path="url(#clip-path)">
              <g id="Grupo_86841" data-name="Grupo 86841">
                <path id="Trazado_152549" data-name="Trazado 152549" d="M492.624,1840.778h-43.2a.719.719,0,0,1,0-1.438h43.2a.719.719,0,0,1,.005,1.438h-.005" fill="#cbc7ff"/>
              </g>
            </g>
          </g>
        </g>
      </g>
    </g>
  </g>
</svg>
