<svg xmlns="http://www.w3.org/2000/svg" width="52.698" height="52.699" viewBox="0 0 52.698 52.699">
  <g id="Grupo_88193" data-name="Grupo 88193" transform="translate(11738.927 12069.326)">
    <g id="Grupo_87650" data-name="Grupo 87650" transform="translate(-12302.041 -13643.024)">
      <g id="Grupo_53756" data-name="Grupo 53756">
        <path id="Trazado_100470" data-name="Trazado 100470" d="M615.813,1600.047a26.349,26.349,0,1,1-26.35-26.349A26.35,26.35,0,0,1,615.813,1600.047Z" fill="#fcc14a"/>
      </g>
      <g id="Grupo_53757" data-name="Grupo 53757">
        <path id="Trazado_100471" data-name="Trazado 100471" d="M610.04,1600.047a20.576,20.576,0,1,1-20.577-20.576A20.577,20.577,0,0,1,610.04,1600.047Z" fill="#ffd180"/>
      </g>
      <g id="Grupo_53758" data-name="Grupo 53758">
        <path id="Trazado_100472" data-name="Trazado 100472" d="M593.877,1576.69a23.8,23.8,0,0,1,18.206,16.041.623.623,0,0,0,1.186-.383,25.051,25.051,0,0,0-19.162-16.883.623.623,0,1,0-.23,1.225Z" fill="#fff"/>
      </g>
      <g id="Grupo_53759" data-name="Grupo 53759">
        <path id="Trazado_100473" data-name="Trazado 100473" d="M589.111,1614.544h1.7a1.188,1.188,0,0,0,1.188-1.188v-.293a1.186,1.186,0,0,1,.946-1.162,10.01,10.01,0,0,0,2.334-.757,7.915,7.915,0,0,0,2.269-1.567,5.983,5.983,0,0,0,1.319-1.986,5.865,5.865,0,0,0,.428-2.175,7.436,7.436,0,0,0-1.225-4.2,8.156,8.156,0,0,0-1.284-1.507,12.657,12.657,0,0,0-1.507-1.19,14.717,14.717,0,0,0-1.559-.916q-.756-.384-1.408-.685c-.026-.012-.052-.023-.079-.033q-.715-.267-1.441-.584a13.085,13.085,0,0,1-1.336-.668,5.069,5.069,0,0,1-.967-.7,1.006,1.006,0,0,1-.377-.7,1.051,1.051,0,0,1,.514-.9,2.979,2.979,0,0,1,1.644-.351,17.344,17.344,0,0,1,2.423.154c.725.1,1.369.328,1.987.4a2.962,2.962,0,0,0,3.586-2.817,1.191,1.191,0,0,0-.613-1.182,9.045,9.045,0,0,0-.833-.4,13.335,13.335,0,0,0-1.721-.591,15.033,15.033,0,0,0-1.781-.368q-.336-.048-.661-.086a1.186,1.186,0,0,1-1.051-1.179v-.3a1.188,1.188,0,0,0-1.189-1.188h-1.7a1.188,1.188,0,0,0-1.188,1.188v.473a1.182,1.182,0,0,1-.95,1.163,10.64,10.64,0,0,0-2.236.67,7.406,7.406,0,0,0-2.2,1.413,5.286,5.286,0,0,0-1.276,1.858,5.756,5.756,0,0,0-.411,2.158,6.558,6.558,0,0,0,.282,1.986,6.286,6.286,0,0,0,.78,1.627,7.244,7.244,0,0,0,1.147,1.327,11.513,11.513,0,0,0,1.387,1.079,15.221,15.221,0,0,0,1.507.882q.75.384,1.468.718c.027.013.054.024.081.034q1.273.489,2.185.909a12.317,12.317,0,0,1,1.515.814,3.431,3.431,0,0,1,.874.762,1.3,1.3,0,0,1,.282.788,1,1,0,0,1-.282.753,1.847,1.847,0,0,1-.754.42,4.786,4.786,0,0,1-1.079.188q-.608.043-1.276.043a12.59,12.59,0,0,1-1.935-.154c-.662-.1-1.3-.313-1.969-.42-4.341-.7-3.648,3.482-3.648,3.482a1.193,1.193,0,0,0,.754,1.109,19.784,19.784,0,0,0,2.628.83,24.445,24.445,0,0,0,2.481.466,1.191,1.191,0,0,1,1.039,1.178v.182A1.188,1.188,0,0,0,589.111,1614.544Z" fill="#fff"/>
      </g>
    </g>
  </g>
</svg>
