<svg xmlns="http://www.w3.org/2000/svg" width="58.045" height="76.482" viewBox="0 0 58.045 76.482">
  <g id="Grupo_87318" data-name="Grupo 87318" transform="translate(-561 -10086.424)">
    <rect id="Rectángulo_6321" data-name="Rectángulo 6321" width="48.945" height="1.512" transform="translate(565.868 10161.395)" fill="#3d1f71"/>
    <g id="auditoria" transform="translate(561 10086.424)">
      <path id="Trazado_153609" data-name="Trazado 153609" d="M40.352,21.393H52.7a.889.889,0,1,0,0-1.778H40.352a.889.889,0,0,0,0,1.778Z" transform="translate(-22.904 -11.966)" fill="#3d1f71"/>
      <path id="Trazado_153610" data-name="Trazado 153610" d="M64.908,38.36a11.73,11.73,0,0,0-10.8-11.678V5.446a.889.889,0,0,0-.889-.889H17.166a.188.188,0,0,0-.044.01.877.877,0,0,0-.585.25L7.123,14.23a.878.878,0,0,0-.249.582.18.18,0,0,0-.011.046v49.2a.889.889,0,0,0,.889.889H53.22a3.141,3.141,0,0,0,3.138-3.137V49.638a11.733,11.733,0,0,0,8.55-11.278ZM16.279,7.592v6.379H9.9ZM8.641,15.749h8.525a.889.889,0,0,0,.889-.889V6.335H52.331V26.678a11.645,11.645,0,0,0-5.87,2.1V20.313a.889.889,0,0,0-.889-.889H15.4a.889.889,0,0,0-.889.889V56.407a.889.889,0,0,0,.889.889H45.572a.889.889,0,0,0,.889-.889V47.942a11.657,11.657,0,0,0,3.623,1.713V61.807a3.113,3.113,0,0,0,.314,1.359H8.641Zm7.648,39.769V50.077H21.73v5.441ZM44.683,21.2v5.441H23.508V21.2ZM21.73,26.643H16.289V21.2H21.73Zm0,14.438H16.289V35.639H21.73Zm1.778-5.441H41.794a11.653,11.653,0,0,0,0,5.441H23.508Zm-7.219,7.219H21.73V48.3H16.289Zm0-9V28.421H21.73v5.441Zm7.219,16.215H44.683v5.441H23.508ZM44.683,48.3H23.508V42.858H42.373a11.747,11.747,0,0,0,2.31,3.545Zm-2.31-14.437H23.508V28.421H44.683v1.9A11.746,11.746,0,0,0,42.373,33.862Zm12.2,27.945a1.359,1.359,0,0,1-2.719,0V50a11.413,11.413,0,0,0,2.719-.007ZM53.191,48.3A9.939,9.939,0,1,1,63.13,38.36,9.94,9.94,0,0,1,53.191,48.3Z" transform="translate(-6.863 -4.557)" fill="#3d1f71"/>
      <path id="Trazado_153611" data-name="Trazado 153611" d="M90.11,54.929a8.217,8.217,0,1,0,8.217,8.217A8.217,8.217,0,0,0,90.11,54.929Zm0,14.656a6.439,6.439,0,1,1,6.439-6.439,6.439,6.439,0,0,1-6.439,6.439Z" transform="translate(-43.782 -29.343)" fill="#3d1f71"/>
    </g>
  </g>
</svg>
