<svg xmlns="http://www.w3.org/2000/svg" width="60.387" height="79.479" viewBox="0 0 60.387 79.479">
  <g id="Grupo_87321" data-name="Grupo 87321" transform="translate(-770 -10086.424)">
    <rect id="Rectángulo_6324" data-name="Rectángulo 6324" width="48.945" height="1.512" transform="translate(775.618 10164.392)" fill="#3d1f71"/>
    <g id="contabilidad" transform="translate(770 10086.424)">
      <path id="Trazado_153612" data-name="Trazado 153612" d="M44.1,29.635l-1.037,1.283a5.907,5.907,0,0,0,3.357,1.542v.965h1.311V32.5c2.089-.144,3.285-1.355,3.285-3.012,0-1.757-1.312-2.435-3.285-2.882V23.9a4.713,4.713,0,0,1,2.046,1.081l.98-1.326a5.361,5.361,0,0,0-3.026-1.34v-.893H46.423V22.3a3.076,3.076,0,0,0-2.968,2.968c0,1.7,1.2,2.337,2.968,2.794v2.811a4.927,4.927,0,0,1-2.32-1.239ZM47.734,28.4c1.023.3,1.484.605,1.484,1.27,0,.634-.5,1.181-1.484,1.3ZM45.27,25.111a1.36,1.36,0,0,1,1.153-1.239v2.391C45.645,25.99,45.27,25.687,45.27,25.111Z" transform="translate(-23.506 -12.856)" fill="#3d1f71"/>
      <path id="Trazado_153613" data-name="Trazado 153613" d="M35.589,104.885H20.5a.889.889,0,1,0,0,1.778H35.589a.889.889,0,1,0,0-1.778Z" transform="translate(-11.966 -53.924)" fill="#3d1f71"/>
      <path id="Trazado_153614" data-name="Trazado 153614" d="M62.022,27.385H51.8V5.446a.889.889,0,0,0-.889-.889H14.86a.2.2,0,0,0-.046.011.883.883,0,0,0-.584.25L4.817,14.23a.88.88,0,0,0-.25.583.189.189,0,0,0-.01.045v49.2a.889.889,0,0,0,.889.889H62.022a2.926,2.926,0,0,0,2.922-2.922V30.31a2.925,2.925,0,0,0-2.922-2.924ZM13.971,7.59v6.381H7.591ZM6.335,15.749H14.86a.889.889,0,0,0,.889-.889V6.335H50.025V27.385H39.807a2.925,2.925,0,0,0-2.923,2.924v3.567H13.095a.889.889,0,1,0,0,1.778H36.884v5.435H13.095a.889.889,0,1,0,0,1.778H36.884V48.3H13.095a.889.889,0,0,0,0,1.778H36.884V62.022a2.9,2.9,0,0,0,.234,1.144H6.335ZM63.166,62.023a1.145,1.145,0,0,1-1.144,1.144H39.807a1.145,1.145,0,0,1-1.145-1.145V30.31a1.146,1.146,0,0,1,1.145-1.146H62.022a1.145,1.145,0,0,1,1.144,1.144Z" transform="translate(-4.557 -4.557)" fill="#3d1f71"/>
      <path id="Trazado_153615" data-name="Trazado 153615" d="M95.26,56.542H76.118a.889.889,0,0,0-.889.889v7.213a.889.889,0,0,0,.889.889H95.26a.889.889,0,0,0,.889-.889V57.431a.888.888,0,0,0-.889-.889Zm-.889,7.213H77.007V58.32H94.371Z" transform="translate(-39.332 -30.137)" fill="#3d1f71"/>
      <path id="Trazado_153616" data-name="Trazado 153616" d="M95.024,77.772H90.957a.889.889,0,0,0-.889.889v3.57a.889.889,0,0,0,.889.889h4.067a.889.889,0,0,0,.889-.889v-3.57A.889.889,0,0,0,95.024,77.772Zm-.889,3.57H91.846V79.55h2.289Z" transform="translate(-46.633 -40.583)" fill="#3d1f71"/>
      <path id="Trazado_153617" data-name="Trazado 153617" d="M109.863,77.772H105.8a.889.889,0,0,0-.889.889v3.57a.889.889,0,0,0,.889.889h4.067a.889.889,0,0,0,.889-.889v-3.57A.889.889,0,0,0,109.863,77.772Zm-.889,3.57h-2.289V79.55h2.289Z" transform="translate(-53.935 -40.583)" fill="#3d1f71"/>
      <path id="Trazado_153618" data-name="Trazado 153618" d="M80.185,77.772H76.118a.889.889,0,0,0-.889.889v3.57a.889.889,0,0,0,.889.889h4.067a.889.889,0,0,0,.889-.889v-3.57A.889.889,0,0,0,80.185,77.772Zm-.889,3.57H77.007V79.55H79.3Z" transform="translate(-39.332 -40.583)" fill="#3d1f71"/>
      <path id="Trazado_153619" data-name="Trazado 153619" d="M95.024,91.829H90.957a.889.889,0,0,0-.889.889v3.57a.889.889,0,0,0,.889.889h4.067a.888.888,0,0,0,.889-.889v-3.57A.889.889,0,0,0,95.024,91.829Zm-.889,3.57H91.846V93.607h2.289Z" transform="translate(-46.633 -47.5)" fill="#3d1f71"/>
      <path id="Trazado_153620" data-name="Trazado 153620" d="M109.863,91.829H105.8a.889.889,0,0,0-.889.889v10.71a.889.889,0,0,0,.889.889h4.067a.889.889,0,0,0,.889-.889V92.718A.889.889,0,0,0,109.863,91.829Zm-.889,10.71h-2.289V93.607h2.289Z" transform="translate(-53.935 -47.5)" fill="#3d1f71"/>
      <path id="Trazado_153621" data-name="Trazado 153621" d="M80.185,91.829H76.118a.889.889,0,0,0-.889.889v3.57a.889.889,0,0,0,.889.889h4.067a.888.888,0,0,0,.889-.889v-3.57A.889.889,0,0,0,80.185,91.829ZM79.3,95.4H77.007V93.607H79.3Z" transform="translate(-39.332 -47.5)" fill="#3d1f71"/>
      <path id="Trazado_153622" data-name="Trazado 153622" d="M95.024,105.886H90.957a.889.889,0,0,0-.889.889v3.57a.889.889,0,0,0,.889.889h4.067a.889.889,0,0,0,.889-.889v-3.57A.889.889,0,0,0,95.024,105.886Zm-.889,3.57H91.846v-1.793h2.289Z" transform="translate(-46.633 -54.417)" fill="#3d1f71"/>
      <path id="Trazado_153623" data-name="Trazado 153623" d="M80.185,105.886H76.118a.889.889,0,0,0-.889.889v3.57a.889.889,0,0,0,.889.889h4.067a.889.889,0,0,0,.889-.889v-3.57A.889.889,0,0,0,80.185,105.886Zm-.889,3.57H77.007v-1.793H79.3Z" transform="translate(-39.332 -54.417)" fill="#3d1f71"/>
    </g>
  </g>
</svg>
