<svg xmlns="http://www.w3.org/2000/svg" width="60.114" height="79.235" viewBox="0 0 60.114 79.235">
  <g id="Grupo_87324" data-name="Grupo 87324" transform="translate(-980 -10086.424)">
    <rect id="Rectángulo_6327" data-name="Rectángulo 6327" width="48.945" height="1.512" transform="translate(985.437 10164.147)" fill="#3d1f71"/>
    <g id="Grupo_87029" data-name="Grupo 87029" transform="translate(960.547 10068.593)">
      <path id="Trazado_153633" data-name="Trazado 153633" d="M31.085,28.829H21.82a.95.95,0,1,1,0-1.9h8.315V18.781a.95.95,0,0,1,1.9,0v9.1A.95.95,0,0,1,31.085,28.829Z" transform="translate(-1.237)" fill="#3d1f71"/>
      <path id="Trazado_153634" data-name="Trazado 153634" d="M253.383,224.47a1.9,1.9,0,0,0,0-2.3,1.9,1.9,0,0,0,0-2.3,1.9,1.9,0,0,0,.39-1.149,1.923,1.923,0,0,0-1.913-1.912h-6.892a.765.765,0,0,0-.764.764V226h-.769v-4.979a3.065,3.065,0,0,0-3.062-3.062h-1.533v-1.585a4.22,4.22,0,0,0,1.723-3.394v-1.7a1.925,1.925,0,0,0,1.149-1.749v-2.3a.765.765,0,0,0-.764-.764h-6.893a1.923,1.923,0,0,0-1.912,1.913v4.595a4.22,4.22,0,0,0,1.723,3.394v1.585h-1.533a3.065,3.065,0,0,0-3.062,3.062V226h-1.959a1.918,1.918,0,0,0,.042-.385,1.893,1.893,0,0,0-.39-1.148,1.862,1.862,0,0,0,.349-1.533h.426a.765.765,0,0,0,.764-.764v-2.3a.765.765,0,0,0-.764-.764H222a1.9,1.9,0,0,0-1.873,2.3H219.7a.765.765,0,0,0-.764.764v8.041a.765.765,0,0,0,.764.764h1.533V242.2a.765.765,0,0,0,.764.764h2.3a.765.765,0,0,0,.764-.764v-11.22h4.789v1.534a1.9,1.9,0,0,0,1.2,1.766,3.307,3.307,0,0,0-.051.53v5.743a.765.765,0,0,0,.764.764h9.189a.765.765,0,0,0,.764-.764V234.8a3.309,3.309,0,0,0-.051-.527,1.9,1.9,0,0,0,1.2-1.767v-1.533h4.789v9.574a.765.765,0,0,0,.764.764h2.3a.765.765,0,0,0,.764-.764v-9.574h1.533a.765.765,0,0,0,.764-.764v-3.447a.771.771,0,0,0-.14-.438A1.865,1.865,0,0,0,253.383,224.47Zm-3.436,6.508v8.809h-.768v-8.809Zm-9.763,3.83v4.979h-3.066v-4.979a1.533,1.533,0,1,1,3.066,0Zm1.149-3.83v1.533a.385.385,0,0,1-.313.378,3.032,3.032,0,0,0-4.666-.091,3.032,3.032,0,0,0-4.666.091.385.385,0,0,1-.313-.378v-1.533Zm-8.809,3.83a1.533,1.533,0,1,1,3.066,0v4.979h-3.066Zm-8.995-3.83v10.456h-.769V230.978Zm10.144-19.527h5.363v1.533a2.682,2.682,0,0,1-5.363,0Zm3.64,5.633v.879h-1.917v-.879A4.22,4.22,0,0,0,237.312,217.084Zm-3.64-7.162v-1.533a.385.385,0,0,1,.384-.384h6.128v1.533a.385.385,0,0,1-.384.384Zm5.553,13.784h-.575l-1.041-3.645-1.468.413.919,3.232h-2.815v-2.3h-1.529v3.062a.765.765,0,0,0,.764.764h4.979V226H230.8v-4.978a1.542,1.542,0,0,1,1.533-1.534h8.04a1.542,1.542,0,0,1,1.534,1.533V226H239.99V224.47A.765.765,0,0,0,239.225,223.706Zm12.635-4.595h-6.127v-.768h6.127a.384.384,0,0,1,0,.768Zm0,2.3h-6.127v-.769h6.127a.384.384,0,0,1,0,.769Zm0,2.3h-6.127v-.768h6.127a.384.384,0,1,1,0,.768Zm0,2.3h-6.127v-.769h6.127a.384.384,0,0,1,0,.769Zm.384,1.529v1.917H220.463v-1.917Zm-26.419-4.21a.385.385,0,0,1-.384.384h-4.979v-.768h4.979A.385.385,0,0,1,225.826,223.321Zm0,2.3a.385.385,0,0,1-.384.384h-4.979v-.769h4.979A.385.385,0,0,1,225.826,225.619ZM222,220.64h4.979v.769H222a.384.384,0,0,1,0-.769Z" transform="translate(-174.209 -164.746)" fill="#3d1f71"/>
      <path id="Trazado_153635" data-name="Trazado 153635" d="M80.874,410.806H65.824a.887.887,0,0,0,0,1.774H80.874a.887.887,0,0,0,0-1.774Z" transform="translate(-39.722 -343.189)" fill="#3d1f71"/>
      <path id="Trazado_153636" data-name="Trazado 153636" d="M80.874,351.582H65.824a.887.887,0,1,0,0,1.774H80.874a.887.887,0,1,0,0-1.774Z" transform="translate(-39.722 -291.469)" fill="#3d1f71"/>
      <path id="Trazado_153637" data-name="Trazado 153637" d="M80.874,279.63H65.824a.887.887,0,1,0,0,1.774H80.874a.887.887,0,1,0,0-1.774Z" transform="translate(-39.722 -228.632)" fill="#3d1f71"/>
      <path id="Trazado_153638" data-name="Trazado 153638" d="M93.666,217.362H65.824a.887.887,0,1,0,0,1.774H93.666a.887.887,0,1,0,0-1.774Z" transform="translate(-39.722 -174.253)" fill="#3d1f71"/>
      <path id="Trazado_153639" data-name="Trazado 153639" d="M93.666,158.4H65.824a.887.887,0,1,0,0,1.774H93.666a.887.887,0,1,0,0-1.774Z" transform="translate(-39.722 -122.761)" fill="#3d1f71"/>
      <path id="Trazado_153640" data-name="Trazado 153640" d="M47.981,76.128H21.353V28.318l8.879-8.586H64.6V42.06h1.9V18.781a.95.95,0,0,0-.95-.95h-35.7a.95.95,0,0,0-.661.267l-9.445,9.134a.95.95,0,0,0-.29.683V77.078a.95.95,0,0,0,.95.95H47.981Z" fill="#3d1f71"/>
    </g>
  </g>
</svg>
