<svg xmlns="http://www.w3.org/2000/svg" xmlns:xlink="http://www.w3.org/1999/xlink" width="85" height="85" viewBox="0 0 85 85">
  <defs>
    <linearGradient id="linear-gradient" x1="0.078" y1="0.193" x2="0.766" y2="0.877" gradientUnits="objectBoundingBox">
      <stop offset="0"/>
      <stop offset="1" stop-opacity="0"/>
    </linearGradient>
  </defs>
  <g id="carta-a" transform="translate(-6.365 -6.039)">
    <path id="Trazado_154011" data-name="Trazado 154011" d="M42.5,0A42.5,42.5,0,1,1,0,42.5,42.5,42.5,0,0,1,42.5,0Z" transform="translate(6.365 6.039)" fill="#e85f5b"/>
    <path id="Trazado_154009" data-name="Trazado 154009" d="M181.043,159.552l-34.764-34.764h-12l-17.5,44.562,20,20c1.22.105,2.454.162,3.7.162A42.458,42.458,0,0,0,181.043,159.552Z" transform="translate(-91.665 -98.59)" opacity="0.49" fill="url(#linear-gradient)"/>
    <path id="Trazado_154010" data-name="Trazado 154010" d="M148.192,162.115H132.4l-2.468,7.238H116.772l17.5-44.562h12l17.889,44.562H150.647ZM140.269,138.7l-4.883,13.809h9.81Z" transform="translate(-91.664 -98.593)" fill="#fff"/>
  </g>
</svg>
