<svg xmlns="http://www.w3.org/2000/svg" xmlns:xlink="http://www.w3.org/1999/xlink" width="85" height="85" viewBox="0 0 85 85">
  <defs>
    <linearGradient id="linear-gradient" x1="-0.076" y1="0.069" x2="0.773" y2="0.841" gradientUnits="objectBoundingBox">
      <stop offset="0"/>
      <stop offset="1" stop-opacity="0"/>
    </linearGradient>
  </defs>
  <g id="letra-b" transform="translate(-6 -6)">
    <circle id="Elipse_4118" data-name="Elipse 4118" cx="42.5" cy="42.5" r="42.5" transform="translate(6 6)" fill="#e85f5b"/>
    <path id="Trazado_154012" data-name="Trazado 154012" d="M211.813,156.846l-27.97-27.97a14.684,14.684,0,0,0-10.762-4.127H152.924v44.625l20.107,20.107a42.521,42.521,0,0,0,38.782-32.635Z" transform="translate(-121.947 -98.562)" opacity="0.49" fill="url(#linear-gradient)"/>
    <path id="Trazado_154013" data-name="Trazado 154013" d="M181.126,145.812a11.737,11.737,0,0,1,6.844,10.856c0,7.231-6.24,12.707-14.477,12.707H152.924V124.751h20.157c7.913,0,13.687,4.828,13.687,11.421a11.362,11.362,0,0,1-5.643,9.64Zm-5.316,9.394c0-2.37-1.741-4.039-4.4-4.039h-6.678v8.115h6.678C174.069,159.282,175.81,157.613,175.81,155.206Zm-.711-17c0-2.316-1.586-3.885-4.157-3.885h-6.213v7.769h6.213c2.571,0,4.157-1.569,4.157-3.885Z" transform="translate(-121.947 -98.563)" fill="#fff"/>
  </g>
</svg>
