<svg xmlns="http://www.w3.org/2000/svg" width="33.023" height="33.023" viewBox="0 0 33.023 33.023">
  <g id="Grupo_88194" data-name="Grupo 88194" transform="translate(11901.296 12002.331)">
    <g id="Grupo_87654" data-name="Grupo 87654" transform="translate(-12774.056 -12250.03)">
      <path id="Trazado_152553" data-name="Trazado 152553" d="M426.457,1673.713h-18.4a7.312,7.312,0,0,1-7.312-7.312h0v-18.4a7.312,7.312,0,0,1,7.312-7.312h18.4a7.311,7.311,0,0,1,7.312,7.312h0v18.4a7.312,7.312,0,0,1-7.312,7.312h0" transform="translate(472.015 -1392.994)" fill="#e85f5b"/>
      <g id="Grupo_87649" data-name="Grupo 87649" transform="translate(472.015 -1392.994)">
        <path id="Trazado_100560" data-name="Trazado 100560" d="M409.562,1664.258a3.6,3.6,0,0,1,1.019-1.893q1.02-1.236,3.925-4.308,1.4-1.467,2.674-2.668t2.005-1.816q.726-.614,2.178-1.808t1.7-1.432a9.079,9.079,0,0,1,1.46-1.159q.426-.223.426.433a1.988,1.988,0,0,1-.559,1.18,30,30,0,0,1-2.193,2.228q-1.633,1.549-3.359,3.3t-3.736,4.064q-1,1.159-1.9,2.332t-1.508,2.047q-.615.871-.852,1.145a.65.65,0,0,1-.461.272q-.294,0-.559-.712A3.564,3.564,0,0,1,409.562,1664.258Zm7.206-15.307a1.062,1.062,0,0,1,.629.412,1.73,1.73,0,0,1,.209.97,6,6,0,0,1-.642,2.507,7.049,7.049,0,0,1-1.725,2.333,3.425,3.425,0,0,1-2.3.956,1.921,1.921,0,0,1-1.523-.7,2.819,2.819,0,0,1-.6-1.9,4.843,4.843,0,0,1,.712-2.445,6.333,6.333,0,0,1,1.872-2.039,4.044,4.044,0,0,1,2.332-.81.938.938,0,0,1,.607.175A1.876,1.876,0,0,1,416.768,1648.951Zm-3.575,5.432a2.612,2.612,0,0,0,1.7-.7,5.422,5.422,0,0,0,1.32-1.655,3.688,3.688,0,0,0,.5-1.613c0-.512-.145-.768-.433-.768a5.383,5.383,0,0,0-.538.112,1,1,0,0,1-.719-.028.354.354,0,0,0-.077-.056.183.183,0,0,0-.091-.028q-.182,0-.838.579a6.062,6.062,0,0,0-1.166,1.425,3.323,3.323,0,0,0-.51,1.739,1.019,1.019,0,0,0,.251.719A.789.789,0,0,0,413.193,1654.383Zm9.33,3.925a1.151,1.151,0,0,1,.663.482,2.761,2.761,0,0,1,.161,1.152,4.839,4.839,0,0,1-.8,2.577,8.018,8.018,0,0,1-1.837,2.095,3.075,3.075,0,0,1-1.655.817,1.785,1.785,0,0,1-1.306-.838,3.164,3.164,0,0,1-.663-2.025,4.39,4.39,0,0,1,.656-2.137,6.4,6.4,0,0,1,1.7-1.955,3.409,3.409,0,0,1,2.074-.8A1.226,1.226,0,0,1,422.523,1658.308Zm-4.232,4.344a1.424,1.424,0,0,0,.314,1.061.7.7,0,0,0,.845.028,4.026,4.026,0,0,0,1.187-1.061,8.373,8.373,0,0,0,1.1-1.788,3.8,3.8,0,0,0,.406-1.383c0-.437-.145-.656-.433-.656a2.955,2.955,0,0,0-1.209.523,5.792,5.792,0,0,0-1.536,1.39A3,3,0,0,0,418.291,1662.652Z" fill="#fff"/>
      </g>
    </g>
  </g>
</svg>
