<svg xmlns="http://www.w3.org/2000/svg" width="42.556" height="42.557" viewBox="0 0 42.556 42.557">
  <g id="Grupo_88195" data-name="Grupo 88195" transform="translate(11914 11861.92)">
    <g id="Grupo_87651" data-name="Grupo 87651" transform="translate(-12302.041 -13643.024)">
      <g id="Grupo_53761" data-name="Grupo 53761">
        <path id="Trazado_100474" data-name="Trazado 100474" d="M430.6,1802.383a21.278,21.278,0,1,1-21.278-21.278A21.277,21.277,0,0,1,430.6,1802.383Z" fill="#fcc14a"/>
      </g>
      <g id="Grupo_53762" data-name="Grupo 53762">
        <path id="Trazado_100475" data-name="Trazado 100475" d="M425.935,1802.383a16.616,16.616,0,1,1-16.616-16.615A16.616,16.616,0,0,1,425.935,1802.383Z" fill="#ffd180"/>
      </g>
      <g id="Grupo_53763" data-name="Grupo 53763">
        <path id="Trazado_100476" data-name="Trazado 100476" d="M412.883,1783.521a19.223,19.223,0,0,1,14.7,12.954.5.5,0,0,0,.957-.309,20.227,20.227,0,0,0-15.474-13.634.5.5,0,1,0-.185.989Z" fill="#fff"/>
      </g>
      <g id="Grupo_53764" data-name="Grupo 53764">
        <path id="Trazado_100477" data-name="Trazado 100477" d="M409.034,1814.09h1.372a.96.96,0,0,0,.96-.96v-.236a.957.957,0,0,1,.763-.938,8.1,8.1,0,0,0,1.885-.612,6.4,6.4,0,0,0,1.833-1.265,4.844,4.844,0,0,0,1.065-1.6,4.736,4.736,0,0,0,.345-1.757,5.99,5.99,0,0,0-.989-3.388,6.591,6.591,0,0,0-1.037-1.217,10.216,10.216,0,0,0-1.217-.961,11.954,11.954,0,0,0-1.258-.74q-.612-.309-1.138-.553l-.063-.026q-.579-.216-1.164-.472a10.722,10.722,0,0,1-1.079-.539,4.147,4.147,0,0,1-.781-.567.814.814,0,0,1-.3-.567.85.85,0,0,1,.414-.726,2.409,2.409,0,0,1,1.328-.284,14.021,14.021,0,0,1,1.957.125c.585.083,1.106.265,1.6.325a2.392,2.392,0,0,0,2.9-2.275.964.964,0,0,0-.495-.955,7.337,7.337,0,0,0-.672-.324,10.9,10.9,0,0,0-1.39-.478,12.321,12.321,0,0,0-1.438-.3q-.271-.039-.534-.069a.958.958,0,0,1-.849-.952v-.239a.96.96,0,0,0-.96-.96h-1.372a.96.96,0,0,0-.96.96v.382a.955.955,0,0,1-.767.939,8.609,8.609,0,0,0-1.805.541,5.971,5.971,0,0,0-1.777,1.141,4.26,4.26,0,0,0-1.03,1.5,4.654,4.654,0,0,0-.332,1.743,5.29,5.29,0,0,0,.228,1.6,5.108,5.108,0,0,0,.629,1.314,5.9,5.9,0,0,0,.927,1.071,9.279,9.279,0,0,0,1.12.872,12.589,12.589,0,0,0,1.217.712q.606.31,1.186.58c.021.01.043.019.064.027q1.031.395,1.765.734a10.005,10.005,0,0,1,1.224.657,2.761,2.761,0,0,1,.7.616,1.046,1.046,0,0,1,.228.636.807.807,0,0,1-.228.608,1.479,1.479,0,0,1-.608.339,3.865,3.865,0,0,1-.872.152q-.49.034-1.03.035a10.191,10.191,0,0,1-1.563-.125c-.535-.083-1.052-.252-1.59-.338-3.506-.562-2.946,2.811-2.946,2.811a.963.963,0,0,0,.609.9,15.838,15.838,0,0,0,2.122.671,20.012,20.012,0,0,0,2,.377.96.96,0,0,1,.838.95v.147A.96.96,0,0,0,409.034,1814.09Z" fill="#fff"/>
      </g>
    </g>
  </g>
</svg>
