<svg xmlns="http://www.w3.org/2000/svg" xmlns:xlink="http://www.w3.org/1999/xlink" width="1030" height="345.589" viewBox="0 0 1030 345.589">
  <defs>
    <linearGradient id="linear-gradient" x1="0.5" y1="1.193" x2="0.5" y2="0.193" gradientUnits="objectBoundingBox">
      <stop offset="0" stop-color="#e6e6e6"/>
      <stop offset="0.215" stop-color="#f0f0f0"/>
      <stop offset="0.594" stop-color="#fbfbfb"/>
      <stop offset="1" stop-color="#fff"/>
    </linearGradient>
  </defs>
  <g id="Grupo_87317" data-name="Grupo 87317" transform="translate(-285 -7051.413)">
    <rect id="Rectángulo_7492" data-name="Rectángulo 7492" width="1030" height="113" transform="translate(285 7171)" fill="#e7e3ee"/>
    <g id="Grupo_87005" data-name="Grupo 87005">
      <g id="Grupo_87003" data-name="Grupo 87003">
        <g id="Grupo_87002" data-name="Grupo 87002" transform="translate(-243.724 9362.932)">
          <g id="Grupo_86981" data-name="Grupo 86981" transform="translate(641.315 -2311.518)">
            <path id="Trazado_153311" data-name="Trazado 153311" d="M1680.34-1728.877l-1.331,1.334h0v0Z" transform="translate(-1342.308 1920.307)" fill="#636363"/>
            <path id="Trazado_153312" data-name="Trazado 153312" d="M1635.7-1684.291l-1.331,1.334a.024.024,0,0,1-.033,0,.024.024,0,0,1,0-.033h0l1.334-1.331a.022.022,0,0,1,.03,0A.022.022,0,0,1,1635.7-1684.291Z" transform="translate(-1312.307 1890.394)" fill="#636363"/>
            <path id="Trazado_153313" data-name="Trazado 153313" d="M1591.053-1639.706l-1.331,1.334a.045.045,0,0,1-.064,0,.045.045,0,0,1,0-.063h0l1.334-1.331a.043.043,0,0,1,.061,0A.042.042,0,0,1,1591.053-1639.706Z" transform="translate(-1282.307 1860.482)" fill="#636363"/>
            <path id="Trazado_153314" data-name="Trazado 153314" d="M1546.411-1595.121l-1.331,1.334a.066.066,0,0,1-.094,0,.067.067,0,0,1,0-.094h0l1.334-1.331a.065.065,0,0,1,.092,0A.064.064,0,0,1,1546.411-1595.121Z" transform="translate(-1252.307 1830.571)" fill="#636363"/>
            <path id="Trazado_153315" data-name="Trazado 153315" d="M1501.725-1550.569l-1.329,1.336a.117.117,0,0,1-.166,0,.117.117,0,0,1,0-.166h0l1.337-1.328a.111.111,0,0,1,.157,0A.112.112,0,0,1,1501.725-1550.569Z" transform="translate(-1222.247 1800.71)" fill="#636363"/>
            <path id="Trazado_153316" data-name="Trazado 153316" d="M1457.027-1506.039l-1.328,1.337a.181.181,0,0,1-.255,0,.18.18,0,0,1,0-.255h0l1.337-1.329a.175.175,0,0,1,.247,0A.174.174,0,0,1,1457.027-1506.039Z" transform="translate(-1192.162 1770.883)" fill="#636363"/>
            <path id="Trazado_153317" data-name="Trazado 153317" d="M1412.329-1461.508l-1.329,1.337a.243.243,0,0,1-.344,0,.243.243,0,0,1,0-.344h0l1.337-1.328a.237.237,0,0,1,.336,0A.238.238,0,0,1,1412.329-1461.508Z" transform="translate(-1162.077 1741.055)" fill="#636363"/>
            <path id="Trazado_153318" data-name="Trazado 153318" d="M1367.6-1417l-1.326,1.338a.328.328,0,0,1-.464,0,.327.327,0,0,1,0-.463l0,0,1.339-1.326a.319.319,0,0,1,.451,0A.319.319,0,0,1,1367.6-1417Z" transform="translate(-1131.947 1711.265)" fill="#636363"/>
            <path id="Trazado_153319" data-name="Trazado 153319" d="M1322.855-1372.516l-1.326,1.339a.424.424,0,0,1-.6,0,.425.425,0,0,1,0-.6l0,0,1.339-1.326a.415.415,0,0,1,.587,0A.415.415,0,0,1,1322.855-1372.516Z" transform="translate(-1101.794 1681.505)" fill="#636363"/>
            <path id="Trazado_153320" data-name="Trazado 153320" d="M1278.112-1328.03l-1.326,1.339a.52.52,0,0,1-.735,0,.52.52,0,0,1,0-.735l0,0,1.339-1.326a.511.511,0,0,1,.723,0A.511.511,0,0,1,1278.112-1328.03Z" transform="translate(-1071.642 1651.745)" fill="#636363"/>
            <path id="Trazado_153321" data-name="Trazado 153321" d="M1233.021-1283.629l-1.463,1.258a.631.631,0,0,1-.89-.067.631.631,0,0,1,.067-.89l0,0,.037-.031,1.409-1.185.034-.029a.621.621,0,0,1,.874.075A.621.621,0,0,1,1233.021-1283.629Z" transform="translate(-1041.171 1622.08)" fill="#636363"/>
            <path id="Trazado_153322" data-name="Trazado 153322" d="M1173.566-1263.032l-1.93-.148a.746.746,0,0,1-.687-.8.746.746,0,0,1,.8-.687h0l.057,0,1.824.161.052,0a.735.735,0,0,1,.668.8A.735.735,0,0,1,1173.566-1263.032Z" transform="translate(-1001.174 1608.617)" fill="#636363"/>
            <path id="Trazado_153323" data-name="Trazado 153323" d="M1118.236-1291.932l-1.34-1.325a.861.861,0,0,1-.007-1.218.862.862,0,0,1,1.218-.007l.007.007,1.325,1.34a.85.85,0,0,1-.007,1.2A.851.851,0,0,1,1118.236-1291.932Z" transform="translate(-964.71 1628.801)" fill="#636363"/>
            <path id="Trazado_153324" data-name="Trazado 153324" d="M1073.3-1336.7l-1.34-1.325a.976.976,0,0,1-.008-1.38.976.976,0,0,1,1.38-.008l.008.008,1.325,1.34a.965.965,0,0,1-.008,1.365A.966.966,0,0,1,1073.3-1336.7Z" transform="translate(-934.519 1658.992)" fill="#636363"/>
            <path id="Trazado_153325" data-name="Trazado 153325" d="M1028.375-1381.468l-1.34-1.325a1.09,1.09,0,0,1-.009-1.542,1.09,1.09,0,0,1,1.542-.009l.009.009,1.325,1.34a1.08,1.08,0,0,1-.009,1.528A1.08,1.08,0,0,1,1028.375-1381.468Z" transform="translate(-904.328 1689.183)" fill="#636363"/>
            <path id="Trazado_153326" data-name="Trazado 153326" d="M983.465-1426.224l-1.339-1.326a1.2,1.2,0,0,1-.008-1.694,1.2,1.2,0,0,1,1.694-.008l.008.008,1.326,1.339a1.189,1.189,0,0,1-.008,1.681A1.189,1.189,0,0,1,983.465-1426.224Z" transform="translate(-874.153 1719.358)" fill="#636363"/>
            <path id="Trazado_153327" data-name="Trazado 153327" d="M938.586-1470.967l-1.339-1.326a1.294,1.294,0,0,1-.008-1.83,1.294,1.294,0,0,1,1.83-.009l.008.009,1.326,1.339a1.285,1.285,0,0,1-.008,1.817A1.286,1.286,0,0,1,938.586-1470.967Z" transform="translate(-844 1749.511)" fill="#636363"/>
            <path id="Trazado_153328" data-name="Trazado 153328" d="M893.707-1515.71l-1.339-1.326a1.39,1.39,0,0,1-.009-1.966,1.39,1.39,0,0,1,1.966-.009l.009.009,1.326,1.339a1.381,1.381,0,0,1-.009,1.953A1.382,1.382,0,0,1,893.707-1515.71Z" transform="translate(-813.847 1779.664)" fill="#636363"/>
            <path id="Trazado_153329" data-name="Trazado 153329" d="M848.881-1560.422l-1.337-1.329a1.467,1.467,0,0,1-.006-2.075,1.467,1.467,0,0,1,2.075-.006l.006.006,1.329,1.337a1.462,1.462,0,0,1-.007,2.067A1.462,1.462,0,0,1,848.881-1560.422Z" transform="translate(-783.736 1809.775)" fill="#636363"/>
            <path id="Trazado_153330" data-name="Trazado 153330" d="M804.093-1605.121l-1.337-1.328a1.531,1.531,0,0,1-.007-2.164,1.53,1.53,0,0,1,2.164-.007l.007.007,1.328,1.337a1.524,1.524,0,0,1-.007,2.156A1.524,1.524,0,0,1,804.093-1605.121Z" transform="translate(-753.651 1839.859)" fill="#636363"/>
            <path id="Trazado_153331" data-name="Trazado 153331" d="M759.306-1649.819l-1.337-1.329a1.593,1.593,0,0,1-.007-2.253,1.593,1.593,0,0,1,2.253-.007l.007.007,1.329,1.337a1.588,1.588,0,0,1-.007,2.245A1.588,1.588,0,0,1,759.306-1649.819Z" transform="translate(-723.567 1869.944)" fill="#636363"/>
            <path id="Trazado_153332" data-name="Trazado 153332" d="M714.58-1694.481l-1.334-1.331a1.634,1.634,0,0,1,0-2.311,1.634,1.634,0,0,1,2.312,0l0,0,1.331,1.334a1.632,1.632,0,0,1,0,2.309A1.63,1.63,0,0,1,714.58-1694.481Z" transform="translate(-693.531 1899.98)" fill="#636363"/>
            <path id="Trazado_153333" data-name="Trazado 153333" d="M670.351-1739.9l-1.225-1.585a1.655,1.655,0,0,1,.3-2.321,1.655,1.655,0,0,1,2.322.3l0,0,.072.094,1.078,1.4.072.094a1.653,1.653,0,0,1-.3,2.318A1.65,1.65,0,0,1,670.351-1739.9Z" transform="translate(-663.997 1930.561)" fill="#636363"/>
            <path id="Trazado_153334" data-name="Trazado 153334" d="M654.236-1800.722l.257-1.986a1.677,1.677,0,0,1,1.878-1.448,1.676,1.676,0,0,1,1.448,1.877v0l-.016.118-.23,1.749-.016.118a1.674,1.674,0,0,1-1.878,1.442A1.672,1.672,0,0,1,654.236-1800.722Z" transform="translate(-654.221 1970.862)" fill="#636363"/>
            <path id="Trazado_153335" data-name="Trazado 153335" d="M683.233-1855.161l1.334-1.331a1.693,1.693,0,0,1,2.395,0,1.691,1.691,0,0,1,0,2.392l-1.331,1.334a1.7,1.7,0,0,1-2.4,0,1.7,1.7,0,0,1,0-2.4Z" transform="translate(-673.367 2006.326)" fill="#636363"/>
            <path id="Trazado_153336" data-name="Trazado 153336" d="M727.906-1899.715l1.334-1.332a1.671,1.671,0,0,1,2.364,0,1.668,1.668,0,0,1,0,2.361l-1.331,1.334a1.674,1.674,0,0,1-2.367,0,1.673,1.673,0,0,1,0-2.367Z" transform="translate(-703.367 2036.237)" fill="#636363"/>
            <path id="Trazado_153337" data-name="Trazado 153337" d="M772.58-1944.27l1.334-1.331a1.65,1.65,0,0,1,2.333,0,1.647,1.647,0,0,1,0,2.331l-1.331,1.334a1.652,1.652,0,0,1-2.336,0,1.652,1.652,0,0,1,0-2.336Z" transform="translate(-733.367 2066.149)" fill="#636363"/>
            <path id="Trazado_153338" data-name="Trazado 153338" d="M817.254-1988.825l1.334-1.331a1.628,1.628,0,0,1,2.3,0,1.625,1.625,0,0,1,0,2.3l-1.331,1.334a1.63,1.63,0,0,1-2.306,0,1.63,1.63,0,0,1,0-2.305Z" transform="translate(-763.367 2096.061)" fill="#636363"/>
            <path id="Trazado_153339" data-name="Trazado 153339" d="M862-2033.289l1.337-1.328a1.574,1.574,0,0,1,2.227.007,1.575,1.575,0,0,1,0,2.219l-1.329,1.337a1.58,1.58,0,0,1-2.235.007,1.58,1.58,0,0,1-.007-2.235Z" transform="translate(-793.421 2125.902)" fill="#636363"/>
            <path id="Trazado_153340" data-name="Trazado 153340" d="M906.79-2077.729l1.337-1.328a1.512,1.512,0,0,1,2.137.006,1.512,1.512,0,0,1,0,2.13l-1.329,1.337a1.518,1.518,0,0,1-2.145.007,1.517,1.517,0,0,1-.006-2.145Z" transform="translate(-823.506 2155.729)" fill="#636363"/>
            <path id="Trazado_153341" data-name="Trazado 153341" d="M951.578-2122.169l1.337-1.329a1.448,1.448,0,0,1,2.047.006,1.448,1.448,0,0,1,0,2.041l-1.328,1.336a1.453,1.453,0,0,1-2.056.006,1.453,1.453,0,0,1-.006-2.055Z" transform="translate(-853.592 2185.555)" fill="#636363"/>
            <path id="Trazado_153342" data-name="Trazado 153342" d="M996.423-2166.54l1.339-1.327a1.36,1.36,0,0,1,1.923.009,1.361,1.361,0,0,1,0,1.915l-1.326,1.338a1.368,1.368,0,0,1-1.935.009,1.368,1.368,0,0,1-.009-1.936Z" transform="translate(-883.719 2215.328)" fill="#636363"/>
            <path id="Trazado_153343" data-name="Trazado 153343" d="M1041.3-2210.889l1.339-1.326a1.263,1.263,0,0,1,1.786.008,1.264,1.264,0,0,1,0,1.778l-1.326,1.339a1.272,1.272,0,0,1-1.8.009,1.272,1.272,0,0,1-.009-1.8Z" transform="translate(-913.873 2245.087)" fill="#636363"/>
            <path id="Trazado_153344" data-name="Trazado 153344" d="M1086.185-2255.238l1.339-1.326a1.167,1.167,0,0,1,1.649.007,1.167,1.167,0,0,1,0,1.642l-1.326,1.339a1.174,1.174,0,0,1-1.662.008,1.174,1.174,0,0,1-.008-1.661Z" transform="translate(-944.027 2274.846)" fill="#636363"/>
            <path id="Trazado_153345" data-name="Trazado 153345" d="M1131.689-2298.582l1.614-1.114a1.051,1.051,0,0,1,1.462.268,1.051,1.051,0,0,1-.258,1.455l-.062.045-1.477,1.044-.062.043a1.062,1.062,0,0,1-1.48-.254,1.063,1.063,0,0,1,.254-1.481Z" transform="translate(-974.506 2303.705)" fill="#636363"/>
            <path id="Trazado_153346" data-name="Trazado 153346" d="M1192.263-2311.5l1.918.354a.936.936,0,0,1,.751,1.09.936.936,0,0,1-1.079.752l-.067-.012-1.79-.309-.066-.012a.947.947,0,0,1-.772-1.094.947.947,0,0,1,1.094-.771Z" transform="translate(-1014.735 2311.518)" fill="#636363"/>
            <path id="Trazado_153347" data-name="Trazado 153347" d="M1246.515-2280.1l1.325,1.34a.821.821,0,0,1-.006,1.161.822.822,0,0,1-1.155,0l-1.34-1.325a.832.832,0,0,1-.006-1.176.832.832,0,0,1,1.176-.006Z" transform="translate(-1050.959 2290.591)" fill="#636363"/>
            <path id="Trazado_153348" data-name="Trazado 153348" d="M1291.284-2235.171l1.325,1.34a.705.705,0,0,1-.006,1,.706.706,0,0,1-.993,0l-1.34-1.325a.716.716,0,0,1-.006-1.013.716.716,0,0,1,1.013-.005Z" transform="translate(-1081.151 2260.398)" fill="#636363"/>
            <path id="Trazado_153349" data-name="Trazado 153349" d="M1336.054-2190.238l1.325,1.34a.59.59,0,0,1,0,.835.591.591,0,0,1-.83,0l-1.34-1.326a.6.6,0,0,1,0-.849.6.6,0,0,1,.85,0Z" transform="translate(-1111.344 2230.205)" fill="#636363"/>
            <path id="Trazado_153350" data-name="Trazado 153350" d="M1380.812-2145.328l1.326,1.338a.485.485,0,0,1,0,.686.485.485,0,0,1-.682,0l-1.339-1.326a.493.493,0,0,1,0-.7.494.494,0,0,1,.7,0Z" transform="translate(-1141.52 2200.029)" fill="#636363"/>
            <path id="Trazado_153351" data-name="Trazado 153351" d="M1425.557-2100.448l1.326,1.339a.387.387,0,0,1,0,.548.388.388,0,0,1-.546,0l-1.339-1.326a.4.4,0,0,1,0-.562.4.4,0,0,1,.561,0Z" transform="translate(-1171.675 2169.875)" fill="#636363"/>
            <path id="Trazado_153352" data-name="Trazado 153352" d="M1470.3-2055.567l1.326,1.339a.291.291,0,0,1,0,.412.292.292,0,0,1-.41,0l-1.339-1.326a.3.3,0,0,1,0-.425.3.3,0,0,1,.424,0Z" transform="translate(-1201.829 2139.72)" fill="#636363"/>
            <path id="Trazado_153353" data-name="Trazado 153353" d="M1515.016-2010.744l1.328,1.337a.219.219,0,0,1,0,.31.219.219,0,0,1-.309,0l-1.337-1.329a.225.225,0,0,1,0-.318.224.224,0,0,1,.318,0Z" transform="translate(-1231.94 2109.609)" fill="#636363"/>
            <path id="Trazado_153354" data-name="Trazado 153354" d="M1559.716-1965.955l1.328,1.337a.156.156,0,0,1,0,.22.155.155,0,0,1-.219,0l-1.336-1.329a.161.161,0,0,1,0-.228.161.161,0,0,1,.228,0Z" transform="translate(-1262.026 2079.524)" fill="#636363"/>
            <path id="Trazado_153355" data-name="Trazado 153355" d="M1604.415-1921.167l1.329,1.337a.092.092,0,0,1,0,.13.092.092,0,0,1-.129,0l-1.337-1.328a.1.1,0,0,1,0-.138.1.1,0,0,1,.138,0Z" transform="translate(-1292.111 2049.438)" fill="#636363"/>
            <path id="Trazado_153356" data-name="Trazado 153356" d="M1649.08-1876.447l1.331,1.334a.058.058,0,0,1,0,.082.058.058,0,0,1-.082,0l-1.334-1.331a.06.06,0,0,1,0-.084.06.06,0,0,1,.084,0Z" transform="translate(-1322.145 2019.404)" fill="#636363"/>
            <path id="Trazado_153357" data-name="Trazado 153357" d="M1692.672-1830.828l1,1.6a.036.036,0,0,1-.011.05.036.036,0,0,1-.05-.011v0l-1-1.592v0a.038.038,0,0,1,.012-.052.038.038,0,0,1,.052.012Z" transform="translate(-1351.437 1988.773)" fill="#636363"/>
            <path id="Trazado_153358" data-name="Trazado 153358" d="M1704.271-1770.524l-.421,1.837a.014.014,0,0,1-.017.011.015.015,0,0,1-.01-.018l.417-1.835a.017.017,0,0,1,.019-.014.017.017,0,0,1,.014.019Z" transform="translate(-1358.97 1948.284)" fill="#636363"/>
          </g>
          <g id="Grupo_86982" data-name="Grupo 86982" transform="translate(1100.829 -2311.518)">
            <path id="Trazado_153359" data-name="Trazado 153359" d="M2074.934-1728.877l1.334,1.331v0h0Z" transform="translate(-2067.665 1920.307)" fill="#636363"/>
            <path id="Trazado_153360" data-name="Trazado 153360" d="M2119.52-1684.322l1.334,1.331a.024.024,0,0,1,0,.033.024.024,0,0,1-.033,0l-1.331-1.334a.022.022,0,0,1,0-.031A.022.022,0,0,1,2119.52-1684.322Z" transform="translate(-2097.577 1890.395)" fill="#636363"/>
            <path id="Trazado_153361" data-name="Trazado 153361" d="M2164.1-1639.767l1.334,1.331a.045.045,0,0,1,0,.063.044.044,0,0,1-.063,0h0l-1.331-1.334a.043.043,0,0,1,0-.061A.043.043,0,0,1,2164.1-1639.767Z" transform="translate(-2127.489 1860.483)" fill="#636363"/>
            <path id="Trazado_153362" data-name="Trazado 153362" d="M2208.69-1595.212l1.334,1.331a.068.068,0,0,1,0,.094.066.066,0,0,1-.094,0h0l-1.332-1.334a.065.065,0,0,1,0-.091A.065.065,0,0,1,2208.69-1595.212Z" transform="translate(-2157.401 1830.571)" fill="#636363"/>
            <path id="Trazado_153363" data-name="Trazado 153363" d="M2253.242-1550.727l1.337,1.329a.117.117,0,0,1,0,.166.117.117,0,0,1-.166,0h0l-1.329-1.337a.111.111,0,0,1,0-.158A.111.111,0,0,1,2253.242-1550.727Z" transform="translate(-2187.261 1800.711)" fill="#636363"/>
            <path id="Trazado_153364" data-name="Trazado 153364" d="M2297.772-1506.285l1.337,1.329a.179.179,0,0,1,0,.254.18.18,0,0,1-.254,0h0l-1.329-1.337a.174.174,0,0,1,0-.247A.174.174,0,0,1,2297.772-1506.285Z" transform="translate(-2217.089 1770.883)" fill="#636363"/>
            <path id="Trazado_153365" data-name="Trazado 153365" d="M2342.3-1461.844l1.336,1.328a.243.243,0,0,1,0,.344.243.243,0,0,1-.344,0h0l-1.328-1.336a.237.237,0,0,1,0-.336A.238.238,0,0,1,2342.3-1461.844Z" transform="translate(-2246.916 1741.055)" fill="#636363"/>
            <path id="Trazado_153366" data-name="Trazado 153366" d="M2386.809-1417.454l1.339,1.326a.328.328,0,0,1,0,.464.328.328,0,0,1-.463,0l0,0-1.327-1.338a.319.319,0,0,1,0-.451A.319.319,0,0,1,2386.809-1417.454Z" transform="translate(-2276.706 1711.265)" fill="#636363"/>
            <path id="Trazado_153367" data-name="Trazado 153367" d="M2431.295-1373.1l1.339,1.326a.424.424,0,0,1,0,.6.424.424,0,0,1-.6,0l0,0-1.327-1.339a.415.415,0,0,1,0-.587A.415.415,0,0,1,2431.295-1373.1Z" transform="translate(-2306.466 1681.505)" fill="#636363"/>
            <path id="Trazado_153368" data-name="Trazado 153368" d="M2475.781-1328.753l1.338,1.326a.52.52,0,0,1,0,.735.519.519,0,0,1-.735,0l0,0-1.327-1.339a.511.511,0,0,1,0-.723A.511.511,0,0,1,2475.781-1328.753Z" transform="translate(-2336.226 1651.745)" fill="#636363"/>
            <path id="Trazado_153369" data-name="Trazado 153369" d="M2520.255-1284.546l1.409,1.185.034.029a.631.631,0,0,1,.077.889.631.631,0,0,1-.889.077l-.005,0-1.463-1.258a.621.621,0,0,1-.066-.875.621.621,0,0,1,.87-.071Z" transform="translate(-2365.966 1622.08)" fill="#636363"/>
            <path id="Trazado_153370" data-name="Trazado 153370" d="M2577.4-1264.5l1.824-.161.052,0a.746.746,0,0,1,.809.678.746.746,0,0,1-.678.809h-.008l-1.93.148a.735.735,0,0,1-.79-.677.735.735,0,0,1,.668-.789Z" transform="translate(-2404.554 1608.617)" fill="#636363"/>
            <path id="Trazado_153371" data-name="Trazado 153371" d="M2632.341-1293.134l1.325-1.34a.862.862,0,0,1,1.218-.007.861.861,0,0,1,.006,1.218l-.006.007-1.34,1.325a.85.85,0,0,1-1.2-.007A.85.85,0,0,1,2632.341-1293.134Z" transform="translate(-2441.767 1628.801)" fill="#636363"/>
            <path id="Trazado_153372" data-name="Trazado 153372" d="M2676.64-1338.065l1.326-1.34a.976.976,0,0,1,1.38-.008.976.976,0,0,1,.007,1.38l-.007.008-1.34,1.325a.966.966,0,0,1-1.366-.007A.966.966,0,0,1,2676.64-1338.065Z" transform="translate(-2471.49 1658.992)" fill="#636363"/>
            <path id="Trazado_153373" data-name="Trazado 153373" d="M2720.94-1383l1.325-1.34a1.09,1.09,0,0,1,1.542-.009,1.091,1.091,0,0,1,.008,1.542l-.008.009-1.34,1.325a1.08,1.08,0,0,1-1.527-.008A1.081,1.081,0,0,1,2720.94-1383Z" transform="translate(-2501.212 1689.184)" fill="#636363"/>
            <path id="Trazado_153374" data-name="Trazado 153374" d="M2765.253-1427.905l1.326-1.339a1.2,1.2,0,0,1,1.694-.008,1.2,1.2,0,0,1,.008,1.694l-.008.008-1.338,1.326a1.189,1.189,0,0,1-1.682-.008A1.189,1.189,0,0,1,2765.253-1427.905Z" transform="translate(-2530.945 1719.358)" fill="#636363"/>
            <path id="Trazado_153375" data-name="Trazado 153375" d="M2809.6-1472.784l1.326-1.339a1.3,1.3,0,0,1,1.83-.009,1.294,1.294,0,0,1,.009,1.83l-.009.009-1.339,1.326a1.285,1.285,0,0,1-1.817-.009A1.286,1.286,0,0,1,2809.6-1472.784Z" transform="translate(-2560.705 1749.511)" fill="#636363"/>
            <path id="Trazado_153376" data-name="Trazado 153376" d="M2853.954-1517.664l1.327-1.339a1.39,1.39,0,0,1,1.966-.009,1.39,1.39,0,0,1,.009,1.966l-.009.009-1.339,1.326a1.381,1.381,0,0,1-1.954-.009A1.382,1.382,0,0,1,2853.954-1517.664Z" transform="translate(-2590.465 1779.664)" fill="#636363"/>
            <path id="Trazado_153377" data-name="Trazado 153377" d="M2898.344-1562.489l1.329-1.337a1.468,1.468,0,0,1,2.075-.006,1.467,1.467,0,0,1,.006,2.075l-.006.006-1.336,1.329a1.462,1.462,0,0,1-2.067-.006A1.462,1.462,0,0,1,2898.344-1562.489Z" transform="translate(-2620.254 1809.775)" fill="#636363"/>
            <path id="Trazado_153378" data-name="Trazado 153378" d="M2942.786-1607.277l1.328-1.337a1.53,1.53,0,0,1,2.164-.007,1.531,1.531,0,0,1,.007,2.164l-.007.007-1.336,1.328a1.524,1.524,0,0,1-2.156-.006A1.524,1.524,0,0,1,2942.786-1607.277Z" transform="translate(-2650.081 1839.86)" fill="#636363"/>
            <path id="Trazado_153379" data-name="Trazado 153379" d="M2987.227-1652.064l1.328-1.337a1.593,1.593,0,0,1,2.253-.007,1.593,1.593,0,0,1,.007,2.253l-.007.007-1.336,1.329a1.587,1.587,0,0,1-2.245-.007A1.588,1.588,0,0,1,2987.227-1652.064Z" transform="translate(-2679.909 1869.944)" fill="#636363"/>
            <path id="Trazado_153380" data-name="Trazado 153380" d="M3031.709-1696.79l1.332-1.334a1.634,1.634,0,0,1,2.312,0,1.634,1.634,0,0,1,0,2.311l0,0-1.334,1.331a1.633,1.633,0,0,1-2.309,0A1.63,1.63,0,0,1,3031.709-1696.79Z" transform="translate(-2709.765 1899.98)" fill="#636363"/>
            <path id="Trazado_153381" data-name="Trazado 153381" d="M3075.843-1742.011l1.078-1.4.072-.094a1.656,1.656,0,0,1,2.321-.3,1.656,1.656,0,0,1,.3,2.321l0,0-1.226,1.584a1.653,1.653,0,0,1-2.319.3,1.654,1.654,0,0,1-.3-2.319Z" transform="translate(-2739.441 1930.562)" fill="#636363"/>
            <path id="Trazado_153382" data-name="Trazado 153382" d="M3093.05-1800.408l-.23-1.749-.015-.118a1.676,1.676,0,0,1,1.444-1.881,1.677,1.677,0,0,1,1.88,1.444v0l.256,1.986a1.674,1.674,0,0,1-1.446,1.875,1.675,1.675,0,0,1-1.875-1.446Z" transform="translate(-2751.099 1970.862)" fill="#636363"/>
            <path id="Trazado_153383" data-name="Trazado 153383" d="M3062.723-1852.766l-1.331-1.334a1.693,1.693,0,0,1,0-2.395,1.69,1.69,0,0,1,2.392,0l1.334,1.331a1.7,1.7,0,0,1,0,2.4,1.7,1.7,0,0,1-2.4,0Z" transform="translate(-2729.684 2006.328)" fill="#636363"/>
            <path id="Trazado_153384" data-name="Trazado 153384" d="M3018.168-1897.351l-1.331-1.334a1.672,1.672,0,0,1,0-2.364,1.669,1.669,0,0,1,2.362,0l1.334,1.332a1.674,1.674,0,0,1,0,2.366,1.673,1.673,0,0,1-2.366,0Z" transform="translate(-2699.772 2036.24)" fill="#636363"/>
            <path id="Trazado_153385" data-name="Trazado 153385" d="M2973.613-1941.937l-1.331-1.334a1.65,1.65,0,0,1,0-2.333,1.646,1.646,0,0,1,2.33,0l1.334,1.331a1.651,1.651,0,0,1,0,2.336,1.652,1.652,0,0,1-2.336,0Z" transform="translate(-2669.861 2066.151)" fill="#636363"/>
            <path id="Trazado_153386" data-name="Trazado 153386" d="M2929.059-1986.522l-1.331-1.334a1.628,1.628,0,0,1,0-2.3,1.625,1.625,0,0,1,2.3,0l1.334,1.331a1.63,1.63,0,0,1,0,2.305,1.629,1.629,0,0,1-2.3,0Z" transform="translate(-2639.949 2096.063)" fill="#636363"/>
            <path id="Trazado_153387" data-name="Trazado 153387" d="M2884.595-2031.054l-1.329-1.336a1.574,1.574,0,0,1,.007-2.227,1.575,1.575,0,0,1,2.22,0l1.336,1.328a1.58,1.58,0,0,1,.007,2.235,1.58,1.58,0,0,1-2.235.007Z" transform="translate(-2610.108 2125.902)" fill="#636363"/>
            <path id="Trazado_153388" data-name="Trazado 153388" d="M2840.154-2075.583l-1.328-1.337a1.511,1.511,0,0,1,.006-2.137,1.512,1.512,0,0,1,2.13,0l1.337,1.329a1.518,1.518,0,0,1,.007,2.145,1.518,1.518,0,0,1-2.146.006Z" transform="translate(-2580.281 2155.728)" fill="#636363"/>
            <path id="Trazado_153389" data-name="Trazado 153389" d="M2795.714-2120.113l-1.328-1.336a1.448,1.448,0,0,1,.006-2.047,1.448,1.448,0,0,1,2.041,0l1.336,1.329a1.453,1.453,0,0,1,.006,2.055,1.453,1.453,0,0,1-2.056.006Z" transform="translate(-2550.455 2185.555)" fill="#636363"/>
            <path id="Trazado_153390" data-name="Trazado 153390" d="M2751.343-2164.6l-1.326-1.338a1.36,1.36,0,0,1,.009-1.923,1.361,1.361,0,0,1,1.914,0l1.339,1.326a1.368,1.368,0,0,1,.009,1.935,1.369,1.369,0,0,1-1.936.01Z" transform="translate(-2520.681 2215.328)" fill="#636363"/>
            <path id="Trazado_153391" data-name="Trazado 153391" d="M2706.995-2209.09l-1.327-1.339a1.264,1.264,0,0,1,.008-1.786,1.264,1.264,0,0,1,1.778,0l1.339,1.326a1.272,1.272,0,0,1,.008,1.8,1.272,1.272,0,0,1-1.8.008Z" transform="translate(-2490.922 2245.087)" fill="#636363"/>
            <path id="Trazado_153392" data-name="Trazado 153392" d="M2662.646-2253.575l-1.326-1.339a1.166,1.166,0,0,1,.008-1.649,1.166,1.166,0,0,1,1.641,0l1.339,1.327a1.175,1.175,0,0,1,.008,1.662,1.175,1.175,0,0,1-1.662.007Z" transform="translate(-2461.163 2274.846)" fill="#636363"/>
            <path id="Trazado_153393" data-name="Trazado 153393" d="M2617.429-2296.883l-1.477-1.044-.062-.043a1.052,1.052,0,0,1-.251-1.465,1.052,1.052,0,0,1,1.456-.258l1.613,1.114a1.062,1.062,0,0,1,.271,1.478,1.063,1.063,0,0,1-1.478.271l0,0Z" transform="translate(-2430.589 2303.704)" fill="#636363"/>
            <path id="Trazado_153394" data-name="Trazado 153394" d="M2558.233-2309.627l-1.79.309-.066.012a.936.936,0,0,1-1.082-.763.936.936,0,0,1,.752-1.08l1.918-.354a.947.947,0,0,1,1.1.759.946.946,0,0,1-.759,1.1h-.005Z" transform="translate(-2390.191 2311.518)" fill="#636363"/>
            <path id="Trazado_153395" data-name="Trazado 153395" d="M2506.561-2278.928l-1.34,1.325a.821.821,0,0,1-1.161-.006.821.821,0,0,1,0-1.155l1.325-1.34a.832.832,0,0,1,1.176-.006.831.831,0,0,1,.006,1.176Z" transform="translate(-2355.639 2290.591)" fill="#636363"/>
            <path id="Trazado_153396" data-name="Trazado 153396" d="M2462.1-2234.159l-1.34,1.325a.705.705,0,0,1-1-.005.705.705,0,0,1,0-.992l1.325-1.34a.716.716,0,0,1,1.012-.005.715.715,0,0,1,.005,1.013Z" transform="translate(-2325.918 2260.398)" fill="#636363"/>
            <path id="Trazado_153397" data-name="Trazado 153397" d="M2417.639-2189.389l-1.34,1.326a.591.591,0,0,1-.835-.005.59.59,0,0,1,0-.83l1.325-1.34a.6.6,0,0,1,.85,0,.6.6,0,0,1,0,.849Z" transform="translate(-2296.197 2230.205)" fill="#636363"/>
            <path id="Trazado_153398" data-name="Trazado 153398" d="M2373.163-2144.63l-1.339,1.326a.485.485,0,0,1-.686,0,.485.485,0,0,1,0-.682l1.326-1.338a.494.494,0,0,1,.7,0,.494.494,0,0,1,0,.7Z" transform="translate(-2266.455 2200.029)" fill="#636363"/>
            <path id="Trazado_153399" data-name="Trazado 153399" d="M2328.679-2099.886l-1.339,1.326a.387.387,0,0,1-.548,0,.388.388,0,0,1,0-.546l1.326-1.339a.4.4,0,0,1,.562,0,.4.4,0,0,1,0,.561Z" transform="translate(-2236.698 2169.875)" fill="#636363"/>
            <path id="Trazado_153400" data-name="Trazado 153400" d="M2284.192-2055.142l-1.339,1.326a.291.291,0,0,1-.412,0,.291.291,0,0,1,0-.41l1.327-1.339a.3.3,0,0,1,.424,0,.3.3,0,0,1,0,.424Z" transform="translate(-2206.938 2139.721)" fill="#636363"/>
            <path id="Trazado_153401" data-name="Trazado 153401" d="M2239.672-2010.426l-1.337,1.329a.218.218,0,0,1-.309,0,.219.219,0,0,1,0-.309l1.328-1.337a.225.225,0,0,1,.318,0,.224.224,0,0,1,0,.317Z" transform="translate(-2177.129 2109.609)" fill="#636363"/>
            <path id="Trazado_153402" data-name="Trazado 153402" d="M2195.142-1965.727l-1.336,1.329a.155.155,0,0,1-.22,0,.156.156,0,0,1,0-.219l1.329-1.337a.161.161,0,0,1,.228,0,.161.161,0,0,1,0,.228Z" transform="translate(-2147.303 2079.524)" fill="#636363"/>
            <path id="Trazado_153403" data-name="Trazado 153403" d="M2150.613-1921.028l-1.337,1.328a.092.092,0,0,1-.13,0,.092.092,0,0,1,0-.13l1.329-1.337a.1.1,0,0,1,.138,0,.1.1,0,0,1,0,.138Z" transform="translate(-2117.476 2049.438)" fill="#636363"/>
            <path id="Trazado_153404" data-name="Trazado 153404" d="M2106.041-1876.363l-1.334,1.331a.058.058,0,0,1-.082,0,.058.058,0,0,1,0-.082l1.332-1.334a.06.06,0,0,1,.084,0,.06.06,0,0,1,0,.084Z" transform="translate(-2087.589 2019.404)" fill="#636363"/>
            <path id="Trazado_153405" data-name="Trazado 153405" d="M2063.184-1830.785l-1,1.592v0a.036.036,0,0,1-.05.011.035.035,0,0,1-.011-.05l1-1.6a.038.038,0,0,1,.052-.012.038.038,0,0,1,.012.052h0Z" transform="translate(-2059.055 1988.773)" fill="#636363"/>
            <path id="Trazado_153406" data-name="Trazado 153406" d="M2052.841-1770.53l.417,1.835a.014.014,0,0,1-.01.018.015.015,0,0,1-.018-.011l-.421-1.837a.017.017,0,0,1,.012-.02.017.017,0,0,1,.02.012Z" transform="translate(-2052.809 1948.284)" fill="#636363"/>
          </g>
          <g id="Grupo_86983" data-name="Grupo 86983" transform="translate(1355.098 -2239.648)">
            <path id="Trazado_153407" data-name="Trazado 153407" d="M2836.674-1893.014a6.918,6.918,0,0,1-4.907-2.032,6.939,6.939,0,0,1,0-9.814l72.68-72.68a19.444,19.444,0,0,0,5.733-13.841,19.447,19.447,0,0,0-5.732-13.841l-75.7-75.7a6.94,6.94,0,0,1,0-9.813,6.94,6.94,0,0,1,9.814,0l75.7,75.7a33.233,33.233,0,0,1,9.8,23.654,33.233,33.233,0,0,1-9.8,23.654l-72.681,72.68A6.919,6.919,0,0,1,2836.674-1893.014Z" transform="translate(-2826.711 2092.771)" fill="#fcc14a"/>
          </g>
          <g id="Grupo_86984" data-name="Grupo 86984" transform="translate(635 -2239.648)">
            <path id="Trazado_153408" data-name="Trazado 153408" d="M722.385-1893.014a6.915,6.915,0,0,1-4.907-2.032l-72.68-72.68a33.232,33.232,0,0,1-9.8-23.654,33.231,33.231,0,0,1,9.8-23.654l75.7-75.7a6.939,6.939,0,0,1,9.813,0,6.939,6.939,0,0,1,0,9.813l-75.7,75.7a19.445,19.445,0,0,0-5.733,13.841,19.445,19.445,0,0,0,5.733,13.841l72.68,72.68a6.939,6.939,0,0,1,0,9.814A6.918,6.918,0,0,1,722.385-1893.014Z" transform="translate(-635 2092.771)" fill="#3d1f71"/>
          </g>
          <rect id="Rectángulo_7485" data-name="Rectángulo 7485" width="154.531" height="70.858" rx="35.429" transform="translate(873.773 -2174.163)" fill="#3d1f71"/>
          <path id="Trazado_153409" data-name="Trazado 153409" d="M848.688-1954.616,717.226-2086.078a23.789,23.789,0,0,1,0-33.642L848.688-2251.18a23.788,23.788,0,0,1,33.641,0l131.462,131.461a23.789,23.789,0,0,1,0,33.642L882.328-1954.616A23.787,23.787,0,0,1,848.688-1954.616Z" transform="translate(-50.532 -35.835)" fill="url(#linear-gradient)"/>
          <path id="Trazado_153410" data-name="Trazado 153410" d="M860.992-1944.658l-115.32-115.32a31.307,31.307,0,0,1,0-44.275L860.992-2216.5a31.307,31.307,0,0,1,44.274,0l115.32,112.244a31.307,31.307,0,0,1,0,44.275l-115.32,115.32A31.306,31.306,0,0,1,860.992-1944.658Z" transform="translate(-67.78 -57.645)" fill="#f9f9f9"/>
          <rect id="Rectángulo_7486" data-name="Rectángulo 7486" width="154.531" height="70.858" rx="35.429" transform="translate(1059.95 -2173.686)" fill="#fcc14a"/>
          <path id="Trazado_153411" data-name="Trazado 153411" d="M2241.128-1953.166l-131.461-131.462a23.788,23.788,0,0,1,0-33.641l131.461-131.462a23.788,23.788,0,0,1,33.641,0l131.461,131.462a23.787,23.787,0,0,1,0,33.641L2274.77-1953.166A23.788,23.788,0,0,1,2241.128-1953.166Z" transform="translate(-985.479 -36.809)" fill="url(#linear-gradient)"/>
          <path id="Trazado_153412" data-name="Trazado 153412" d="M2253.433-1943.207l-115.32-115.32a31.306,31.306,0,0,1,0-44.274l115.32-112.244a31.306,31.306,0,0,1,44.275,0l115.32,112.244a31.308,31.308,0,0,1,0,44.274l-115.32,115.32A31.307,31.307,0,0,1,2253.433-1943.207Z" transform="translate(-1003.219 -58.619)" fill="#f9f9f9"/>
          <circle id="Elipse_4077" data-name="Elipse 4077" cx="12.49" cy="12.49" r="12.49" transform="translate(981.518 -2127.929) rotate(-80.783)" fill="#fff"/>
          <circle id="Elipse_4078" data-name="Elipse 4078" cx="12.49" cy="12.49" r="12.49" transform="translate(1075.542 -2127.929) rotate(-80.783)" fill="#fff"/>
          <g id="Grupo_87001" data-name="Grupo 87001" transform="translate(989.256 -2144.667)">
            <g id="Grupo_86996" data-name="Grupo 86996" transform="translate(6.196 5.655)">
              <rect id="Rectángulo_7491" data-name="Rectángulo 7491" width="94.816" height="1.735" fill="#636363"/>
            </g>
            <g id="Grupo_86998" data-name="Grupo 86998" transform="translate(94.164 0)">
              <g id="Grupo_86997" data-name="Grupo 86997">
                <path id="Trazado_153533" data-name="Trazado 153533" d="M2006.345-1803.686a6.523,6.523,0,0,1,6.522,6.523,6.523,6.523,0,0,1-6.522,6.522,6.523,6.523,0,0,1-6.522-6.522A6.523,6.523,0,0,1,2006.345-1803.686Z" transform="translate(-1999.823 1803.686)" fill="#636363"/>
              </g>
            </g>
            <g id="Grupo_87000" data-name="Grupo 87000" transform="translate(0 0)">
              <g id="Grupo_86999" data-name="Grupo 86999">
                <path id="Trazado_153534" data-name="Trazado 153534" d="M1719.745-1803.686a6.523,6.523,0,0,0-6.522,6.523,6.523,6.523,0,0,0,6.522,6.522,6.523,6.523,0,0,0,6.522-6.522A6.523,6.523,0,0,0,1719.745-1803.686Z" transform="translate(-1713.223 1803.686)" fill="#636363"/>
              </g>
            </g>
          </g>
          <g id="buscar" transform="translate(1249.724 -2223.932)">
            <path id="Trazado_153535" data-name="Trazado 153535" d="M267.259,246.151a2.77,2.77,0,0,0,2-.842l4.707-4.826a2.791,2.791,0,0,0-4-3.9l-2.762,2.831-.484-.47a2.791,2.791,0,1,0-3.892,4l2.482,2.413A2.777,2.777,0,0,0,267.259,246.151Zm-3.192-5.895a.993.993,0,0,1,1.4-.02l1.128,1.1a.9.9,0,0,0,1.272-.017l3.389-3.474a.991.991,0,0,1,1.419,1.384l-4.707,4.826a1,1,0,0,1-1.4.019l-2.482-2.413A.992.992,0,0,1,264.067,240.256Z" transform="translate(-230.615 -207.515)" fill="#636363"/>
            <path id="Trazado_153536" data-name="Trazado 153536" d="M220.008,197.874a.9.9,0,0,0-1.437,1.084,11.863,11.863,0,0,0,1.077,1.238,11.706,11.706,0,1,0-2.876-4.712.9.9,0,0,0,1.715-.547,9.923,9.923,0,1,1,2.434,3.986A10.076,10.076,0,0,1,220.008,197.874Z" transform="translate(-190.32 -158.626)" fill="#636363"/>
            <path id="Trazado_153537" data-name="Trazado 153537" d="M60.072,49.728l-5.678-5.677a.9.9,0,0,0-1.273,0l-.035.035L50.9,41.9a15.81,15.81,0,0,0,2.516-7.611.9.9,0,0,0-1.8-.113,14.025,14.025,0,0,1-14,13.141h-.085A14.03,14.03,0,1,1,51.428,30.8a.9.9,0,0,0,1.772-.318A15.847,15.847,0,0,0,45.044,19.3V12.051a.911.911,0,0,0-.264-.636L33.628.264A.912.912,0,0,0,32.992,0H2.7A2.7,2.7,0,0,0,0,2.7v7.564a.9.9,0,0,0,1.8,0V2.7a.9.9,0,0,1,.9-.9H32.092v8.451a2.7,2.7,0,0,0,2.7,2.7h8.452v5.538a15.9,15.9,0,0,0-5.462-1.027.2.2,0,0,0-.027,0H17.662a.9.9,0,1,0,0,1.8h12.6a15.774,15.774,0,0,0-3.59,2.578H17.662a.9.9,0,1,0,0,1.8h7.391A15.664,15.664,0,0,0,22.1,30.069H17.663a.9.9,0,1,0,0,1.8h4.174q-.062.7-.063,1.419,0,.586.042,1.166H17.663a.9.9,0,1,0,0,1.8H22.05a15.663,15.663,0,0,0,3.006,6.69H17.663a.9.9,0,1,0,0,1.8h9.014a15.772,15.772,0,0,0,3.584,2.573h-12.6a.9.9,0,1,0,0,1.8H37.611a15.912,15.912,0,0,0,5.633-1.029V58.612a.9.9,0,0,1-.9.9H2.7a.9.9,0,0,1-.9-.9V13.863a.9.9,0,0,0-1.8,0V58.612a2.7,2.7,0,0,0,2.7,2.7H42.344a2.7,2.7,0,0,0,2.7-2.7V47.272q.6-.32,1.182-.7l2.185,2.184a.908.908,0,0,0-.035,1.307l5.678,5.677a4.255,4.255,0,0,0,6.018-6.018ZM34.792,11.151a.9.9,0,0,1-.9-.9V3.072l8.079,8.078ZM47.694,45.5q.576-.476,1.116-1.014t1.014-1.116l1.989,1.989-2.13,2.13ZM58.8,54.473a2.467,2.467,0,0,1-3.473,0l-5.042-5.041,3.473-3.472L58.8,51A2.467,2.467,0,0,1,58.8,54.473Z" transform="translate(0.001 0)" fill="#636363"/>
            <path id="Trazado_153538" data-name="Trazado 153538" d="M53.406,146.272h3.937a2.015,2.015,0,0,0,2.013-2.013v-3.937a2.015,2.015,0,0,0-2.013-2.013H53.406a2.015,2.015,0,0,0-2.013,2.013v3.937A2.015,2.015,0,0,0,53.406,146.272Zm-.213-5.95a.213.213,0,0,1,.213-.213h3.937a.213.213,0,0,1,.213.213v3.937a.213.213,0,0,1-.213.213H53.406a.213.213,0,0,1-.213-.213Z" transform="translate(-45.239 -121.748)" fill="#636363"/>
            <path id="Trazado_153539" data-name="Trazado 153539" d="M51.393,249.628a2.015,2.015,0,0,0,2.013,2.013h3.937a2.015,2.015,0,0,0,2.013-2.013v-3.937a2.015,2.015,0,0,0-2.013-2.013H53.406a2.015,2.015,0,0,0-2.013,2.013Zm1.8-3.937a.213.213,0,0,1,.213-.213h3.937a.213.213,0,0,1,.213.213v3.937a.213.213,0,0,1-.213.213H53.406a.213.213,0,0,1-.213-.213Z" transform="translate(-45.239 -214.498)" fill="#636363"/>
            <path id="Trazado_153540" data-name="Trazado 153540" d="M51.393,357.135a2.015,2.015,0,0,0,2.013,2.013h3.937a2.015,2.015,0,0,0,2.013-2.013V353.2a2.015,2.015,0,0,0-2.013-2.013H53.406a2.015,2.015,0,0,0-2.013,2.013Zm1.8-3.937a.213.213,0,0,1,.213-.213h3.937a.213.213,0,0,1,.213.213v3.937a.213.213,0,0,1-.213.213H53.406a.213.213,0,0,1-.213-.213Z" transform="translate(-45.239 -309.131)" fill="#636363"/>
          </g>
          <g id="lista-de-verificacion" transform="translate(792.723 -2223.932)">
            <path id="Trazado_153541" data-name="Trazado 153541" d="M108.62,0H68.8a2.851,2.851,0,0,0-2.847,2.847V21.275a.9.9,0,0,0,1.8,0V2.847A1.052,1.052,0,0,1,68.8,1.8H108.62a1.052,1.052,0,0,1,1.051,1.051V58.463a1.052,1.052,0,0,1-1.051,1.051H68.8a1.052,1.052,0,0,1-1.051-1.051v-33.6a.9.9,0,0,0-1.8,0v33.6A2.851,2.851,0,0,0,68.8,61.311H108.62a2.851,2.851,0,0,0,2.847-2.847V2.847A2.851,2.851,0,0,0,108.62,0Z" transform="translate(-65.952 0)" fill="#636363"/>
            <path id="Trazado_153542" data-name="Trazado 153542" d="M130.168,30.755H112.391a.9.9,0,0,0-.9.9v2.113H103.85a.9.9,0,0,0-.9.9v48.39a.9.9,0,0,0,.9.9h34.858a.9.9,0,0,0,.9-.9V66.011a.9.9,0,1,0-1.8,0V82.156H104.748V35.562h6.744v2.111a.9.9,0,0,0,.9.9h17.777a.9.9,0,0,0,.9-.9V35.562h6.744V62.419a.9.9,0,1,0,1.8,0V34.664a.9.9,0,0,0-.9-.9h-7.643V31.653A.9.9,0,0,0,130.168,30.755Zm-.9,6.019H113.289V32.551h15.98v4.223Z" transform="translate(-98.521 -27.072)" fill="#636363"/>
            <path id="Trazado_153543" data-name="Trazado 153543" d="M163.6,120.508a2.556,2.556,0,0,0-2.552-2.553h-5.97a2.555,2.555,0,0,0-2.552,2.553v5.969a2.556,2.556,0,0,0,2.552,2.553h5.97a2.555,2.555,0,0,0,2.552-2.553Zm-1.8,5.97a.757.757,0,0,1-.756.756h-5.97a.757.757,0,0,1-.756-.756v-5.969a.757.757,0,0,1,.756-.756h5.97a.757.757,0,0,1,.756.756Z" transform="translate(-142.156 -103.83)" fill="#636363"/>
            <path id="Trazado_153544" data-name="Trazado 153544" d="M182.189,148.075l-1.347,1.451-.293-.293a.9.9,0,1,0-1.27,1.27l.952.953a.9.9,0,0,0,.635.263h.017a.9.9,0,0,0,.641-.287l1.981-2.134a.9.9,0,1,0-1.316-1.222Z" transform="translate(-165.476 -130.091)" fill="#636363"/>
            <path id="Trazado_153545" data-name="Trazado 153545" d="M270.379,128.047h4.269a.9.9,0,0,0,0-1.8h-4.269a.9.9,0,0,0,0,1.8Z" transform="translate(-245.109 -111.133)" fill="#636363"/>
            <path id="Trazado_153546" data-name="Trazado 153546" d="M270.379,188.939h4.269a.9.9,0,0,0,0-1.8h-4.269a.9.9,0,0,0,0,1.8Z" transform="translate(-245.109 -164.733)" fill="#636363"/>
            <path id="Trazado_153547" data-name="Trazado 153547" d="M279.839,156.7h-9.46a.9.9,0,0,0,0,1.8h9.46a.9.9,0,0,0,0-1.8Z" transform="translate(-245.109 -137.933)" fill="#636363"/>
            <path id="Trazado_153548" data-name="Trazado 153548" d="M163.6,233.23a2.556,2.556,0,0,0-2.552-2.553h-5.97a2.555,2.555,0,0,0-2.552,2.553V239.2a2.556,2.556,0,0,0,2.552,2.553h5.97A2.555,2.555,0,0,0,163.6,239.2Zm-1.8,5.969a.757.757,0,0,1-.756.756h-5.97a.757.757,0,0,1-.756-.756V233.23a.757.757,0,0,1,.756-.756h5.97a.757.757,0,0,1,.756.756Z" transform="translate(-142.156 -203.054)" fill="#636363"/>
            <path id="Trazado_153549" data-name="Trazado 153549" d="M182.189,260.8l-1.347,1.451-.293-.293a.9.9,0,1,0-1.27,1.27l.952.952a.9.9,0,0,0,.635.263h.017a.9.9,0,0,0,.641-.287l1.981-2.134a.9.9,0,0,0-1.316-1.222Z" transform="translate(-165.476 -229.314)" fill="#636363"/>
            <path id="Trazado_153550" data-name="Trazado 153550" d="M270.379,240.768h4.269a.9.9,0,0,0,0-1.8h-4.269a.9.9,0,0,0,0,1.8Z" transform="translate(-245.109 -210.356)" fill="#636363"/>
            <path id="Trazado_153551" data-name="Trazado 153551" d="M270.379,301.66h4.269a.9.9,0,0,0,0-1.8h-4.269a.9.9,0,0,0,0,1.8Z" transform="translate(-245.109 -263.956)" fill="#636363"/>
            <path id="Trazado_153552" data-name="Trazado 153552" d="M279.839,269.418h-9.46a.9.9,0,0,0,0,1.8h9.46a.9.9,0,0,0,0-1.8Z" transform="translate(-245.109 -237.156)" fill="#636363"/>
            <path id="Trazado_153553" data-name="Trazado 153553" d="M161.044,343.4h-5.97a2.555,2.555,0,0,0-2.552,2.553v5.969a2.556,2.556,0,0,0,2.552,2.553h5.97a2.555,2.555,0,0,0,2.552-2.553v-5.969A2.555,2.555,0,0,0,161.044,343.4Zm.756,8.522a.757.757,0,0,1-.756.756h-5.97a.757.757,0,0,1-.756-.756v-5.969a.757.757,0,0,1,.756-.756h5.97a.757.757,0,0,1,.756.756Z" transform="translate(-142.155 -302.277)" fill="#636363"/>
            <path id="Trazado_153554" data-name="Trazado 153554" d="M182.189,373.518l-1.347,1.451-.293-.293a.9.9,0,0,0-1.27,1.27l.952.953a.9.9,0,0,0,.635.263h.017a.9.9,0,0,0,.641-.287l1.981-2.134a.9.9,0,0,0-1.316-1.222Z" transform="translate(-165.476 -328.537)" fill="#636363"/>
            <path id="Trazado_153555" data-name="Trazado 153555" d="M270.379,353.489h4.269a.9.9,0,0,0,0-1.8h-4.269a.9.9,0,0,0,0,1.8Z" transform="translate(-245.109 -309.579)" fill="#636363"/>
            <path id="Trazado_153556" data-name="Trazado 153556" d="M270.379,412.585a.9.9,0,0,0,0,1.8h4.269a.9.9,0,1,0,0-1.8Z" transform="translate(-245.109 -363.179)" fill="#636363"/>
            <path id="Trazado_153557" data-name="Trazado 153557" d="M280.737,383.037a.9.9,0,0,0-.9-.9h-9.46a.9.9,0,1,0,0,1.8h9.46A.9.9,0,0,0,280.737,383.037Z" transform="translate(-245.109 -336.379)" fill="#636363"/>
          </g>
        </g>
        <path id="Trazado_154205" data-name="Trazado 154205" d="M23.086,9.742h-4.93v4.031h5.727V15H16.656V3.625H23.8V4.852H18.156V8.516h4.93Zm3.93-3.2v9.43q0,2.438-2.211,2.438a2.7,2.7,0,0,1-.883-.14V17.125a2.794,2.794,0,0,0,.656.063.982.982,0,0,0,.738-.262,1.3,1.3,0,0,0,.254-.911V6.547ZM25.422,4.3a.867.867,0,0,1,.215-.59.79.79,0,0,1,.629-.246.819.819,0,0,1,.641.242.854.854,0,0,1,.219.594.826.826,0,0,1-.219.586.834.834,0,0,1-.641.234.808.808,0,0,1-.633-.234A.843.843,0,0,1,25.422,4.3Zm7.43,10.852a3.693,3.693,0,0,1-2.8-1.129,4.19,4.19,0,0,1-1.078-3.02v-.266a5.073,5.073,0,0,1,.48-2.246A3.748,3.748,0,0,1,30.8,6.949a3.378,3.378,0,0,1,1.871-.559,3.166,3.166,0,0,1,2.563,1.086,4.7,4.7,0,0,1,.914,3.109v.6H30.422a3,3,0,0,0,.73,2.02,2.3,2.3,0,0,0,1.777.77,2.517,2.517,0,0,0,1.3-.312,3.259,3.259,0,0,0,.93-.828l.883.688A3.55,3.55,0,0,1,32.852,15.156Zm-.18-7.578a1.928,1.928,0,0,0-1.469.637A3.1,3.1,0,0,0,30.469,10H34.7V9.891a2.753,2.753,0,0,0-.594-1.707A1.815,1.815,0,0,0,32.672,7.578ZM39.18,6.547l.039.938a3.122,3.122,0,0,1,2.508-1.094A2.417,2.417,0,0,1,44.141,7.75a3.2,3.2,0,0,1,1.1-.984,3.242,3.242,0,0,1,1.6-.375q2.781,0,2.828,2.945V15H48.219V9.422A1.941,1.941,0,0,0,47.8,8.066a1.823,1.823,0,0,0-1.391-.449,1.917,1.917,0,0,0-1.336.48,1.949,1.949,0,0,0-.617,1.293V15H43.008V9.461a1.613,1.613,0,0,0-1.8-1.844,1.934,1.934,0,0,0-1.945,1.211V15H37.813V6.547Zm19.8,4.32a5.062,5.062,0,0,1-.883,3.109,2.829,2.829,0,0,1-2.391,1.18,3.1,3.1,0,0,1-2.422-.977v4.07H51.844V6.547h1.32l.07.938a2.977,2.977,0,0,1,2.453-1.094A2.882,2.882,0,0,1,58.1,7.539a5.117,5.117,0,0,1,.887,3.2ZM57.539,10.7a3.735,3.735,0,0,0-.609-2.258,1.963,1.963,0,0,0-1.672-.828,2.125,2.125,0,0,0-1.969,1.164V12.82a2.129,2.129,0,0,0,1.984,1.156,1.954,1.954,0,0,0,1.652-.824A4.077,4.077,0,0,0,57.539,10.7ZM62.391,15H60.945V3h1.445Zm1.93-4.3a4.993,4.993,0,0,1,.488-2.234A3.643,3.643,0,0,1,66.168,6.93a3.7,3.7,0,0,1,1.988-.539,3.565,3.565,0,0,1,2.793,1.2,4.6,4.6,0,0,1,1.066,3.18v.1a5.036,5.036,0,0,1-.473,2.215,3.589,3.589,0,0,1-1.352,1.527,3.743,3.743,0,0,1-2.02.547,3.556,3.556,0,0,1-2.785-1.2A4.575,4.575,0,0,1,64.32,10.8Zm1.453.172a3.616,3.616,0,0,0,.652,2.258,2.211,2.211,0,0,0,3.5-.012A3.955,3.955,0,0,0,70.57,10.7a3.61,3.61,0,0,0-.66-2.254,2.1,2.1,0,0,0-1.754-.863,2.075,2.075,0,0,0-1.727.852A3.925,3.925,0,0,0,65.773,10.867ZM77.438,10.7a4.952,4.952,0,0,1,.922-3.129,3.137,3.137,0,0,1,4.766-.168V3H84.57V15H83.242l-.07-.906a2.943,2.943,0,0,1-2.414,1.063,2.887,2.887,0,0,1-2.395-1.2,5.008,5.008,0,0,1-.926-3.141Zm1.445.164a3.749,3.749,0,0,0,.594,2.25,1.92,1.92,0,0,0,1.641.813A2.108,2.108,0,0,0,83.125,12.7V8.813a2.125,2.125,0,0,0-1.992-1.2,1.929,1.929,0,0,0-1.656.82A4.128,4.128,0,0,0,78.883,10.867ZM90.32,15.156a3.693,3.693,0,0,1-2.8-1.129,4.19,4.19,0,0,1-1.078-3.02v-.266a5.073,5.073,0,0,1,.48-2.246A3.748,3.748,0,0,1,88.27,6.949a3.378,3.378,0,0,1,1.871-.559A3.166,3.166,0,0,1,92.7,7.477a4.7,4.7,0,0,1,.914,3.109v.6H87.891a3,3,0,0,0,.73,2.02,2.3,2.3,0,0,0,1.777.77,2.517,2.517,0,0,0,1.3-.312,3.259,3.259,0,0,0,.93-.828l.883.688A3.55,3.55,0,0,1,90.32,15.156Zm-.18-7.578a1.928,1.928,0,0,0-1.469.637A3.1,3.1,0,0,0,87.938,10h4.234V9.891a2.753,2.753,0,0,0-.594-1.707A1.815,1.815,0,0,0,90.141,7.578Zm12.5,6.4a2.082,2.082,0,0,0,1.352-.469,1.649,1.649,0,0,0,.641-1.172H106a2.621,2.621,0,0,1-.5,1.383,3.293,3.293,0,0,1-1.23,1.047,3.55,3.55,0,0,1-1.629.391A3.482,3.482,0,0,1,99.895,14a4.59,4.59,0,0,1-1.02-3.152v-.242a5.089,5.089,0,0,1,.453-2.2,3.451,3.451,0,0,1,1.3-1.492,3.7,3.7,0,0,1,2-.531A3.39,3.39,0,0,1,105,7.242a3.043,3.043,0,0,1,1,2.211h-1.367a1.992,1.992,0,0,0-.621-1.348,1.932,1.932,0,0,0-1.379-.527,2.023,2.023,0,0,0-1.707.793,3.724,3.724,0,0,0-.605,2.293v.273a3.65,3.65,0,0,0,.6,2.25A2.033,2.033,0,0,0,102.641,13.977ZM112.844,15a3.036,3.036,0,0,1-.2-.891,3.225,3.225,0,0,1-2.406,1.047,2.984,2.984,0,0,1-2.051-.707,2.288,2.288,0,0,1-.8-1.793,2.39,2.39,0,0,1,1-2.051,4.733,4.733,0,0,1,2.824-.73h1.406V9.211A1.623,1.623,0,0,0,112.164,8a1.821,1.821,0,0,0-1.336-.449,2.108,2.108,0,0,0-1.3.391,1.151,1.151,0,0,0-.523.945h-1.453A2,2,0,0,1,108,7.668a3.066,3.066,0,0,1,1.219-.934,4.1,4.1,0,0,1,1.691-.344,3.342,3.342,0,0,1,2.289.73,2.635,2.635,0,0,1,.859,2.012v3.891a4.757,4.757,0,0,0,.3,1.852V15Zm-2.4-1.1a2.54,2.54,0,0,0,1.289-.352,2.127,2.127,0,0,0,.883-.914V10.9h-1.133q-2.656,0-2.656,1.555a1.316,1.316,0,0,0,.453,1.063A1.742,1.742,0,0,0,110.445,13.9Zm1.336-10.883h1.75l-2.094,2.3-1.164,0ZM117.9,15h-1.445V3H117.9Zm5.7-1.023a2.082,2.082,0,0,0,1.352-.469,1.649,1.649,0,0,0,.641-1.172h1.367a2.621,2.621,0,0,1-.5,1.383,3.293,3.293,0,0,1-1.23,1.047,3.55,3.55,0,0,1-1.629.391A3.482,3.482,0,0,1,120.855,14a4.59,4.59,0,0,1-1.02-3.152v-.242a5.089,5.089,0,0,1,.453-2.2,3.451,3.451,0,0,1,1.3-1.492,3.7,3.7,0,0,1,2-.531,3.39,3.39,0,0,1,2.363.852,3.043,3.043,0,0,1,1,2.211h-1.367a1.992,1.992,0,0,0-.621-1.348,1.932,1.932,0,0,0-1.379-.527,2.023,2.023,0,0,0-1.707.793,3.724,3.724,0,0,0-.605,2.293v.273a3.65,3.65,0,0,0,.6,2.25A2.033,2.033,0,0,0,123.6,13.977Zm10.2.188a3.07,3.07,0,0,1-2.477.992,2.628,2.628,0,0,1-2.059-.785,3.4,3.4,0,0,1-.715-2.324v-5.5H130v5.461q0,1.922,1.563,1.922a2.163,2.163,0,0,0,2.2-1.234V6.547h1.445V15h-1.375Zm5.172.836h-1.445V3h1.445Zm1.93-4.3a4.993,4.993,0,0,1,.488-2.234,3.642,3.642,0,0,1,1.359-1.531,3.7,3.7,0,0,1,1.988-.539,3.565,3.565,0,0,1,2.793,1.2,4.6,4.6,0,0,1,1.066,3.18v.1a5.036,5.036,0,0,1-.473,2.215,3.589,3.589,0,0,1-1.352,1.527,3.743,3.743,0,0,1-2.02.547,3.556,3.556,0,0,1-2.785-1.2,4.575,4.575,0,0,1-1.066-3.164Zm1.453.172a3.616,3.616,0,0,0,.652,2.258,2.211,2.211,0,0,0,3.5-.012,3.954,3.954,0,0,0,.648-2.418,3.61,3.61,0,0,0-.66-2.254,2.1,2.1,0,0,0-1.754-.863,2.075,2.075,0,0,0-1.727.852A3.925,3.925,0,0,0,142.359,10.867Zm11.664-.164a4.952,4.952,0,0,1,.922-3.129,3.137,3.137,0,0,1,4.766-.168V3h1.445V15h-1.328l-.07-.906a2.943,2.943,0,0,1-2.414,1.063,2.887,2.887,0,0,1-2.395-1.2,5.008,5.008,0,0,1-.926-3.141Zm1.445.164a3.749,3.749,0,0,0,.594,2.25,1.919,1.919,0,0,0,1.641.813,2.108,2.108,0,0,0,2.008-1.234V8.813a2.125,2.125,0,0,0-1.992-1.2,1.929,1.929,0,0,0-1.656.82A4.128,4.128,0,0,0,155.469,10.867Zm11.438,4.289a3.693,3.693,0,0,1-2.8-1.129,4.19,4.19,0,0,1-1.078-3.02v-.266a5.073,5.073,0,0,1,.48-2.246,3.748,3.748,0,0,1,1.344-1.547,3.378,3.378,0,0,1,1.871-.559,3.166,3.166,0,0,1,2.563,1.086,4.7,4.7,0,0,1,.914,3.109v.6h-5.727a3,3,0,0,0,.73,2.02,2.3,2.3,0,0,0,1.777.77,2.517,2.517,0,0,0,1.3-.312,3.258,3.258,0,0,0,.93-.828l.883.688A3.55,3.55,0,0,1,166.906,15.156Zm-.18-7.578a1.928,1.928,0,0,0-1.469.637A3.1,3.1,0,0,0,164.523,10h4.234V9.891a2.753,2.753,0,0,0-.594-1.707A1.815,1.815,0,0,0,166.727,7.578ZM173.445,15H172V3h1.445ZM11.992,34.7a4.952,4.952,0,0,1,.922-3.129,2.915,2.915,0,0,1,2.414-1.184,2.932,2.932,0,0,1,2.352,1.016V27h1.445V39H17.8l-.07-.906a2.943,2.943,0,0,1-2.414,1.063,2.887,2.887,0,0,1-2.395-1.2,5.008,5.008,0,0,1-.926-3.141Zm1.445.164a3.749,3.749,0,0,0,.594,2.25,1.92,1.92,0,0,0,1.641.813A2.108,2.108,0,0,0,17.68,36.7V32.813a2.125,2.125,0,0,0-1.992-1.2,1.929,1.929,0,0,0-1.656.82A4.128,4.128,0,0,0,13.438,34.867Zm11.438,4.289a3.693,3.693,0,0,1-2.8-1.129A4.19,4.19,0,0,1,21,35.008v-.266a5.073,5.073,0,0,1,.48-2.246,3.748,3.748,0,0,1,1.344-1.547,3.378,3.378,0,0,1,1.871-.559,3.166,3.166,0,0,1,2.563,1.086,4.7,4.7,0,0,1,.914,3.109v.6H22.445a3,3,0,0,0,.73,2.02,2.3,2.3,0,0,0,1.777.77,2.517,2.517,0,0,0,1.3-.312,3.259,3.259,0,0,0,.93-.828l.883.688A3.55,3.55,0,0,1,24.875,39.156Zm-.18-7.578a1.928,1.928,0,0,0-1.469.637A3.1,3.1,0,0,0,22.492,34h4.234v-.109a2.753,2.753,0,0,0-.594-1.707A1.815,1.815,0,0,0,24.7,31.578ZM31.8,28.5v2.047h1.578v1.117H31.8v5.249a1.173,1.173,0,0,0,.211.763.888.888,0,0,0,.719.254,3.5,3.5,0,0,0,.688-.094V39a4.215,4.215,0,0,1-1.109.155,1.8,1.8,0,0,1-1.461-.586,2.517,2.517,0,0,1-.492-1.664V31.664H28.82V30.547h1.539V28.5Zm6.773,10.656a3.693,3.693,0,0,1-2.8-1.129,4.19,4.19,0,0,1-1.078-3.02v-.266a5.073,5.073,0,0,1,.48-2.246,3.748,3.748,0,0,1,1.344-1.547,3.378,3.378,0,0,1,1.871-.559,3.166,3.166,0,0,1,2.563,1.086,4.7,4.7,0,0,1,.914,3.109v.6H36.148a3,3,0,0,0,.73,2.02,2.3,2.3,0,0,0,1.777.77,2.517,2.517,0,0,0,1.3-.312,3.258,3.258,0,0,0,.93-.828l.883.688A3.55,3.55,0,0,1,38.578,39.156Zm-.18-7.578a1.928,1.928,0,0,0-1.469.637A3.1,3.1,0,0,0,36.2,34H40.43v-.109a2.753,2.753,0,0,0-.594-1.707A1.815,1.815,0,0,0,38.4,31.578Zm9.234.266a4.331,4.331,0,0,0-.711-.055A1.9,1.9,0,0,0,44.992,33v6H43.547V30.547h1.406l.023.977a2.251,2.251,0,0,1,2.016-1.133,1.477,1.477,0,0,1,.641.109ZM50.531,39H49.086V30.547h1.445ZM48.969,28.3a.863.863,0,0,1,.215-.594.807.807,0,0,1,.637-.242.819.819,0,0,1,.641.242.854.854,0,0,1,.219.594.826.826,0,0,1-.219.586.834.834,0,0,1-.641.234.821.821,0,0,1-.637-.234A.834.834,0,0,1,48.969,28.3ZM52.461,34.7a4.993,4.993,0,0,1,.488-2.234,3.643,3.643,0,0,1,1.359-1.531,3.7,3.7,0,0,1,1.988-.539,3.565,3.565,0,0,1,2.793,1.2,4.6,4.6,0,0,1,1.066,3.18v.1a5.036,5.036,0,0,1-.473,2.215,3.589,3.589,0,0,1-1.352,1.527,3.743,3.743,0,0,1-2.02.547,3.556,3.556,0,0,1-2.785-1.2A4.575,4.575,0,0,1,52.461,34.8Zm1.453.172a3.616,3.616,0,0,0,.652,2.258,2.211,2.211,0,0,0,3.5-.012,3.955,3.955,0,0,0,.648-2.418,3.61,3.61,0,0,0-.66-2.254,2.1,2.1,0,0,0-1.754-.863,2.075,2.075,0,0,0-1.727.852A3.925,3.925,0,0,0,53.914,34.867Zm12.141-3.023a4.331,4.331,0,0,0-.711-.055A1.9,1.9,0,0,0,63.414,33v6H61.969V30.547h1.406l.023.977a2.251,2.251,0,0,1,2.016-1.133,1.477,1.477,0,0,1,.641.109Zm.789,2.852a4.993,4.993,0,0,1,.488-2.234,3.643,3.643,0,0,1,1.359-1.531,3.7,3.7,0,0,1,1.988-.539,3.565,3.565,0,0,1,2.793,1.2,4.6,4.6,0,0,1,1.066,3.18v.1a5.036,5.036,0,0,1-.473,2.215,3.589,3.589,0,0,1-1.352,1.527,3.743,3.743,0,0,1-2.02.547,3.556,3.556,0,0,1-2.785-1.2A4.575,4.575,0,0,1,66.844,34.8Zm1.453.172a3.616,3.616,0,0,0,.652,2.258,2.211,2.211,0,0,0,3.5-.012,3.955,3.955,0,0,0,.648-2.418,3.61,3.61,0,0,0-.66-2.254,2.1,2.1,0,0,0-1.754-.863,2.075,2.075,0,0,0-1.727.852A3.925,3.925,0,0,0,68.3,34.867ZM83.82,39.156a3.693,3.693,0,0,1-2.8-1.129,4.19,4.19,0,0,1-1.078-3.02v-.266a5.073,5.073,0,0,1,.48-2.246,3.748,3.748,0,0,1,1.344-1.547,3.378,3.378,0,0,1,1.871-.559A3.166,3.166,0,0,1,86.2,31.477a4.7,4.7,0,0,1,.914,3.109v.6H81.391a3,3,0,0,0,.73,2.02,2.3,2.3,0,0,0,1.777.77,2.517,2.517,0,0,0,1.3-.312,3.259,3.259,0,0,0,.93-.828l.883.688A3.55,3.55,0,0,1,83.82,39.156Zm-.18-7.578a1.928,1.928,0,0,0-1.469.637A3.1,3.1,0,0,0,81.438,34h4.234v-.109a2.753,2.753,0,0,0-.594-1.707A1.815,1.815,0,0,0,83.641,31.578Zm6.516-1.031.047,1.063a3.08,3.08,0,0,1,2.531-1.219q2.68,0,2.7,3.023V39H93.992V33.406a1.946,1.946,0,0,0-.418-1.352,1.675,1.675,0,0,0-1.277-.437,2.086,2.086,0,0,0-1.234.375,2.546,2.546,0,0,0-.828.984V39H88.789V30.547ZM103.148,39H101.7V30.547h1.445Zm-1.562-10.7a.863.863,0,0,1,.215-.594.807.807,0,0,1,.637-.242.819.819,0,0,1,.641.242.854.854,0,0,1,.219.594.826.826,0,0,1-.219.586.834.834,0,0,1-.641.234.821.821,0,0,1-.637-.234A.834.834,0,0,1,101.586,28.3Zm5.242,2.242.047,1.063a3.08,3.08,0,0,1,2.531-1.219q2.68,0,2.7,3.023V39h-1.445V33.406a1.946,1.946,0,0,0-.418-1.352,1.675,1.675,0,0,0-1.277-.437,2.086,2.086,0,0,0-1.234.375,2.546,2.546,0,0,0-.828.984V39h-1.445V30.547Zm10.25,6.492,2.094-6.492h1.477L117.617,39h-1.1l-3.062-8.453h1.477Zm8.367,2.117a3.693,3.693,0,0,1-2.8-1.129,4.19,4.19,0,0,1-1.078-3.02v-.266a5.073,5.073,0,0,1,.48-2.246,3.748,3.748,0,0,1,1.344-1.547,3.378,3.378,0,0,1,1.871-.559,3.166,3.166,0,0,1,2.563,1.086,4.7,4.7,0,0,1,.914,3.109v.6h-5.727a3,3,0,0,0,.73,2.02,2.3,2.3,0,0,0,1.777.77,2.517,2.517,0,0,0,1.3-.312,3.259,3.259,0,0,0,.93-.828l.883.688A3.55,3.55,0,0,1,125.445,39.156Zm-.18-7.578a1.928,1.928,0,0,0-1.469.637A3.1,3.1,0,0,0,123.063,34H127.3v-.109a2.753,2.753,0,0,0-.594-1.707A1.815,1.815,0,0,0,125.266,31.578Zm6.516-1.031.047,1.063a3.08,3.08,0,0,1,2.531-1.219q2.68,0,2.7,3.023V39h-1.445V33.406a1.946,1.946,0,0,0-.418-1.352,1.675,1.675,0,0,0-1.277-.437,2.086,2.086,0,0,0-1.234.375,2.546,2.546,0,0,0-.828.984V39h-1.445V30.547ZM141.2,28.5v2.047h1.578v1.117H141.2v5.249a1.173,1.173,0,0,0,.211.763.888.888,0,0,0,.719.254,3.5,3.5,0,0,0,.688-.094V39a4.215,4.215,0,0,1-1.109.155,1.8,1.8,0,0,1-1.461-.586,2.517,2.517,0,0,1-.492-1.664V31.664h-1.539V30.547h1.539V28.5ZM149.688,39a3.036,3.036,0,0,1-.2-.891,3.225,3.225,0,0,1-2.406,1.047,2.984,2.984,0,0,1-2.051-.707,2.287,2.287,0,0,1-.8-1.793,2.39,2.39,0,0,1,1-2.051,4.733,4.733,0,0,1,2.824-.73h1.406v-.664A1.623,1.623,0,0,0,149.008,32a1.821,1.821,0,0,0-1.336-.449,2.107,2.107,0,0,0-1.3.391,1.151,1.151,0,0,0-.523.945H144.4a2,2,0,0,1,.449-1.223,3.066,3.066,0,0,1,1.219-.934,4.1,4.1,0,0,1,1.691-.344,3.342,3.342,0,0,1,2.289.73,2.635,2.635,0,0,1,.859,2.012v3.891a4.757,4.757,0,0,0,.3,1.852V39Zm-2.4-1.1a2.54,2.54,0,0,0,1.289-.352,2.127,2.127,0,0,0,.883-.914V34.9h-1.133q-2.656,0-2.656,1.555a1.316,1.316,0,0,0,.453,1.063A1.742,1.742,0,0,0,147.289,37.9Zm9.969-6.055a4.331,4.331,0,0,0-.711-.055A1.9,1.9,0,0,0,154.617,33v6h-1.445V30.547h1.406l.023.977a2.251,2.251,0,0,1,2.016-1.133,1.477,1.477,0,0,1,.641.109Zm2.9,7.156h-1.445V30.547h1.445Zm-1.562-10.7a.863.863,0,0,1,.215-.594.807.807,0,0,1,.637-.242.819.819,0,0,1,.641.242.854.854,0,0,1,.219.594.826.826,0,0,1-.219.586.834.834,0,0,1-.641.234.821.821,0,0,1-.637-.234A.834.834,0,0,1,158.594,28.3Zm3.492,6.391a4.993,4.993,0,0,1,.488-2.234,3.642,3.642,0,0,1,1.359-1.531,3.7,3.7,0,0,1,1.988-.539,3.565,3.565,0,0,1,2.793,1.2,4.6,4.6,0,0,1,1.066,3.18v.1a5.036,5.036,0,0,1-.473,2.215,3.589,3.589,0,0,1-1.352,1.527,3.743,3.743,0,0,1-2.02.547,3.556,3.556,0,0,1-2.785-1.2,4.575,4.575,0,0,1-1.066-3.164Zm1.453.172a3.616,3.616,0,0,0,.652,2.258,2.211,2.211,0,0,0,3.5-.012,3.954,3.954,0,0,0,.648-2.418,3.61,3.61,0,0,0-.66-2.254,2.1,2.1,0,0,0-1.754-.863,2.075,2.075,0,0,0-1.727.852A3.925,3.925,0,0,0,163.539,34.867Zm12.977,1.891a1.064,1.064,0,0,0-.441-.91,4.249,4.249,0,0,0-1.539-.559,7.277,7.277,0,0,1-1.742-.562,2.479,2.479,0,0,1-.953-.781,1.869,1.869,0,0,1-.309-1.078,2.193,2.193,0,0,1,.879-1.758,3.432,3.432,0,0,1,2.246-.719,3.532,3.532,0,0,1,2.332.742,2.357,2.357,0,0,1,.895,1.9H176.43a1.3,1.3,0,0,0-.5-1.023,1.888,1.888,0,0,0-1.27-.43,1.976,1.976,0,0,0-1.234.344,1.082,1.082,0,0,0-.445.9.877.877,0,0,0,.414.789,5.1,5.1,0,0,0,1.5.508,7.8,7.8,0,0,1,1.754.578,2.558,2.558,0,0,1,1,.809,1.988,1.988,0,0,1,.324,1.152,2.163,2.163,0,0,1-.906,1.816,3.8,3.8,0,0,1-2.352.684,4.257,4.257,0,0,1-1.8-.359,2.922,2.922,0,0,1-1.223-1,2.42,2.42,0,0,1-.441-1.395h1.445a1.5,1.5,0,0,0,.582,1.152,2.258,2.258,0,0,0,1.434.426,2.331,2.331,0,0,0,1.316-.332A1.02,1.02,0,0,0,176.516,36.758Z" transform="translate(476 7220.659)" fill="#636363"/>
        <path id="Trazado_154204" data-name="Trazado 154204" d="M19.594,15h-1.5V3.625h1.5Zm3.883-8.453.047,1.063a3.08,3.08,0,0,1,2.531-1.219q2.68,0,2.7,3.023V15H27.313V9.406a1.946,1.946,0,0,0-.418-1.352,1.675,1.675,0,0,0-1.277-.437,2.086,2.086,0,0,0-1.234.375,2.546,2.546,0,0,0-.828.984V15H22.109V6.547ZM31.648,15V7.664H30.313V6.547h1.336V5.68a2.878,2.878,0,0,1,.727-2.1,2.745,2.745,0,0,1,2.055-.742,3.816,3.816,0,0,1,.992.132l-.078,1.165a4.151,4.151,0,0,0-.781-.07,1.41,1.41,0,0,0-1.086.411,1.669,1.669,0,0,0-.383,1.18v.893h1.8V7.664h-1.8V15Zm4.461-4.3A4.993,4.993,0,0,1,36.6,8.461,3.643,3.643,0,0,1,37.957,6.93a3.7,3.7,0,0,1,1.988-.539,3.565,3.565,0,0,1,2.793,1.2,4.6,4.6,0,0,1,1.066,3.18v.1a5.036,5.036,0,0,1-.473,2.215,3.589,3.589,0,0,1-1.352,1.527,3.743,3.743,0,0,1-2.02.547,3.556,3.556,0,0,1-2.785-1.2A4.575,4.575,0,0,1,36.109,10.8Zm1.453.172a3.616,3.616,0,0,0,.652,2.258,2.211,2.211,0,0,0,3.5-.012,3.955,3.955,0,0,0,.648-2.418,3.61,3.61,0,0,0-.66-2.254,2.1,2.1,0,0,0-1.754-.863,2.075,2.075,0,0,0-1.727.852A3.925,3.925,0,0,0,37.563,10.867ZM49.7,7.844a4.331,4.331,0,0,0-.711-.055A1.9,1.9,0,0,0,47.063,9v6H45.617V6.547h1.406l.023.977a2.251,2.251,0,0,1,2.016-1.133A1.477,1.477,0,0,1,49.7,6.5Zm2.688-1.3.039.938a3.122,3.122,0,0,1,2.508-1.094A2.417,2.417,0,0,1,57.352,7.75a3.2,3.2,0,0,1,1.1-.984,3.242,3.242,0,0,1,1.6-.375q2.781,0,2.828,2.945V15H61.43V9.422a1.941,1.941,0,0,0-.414-1.355,1.823,1.823,0,0,0-1.391-.449,1.917,1.917,0,0,0-1.336.48,1.949,1.949,0,0,0-.617,1.293V15H56.219V9.461a1.613,1.613,0,0,0-1.8-1.844,1.934,1.934,0,0,0-1.945,1.211V15H51.023V6.547ZM70.273,15a3.036,3.036,0,0,1-.2-.891,3.225,3.225,0,0,1-2.406,1.047,2.984,2.984,0,0,1-2.051-.707,2.288,2.288,0,0,1-.8-1.793,2.39,2.39,0,0,1,1-2.051,4.733,4.733,0,0,1,2.824-.73h1.406V9.211A1.623,1.623,0,0,0,69.594,8a1.821,1.821,0,0,0-1.336-.449,2.108,2.108,0,0,0-1.3.391,1.151,1.151,0,0,0-.523.945H64.984a2,2,0,0,1,.449-1.223,3.066,3.066,0,0,1,1.219-.934,4.1,4.1,0,0,1,1.691-.344,3.342,3.342,0,0,1,2.289.73,2.635,2.635,0,0,1,.859,2.012v3.891a4.757,4.757,0,0,0,.3,1.852V15Zm-2.4-1.1a2.54,2.54,0,0,0,1.289-.352,2.127,2.127,0,0,0,.883-.914V10.9H68.914q-2.656,0-2.656,1.555a1.316,1.316,0,0,0,.453,1.063A1.742,1.742,0,0,0,67.875,13.9Zm9.273.078a2.082,2.082,0,0,0,1.352-.469,1.649,1.649,0,0,0,.641-1.172h1.367a2.621,2.621,0,0,1-.5,1.383,3.293,3.293,0,0,1-1.23,1.047,3.55,3.55,0,0,1-1.629.391A3.482,3.482,0,0,1,74.4,14a4.59,4.59,0,0,1-1.02-3.152v-.242a5.089,5.089,0,0,1,.453-2.2,3.451,3.451,0,0,1,1.3-1.492,3.7,3.7,0,0,1,2-.531,3.39,3.39,0,0,1,2.363.852,3.043,3.043,0,0,1,1,2.211H79.141a1.992,1.992,0,0,0-.621-1.348,1.932,1.932,0,0,0-1.379-.527,2.023,2.023,0,0,0-1.707.793,3.724,3.724,0,0,0-.605,2.293v.273a3.65,3.65,0,0,0,.6,2.25A2.033,2.033,0,0,0,77.148,13.977ZM83.7,15H82.258V6.547H83.7ZM82.141,4.3a.863.863,0,0,1,.215-.594.807.807,0,0,1,.637-.242.819.819,0,0,1,.641.242.854.854,0,0,1,.219.594.826.826,0,0,1-.219.586.834.834,0,0,1-.641.234.821.821,0,0,1-.637-.234A.834.834,0,0,1,82.141,4.3ZM85.633,10.7a4.993,4.993,0,0,1,.488-2.234A3.643,3.643,0,0,1,87.48,6.93a3.7,3.7,0,0,1,1.988-.539,3.565,3.565,0,0,1,2.793,1.2,4.6,4.6,0,0,1,1.066,3.18v.1a5.036,5.036,0,0,1-.473,2.215A3.589,3.589,0,0,1,91.5,14.609a3.743,3.743,0,0,1-2.02.547,3.556,3.556,0,0,1-2.785-1.2A4.575,4.575,0,0,1,85.633,10.8Zm1.453.172a3.616,3.616,0,0,0,.652,2.258,2.211,2.211,0,0,0,3.5-.012,3.955,3.955,0,0,0,.648-2.418,3.61,3.61,0,0,0-.66-2.254,2.1,2.1,0,0,0-1.754-.863,2.075,2.075,0,0,0-1.727.852A3.925,3.925,0,0,0,87.086,10.867Zm3.039-7.852h1.75l-2.094,2.3-1.164,0Zm6.383,3.531.047,1.063a3.08,3.08,0,0,1,2.531-1.219q2.68,0,2.7,3.023V15h-1.445V9.406a1.946,1.946,0,0,0-.418-1.352,1.675,1.675,0,0,0-1.277-.437,2.086,2.086,0,0,0-1.234.375,2.546,2.546,0,0,0-.828.984V15H95.141V6.547Zm11.07,4.156a4.952,4.952,0,0,1,.922-3.129,3.137,3.137,0,0,1,4.766-.168V3h1.445V15h-1.328l-.07-.906a2.943,2.943,0,0,1-2.414,1.063,2.887,2.887,0,0,1-2.395-1.2,5.008,5.008,0,0,1-.926-3.141Zm1.445.164a3.749,3.749,0,0,0,.594,2.25,1.92,1.92,0,0,0,1.641.813,2.108,2.108,0,0,0,2.008-1.234V8.813a2.125,2.125,0,0,0-1.992-1.2,1.929,1.929,0,0,0-1.656.82A4.128,4.128,0,0,0,109.023,10.867Zm11.438,4.289a3.693,3.693,0,0,1-2.8-1.129,4.19,4.19,0,0,1-1.078-3.02v-.266a5.073,5.073,0,0,1,.48-2.246,3.748,3.748,0,0,1,1.344-1.547,3.378,3.378,0,0,1,1.871-.559,3.166,3.166,0,0,1,2.563,1.086,4.7,4.7,0,0,1,.914,3.109v.6h-5.727a3,3,0,0,0,.73,2.02,2.3,2.3,0,0,0,1.777.77,2.517,2.517,0,0,0,1.3-.312,3.259,3.259,0,0,0,.93-.828l.883.688A3.55,3.55,0,0,1,120.461,15.156Zm-.18-7.578a1.928,1.928,0,0,0-1.469.637A3.1,3.1,0,0,0,118.078,10h4.234V9.891a2.753,2.753,0,0,0-.594-1.707A1.815,1.815,0,0,0,120.281,7.578Zm14.031,5.18a1.064,1.064,0,0,0-.441-.91,4.249,4.249,0,0,0-1.539-.559,7.277,7.277,0,0,1-1.742-.562,2.479,2.479,0,0,1-.953-.781,1.869,1.869,0,0,1-.309-1.078,2.193,2.193,0,0,1,.879-1.758,3.432,3.432,0,0,1,2.246-.719,3.532,3.532,0,0,1,2.332.742,2.357,2.357,0,0,1,.895,1.9h-1.453a1.3,1.3,0,0,0-.5-1.023,1.888,1.888,0,0,0-1.27-.43,1.976,1.976,0,0,0-1.234.344,1.082,1.082,0,0,0-.445.9.877.877,0,0,0,.414.789,5.1,5.1,0,0,0,1.5.508,7.8,7.8,0,0,1,1.754.578,2.558,2.558,0,0,1,1,.809,1.988,1.988,0,0,1,.324,1.152,2.163,2.163,0,0,1-.906,1.816,3.8,3.8,0,0,1-2.352.684,4.257,4.257,0,0,1-1.8-.359,2.922,2.922,0,0,1-1.223-1,2.42,2.42,0,0,1-.441-1.395h1.445a1.5,1.5,0,0,0,.582,1.152,2.258,2.258,0,0,0,1.434.426,2.331,2.331,0,0,0,1.316-.332A1.02,1.02,0,0,0,134.313,12.758Zm8.547,1.406a3.07,3.07,0,0,1-2.477.992,2.628,2.628,0,0,1-2.059-.785,3.4,3.4,0,0,1-.715-2.324v-5.5h1.445v5.461q0,1.922,1.563,1.922a2.163,2.163,0,0,0,2.2-1.234V6.547h1.445V15h-1.375Zm10.742-3.3a5.062,5.062,0,0,1-.883,3.109,2.829,2.829,0,0,1-2.391,1.18,3.1,3.1,0,0,1-2.422-.977v4.07h-1.445V6.547h1.32l.07.938A2.977,2.977,0,0,1,150.3,6.391a2.882,2.882,0,0,1,2.41,1.148,5.117,5.117,0,0,1,.887,3.2Zm-1.445-.164a3.735,3.735,0,0,0-.609-2.258,1.963,1.963,0,0,0-1.672-.828,2.125,2.125,0,0,0-1.969,1.164V12.82a2.129,2.129,0,0,0,1.984,1.156,1.954,1.954,0,0,0,1.652-.824A4.077,4.077,0,0,0,152.156,10.7Zm8.5,3.461a3.07,3.07,0,0,1-2.477.992,2.628,2.628,0,0,1-2.059-.785,3.4,3.4,0,0,1-.715-2.324v-5.5h1.445v5.461q0,1.922,1.563,1.922a2.163,2.163,0,0,0,2.2-1.234V6.547h1.445V15h-1.375Zm7.109.992a3.693,3.693,0,0,1-2.8-1.129,4.19,4.19,0,0,1-1.078-3.02v-.266a5.073,5.073,0,0,1,.48-2.246,3.748,3.748,0,0,1,1.344-1.547,3.378,3.378,0,0,1,1.871-.559,3.166,3.166,0,0,1,2.563,1.086,4.7,4.7,0,0,1,.914,3.109v.6h-5.727a3,3,0,0,0,.73,2.02,2.3,2.3,0,0,0,1.777.77,2.517,2.517,0,0,0,1.3-.312,3.258,3.258,0,0,0,.93-.828l.883.688A3.55,3.55,0,0,1,167.766,15.156Zm-.18-7.578a1.928,1.928,0,0,0-1.469.637A3.1,3.1,0,0,0,165.383,10h4.234V9.891a2.753,2.753,0,0,0-.594-1.707A1.815,1.815,0,0,0,167.586,7.578Zm10.07,5.18a1.064,1.064,0,0,0-.441-.91,4.249,4.249,0,0,0-1.539-.559,7.277,7.277,0,0,1-1.742-.562,2.479,2.479,0,0,1-.953-.781,1.869,1.869,0,0,1-.309-1.078,2.193,2.193,0,0,1,.879-1.758,3.432,3.432,0,0,1,2.246-.719,3.532,3.532,0,0,1,2.332.742,2.357,2.357,0,0,1,.895,1.9H177.57a1.3,1.3,0,0,0-.5-1.023,1.888,1.888,0,0,0-1.27-.43,1.976,1.976,0,0,0-1.234.344,1.082,1.082,0,0,0-.445.9.877.877,0,0,0,.414.789,5.1,5.1,0,0,0,1.5.508,7.8,7.8,0,0,1,1.754.578,2.558,2.558,0,0,1,1,.809,1.988,1.988,0,0,1,.324,1.152,2.163,2.163,0,0,1-.906,1.816,3.8,3.8,0,0,1-2.352.684,4.257,4.257,0,0,1-1.8-.359,2.922,2.922,0,0,1-1.223-1,2.42,2.42,0,0,1-.441-1.395h1.445a1.5,1.5,0,0,0,.582,1.152,2.258,2.258,0,0,0,1.434.426,2.331,2.331,0,0,0,1.316-.332A1.02,1.02,0,0,0,177.656,12.758ZM182.945,4.5V6.547h1.578V7.664h-1.578v5.249a1.173,1.173,0,0,0,.211.763.888.888,0,0,0,.719.254,3.5,3.5,0,0,0,.688-.094V15a4.215,4.215,0,0,1-1.109.155,1.8,1.8,0,0,1-1.461-.586,2.517,2.517,0,0,1-.492-1.664V7.664h-1.539V6.547H181.5V4.5Zm2.727,6.2a4.993,4.993,0,0,1,.488-2.234A3.642,3.642,0,0,1,187.52,6.93a3.7,3.7,0,0,1,1.988-.539,3.565,3.565,0,0,1,2.793,1.2,4.6,4.6,0,0,1,1.066,3.18v.1a5.036,5.036,0,0,1-.473,2.215,3.589,3.589,0,0,1-1.352,1.527,3.743,3.743,0,0,1-2.02.547,3.556,3.556,0,0,1-2.785-1.2,4.575,4.575,0,0,1-1.066-3.164Zm1.453.172a3.616,3.616,0,0,0,.652,2.258,2.211,2.211,0,0,0,3.5-.012,3.954,3.954,0,0,0,.648-2.418,3.61,3.61,0,0,0-.66-2.254,2.1,2.1,0,0,0-1.754-.863,2.075,2.075,0,0,0-1.727.852A3.925,3.925,0,0,0,187.125,10.867ZM200.1,12.758a1.064,1.064,0,0,0-.441-.91,4.249,4.249,0,0,0-1.539-.559,7.277,7.277,0,0,1-1.742-.562,2.479,2.479,0,0,1-.953-.781,1.869,1.869,0,0,1-.309-1.078A2.193,2.193,0,0,1,196,7.109a3.432,3.432,0,0,1,2.246-.719,3.532,3.532,0,0,1,2.332.742,2.357,2.357,0,0,1,.895,1.9h-1.453a1.3,1.3,0,0,0-.5-1.023,1.888,1.888,0,0,0-1.27-.43,1.976,1.976,0,0,0-1.234.344,1.082,1.082,0,0,0-.445.9.877.877,0,0,0,.414.789,5.1,5.1,0,0,0,1.5.508,7.8,7.8,0,0,1,1.754.578,2.558,2.558,0,0,1,1,.809,1.988,1.988,0,0,1,.324,1.152,2.163,2.163,0,0,1-.906,1.816,3.8,3.8,0,0,1-2.352.684,4.257,4.257,0,0,1-1.8-.359,2.922,2.922,0,0,1-1.223-1,2.42,2.42,0,0,1-.441-1.395h1.445a1.5,1.5,0,0,0,.582,1.152,2.258,2.258,0,0,0,1.434.426,2.331,2.331,0,0,0,1.316-.332A1.02,1.02,0,0,0,200.1,12.758ZM10.441,34.867a5.062,5.062,0,0,1-.883,3.109,2.829,2.829,0,0,1-2.391,1.18,3.1,3.1,0,0,1-2.422-.977v4.07H3.3v-11.7h1.32l.07.938a2.977,2.977,0,0,1,2.453-1.094,2.882,2.882,0,0,1,2.41,1.148,5.117,5.117,0,0,1,.887,3.2ZM9,34.7a3.735,3.735,0,0,0-.609-2.258,1.963,1.963,0,0,0-1.672-.828,2.125,2.125,0,0,0-1.969,1.164V36.82A2.129,2.129,0,0,0,6.73,37.977a1.954,1.954,0,0,0,1.652-.824A4.077,4.077,0,0,0,9,34.7ZM17.5,39a3.036,3.036,0,0,1-.2-.891,3.225,3.225,0,0,1-2.406,1.047,2.984,2.984,0,0,1-2.051-.707,2.287,2.287,0,0,1-.8-1.793,2.39,2.39,0,0,1,1-2.051,4.733,4.733,0,0,1,2.824-.73H17.27v-.664A1.623,1.623,0,0,0,16.816,32a1.821,1.821,0,0,0-1.336-.449,2.108,2.108,0,0,0-1.3.391,1.151,1.151,0,0,0-.523.945H12.207a2,2,0,0,1,.449-1.223,3.066,3.066,0,0,1,1.219-.934,4.1,4.1,0,0,1,1.691-.344,3.342,3.342,0,0,1,2.289.73,2.635,2.635,0,0,1,.859,2.012v3.891a4.757,4.757,0,0,0,.3,1.852V39Zm-2.4-1.1a2.54,2.54,0,0,0,1.289-.352,2.127,2.127,0,0,0,.883-.914V34.9H16.137q-2.656,0-2.656,1.555a1.316,1.316,0,0,0,.453,1.063A1.742,1.742,0,0,0,15.1,37.9Zm9.969-6.055a4.331,4.331,0,0,0-.711-.055A1.9,1.9,0,0,0,22.426,33v6H20.98V30.547h1.406l.023.977a2.251,2.251,0,0,1,2.016-1.133,1.477,1.477,0,0,1,.641.109ZM31.3,39a3.036,3.036,0,0,1-.2-.891,3.225,3.225,0,0,1-2.406,1.047,2.984,2.984,0,0,1-2.051-.707,2.287,2.287,0,0,1-.8-1.793,2.39,2.39,0,0,1,1-2.051,4.733,4.733,0,0,1,2.824-.73h1.406v-.664A1.623,1.623,0,0,0,30.621,32a1.821,1.821,0,0,0-1.336-.449,2.108,2.108,0,0,0-1.3.391,1.151,1.151,0,0,0-.523.945H26.012a2,2,0,0,1,.449-1.223,3.066,3.066,0,0,1,1.219-.934,4.1,4.1,0,0,1,1.691-.344,3.342,3.342,0,0,1,2.289.73,2.635,2.635,0,0,1,.859,2.012v3.891a4.757,4.757,0,0,0,.3,1.852V39Zm-2.4-1.1a2.54,2.54,0,0,0,1.289-.352,2.127,2.127,0,0,0,.883-.914V34.9H29.941q-2.656,0-2.656,1.555a1.316,1.316,0,0,0,.453,1.063A1.742,1.742,0,0,0,28.9,37.9ZM40.316,39H38.871V27h1.445Zm7.531,0a3.036,3.036,0,0,1-.2-.891,3.225,3.225,0,0,1-2.406,1.047,2.984,2.984,0,0,1-2.051-.707,2.287,2.287,0,0,1-.8-1.793,2.39,2.39,0,0,1,1-2.051,4.733,4.733,0,0,1,2.824-.73h1.406v-.664A1.623,1.623,0,0,0,47.168,32a1.821,1.821,0,0,0-1.336-.449,2.107,2.107,0,0,0-1.3.391,1.151,1.151,0,0,0-.523.945H42.559a2,2,0,0,1,.449-1.223,3.066,3.066,0,0,1,1.219-.934,4.1,4.1,0,0,1,1.691-.344,3.342,3.342,0,0,1,2.289.73,2.635,2.635,0,0,1,.859,2.012v3.891a4.757,4.757,0,0,0,.3,1.852V39Zm-2.4-1.1a2.54,2.54,0,0,0,1.289-.352,2.127,2.127,0,0,0,.883-.914V34.9H46.488q-2.656,0-2.656,1.555a1.316,1.316,0,0,0,.453,1.063A1.742,1.742,0,0,0,45.449,37.9Zm9.492-3.2a4.952,4.952,0,0,1,.922-3.129,3.137,3.137,0,0,1,4.766-.168V27h1.445V39H60.746l-.07-.906a2.943,2.943,0,0,1-2.414,1.063,2.887,2.887,0,0,1-2.395-1.2,5.008,5.008,0,0,1-.926-3.141Zm1.445.164a3.749,3.749,0,0,0,.594,2.25,1.919,1.919,0,0,0,1.641.813A2.108,2.108,0,0,0,60.629,36.7V32.813a2.125,2.125,0,0,0-1.992-1.2,1.929,1.929,0,0,0-1.656.82A4.128,4.128,0,0,0,56.387,34.867Zm11.438,4.289a3.693,3.693,0,0,1-2.8-1.129,4.19,4.19,0,0,1-1.078-3.02v-.266a5.073,5.073,0,0,1,.48-2.246,3.748,3.748,0,0,1,1.344-1.547,3.378,3.378,0,0,1,1.871-.559,3.166,3.166,0,0,1,2.563,1.086,4.7,4.7,0,0,1,.914,3.109v.6H65.395a3,3,0,0,0,.73,2.02,2.3,2.3,0,0,0,1.777.77,2.517,2.517,0,0,0,1.3-.312,3.259,3.259,0,0,0,.93-.828l.883.688A3.55,3.55,0,0,1,67.824,39.156Zm-.18-7.578a1.928,1.928,0,0,0-1.469.637A3.1,3.1,0,0,0,65.441,34h4.234v-.109a2.753,2.753,0,0,0-.594-1.707A1.815,1.815,0,0,0,67.645,31.578ZM73.277,39V31.664H71.941V30.547h1.336v-.719a2.937,2.937,0,0,1,.809-2.2,3.136,3.136,0,0,1,2.285-.789,6.881,6.881,0,0,1,2.211.477l-.242,1.219a5.008,5.008,0,0,0-1.859-.391,1.819,1.819,0,0,0-1.34.418,1.723,1.723,0,0,0-.41,1.254v.734h1.727v1.117H74.73V39ZM79.3,39H77.848V30.547H79.3Zm3.719-8.453.047,1.063A3.08,3.08,0,0,1,85.6,30.391q2.68,0,2.7,3.023V39H86.855V33.406a1.946,1.946,0,0,0-.418-1.352,1.675,1.675,0,0,0-1.277-.437,2.086,2.086,0,0,0-1.234.375,2.546,2.546,0,0,0-.828.984V39H81.652V30.547ZM92.051,39H90.605V30.547h1.445ZM90.488,28.3a.863.863,0,0,1,.215-.594.807.807,0,0,1,.637-.242.819.819,0,0,1,.641.242.854.854,0,0,1,.219.594.826.826,0,0,1-.219.586.834.834,0,0,1-.641.234.821.821,0,0,1-.637-.234A.834.834,0,0,1,90.488,28.3Zm7.266,9.672a2.082,2.082,0,0,0,1.352-.469,1.649,1.649,0,0,0,.641-1.172h1.367a2.621,2.621,0,0,1-.5,1.383,3.293,3.293,0,0,1-1.23,1.047,3.55,3.55,0,0,1-1.629.391A3.482,3.482,0,0,1,95.008,38a4.59,4.59,0,0,1-1.02-3.152v-.242a5.089,5.089,0,0,1,.453-2.2,3.451,3.451,0,0,1,1.3-1.492,3.7,3.7,0,0,1,2-.531,3.39,3.39,0,0,1,2.363.852,3.043,3.043,0,0,1,1,2.211H99.746a1.992,1.992,0,0,0-.621-1.348,1.932,1.932,0,0,0-1.379-.527,2.023,2.023,0,0,0-1.707.793,3.724,3.724,0,0,0-.605,2.293v.273a3.65,3.65,0,0,0,.6,2.25A2.033,2.033,0,0,0,97.754,37.977ZM104.309,39h-1.445V30.547h1.445Zm-1.562-10.7a.863.863,0,0,1,.215-.594.807.807,0,0,1,.637-.242.819.819,0,0,1,.641.242.854.854,0,0,1,.219.594.826.826,0,0,1-.219.586.834.834,0,0,1-.641.234.821.821,0,0,1-.637-.234A.834.834,0,0,1,102.746,28.3Zm3.492,6.391a4.993,4.993,0,0,1,.488-2.234,3.643,3.643,0,0,1,1.359-1.531,3.7,3.7,0,0,1,1.988-.539,3.565,3.565,0,0,1,2.793,1.2,4.6,4.6,0,0,1,1.066,3.18v.1a5.036,5.036,0,0,1-.473,2.215,3.589,3.589,0,0,1-1.352,1.527,3.743,3.743,0,0,1-2.02.547,3.556,3.556,0,0,1-2.785-1.2,4.575,4.575,0,0,1-1.066-3.164Zm1.453.172a3.616,3.616,0,0,0,.652,2.258,2.211,2.211,0,0,0,3.5-.012,3.955,3.955,0,0,0,.648-2.418,3.61,3.61,0,0,0-.66-2.254,2.1,2.1,0,0,0-1.754-.863,2.075,2.075,0,0,0-1.727.852A3.925,3.925,0,0,0,107.691,34.867Zm3.039-7.852h1.75l-2.094,2.3-1.164,0Zm6.383,3.531.047,1.063a3.08,3.08,0,0,1,2.531-1.219q2.68,0,2.7,3.023V39h-1.445V33.406a1.946,1.946,0,0,0-.418-1.352,1.675,1.675,0,0,0-1.277-.437,2.086,2.086,0,0,0-1.234.375,2.546,2.546,0,0,0-.828.984V39h-1.445V30.547Zm11.07,4.156a4.952,4.952,0,0,1,.922-3.129,3.137,3.137,0,0,1,4.766-.168V27h1.445V39h-1.328l-.07-.906a2.943,2.943,0,0,1-2.414,1.063,2.887,2.887,0,0,1-2.395-1.2,5.008,5.008,0,0,1-.926-3.141Zm1.445.164a3.749,3.749,0,0,0,.594,2.25,1.919,1.919,0,0,0,1.641.813,2.108,2.108,0,0,0,2.008-1.234V32.813a2.125,2.125,0,0,0-1.992-1.2,1.929,1.929,0,0,0-1.656.82A4.128,4.128,0,0,0,129.629,34.867Zm11.438,4.289a3.693,3.693,0,0,1-2.8-1.129,4.19,4.19,0,0,1-1.078-3.02v-.266a5.073,5.073,0,0,1,.48-2.246,3.748,3.748,0,0,1,1.344-1.547,3.378,3.378,0,0,1,1.871-.559,3.166,3.166,0,0,1,2.563,1.086,4.7,4.7,0,0,1,.914,3.109v.6h-5.727a3,3,0,0,0,.73,2.02,2.3,2.3,0,0,0,1.777.77,2.517,2.517,0,0,0,1.3-.312,3.258,3.258,0,0,0,.93-.828l.883.688A3.55,3.55,0,0,1,141.066,39.156Zm-.18-7.578a1.928,1.928,0,0,0-1.469.637A3.1,3.1,0,0,0,138.684,34h4.234v-.109a2.753,2.753,0,0,0-.594-1.707A1.815,1.815,0,0,0,140.887,31.578ZM147.605,39H146.16V27h1.445Zm5.922-4.3a4.952,4.952,0,0,1,.922-3.129,3.137,3.137,0,0,1,4.766-.168V27h1.445V39h-1.328l-.07-.906a2.943,2.943,0,0,1-2.414,1.063,2.887,2.887,0,0,1-2.395-1.2,5.008,5.008,0,0,1-.926-3.141Zm1.445.164a3.749,3.749,0,0,0,.594,2.25,1.919,1.919,0,0,0,1.641.813,2.108,2.108,0,0,0,2.008-1.234V32.813a2.125,2.125,0,0,0-1.992-1.2,1.929,1.929,0,0,0-1.656.82A4.128,4.128,0,0,0,154.973,34.867Zm11.438,4.289a3.693,3.693,0,0,1-2.8-1.129,4.19,4.19,0,0,1-1.078-3.02v-.266a5.073,5.073,0,0,1,.48-2.246,3.748,3.748,0,0,1,1.344-1.547,3.378,3.378,0,0,1,1.871-.559,3.166,3.166,0,0,1,2.563,1.086,4.7,4.7,0,0,1,.914,3.109v.6H163.98a3,3,0,0,0,.73,2.02,2.3,2.3,0,0,0,1.777.77,2.517,2.517,0,0,0,1.3-.312,3.258,3.258,0,0,0,.93-.828l.883.688A3.55,3.55,0,0,1,166.41,39.156Zm-.18-7.578a1.928,1.928,0,0,0-1.469.637A3.1,3.1,0,0,0,164.027,34h4.234v-.109a2.753,2.753,0,0,0-.594-1.707A1.815,1.815,0,0,0,166.23,31.578ZM173.34,28.5v2.047h1.578v1.117H173.34v5.249a1.173,1.173,0,0,0,.211.763.888.888,0,0,0,.719.254,3.5,3.5,0,0,0,.688-.094V39a4.215,4.215,0,0,1-1.109.155,1.8,1.8,0,0,1-1.461-.586,2.517,2.517,0,0,1-.492-1.664V31.664h-1.539V30.547h1.539V28.5Zm6.773,10.656a3.693,3.693,0,0,1-2.8-1.129,4.19,4.19,0,0,1-1.078-3.02v-.266a5.073,5.073,0,0,1,.48-2.246,3.748,3.748,0,0,1,1.344-1.547,3.378,3.378,0,0,1,1.871-.559,3.166,3.166,0,0,1,2.563,1.086,4.7,4.7,0,0,1,.914,3.109v.6h-5.727a3,3,0,0,0,.73,2.02,2.3,2.3,0,0,0,1.777.77,2.517,2.517,0,0,0,1.3-.312,3.258,3.258,0,0,0,.93-.828l.883.688A3.55,3.55,0,0,1,180.113,39.156Zm-.18-7.578a1.928,1.928,0,0,0-1.469.637A3.1,3.1,0,0,0,177.73,34h4.234v-.109a2.753,2.753,0,0,0-.594-1.707A1.815,1.815,0,0,0,179.934,31.578Zm9.234.266a4.331,4.331,0,0,0-.711-.055A1.9,1.9,0,0,0,186.527,33v6h-1.445V30.547h1.406l.023.977a2.251,2.251,0,0,1,2.016-1.133,1.477,1.477,0,0,1,.641.109Zm2.9,7.156h-1.445V30.547h1.445ZM190.5,28.3a.863.863,0,0,1,.215-.594.807.807,0,0,1,.637-.242.819.819,0,0,1,.641.242.854.854,0,0,1,.219.594.826.826,0,0,1-.219.586.834.834,0,0,1-.641.234.821.821,0,0,1-.637-.234A.834.834,0,0,1,190.5,28.3ZM194,34.7a4.993,4.993,0,0,1,.488-2.234,3.642,3.642,0,0,1,1.359-1.531,3.7,3.7,0,0,1,1.988-.539,3.565,3.565,0,0,1,2.793,1.2,4.6,4.6,0,0,1,1.066,3.18v.1a5.036,5.036,0,0,1-.473,2.215,3.589,3.589,0,0,1-1.352,1.527,3.743,3.743,0,0,1-2.02.547,3.556,3.556,0,0,1-2.785-1.2A4.575,4.575,0,0,1,194,34.8Zm1.453.172a3.616,3.616,0,0,0,.652,2.258,2.211,2.211,0,0,0,3.5-.012,3.954,3.954,0,0,0,.648-2.418,3.61,3.61,0,0,0-.66-2.254,2.1,2.1,0,0,0-1.754-.863,2.075,2.075,0,0,0-1.727.852A3.925,3.925,0,0,0,195.449,34.867Zm12.141-3.023a4.331,4.331,0,0,0-.711-.055A1.9,1.9,0,0,0,204.949,33v6H203.5V30.547h1.406l.023.977a2.251,2.251,0,0,1,2.016-1.133,1.477,1.477,0,0,1,.641.109Zm.789,2.852a4.993,4.993,0,0,1,.488-2.234,3.642,3.642,0,0,1,1.359-1.531,3.7,3.7,0,0,1,1.988-.539,3.565,3.565,0,0,1,2.793,1.2,4.6,4.6,0,0,1,1.066,3.18v.1a5.036,5.036,0,0,1-.473,2.215,3.589,3.589,0,0,1-1.352,1.527,3.743,3.743,0,0,1-2.02.547,3.556,3.556,0,0,1-2.785-1.2,4.575,4.575,0,0,1-1.066-3.164Zm1.453.172a3.616,3.616,0,0,0,.652,2.258,2.211,2.211,0,0,0,3.5-.012,3.954,3.954,0,0,0,.648-2.418,3.61,3.61,0,0,0-.66-2.254,2.1,2.1,0,0,0-1.754-.863,2.075,2.075,0,0,0-1.727.852A3.925,3.925,0,0,0,209.832,34.867Z" transform="translate(923 7220.659)" fill="#636363"/>
      </g>
    </g>
  </g>
</svg>
