<svg xmlns="http://www.w3.org/2000/svg" xmlns:xlink="http://www.w3.org/1999/xlink" width="295" height="195.001" viewBox="0 0 295 195.001">
  <defs>
    <clipPath id="clip-path">
      <rect id="Rectángulo_7433" data-name="Rectángulo 7433" width="73.997" height="60.939" fill="#e85f5b"/>
    </clipPath>
  </defs>
  <g id="Grupo_87251" data-name="Grupo 87251" transform="translate(-390 -11873)">
    <path id="Trazado_153989" data-name="Trazado 153989" d="M1699.2,1009.112c-13.694-57.45-74.523-100.758-147.5-100.758s-133.806,43.308-147.5,100.758Z" transform="translate(-1014.203 11058.889)" fill="#fff2f1"/>
    <g id="Grupo_87218" data-name="Grupo 87218" transform="translate(488 12019.838) rotate(180)">
      <g id="Grupo_86895" data-name="Grupo 86895">
        <g id="Grupo_86894" data-name="Grupo 86894" clip-path="url(#clip-path)">
          <path id="Trazado_152651" data-name="Trazado 152651" d="M4.837,2.418A2.418,2.418,0,1,1,2.418,0,2.418,2.418,0,0,1,4.837,2.418M37,0a2.418,2.418,0,1,0,2.419,2.419A2.418,2.418,0,0,0,37,0M71.579,0A2.418,2.418,0,1,0,74,2.418,2.418,2.418,0,0,0,71.579,0M2.418,28.05a2.418,2.418,0,1,0,2.419,2.419A2.418,2.418,0,0,0,2.418,28.05M37,28.05a2.418,2.418,0,1,0,2.419,2.419A2.418,2.418,0,0,0,37,28.05m34.581,0A2.418,2.418,0,1,0,74,30.469a2.418,2.418,0,0,0-2.418-2.419M2.418,56.1A2.418,2.418,0,1,0,4.837,58.52,2.418,2.418,0,0,0,2.418,56.1M37,56.1a2.418,2.418,0,1,0,2.419,2.418A2.418,2.418,0,0,0,37,56.1m34.581,0A2.418,2.418,0,1,0,74,58.52,2.418,2.418,0,0,0,71.579,56.1" transform="translate(0 0)" fill="#e85f5b"/>
        </g>
      </g>
      <g id="Grupo_86896" data-name="Grupo 86896" transform="translate(0 85.899)">
        <g id="Grupo_86894-2" data-name="Grupo 86894" clip-path="url(#clip-path)">
          <path id="Trazado_152651-2" data-name="Trazado 152651" d="M4.837,2.418A2.418,2.418,0,1,1,2.418,0,2.418,2.418,0,0,1,4.837,2.418M37,0a2.418,2.418,0,1,0,2.419,2.419A2.418,2.418,0,0,0,37,0M71.579,0A2.418,2.418,0,1,0,74,2.418,2.418,2.418,0,0,0,71.579,0M2.418,28.05a2.418,2.418,0,1,0,2.419,2.419A2.418,2.418,0,0,0,2.418,28.05M37,28.05a2.418,2.418,0,1,0,2.419,2.419A2.418,2.418,0,0,0,37,28.05m34.581,0A2.418,2.418,0,1,0,74,30.469a2.418,2.418,0,0,0-2.418-2.419M2.418,56.1A2.418,2.418,0,1,0,4.837,58.52,2.418,2.418,0,0,0,2.418,56.1M37,56.1a2.418,2.418,0,1,0,2.419,2.418A2.418,2.418,0,0,0,37,56.1m34.581,0A2.418,2.418,0,1,0,74,58.52,2.418,2.418,0,0,0,71.579,56.1" transform="translate(0 0)" fill="#e85f5b"/>
        </g>
      </g>
    </g>
    <g id="presupuesto" transform="translate(409.802 11897.998)">
      <path id="Trazado_154031" data-name="Trazado 154031" d="M203.373,29.686V133.152c0,.207,0,.413-.014.62a13.359,13.359,0,0,1-13.345,12.736h-75.1a13.358,13.358,0,0,1-13.359-13.356V13.359A13.338,13.338,0,0,1,114.915,0h59.654a13.316,13.316,0,0,1,5.8,1.329C183.979,3.066,185,5.261,191.48,11.892c7.461,8.1,9.243,8.932,10.763,12.44A13.211,13.211,0,0,1,203.373,29.686Z" transform="translate(-67.446)" fill="#ffc477"/>
      <path id="Trazado_154032" data-name="Trazado 154032" d="M224.152,29.686V133.152c0,.207,0,.413-.014.62a13.409,13.409,0,0,1-3.016.341h-75.1a13.357,13.357,0,0,1-13.359-13.355V.964c0-.21,0-.417.014-.623A13.432,13.432,0,0,1,135.694,0h59.654a13.379,13.379,0,0,1,9.761,4.242l7.151,7.65,8.187,8.566a13.446,13.446,0,0,1,3.705,9.227Z" transform="translate(-88.225 0)" fill="#ffdaaa"/>
      <path id="Trazado_154033" data-name="Trazado 154033" d="M336.775,190.968v75.106A18.879,18.879,0,0,1,317.9,284.953H268.841a18.879,18.879,0,0,1-18.878-18.878V190.968a18.87,18.87,0,0,1,18.878-18.878H317.9A18.877,18.877,0,0,1,336.775,190.968Z" transform="translate(-166.577 -114.95)" fill="#6644a1"/>
      <path id="Trazado_154034" data-name="Trazado 154034" d="M352.478,190.968v75.106a18.78,18.78,0,0,1-3.656,11.166,18.794,18.794,0,0,1-7.416,1.515H292.349a18.879,18.879,0,0,1-18.878-18.878V184.771a18.781,18.781,0,0,1,3.656-11.166,18.794,18.794,0,0,1,7.416-1.515H333.6A18.877,18.877,0,0,1,352.478,190.968Z" transform="translate(-182.279 -114.95)" fill="#896fb5"/>
      <path id="Trazado_154035" data-name="Trazado 154035" d="M373.371,371.984v8.821a2.822,2.822,0,0,1-2.82,2.823h-8.825a2.823,2.823,0,0,1-2.823-2.823v-8.821a2.823,2.823,0,0,1,2.823-2.823h8.825A2.822,2.822,0,0,1,373.371,371.984Z" transform="translate(-239.345 -246.586)" fill="#afafaf"/>
      <path id="Trazado_154036" data-name="Trazado 154036" d="M349.9,211.37v9.451a6.087,6.087,0,0,1-6.087,6.087H295.122a6.089,6.089,0,0,1-6.087-6.087V211.37a6.089,6.089,0,0,1,6.087-6.087h48.691A6.087,6.087,0,0,1,349.9,211.37Z" transform="translate(-192.676 -137.122)" fill="#1e81ce"/>
      <path id="Trazado_154037" data-name="Trazado 154037" d="M370.68,211.37v9.451a6.087,6.087,0,0,1-6.087,6.087H326.23a6.089,6.089,0,0,1-6.087-6.087V211.37a6.089,6.089,0,0,1,6.087-6.087h38.362A6.087,6.087,0,0,1,370.68,211.37Z" transform="translate(-213.455 -137.122)" fill="#3d9ae2"/>
      <g id="Grupo_87245" data-name="Grupo 87245" transform="translate(96.359 99.507)">
        <path id="Trazado_154038" data-name="Trazado 154038" d="M303.505,371.984v8.821a2.823,2.823,0,0,1-2.823,2.823h-8.825a2.825,2.825,0,0,1-2.823-2.823v-8.821a2.825,2.825,0,0,1,2.823-2.823h8.825A2.823,2.823,0,0,1,303.505,371.984Z" transform="translate(-289.034 -346.093)" fill="#afafaf"/>
        <path id="Trazado_154039" data-name="Trazado 154039" d="M373.371,302.509v8.821a2.822,2.822,0,0,1-2.82,2.823h-8.825a2.823,2.823,0,0,1-2.823-2.823v-8.821a2.823,2.823,0,0,1,2.823-2.823h8.825A2.822,2.822,0,0,1,373.371,302.509Z" transform="translate(-335.704 -299.686)" fill="#afafaf"/>
      </g>
      <path id="Trazado_154040" data-name="Trazado 154040" d="M444.081,302.509v8.821a2.823,2.823,0,0,1-2.823,2.823h-8.821a2.823,2.823,0,0,1-2.823-2.823v-8.821a2.823,2.823,0,0,1,2.823-2.823h8.821A2.823,2.823,0,0,1,444.081,302.509Z" transform="translate(-286.577 -200.179)" fill="#c04743"/>
      <g id="Grupo_87246" data-name="Grupo 87246" transform="translate(96.359 99.507)">
        <path id="Trazado_154041" data-name="Trazado 154041" d="M303.505,302.509v8.821a2.823,2.823,0,0,1-2.823,2.823h-8.825a2.825,2.825,0,0,1-2.823-2.823v-8.821a2.825,2.825,0,0,1,2.823-2.823h8.825A2.823,2.823,0,0,1,303.505,302.509Z" transform="translate(-289.034 -299.686)" fill="#afafaf"/>
        <path id="Trazado_154042" data-name="Trazado 154042" d="M373.371,438.055v8.824a2.822,2.822,0,0,1-2.82,2.823h-8.825a2.823,2.823,0,0,1-2.823-2.823v-8.824a2.822,2.822,0,0,1,2.823-2.82h8.825A2.821,2.821,0,0,1,373.371,438.055Z" transform="translate(-335.704 -390.228)" fill="#afafaf"/>
        <path id="Trazado_154043" data-name="Trazado 154043" d="M303.505,438.055v8.824a2.823,2.823,0,0,1-2.823,2.823h-8.825a2.825,2.825,0,0,1-2.823-2.823v-8.824a2.824,2.824,0,0,1,2.823-2.82h8.825A2.822,2.822,0,0,1,303.505,438.055Z" transform="translate(-289.034 -390.228)" fill="#afafaf"/>
      </g>
      <path id="Trazado_154044" data-name="Trazado 154044" d="M444.081,373.355v27.4a4.814,4.814,0,0,1-4.813,4.817h-4.841a4.814,4.814,0,0,1-4.813-4.817v-27.4a4.194,4.194,0,0,1,4.194-4.194h6.08A4.192,4.192,0,0,1,444.081,373.355Z" transform="translate(-286.577 -246.586)" fill="#c04743"/>
      <g id="Grupo_87247" data-name="Grupo 87247" transform="translate(96.359 99.507)">
        <path id="Trazado_154045" data-name="Trazado 154045" d="M373.371,371.984v2.623a2.822,2.822,0,0,1-2.82,2.823h-8.825a2.823,2.823,0,0,1-2.823-2.823v-2.623a2.823,2.823,0,0,1,2.823-2.823h8.825A2.822,2.822,0,0,1,373.371,371.984Z" transform="translate(-335.704 -346.093)" fill="#f6f6f6"/>
        <path id="Trazado_154046" data-name="Trazado 154046" d="M303.505,371.984v2.623a2.823,2.823,0,0,1-2.823,2.823h-8.825a2.825,2.825,0,0,1-2.823-2.823v-2.623a2.825,2.825,0,0,1,2.823-2.823h8.825A2.823,2.823,0,0,1,303.505,371.984Z" transform="translate(-289.034 -346.093)" fill="#f6f6f6"/>
        <path id="Trazado_154047" data-name="Trazado 154047" d="M373.371,302.509v2.623a2.822,2.822,0,0,1-2.82,2.823h-8.825a2.823,2.823,0,0,1-2.823-2.823v-2.623a2.823,2.823,0,0,1,2.823-2.823h8.825A2.822,2.822,0,0,1,373.371,302.509Z" transform="translate(-335.704 -299.686)" fill="#f6f6f6"/>
      </g>
      <path id="Trazado_154048" data-name="Trazado 154048" d="M444.081,302.509v2.623a2.823,2.823,0,0,1-2.823,2.823h-8.821a2.823,2.823,0,0,1-2.823-2.823v-2.623a2.823,2.823,0,0,1,2.823-2.823h8.821A2.823,2.823,0,0,1,444.081,302.509Z" transform="translate(-286.577 -200.179)" fill="#e85f5b"/>
      <g id="Grupo_87248" data-name="Grupo 87248" transform="translate(96.359 99.507)">
        <path id="Trazado_154049" data-name="Trazado 154049" d="M303.505,302.509v2.623a2.823,2.823,0,0,1-2.823,2.823h-8.825a2.825,2.825,0,0,1-2.823-2.823v-2.623a2.825,2.825,0,0,1,2.823-2.823h8.825A2.823,2.823,0,0,1,303.505,302.509Z" transform="translate(-289.034 -299.686)" fill="#f6f6f6"/>
        <path id="Trazado_154050" data-name="Trazado 154050" d="M373.371,438.055v2.627a2.822,2.822,0,0,1-2.82,2.823h-8.825a2.823,2.823,0,0,1-2.823-2.823v-2.627a2.822,2.822,0,0,1,2.823-2.82h8.825A2.821,2.821,0,0,1,373.371,438.055Z" transform="translate(-335.704 -390.228)" fill="#f6f6f6"/>
        <path id="Trazado_154051" data-name="Trazado 154051" d="M303.505,438.055v2.627a2.823,2.823,0,0,1-2.823,2.823h-8.825a2.825,2.825,0,0,1-2.823-2.823v-2.627a2.824,2.824,0,0,1,2.823-2.82h8.825A2.822,2.822,0,0,1,303.505,438.055Z" transform="translate(-289.034 -390.228)" fill="#f6f6f6"/>
      </g>
      <path id="Trazado_154052" data-name="Trazado 154052" d="M444.081,373.355v21.2a4.814,4.814,0,0,1-4.813,4.817h-4.841a4.814,4.814,0,0,1-4.813-4.817v-21.2a4.194,4.194,0,0,1,4.194-4.194h6.08A4.192,4.192,0,0,1,444.081,373.355Z" transform="translate(-286.577 -246.586)" fill="#e85f5b"/>
      <path id="Trazado_154053" data-name="Trazado 154053" d="M360.794,27.005h-16.74a5.136,5.136,0,0,1-5.136-5.136V4a13.344,13.344,0,0,1,3.959,2.911l7.154,7.651,8.186,8.568A13.225,13.225,0,0,1,360.794,27.005Z" transform="translate(-225.996 -2.674)" fill="#ffb655"/>
      <g id="Grupo_87249" data-name="Grupo 87249" transform="translate(51.112 32.535)">
        <path id="Trazado_154054" data-name="Trazado 154054" d="M170.442,181.962h0c-3.149-1.157-5.423-1.993-5.423-4.91,0-2.658,1.765-4.006,5.247-4.006a8.962,8.962,0,0,1,4.535,1.129,3.289,3.289,0,0,0,1.459.5,2.48,2.48,0,0,0,2.2-2.544c0-2.151-3.509-3.218-6.646-3.5v-1.94a2.447,2.447,0,1,0-4.894,0v2.248c-4.289,1.018-6.646,3.981-6.646,8.371,0,6.01,4.425,7.673,7.981,9.01,3.482,1.308,6.232,2.341,6.232,6.317,0,3.283-1.823,4.948-5.419,4.948a6.546,6.546,0,0,1-5.5-2.42c-.564-.609-1.052-1.134-1.819-1.134a2.582,2.582,0,0,0-2.245,2.544c0,2.035,3.03,4.709,7.417,5.4v1.874a2.447,2.447,0,0,0,4.894,0v-1.924c4.718-.888,7.417-4.353,7.417-9.549C179.231,185.192,174.358,183.4,170.442,181.962Z" transform="translate(-157.265 -142.243)" fill="#4e901e"/>
        <path id="Trazado_154055" data-name="Trazado 154055" d="M324.365,103.149h6.486a2.582,2.582,0,0,0,0-5.164h-6.486a2.582,2.582,0,0,0,0,5.164Z" transform="translate(-265.662 -97.985)" fill="#4e901e"/>
        <path id="Trazado_154056" data-name="Trazado 154056" d="M155.344,103.149h45.792a2.582,2.582,0,1,0,0-5.164H155.344a2.582,2.582,0,1,0,0,5.164Z" transform="translate(-152.762 -97.985)" fill="#4e901e"/>
        <path id="Trazado_154057" data-name="Trazado 154057" d="M163.552,141.752a2.582,2.582,0,1,0,0-5.164h-8.208a2.582,2.582,0,1,0,0,5.164Z" transform="translate(-152.762 -123.77)" fill="#4e901e"/>
        <path id="Trazado_154058" data-name="Trazado 154058" d="M255.243,136.587H211.172a2.582,2.582,0,1,0,0,5.164h44.071a2.582,2.582,0,1,0,0-5.164Z" transform="translate(-190.053 -123.77)" fill="#4e901e"/>
      </g>
      <path id="Trazado_154059" data-name="Trazado 154059" d="M116.483,474.389a6.559,6.559,0,0,1-6.542,6.542H69.865a6.542,6.542,0,0,1,0-13.084h40.077A6.561,6.561,0,0,1,116.483,474.389Z" transform="translate(-41.908 -312.505)" fill="#aa6100"/>
      <path id="Trazado_154060" data-name="Trazado 154060" d="M116.483,434.985a6.559,6.559,0,0,1-6.542,6.542H69.865a6.542,6.542,0,0,1,0-13.084h40.077A6.561,6.561,0,0,1,116.483,434.985Z" transform="translate(-41.908 -286.184)" fill="#cc7400"/>
      <path id="Trazado_154061" data-name="Trazado 154061" d="M116.483,395.581a6.559,6.559,0,0,1-6.542,6.542H69.865a6.542,6.542,0,0,1,0-13.084h40.077A6.561,6.561,0,0,1,116.483,395.581Z" transform="translate(-41.908 -259.864)" fill="#ee8700"/>
      <path id="Trazado_154062" data-name="Trazado 154062" d="M116.483,356.178a6.559,6.559,0,0,1-6.542,6.542H69.865a6.561,6.561,0,0,1-6.542-6.542,6.559,6.559,0,0,1,6.542-6.542h40.077A6.561,6.561,0,0,1,116.483,356.178Z" transform="translate(-41.908 -233.544)" fill="#ff9811"/>
      <path id="Trazado_154063" data-name="Trazado 154063" d="M109.942,323.317H69.867a6.561,6.561,0,0,1-6.542-6.542h0a6.561,6.561,0,0,1,6.542-6.542h40.075a6.561,6.561,0,0,1,6.542,6.542h0A6.561,6.561,0,0,1,109.942,323.317Z" transform="translate(-41.91 -207.224)" fill="#ffa733"/>
      <path id="Trazado_154064" data-name="Trazado 154064" d="M29.378,381.232v42.587H22.861a21.239,21.239,0,0,1-15.067-5.363c-14.481-12.851-5.667-36.4,13.243-37.224Z" transform="translate(0 -254.649)" fill="#cc7400"/>
      <path id="Trazado_154065" data-name="Trazado 154065" d="M68.414,403.26a21.31,21.31,0,0,1-42.587.141c0-.048,0-.093,0-.141a21.31,21.31,0,0,1,42.587-1.679Q68.445,402.428,68.414,403.26Z" transform="translate(-16.849 -254.613)" fill="#ffc477"/>
      <path id="Trazado_154066" data-name="Trazado 154066" d="M61.423,428.827c-.26.058-.518.111-.778.156a15.945,15.945,0,1,1,.778-.156Z" transform="translate(-27.628 -265.397)" fill="#cc7400"/>
      <path id="Trazado_154067" data-name="Trazado 154067" d="M72.542,429.314c-.26.058-.518.111-.778.156a15.951,15.951,0,0,1-.748-31.262c.258-.058.518-.111.776-.156a15.951,15.951,0,0,1,.75,31.262Z" transform="translate(-38.747 -265.884)" fill="#ee8700"/>
      <path id="Trazado_154068" data-name="Trazado 154068" d="M68.442,447.684a21.31,21.31,0,0,1-42.587.141c0-.048,0-.093,0-.141h5.362a16.109,16.109,0,0,0,.38,2.755,15.949,15.949,0,0,0,31.485-2.755Z" transform="translate(-16.878 -299.037)" fill="#ffa733"/>
      <g id="Grupo_87250" data-name="Grupo 87250" transform="translate(0.636 133.809)">
        <path id="Trazado_154069" data-name="Trazado 154069" d="M78.675,413.824l-.4-.148c-2.268-.833-2.5-1.1-2.5-1.866,0-.647.238-.833.462-.957a3.331,3.331,0,0,1,1.538-.3,4.191,4.191,0,0,1,2.2.551,2.942,2.942,0,0,0,1.394.423,2.612,2.612,0,0,0,2.462-2.668c0-1.57-1.4-2.652-3.98-3.1V405.6a2.609,2.609,0,1,0-5.219,0v.5a5.856,5.856,0,0,0-3.98,5.865c0,4.392,3.191,5.591,5.521,6.467,2.222.835,2.991,1.2,2.991,2.712,0,.945-.254,1.819-2.1,1.819a2.83,2.83,0,0,1-2.457-1.084,2.6,2.6,0,0,0-1.927-1.044,2.69,2.69,0,0,0-2.488,2.667c0,1.784,1.855,3.477,4.443,4.164v.2a2.609,2.609,0,0,0,5.219,0V427.6c2.8-.9,4.442-3.31,4.442-6.608C84.288,415.917,80.637,414.556,78.675,413.824Z" transform="translate(-47.128 -402.994)" fill="#aa6100"/>
        <path id="Trazado_154070" data-name="Trazado 154070" d="M14.7,409.992a21.242,21.242,0,0,0-2.486,5.151H3.895a20.979,20.979,0,0,1,2.482-5.151Z" transform="translate(-2.848 -407.668)" fill="#aa6100"/>
        <path id="Trazado_154071" data-name="Trazado 154071" d="M9.23,443.053H.91A21.437,21.437,0,0,1,.885,437.9H9.209A21.362,21.362,0,0,0,9.23,443.053Z" transform="translate(-0.742 -426.311)" fill="#aa6100"/>
        <path id="Trazado_154072" data-name="Trazado 154072" d="M15.272,471.667H6.949a21.144,21.144,0,0,1-2.63-5.151h8.32A21.011,21.011,0,0,0,15.272,471.667Z" transform="translate(-3.131 -445.424)" fill="#aa6100"/>
      </g>
    </g>
  </g>
</svg>
