<svg xmlns="http://www.w3.org/2000/svg" xmlns:xlink="http://www.w3.org/1999/xlink" width="609.99" height="220.028" viewBox="0 0 609.99 220.028">
  <defs>
    <linearGradient id="linear-gradient" x1="-0.089" y1="0.556" x2="2.048" y2="0.563" gradientUnits="objectBoundingBox">
      <stop offset="0" stop-color="#fff"/>
      <stop offset="1" stop-color="#e7e3ee"/>
    </linearGradient>
    <linearGradient id="linear-gradient-2" x1="-0.072" y1="0.522" x2="2.099" y2="0.529" xlink:href="#linear-gradient"/>
  </defs>
  <g id="Grupo_87024" data-name="Grupo 87024" transform="translate(-495 -12298)">
    <rect id="Rectángulo_5866" data-name="Rectángulo 5866" width="184.317" height="242.051" rx="12.895" transform="translate(753.051 12317.501) rotate(90)" fill="url(#linear-gradient)"/>
    <g id="Grupo_60510" data-name="Grupo 60510" transform="translate(498.501 12301.502)">
      <path id="Trazado_109243" data-name="Trazado 109243" d="M315.691,1638.145h-1a14.093,14.093,0,0,0-.284-2.828l.979-.2A15.183,15.183,0,0,1,315.691,1638.145Z" transform="translate(-49.438 -1623.085)" fill="#6b6b6b"/>
      <path id="Trazado_109244" data-name="Trazado 109244" d="M255.632,1839.611h-5.039v-1.05h5.039Zm-10.08,0h-5.039v-1.05h5.039Zm-10.079,0h-5.039v-1.05h5.039Zm-10.079,0h-5.04v-1.05h5.04Zm-10.08,0h-5.039v-1.05h5.039Zm-10.08,0H200.2v-1.05h5.039Zm-10.079,0h-5.039v-1.05h5.039Zm-10.079,0h-5.04v-1.05h5.04Zm-10.08,0h-5.039v-1.05H175Zm-10.08,0h-5.039v-1.05h5.039Zm-10.079,0H149.8v-1.05h5.04Zm-10.079,0h-5.04v-1.05h5.04Zm-10.08,0h-5.039v-1.05h5.039Zm-10.08,0h-5.039v-1.05H124.6Zm-10.079,0h-5.04v-1.05h5.04Zm-10.08,0H99.4v-1.05h5.039Zm-10.079,0H89.324v-1.05h5.039Zm-10.08,0H79.244v-1.05h5.039Zm-10.079,0h-5.04v-1.05H74.2Zm-10.08,0H59.085v-1.05h5.039Zm-10.079,0h-5.04v-1.05h5.04Zm-10.08,0H38.927v-1.05h5.039Zm-10.08,0H28.847v-1.05h5.039Zm-10.079,0H18.768v-1.05h5.039Zm236.937-.52-.217-1.016a11.2,11.2,0,0,0,4.328-2.647l.526.828A12.012,12.012,0,0,1,260.744,1839.091Zm-247.088,0a12.043,12.043,0,0,1-4.635-2.837l.526-.828a11.218,11.218,0,0,0,4.326,2.65Zm255.082-7.682-.748-.507a17.2,17.2,0,0,0,1.43-5.684l.849.1A18.435,18.435,0,0,1,268.738,1831.406ZM5.665,1831.4a18.443,18.443,0,0,1-1.529-6.091l.85-.1a17.163,17.163,0,0,0,1.426,5.684Zm264.665-12.335h-.853v-6.207h.853Zm-265.4-.01H4.077v-6.207H4.93Zm265.4-12.4h-.853v-6.208h.853Zm-265.4-.011H4.077v-6.207H4.93Zm265.4-12.4h-.853v-6.208h.853Zm-265.4-.01H4.077v-6.207H4.93Zm265.4-12.4h-.853v-6.207h.853Zm-265.4-.012H4.077V1775.6H4.93Zm265.4-12.4h-.853V1763.2h.853Zm-265.4-.01H4.077v-6.207H4.93Zm265.4-12.4h-.853v-6.207h.853Zm-265.4-.01H4.077v-6.207H4.93Zm265.4-12.4h-.853v-6.207h.853Zm-265.4-.009H4.077v-6.208H4.93Zm0-12.415H4.077v-6.208H4.93Zm0-12.415H4.077v-6.208H4.93Zm0-12.414H4.077v-6.208H4.93Zm0-12.415H4.077V1688.7H4.93Zm0-12.415H4.077v-6.206H4.93Zm0-12.414H4.077v-6.207H4.93Zm0-12.415H4.077v-6.207H4.93Zm0-12.414H4.077v-6.207H4.93Zm.935-12.051-.785-.406A16.3,16.3,0,0,1,8,1627.535l.592.755A15.266,15.266,0,0,0,5.864,1633.2Zm261.466-2.713a13.559,13.559,0,0,0-3.5-4.1l.452-.891a14.481,14.481,0,0,1,3.749,4.395ZM12.676,1625.1l-.3-.982a10.725,10.725,0,0,1,4.573-1.029h.52v1.05h-.52A10.021,10.021,0,0,0,12.676,1625.1Zm246.622-.789a9.92,9.92,0,0,0-1.834-.171H254.33v-1.05h3.133a10.6,10.6,0,0,1,1.964.184Zm-10.008-.171H244.25v-1.05h5.039Zm-10.079,0h-5.039v-1.05h5.039Zm-10.08,0h-5.039v-1.05h5.039Zm-10.079,0h-5.039v-1.05h5.039Zm-10.08,0h-5.039v-1.05h5.039Zm-10.079,0h-5.039v-1.05h5.039Zm-10.08,0h-5.039v-1.05h5.039Zm-10.079,0h-5.04v-1.05h5.04Zm-10.08,0h-5.039v-1.05h5.039Zm-10.08,0h-5.039v-1.05h5.039Zm-10.079,0h-5.039v-1.05H148.5Zm-10.079,0h-5.04v-1.05h5.04Zm-10.08,0H123.3v-1.05h5.039Zm-10.08,0h-5.039v-1.05h5.039Zm-10.079,0H103.14v-1.05h5.039Zm-10.079,0H93.06v-1.05H98.1Zm-10.08,0H82.981v-1.05h5.039Zm-10.08,0H72.9v-1.05h5.039Zm-10.079,0H62.823v-1.05h5.039Zm-10.079,0h-5.04v-1.05h5.04Zm-10.08,0H42.664v-1.05H47.7Zm-10.08,0H32.584v-1.05h5.039Zm-10.079,0H22.505v-1.05h5.039Z" transform="translate(-4.077 -1623.085)" fill="#6b6b6b"/>
      <path id="Trazado_109245" data-name="Trazado 109245" d="M315.691,1726.684h-1v-3.442h3.442v1h-2.444Z" transform="translate(-49.438 -1617.749)" fill="#6b6b6b"/>
      <rect id="Rectángulo_5867" data-name="Rectángulo 5867" width="4.27" height="0.998" transform="translate(272.967 105.428)" fill="#6b6b6b"/>
      <rect id="Rectángulo_7505" data-name="Rectángulo 7505" width="4.27" height="0.998" transform="translate(281.506 105.428)" fill="#6b6b6b"/>
      <rect id="Rectángulo_7506" data-name="Rectángulo 7506" width="4.27" height="0.998" transform="translate(288.506 105.428)" fill="#6b6b6b"/>
      <rect id="Rectángulo_7507" data-name="Rectángulo 7507" width="4.27" height="0.998" transform="translate(295.506 105.428)" fill="#6b6b6b"/>
      <rect id="Rectángulo_7508" data-name="Rectángulo 7508" width="4.27" height="0.998" transform="translate(302.506 105.428)" fill="#6b6b6b"/>
      <rect id="Rectángulo_7509" data-name="Rectángulo 7509" width="4.27" height="0.998" transform="translate(309.364 105.428)" fill="#6b6b6b"/>
      <rect id="Rectángulo_5868" data-name="Rectángulo 5868" width="2.943" height="0.998" transform="translate(281.506 105.428)" fill="#6b6b6b"/>
      <g id="Grupo_60509" data-name="Grupo 60509" transform="translate(311.499 101.865)">
        <path id="Trazado_109246" data-name="Trazado 109246" d="M340.937,1723.74,331,1727.8l2.357-4.059L331,1719.682Z" transform="translate(-331.004 -1719.682)" fill="#6b6b6b"/>
      </g>
    </g>
    <path id="Trazado_109247" data-name="Trazado 109247" d="M4.007,1751.374a3.748,3.748,0,0,1-3.431-4V1638.145c0-10.236,7.141-18.562,15.919-18.562H257.913c8.779,0,15.919,8.326,15.919,18.562v51.009a3.471,3.471,0,1,1-6.861,0v-51.009c0-5.823-4.064-10.562-9.058-10.562H16.5c-4.995,0-9.058,4.739-9.058,10.562v109.229A3.748,3.748,0,0,1,4.007,1751.374Z" transform="translate(494.424 10678.417)" fill="#fcc14a"/>
    <path id="Trazado_154204" data-name="Trazado 154204" d="M7.75,9.742H2.82v4.031H8.547V15H1.32V3.625H8.469V4.852H2.82V8.516H7.75Zm3.93-3.2v9.43q0,2.438-2.211,2.438a2.7,2.7,0,0,1-.883-.14V17.125a2.794,2.794,0,0,0,.656.063.982.982,0,0,0,.738-.262,1.3,1.3,0,0,0,.254-.911V6.547ZM10.086,4.3a.867.867,0,0,1,.215-.59.79.79,0,0,1,.629-.246.819.819,0,0,1,.641.242.854.854,0,0,1,.219.594.826.826,0,0,1-.219.586.834.834,0,0,1-.641.234.808.808,0,0,1-.633-.234A.843.843,0,0,1,10.086,4.3Zm7.43,10.852a3.693,3.693,0,0,1-2.8-1.129,4.19,4.19,0,0,1-1.078-3.02v-.266a5.073,5.073,0,0,1,.48-2.246,3.748,3.748,0,0,1,1.344-1.547,3.378,3.378,0,0,1,1.871-.559A3.166,3.166,0,0,1,19.9,7.477a4.7,4.7,0,0,1,.914,3.109v.6H15.086a3,3,0,0,0,.73,2.02,2.3,2.3,0,0,0,1.777.77,2.517,2.517,0,0,0,1.3-.312,3.259,3.259,0,0,0,.93-.828l.883.688A3.55,3.55,0,0,1,17.516,15.156Zm-.18-7.578a1.928,1.928,0,0,0-1.469.637A3.1,3.1,0,0,0,15.133,10h4.234V9.891a2.753,2.753,0,0,0-.594-1.707A1.815,1.815,0,0,0,17.336,7.578Zm6.508-1.031.039.938a3.122,3.122,0,0,1,2.508-1.094A2.417,2.417,0,0,1,28.8,7.75a3.2,3.2,0,0,1,1.1-.984,3.242,3.242,0,0,1,1.6-.375q2.781,0,2.828,2.945V15H32.883V9.422a1.941,1.941,0,0,0-.414-1.355,1.823,1.823,0,0,0-1.391-.449,1.916,1.916,0,0,0-1.336.48,1.949,1.949,0,0,0-.617,1.293V15H27.672V9.461a1.613,1.613,0,0,0-1.8-1.844,1.934,1.934,0,0,0-1.945,1.211V15H22.477V6.547Zm19.8,4.32a5.062,5.062,0,0,1-.883,3.109,2.829,2.829,0,0,1-2.391,1.18,3.1,3.1,0,0,1-2.422-.977v4.07H36.508V6.547h1.32l.07.938a2.977,2.977,0,0,1,2.453-1.094,2.882,2.882,0,0,1,2.41,1.148,5.117,5.117,0,0,1,.887,3.2ZM42.2,10.7a3.735,3.735,0,0,0-.609-2.258,1.963,1.963,0,0,0-1.672-.828,2.125,2.125,0,0,0-1.969,1.164V12.82a2.129,2.129,0,0,0,1.984,1.156,1.954,1.954,0,0,0,1.652-.824A4.077,4.077,0,0,0,42.2,10.7ZM47.055,15H45.609V3h1.445Zm1.93-4.3a4.993,4.993,0,0,1,.488-2.234A3.643,3.643,0,0,1,50.832,6.93a3.7,3.7,0,0,1,1.988-.539,3.565,3.565,0,0,1,2.793,1.2,4.6,4.6,0,0,1,1.066,3.18v.1a5.036,5.036,0,0,1-.473,2.215,3.589,3.589,0,0,1-1.352,1.527,3.743,3.743,0,0,1-2.02.547,3.556,3.556,0,0,1-2.785-1.2A4.575,4.575,0,0,1,48.984,10.8Zm1.453.172a3.616,3.616,0,0,0,.652,2.258,2.211,2.211,0,0,0,3.5-.012,3.955,3.955,0,0,0,.648-2.418,3.61,3.61,0,0,0-.66-2.254,2.1,2.1,0,0,0-1.754-.863,2.075,2.075,0,0,0-1.727.852A3.925,3.925,0,0,0,50.438,10.867Zm19.156,0a5.062,5.062,0,0,1-.883,3.109,2.829,2.829,0,0,1-2.391,1.18A3.1,3.1,0,0,1,63.9,14.18v4.07H62.453V6.547h1.32l.07.938A2.977,2.977,0,0,1,66.3,6.391a2.882,2.882,0,0,1,2.41,1.148,5.117,5.117,0,0,1,.887,3.2ZM68.148,10.7a3.735,3.735,0,0,0-.609-2.258,1.963,1.963,0,0,0-1.672-.828A2.125,2.125,0,0,0,63.9,8.781V12.82a2.129,2.129,0,0,0,1.984,1.156,1.954,1.954,0,0,0,1.652-.824A4.077,4.077,0,0,0,68.148,10.7Zm8.5,4.3a3.036,3.036,0,0,1-.2-.891,3.225,3.225,0,0,1-2.406,1.047,2.984,2.984,0,0,1-2.051-.707,2.288,2.288,0,0,1-.8-1.793,2.39,2.39,0,0,1,1-2.051,4.733,4.733,0,0,1,2.824-.73h1.406V9.211A1.623,1.623,0,0,0,75.969,8a1.821,1.821,0,0,0-1.336-.449,2.108,2.108,0,0,0-1.3.391,1.151,1.151,0,0,0-.523.945H71.359a2,2,0,0,1,.449-1.223,3.066,3.066,0,0,1,1.219-.934,4.1,4.1,0,0,1,1.691-.344,3.342,3.342,0,0,1,2.289.73,2.635,2.635,0,0,1,.859,2.012v3.891a4.757,4.757,0,0,0,.3,1.852V15Zm-2.4-1.1a2.54,2.54,0,0,0,1.289-.352,2.127,2.127,0,0,0,.883-.914V10.9H75.289q-2.656,0-2.656,1.555a1.316,1.316,0,0,0,.453,1.063A1.742,1.742,0,0,0,74.25,13.9Zm9.969-6.055a4.331,4.331,0,0,0-.711-.055A1.9,1.9,0,0,0,81.578,9v6H80.133V6.547h1.406l.023.977a2.251,2.251,0,0,1,2.016-1.133,1.477,1.477,0,0,1,.641.109ZM90.453,15a3.036,3.036,0,0,1-.2-.891,3.225,3.225,0,0,1-2.406,1.047,2.984,2.984,0,0,1-2.051-.707,2.288,2.288,0,0,1-.8-1.793,2.39,2.39,0,0,1,1-2.051,4.733,4.733,0,0,1,2.824-.73h1.406V9.211A1.623,1.623,0,0,0,89.773,8a1.821,1.821,0,0,0-1.336-.449,2.108,2.108,0,0,0-1.3.391,1.151,1.151,0,0,0-.523.945H85.164a2,2,0,0,1,.449-1.223,3.066,3.066,0,0,1,1.219-.934,4.1,4.1,0,0,1,1.691-.344,3.342,3.342,0,0,1,2.289.73,2.635,2.635,0,0,1,.859,2.012v3.891a4.757,4.757,0,0,0,.3,1.852V15Zm-2.4-1.1a2.54,2.54,0,0,0,1.289-.352,2.127,2.127,0,0,0,.883-.914V10.9H89.094q-2.656,0-2.656,1.555a1.316,1.316,0,0,0,.453,1.063A1.742,1.742,0,0,0,88.055,13.9Zm13.234.078a2.082,2.082,0,0,0,1.352-.469,1.649,1.649,0,0,0,.641-1.172h1.367a2.621,2.621,0,0,1-.5,1.383,3.293,3.293,0,0,1-1.23,1.047,3.55,3.55,0,0,1-1.629.391A3.482,3.482,0,0,1,98.543,14a4.59,4.59,0,0,1-1.02-3.152v-.242a5.089,5.089,0,0,1,.453-2.2,3.451,3.451,0,0,1,1.3-1.492,3.7,3.7,0,0,1,2-.531,3.39,3.39,0,0,1,2.363.852,3.043,3.043,0,0,1,1,2.211h-1.367a1.992,1.992,0,0,0-.621-1.348,1.932,1.932,0,0,0-1.379-.527,2.023,2.023,0,0,0-1.707.793,3.724,3.724,0,0,0-.605,2.293v.273a3.65,3.65,0,0,0,.6,2.25A2.033,2.033,0,0,0,101.289,13.977ZM111.492,15a3.036,3.036,0,0,1-.2-.891,3.225,3.225,0,0,1-2.406,1.047,2.984,2.984,0,0,1-2.051-.707,2.288,2.288,0,0,1-.8-1.793,2.39,2.39,0,0,1,1-2.051,4.733,4.733,0,0,1,2.824-.73h1.406V9.211A1.623,1.623,0,0,0,110.813,8a1.821,1.821,0,0,0-1.336-.449,2.108,2.108,0,0,0-1.3.391,1.151,1.151,0,0,0-.523.945H106.2a2,2,0,0,1,.449-1.223,3.066,3.066,0,0,1,1.219-.934,4.1,4.1,0,0,1,1.691-.344,3.342,3.342,0,0,1,2.289.73,2.635,2.635,0,0,1,.859,2.012v3.891a4.757,4.757,0,0,0,.3,1.852V15Zm-2.4-1.1a2.54,2.54,0,0,0,1.289-.352,2.127,2.127,0,0,0,.883-.914V10.9h-1.133q-2.656,0-2.656,1.555a1.316,1.316,0,0,0,.453,1.063A1.742,1.742,0,0,0,109.094,13.9ZM110.43,3.016h1.75l-2.094,2.3-1.164,0ZM116.547,15H115.1V3h1.445Zm5.7-1.023a2.082,2.082,0,0,0,1.352-.469,1.649,1.649,0,0,0,.641-1.172h1.367a2.621,2.621,0,0,1-.5,1.383,3.293,3.293,0,0,1-1.23,1.047,3.55,3.55,0,0,1-1.629.391A3.482,3.482,0,0,1,119.5,14a4.59,4.59,0,0,1-1.02-3.152v-.242a5.089,5.089,0,0,1,.453-2.2,3.451,3.451,0,0,1,1.3-1.492,3.7,3.7,0,0,1,2-.531,3.39,3.39,0,0,1,2.363.852,3.043,3.043,0,0,1,1,2.211h-1.367a1.992,1.992,0,0,0-.621-1.348,1.932,1.932,0,0,0-1.379-.527,2.023,2.023,0,0,0-1.707.793,3.724,3.724,0,0,0-.605,2.293v.273a3.65,3.65,0,0,0,.6,2.25A2.033,2.033,0,0,0,122.25,13.977Zm10.2.188a3.07,3.07,0,0,1-2.477.992,2.628,2.628,0,0,1-2.059-.785,3.4,3.4,0,0,1-.715-2.324v-5.5h1.445v5.461q0,1.922,1.563,1.922a2.163,2.163,0,0,0,2.2-1.234V6.547h1.445V15h-1.375Zm5.172.836H136.18V3h1.445Zm1.93-4.3a4.993,4.993,0,0,1,.488-2.234A3.642,3.642,0,0,1,141.4,6.93a3.7,3.7,0,0,1,1.988-.539,3.565,3.565,0,0,1,2.793,1.2,4.6,4.6,0,0,1,1.066,3.18v.1a5.036,5.036,0,0,1-.473,2.215,3.589,3.589,0,0,1-1.352,1.527,3.743,3.743,0,0,1-2.02.547,3.556,3.556,0,0,1-2.785-1.2,4.575,4.575,0,0,1-1.066-3.164Zm1.453.172a3.616,3.616,0,0,0,.652,2.258,2.211,2.211,0,0,0,3.5-.012A3.954,3.954,0,0,0,145.8,10.7a3.61,3.61,0,0,0-.66-2.254,2.1,2.1,0,0,0-1.754-.863,2.075,2.075,0,0,0-1.727.852A3.925,3.925,0,0,0,141.008,10.867Zm11.664-.164a4.952,4.952,0,0,1,.922-3.129,3.137,3.137,0,0,1,4.766-.168V3H159.8V15h-1.328l-.07-.906a2.943,2.943,0,0,1-2.414,1.063,2.887,2.887,0,0,1-2.395-1.2,5.008,5.008,0,0,1-.926-3.141Zm1.445.164a3.749,3.749,0,0,0,.594,2.25,1.919,1.919,0,0,0,1.641.813,2.108,2.108,0,0,0,2.008-1.234V8.813a2.125,2.125,0,0,0-1.992-1.2,1.929,1.929,0,0,0-1.656.82A4.128,4.128,0,0,0,154.117,10.867Zm11.438,4.289a3.693,3.693,0,0,1-2.8-1.129,4.19,4.19,0,0,1-1.078-3.02v-.266a5.073,5.073,0,0,1,.48-2.246A3.748,3.748,0,0,1,163.5,6.949a3.378,3.378,0,0,1,1.871-.559,3.166,3.166,0,0,1,2.563,1.086,4.7,4.7,0,0,1,.914,3.109v.6h-5.727a3,3,0,0,0,.73,2.02,2.3,2.3,0,0,0,1.777.77,2.517,2.517,0,0,0,1.3-.312,3.258,3.258,0,0,0,.93-.828l.883.688A3.55,3.55,0,0,1,165.555,15.156Zm-.18-7.578a1.928,1.928,0,0,0-1.469.637A3.1,3.1,0,0,0,163.172,10h4.234V9.891a2.753,2.753,0,0,0-.594-1.707A1.815,1.815,0,0,0,165.375,7.578ZM.742,34.7a4.952,4.952,0,0,1,.922-3.129,2.915,2.915,0,0,1,2.414-1.184A2.932,2.932,0,0,1,6.43,31.406V27H7.875V39H6.547l-.07-.906a2.943,2.943,0,0,1-2.414,1.063,2.887,2.887,0,0,1-2.395-1.2,5.008,5.008,0,0,1-.926-3.141Zm1.445.164a3.749,3.749,0,0,0,.594,2.25,1.92,1.92,0,0,0,1.641.813A2.108,2.108,0,0,0,6.43,36.7V32.813a2.125,2.125,0,0,0-1.992-1.2,1.929,1.929,0,0,0-1.656.82A4.128,4.128,0,0,0,2.188,34.867Zm11.438,4.289a3.693,3.693,0,0,1-2.8-1.129,4.19,4.19,0,0,1-1.078-3.02v-.266a5.073,5.073,0,0,1,.48-2.246,3.748,3.748,0,0,1,1.344-1.547,3.378,3.378,0,0,1,1.871-.559,3.166,3.166,0,0,1,2.563,1.086,4.7,4.7,0,0,1,.914,3.109v.6H11.2a3,3,0,0,0,.73,2.02,2.3,2.3,0,0,0,1.777.77,2.517,2.517,0,0,0,1.3-.312,3.258,3.258,0,0,0,.93-.828l.883.688A3.55,3.55,0,0,1,13.625,39.156Zm-.18-7.578a1.928,1.928,0,0,0-1.469.637A3.1,3.1,0,0,0,11.242,34h4.234v-.109a2.753,2.753,0,0,0-.594-1.707A1.815,1.815,0,0,0,13.445,31.578Zm12.289,3.289a5.062,5.062,0,0,1-.883,3.109,2.829,2.829,0,0,1-2.391,1.18,3.1,3.1,0,0,1-2.422-.977v4.07H18.594v-11.7h1.32l.07.938a2.977,2.977,0,0,1,2.453-1.094,2.882,2.882,0,0,1,2.41,1.148,5.117,5.117,0,0,1,.887,3.2ZM24.289,34.7a3.735,3.735,0,0,0-.609-2.258,1.963,1.963,0,0,0-1.672-.828,2.125,2.125,0,0,0-1.969,1.164V36.82a2.129,2.129,0,0,0,1.984,1.156,1.954,1.954,0,0,0,1.652-.824A4.077,4.077,0,0,0,24.289,34.7Zm7.367-2.859a4.331,4.331,0,0,0-.711-.055A1.9,1.9,0,0,0,29.016,33v6H27.57V30.547h1.406l.023.977a2.251,2.251,0,0,1,2.016-1.133,1.477,1.477,0,0,1,.641.109Zm4.688,7.313a3.693,3.693,0,0,1-2.8-1.129,4.19,4.19,0,0,1-1.078-3.02v-.266a5.073,5.073,0,0,1,.48-2.246,3.748,3.748,0,0,1,1.344-1.547,3.378,3.378,0,0,1,1.871-.559,3.166,3.166,0,0,1,2.563,1.086,4.7,4.7,0,0,1,.914,3.109v.6H33.914a3,3,0,0,0,.73,2.02,2.3,2.3,0,0,0,1.777.77,2.517,2.517,0,0,0,1.3-.312,3.258,3.258,0,0,0,.93-.828l.883.688A3.55,3.55,0,0,1,36.344,39.156Zm-.18-7.578a1.928,1.928,0,0,0-1.469.637A3.1,3.1,0,0,0,33.961,34H38.2v-.109a2.753,2.753,0,0,0-.594-1.707A1.815,1.815,0,0,0,36.164,31.578Zm8.539,6.4a2.082,2.082,0,0,0,1.352-.469,1.649,1.649,0,0,0,.641-1.172h1.367a2.621,2.621,0,0,1-.5,1.383,3.293,3.293,0,0,1-1.23,1.047,3.55,3.55,0,0,1-1.629.391A3.482,3.482,0,0,1,41.957,38a4.59,4.59,0,0,1-1.02-3.152v-.242a5.089,5.089,0,0,1,.453-2.2,3.451,3.451,0,0,1,1.3-1.492,3.7,3.7,0,0,1,2-.531,3.39,3.39,0,0,1,2.363.852,3.043,3.043,0,0,1,1,2.211H46.7a1.992,1.992,0,0,0-.621-1.348,1.932,1.932,0,0,0-1.379-.527,2.023,2.023,0,0,0-1.707.793,3.724,3.724,0,0,0-.605,2.293v.273a3.65,3.65,0,0,0,.6,2.25A2.033,2.033,0,0,0,44.7,37.977ZM51.258,39H49.813V30.547h1.445ZM49.7,28.3a.863.863,0,0,1,.215-.594.807.807,0,0,1,.637-.242.819.819,0,0,1,.641.242.854.854,0,0,1,.219.594.826.826,0,0,1-.219.586.834.834,0,0,1-.641.234.821.821,0,0,1-.637-.234A.834.834,0,0,1,49.7,28.3ZM58.789,39a3.036,3.036,0,0,1-.2-.891,3.225,3.225,0,0,1-2.406,1.047,2.984,2.984,0,0,1-2.051-.707,2.287,2.287,0,0,1-.8-1.793,2.39,2.39,0,0,1,1-2.051,4.733,4.733,0,0,1,2.824-.73h1.406v-.664A1.623,1.623,0,0,0,58.109,32a1.821,1.821,0,0,0-1.336-.449,2.107,2.107,0,0,0-1.3.391,1.151,1.151,0,0,0-.523.945H53.5a2,2,0,0,1,.449-1.223,3.066,3.066,0,0,1,1.219-.934,4.1,4.1,0,0,1,1.691-.344,3.342,3.342,0,0,1,2.289.73,2.635,2.635,0,0,1,.859,2.012v3.891a4.757,4.757,0,0,0,.3,1.852V39Zm-2.4-1.1a2.54,2.54,0,0,0,1.289-.352,2.127,2.127,0,0,0,.883-.914V34.9H57.43q-2.656,0-2.656,1.555a1.316,1.316,0,0,0,.453,1.063A1.742,1.742,0,0,0,56.391,37.9Zm9.273.078a2.082,2.082,0,0,0,1.352-.469,1.649,1.649,0,0,0,.641-1.172h1.367a2.621,2.621,0,0,1-.5,1.383,3.293,3.293,0,0,1-1.23,1.047,3.55,3.55,0,0,1-1.629.391A3.482,3.482,0,0,1,62.918,38a4.59,4.59,0,0,1-1.02-3.152v-.242a5.089,5.089,0,0,1,.453-2.2,3.451,3.451,0,0,1,1.3-1.492,3.7,3.7,0,0,1,2-.531,3.39,3.39,0,0,1,2.363.852,3.043,3.043,0,0,1,1,2.211H67.656a1.992,1.992,0,0,0-.621-1.348,1.932,1.932,0,0,0-1.379-.527,2.023,2.023,0,0,0-1.707.793,3.724,3.724,0,0,0-.605,2.293v.273a3.65,3.65,0,0,0,.6,2.25A2.033,2.033,0,0,0,65.664,37.977ZM72.219,39H70.773V30.547h1.445ZM70.656,28.3a.863.863,0,0,1,.215-.594.807.807,0,0,1,.637-.242.819.819,0,0,1,.641.242.854.854,0,0,1,.219.594.826.826,0,0,1-.219.586.834.834,0,0,1-.641.234.821.821,0,0,1-.637-.234A.834.834,0,0,1,70.656,28.3ZM74.148,34.7a4.993,4.993,0,0,1,.488-2.234A3.643,3.643,0,0,1,76,30.93a3.7,3.7,0,0,1,1.988-.539,3.565,3.565,0,0,1,2.793,1.2,4.6,4.6,0,0,1,1.066,3.18v.1a5.036,5.036,0,0,1-.473,2.215,3.589,3.589,0,0,1-1.352,1.527,3.743,3.743,0,0,1-2.02.547,3.556,3.556,0,0,1-2.785-1.2A4.575,4.575,0,0,1,74.148,34.8Zm1.453.172a3.616,3.616,0,0,0,.652,2.258,2.211,2.211,0,0,0,3.5-.012A3.955,3.955,0,0,0,80.4,34.7a3.61,3.61,0,0,0-.66-2.254,2.1,2.1,0,0,0-1.754-.863,2.075,2.075,0,0,0-1.727.852A3.925,3.925,0,0,0,75.6,34.867Zm3.039-7.852h1.75l-2.094,2.3-1.164,0Zm6.383,3.531.047,1.063A3.08,3.08,0,0,1,87.6,30.391q2.68,0,2.7,3.023V39H88.859V33.406a1.946,1.946,0,0,0-.418-1.352,1.675,1.675,0,0,0-1.277-.437,2.086,2.086,0,0,0-1.234.375,2.546,2.546,0,0,0-.828.984V39H83.656V30.547Zm14.93,8.609a3.693,3.693,0,0,1-2.8-1.129,4.19,4.19,0,0,1-1.078-3.02v-.266a5.073,5.073,0,0,1,.48-2.246A3.748,3.748,0,0,1,97.9,30.949a3.378,3.378,0,0,1,1.871-.559,3.166,3.166,0,0,1,2.563,1.086,4.7,4.7,0,0,1,.914,3.109v.6H97.523a3,3,0,0,0,.73,2.02,2.3,2.3,0,0,0,1.777.77,2.517,2.517,0,0,0,1.3-.312,3.259,3.259,0,0,0,.93-.828l.883.688A3.55,3.55,0,0,1,99.953,39.156Zm-.18-7.578a1.928,1.928,0,0,0-1.469.637A3.1,3.1,0,0,0,97.57,34H101.8v-.109a2.753,2.753,0,0,0-.594-1.707A1.815,1.815,0,0,0,99.773,31.578Zm6.516-1.031.047,1.063a3.08,3.08,0,0,1,2.531-1.219q2.68,0,2.7,3.023V39h-1.445V33.406a1.946,1.946,0,0,0-.418-1.352,1.675,1.675,0,0,0-1.277-.437,2.086,2.086,0,0,0-1.234.375,2.546,2.546,0,0,0-.828.984V39h-1.445V30.547ZM119.281,39h-1.445V27h1.445Zm3.883,0h-1.453V30.547h1.453Zm.016-11.977h1.75l-2.094,2.3-1.164,0Zm3.734,3.523.047,1.063a3.08,3.08,0,0,1,2.531-1.219q2.68,0,2.7,3.023V39H130.75V33.406a1.946,1.946,0,0,0-.418-1.352,1.675,1.675,0,0,0-1.277-.437,2.086,2.086,0,0,0-1.234.375,2.546,2.546,0,0,0-.828.984V39h-1.445V30.547Zm10.969,8.609a3.693,3.693,0,0,1-2.8-1.129,4.19,4.19,0,0,1-1.078-3.02v-.266a5.073,5.073,0,0,1,.48-2.246,3.748,3.748,0,0,1,1.344-1.547,3.378,3.378,0,0,1,1.871-.559,3.166,3.166,0,0,1,2.563,1.086,4.7,4.7,0,0,1,.914,3.109v.6h-5.727a3,3,0,0,0,.73,2.02,2.3,2.3,0,0,0,1.777.77,2.517,2.517,0,0,0,1.3-.312,3.258,3.258,0,0,0,.93-.828l.883.688A3.55,3.55,0,0,1,137.883,39.156Zm-.18-7.578a1.928,1.928,0,0,0-1.469.637A3.1,3.1,0,0,0,135.5,34h4.234v-.109a2.753,2.753,0,0,0-.594-1.707A1.815,1.815,0,0,0,137.7,31.578ZM148.07,39a3.036,3.036,0,0,1-.2-.891,3.225,3.225,0,0,1-2.406,1.047,2.984,2.984,0,0,1-2.051-.707,2.287,2.287,0,0,1-.8-1.793,2.39,2.39,0,0,1,1-2.051,4.733,4.733,0,0,1,2.824-.73h1.406v-.664A1.623,1.623,0,0,0,147.391,32a1.821,1.821,0,0,0-1.336-.449,2.107,2.107,0,0,0-1.3.391,1.151,1.151,0,0,0-.523.945h-1.453a2,2,0,0,1,.449-1.223,3.066,3.066,0,0,1,1.219-.934,4.1,4.1,0,0,1,1.691-.344,3.342,3.342,0,0,1,2.289.73,2.635,2.635,0,0,1,.859,2.012v3.891a4.757,4.757,0,0,0,.3,1.852V39Zm-2.4-1.1a2.54,2.54,0,0,0,1.289-.352,2.127,2.127,0,0,0,.883-.914V34.9h-1.133q-2.656,0-2.656,1.555a1.316,1.316,0,0,0,.453,1.063A1.742,1.742,0,0,0,145.672,37.9ZM5.18,55.844a4.331,4.331,0,0,0-.711-.055A1.9,1.9,0,0,0,2.539,57v6H1.094V54.547H2.5l.023.977a2.251,2.251,0,0,1,2.016-1.133,1.477,1.477,0,0,1,.641.109Zm4.688,7.313a3.693,3.693,0,0,1-2.8-1.129,4.19,4.19,0,0,1-1.078-3.02v-.266a5.073,5.073,0,0,1,.48-2.246,3.748,3.748,0,0,1,1.344-1.547,3.378,3.378,0,0,1,1.871-.559,3.166,3.166,0,0,1,2.563,1.086,4.7,4.7,0,0,1,.914,3.109v.6H7.438a3,3,0,0,0,.73,2.02,2.3,2.3,0,0,0,1.777.77,2.517,2.517,0,0,0,1.3-.312,3.258,3.258,0,0,0,.93-.828l.883.688A3.55,3.55,0,0,1,9.867,63.156Zm-.18-7.578a1.928,1.928,0,0,0-1.469.637A3.1,3.1,0,0,0,7.484,58h4.234v-.109a2.753,2.753,0,0,0-.594-1.707A1.815,1.815,0,0,0,9.688,55.578Zm8.539,6.4a2.082,2.082,0,0,0,1.352-.469,1.649,1.649,0,0,0,.641-1.172h1.367a2.621,2.621,0,0,1-.5,1.383,3.293,3.293,0,0,1-1.23,1.047,3.55,3.55,0,0,1-1.629.391A3.482,3.482,0,0,1,15.48,62a4.59,4.59,0,0,1-1.02-3.152v-.242a5.089,5.089,0,0,1,.453-2.2,3.451,3.451,0,0,1,1.3-1.492,3.7,3.7,0,0,1,2-.531,3.39,3.39,0,0,1,2.363.852,3.043,3.043,0,0,1,1,2.211H20.219a1.992,1.992,0,0,0-.621-1.348,1.932,1.932,0,0,0-1.379-.527,2.023,2.023,0,0,0-1.707.793,3.724,3.724,0,0,0-.605,2.293v.273a3.65,3.65,0,0,0,.6,2.25A2.033,2.033,0,0,0,18.227,61.977ZM25.172,52.5v2.047H26.75v1.117H25.172v5.249a1.173,1.173,0,0,0,.211.763.888.888,0,0,0,.719.254,3.5,3.5,0,0,0,.688-.094V63a4.215,4.215,0,0,1-1.109.155,1.8,1.8,0,0,1-1.461-.586,2.517,2.517,0,0,1-.492-1.664V55.664H22.188V54.547h1.539V52.5ZM33.656,63a3.036,3.036,0,0,1-.2-.891,3.225,3.225,0,0,1-2.406,1.047A2.984,2.984,0,0,1,29,62.449a2.287,2.287,0,0,1-.8-1.793,2.39,2.39,0,0,1,1-2.051,4.733,4.733,0,0,1,2.824-.73H33.43v-.664A1.623,1.623,0,0,0,32.977,56a1.821,1.821,0,0,0-1.336-.449,2.107,2.107,0,0,0-1.3.391,1.151,1.151,0,0,0-.523.945H28.367a2,2,0,0,1,.449-1.223,3.066,3.066,0,0,1,1.219-.934,4.1,4.1,0,0,1,1.691-.344,3.342,3.342,0,0,1,2.289.73,2.635,2.635,0,0,1,.859,2.012v3.891a4.757,4.757,0,0,0,.3,1.852V63Zm-2.4-1.1a2.54,2.54,0,0,0,1.289-.352,2.127,2.127,0,0,0,.883-.914V58.9H32.3q-2.656,0-2.656,1.555a1.316,1.316,0,0,0,.453,1.063A1.742,1.742,0,0,0,31.258,61.9Zm5.914.344a.905.905,0,0,1,.223-.625.848.848,0,0,1,.668-.25.874.874,0,0,1,.676.25.887.887,0,0,1,.23.625.839.839,0,0,1-.23.6.89.89,0,0,1-.676.242.8.8,0,0,1-.891-.844Z" transform="translate(542 12407)" fill="#12263f"/>
    <g id="Grupo_60513" data-name="Grupo 60513" transform="translate(831 12298)">
      <g id="Grupo_60512" data-name="Grupo 60512" transform="translate(3.501)">
        <rect id="Rectángulo_5870" data-name="Rectángulo 5870" width="2.943" height="0.998" transform="translate(248.984 215.529)" fill="#6b6b6b"/>
        <path id="Trazado_109250" data-name="Trazado 109250" d="M597.061,1835.611H592v-1.05h5.062Zm-10.123,0h-5.061v-1.05h5.061Zm-10.122,0h-5.061v-1.05h5.061Zm-10.123,0h-5.061v-1.05h5.061Zm-10.122,0H551.51v-1.05h5.061Zm-10.123,0h-5.061v-1.05h5.061Zm-10.122,0h-5.061v-1.05h5.061Zm-10.122,0h-5.062v-1.05H526.2Zm-10.123,0H511.02v-1.05h5.061Zm-10.122,0H500.9v-1.05h5.062Zm-10.123,0h-5.062v-1.05h5.062Zm-10.123,0h-5.061v-1.05h5.061Zm-10.123,0h-5.061v-1.05h5.061Zm-10.122,0h-5.061v-1.05h5.061Zm-10.123,0h-5.061v-1.05h5.061Zm-10.122,0h-5.061v-1.05h5.061Zm-10.123,0h-5.061v-1.05H435.1Zm-10.122,0h-5.061v-1.05h5.061Zm-10.122,0h-5.062v-1.05h5.062Zm-10.123,0h-5.061v-1.05h5.061Zm-10.122,0h-5.062v-1.05h5.062Zm-10.123,0h-5.061v-1.05h5.061Zm-10.122,0H369.3v-1.05h5.061Zm-10.123,0h-.779a10.723,10.723,0,0,1-4.343-.921l.288-.988a10.02,10.02,0,0,0,4.055.859h.779Zm-9.563-4.239a16.146,16.146,0,0,1-3.019-5.2l.781-.425a15.1,15.1,0,0,0,2.821,4.851Zm-4.117-11.432v-6.226h.855v6.047Zm.853-12.442h-.855v-6.216h.855Zm0-12.433h-.855v-6.217h.855Zm0-12.434h-.855v-6.216h.855Zm0-12.433h-.855v-6.216h.855Zm0-12.434h-.855v-6.217h.855Zm0-12.433h-.855v-6.216h.855Zm0-12.434h-.855v-6.217h.855Zm266.133-10.735h-.855v-6.216h.855Zm-266.133-1.7h-.855v-6.216h.855Zm266.133-10.735h-.855v-6.216h.855Zm-266.133-1.7h-.855v-6.216h.855ZM617.548,1697.3h-.855v-6.216h.855Zm-266.133-1.7h-.855v-6.216h.855Zm266.133-10.736h-.855v-6.217h.855Zm-266.133-1.7h-.855v-6.217h.855Zm266.133-10.737h-.855v-6.216h.855Zm-266.133-1.7h-.855v-6.216h.855ZM617.548,1660h-.855v-6.216h.855Zm-266.133-1.7h-.855v-6.217h.855Zm265.262-10.727c-.034-2.185-.122-4.26-.261-6.166l.852-.095c.141,1.931.23,4.031.265,6.241Zm-265.262-1.707h-.855v-6.216h.855Zm264.31-10.555a41.221,41.221,0,0,0-1.354-5.879l.8-.382a42.178,42.178,0,0,1,1.395,6.058Zm-264.252-1.824-.852-.1a18.326,18.326,0,0,1,1.539-6.1l.748.507A17.122,17.122,0,0,0,351.472,1633.486Zm260.472-9.275a9.35,9.35,0,0,0-3.889-3.393l.288-.988a10.211,10.211,0,0,1,4.255,3.7Zm-255.885-.953-.527-.828a12.047,12.047,0,0,1,4.66-2.833l.216,1.017A11.213,11.213,0,0,0,356.06,1623.258Zm247.147-3.124h-5.062v-1.05h5.062Zm-10.123,0h-5.061v-1.05h5.061Zm-10.122,0H577.9v-1.05h5.062Zm-10.123,0h-5.061v-1.05h5.061Zm-10.122,0h-5.062v-1.05h5.062Zm-10.124,0h-5.061v-1.05h5.061Zm-10.122,0H537.41v-1.05h5.061Zm-10.123,0h-5.061v-1.05h5.061Zm-10.122,0h-5.061v-1.05h5.061Zm-10.123,0h-5.061v-1.05H512.1Zm-10.122,0H496.92v-1.05h5.061Zm-10.122,0H486.8v-1.05h5.062Zm-10.123,0h-5.061v-1.05h5.061Zm-10.122,0h-5.062v-1.05h5.062Zm-10.123,0h-5.061v-1.05h5.061Zm-10.122,0h-5.061v-1.05h5.061Zm-10.123,0h-5.061v-1.05h5.061Zm-10.122,0h-5.061v-1.05h5.061Zm-10.123,0h-5.061v-1.05H421Zm-10.122,0h-5.061v-1.05h5.061Zm-10.122,0h-5.062v-1.05h5.062Zm-10.123,0h-5.061v-1.05h5.061Zm-10.122,0h-5.063v-1.05h5.063Zm-10.124,0h-5.061v-1.05h5.061Z" transform="translate(-350.56 -1619.084)" fill="#6b6b6b"/>
        <path id="Trazado_109251" data-name="Trazado 109251" d="M664.618,1726.458h-3.442v-3.442h1v2.444h2.444Z" transform="translate(-395.186 -1613.547)" fill="#6b6b6b"/>
      </g>
      <path id="Trazado_109253" data-name="Trazado 109253" d="M617.609,1749.544a3.752,3.752,0,0,1,3.44,4v56.229c0,10.236-7.161,18.562-15.961,18.562H363.02c-8.8,0-15.961-8.326-15.961-18.562v-87.008a3.479,3.479,0,1,1,6.88,0v87.008c0,5.824,4.074,10.562,9.082,10.562H605.088c5.007,0,9.082-4.738,9.082-10.562v-56.229A3.752,3.752,0,0,1,617.609,1749.544Z" transform="translate(-347.059 -1608.307)" fill="#3d1f71"/>
      <path id="Trazado_109254" data-name="Trazado 109254" d="M13.7,0H170.621c7.564,0,13.7,4.877,13.7,10.893v221c0,6.016-6.132,10.893-13.7,10.893H13.7c-7.564,0-13.7-4.877-13.7-10.893v-221C0,4.877,6.132,0,13.7,0Z" transform="translate(257.786 16) rotate(90)" fill="url(#linear-gradient-2)"/>
    </g>
    <path id="Trazado_154205" data-name="Trazado 154205" d="M7.75,9.742H2.82v4.031H8.547V15H1.32V3.625H8.469V4.852H2.82V8.516H7.75Zm3.93-3.2v9.43q0,2.438-2.211,2.438a2.7,2.7,0,0,1-.883-.14V17.125a2.794,2.794,0,0,0,.656.063.982.982,0,0,0,.738-.262,1.3,1.3,0,0,0,.254-.911V6.547ZM10.086,4.3a.867.867,0,0,1,.215-.59.79.79,0,0,1,.629-.246.819.819,0,0,1,.641.242.854.854,0,0,1,.219.594.826.826,0,0,1-.219.586.834.834,0,0,1-.641.234.808.808,0,0,1-.633-.234A.843.843,0,0,1,10.086,4.3Zm7.43,10.852a3.693,3.693,0,0,1-2.8-1.129,4.19,4.19,0,0,1-1.078-3.02v-.266a5.073,5.073,0,0,1,.48-2.246,3.748,3.748,0,0,1,1.344-1.547,3.378,3.378,0,0,1,1.871-.559A3.166,3.166,0,0,1,19.9,7.477a4.7,4.7,0,0,1,.914,3.109v.6H15.086a3,3,0,0,0,.73,2.02,2.3,2.3,0,0,0,1.777.77,2.517,2.517,0,0,0,1.3-.312,3.259,3.259,0,0,0,.93-.828l.883.688A3.55,3.55,0,0,1,17.516,15.156Zm-.18-7.578a1.928,1.928,0,0,0-1.469.637A3.1,3.1,0,0,0,15.133,10h4.234V9.891a2.753,2.753,0,0,0-.594-1.707A1.815,1.815,0,0,0,17.336,7.578Zm6.508-1.031.039.938a3.122,3.122,0,0,1,2.508-1.094A2.417,2.417,0,0,1,28.8,7.75a3.2,3.2,0,0,1,1.1-.984,3.242,3.242,0,0,1,1.6-.375q2.781,0,2.828,2.945V15H32.883V9.422a1.941,1.941,0,0,0-.414-1.355,1.823,1.823,0,0,0-1.391-.449,1.916,1.916,0,0,0-1.336.48,1.949,1.949,0,0,0-.617,1.293V15H27.672V9.461a1.613,1.613,0,0,0-1.8-1.844,1.934,1.934,0,0,0-1.945,1.211V15H22.477V6.547Zm19.8,4.32a5.062,5.062,0,0,1-.883,3.109,2.829,2.829,0,0,1-2.391,1.18,3.1,3.1,0,0,1-2.422-.977v4.07H36.508V6.547h1.32l.07.938a2.977,2.977,0,0,1,2.453-1.094,2.882,2.882,0,0,1,2.41,1.148,5.117,5.117,0,0,1,.887,3.2ZM42.2,10.7a3.735,3.735,0,0,0-.609-2.258,1.963,1.963,0,0,0-1.672-.828,2.125,2.125,0,0,0-1.969,1.164V12.82a2.129,2.129,0,0,0,1.984,1.156,1.954,1.954,0,0,0,1.652-.824A4.077,4.077,0,0,0,42.2,10.7ZM47.055,15H45.609V3h1.445Zm1.93-4.3a4.993,4.993,0,0,1,.488-2.234A3.643,3.643,0,0,1,50.832,6.93a3.7,3.7,0,0,1,1.988-.539,3.565,3.565,0,0,1,2.793,1.2,4.6,4.6,0,0,1,1.066,3.18v.1a5.036,5.036,0,0,1-.473,2.215,3.589,3.589,0,0,1-1.352,1.527,3.743,3.743,0,0,1-2.02.547,3.556,3.556,0,0,1-2.785-1.2A4.575,4.575,0,0,1,48.984,10.8Zm1.453.172a3.616,3.616,0,0,0,.652,2.258,2.211,2.211,0,0,0,3.5-.012,3.955,3.955,0,0,0,.648-2.418,3.61,3.61,0,0,0-.66-2.254,2.1,2.1,0,0,0-1.754-.863,2.075,2.075,0,0,0-1.727.852A3.925,3.925,0,0,0,50.438,10.867Zm19.156,0a5.062,5.062,0,0,1-.883,3.109,2.829,2.829,0,0,1-2.391,1.18A3.1,3.1,0,0,1,63.9,14.18v4.07H62.453V6.547h1.32l.07.938A2.977,2.977,0,0,1,66.3,6.391a2.882,2.882,0,0,1,2.41,1.148,5.117,5.117,0,0,1,.887,3.2ZM68.148,10.7a3.735,3.735,0,0,0-.609-2.258,1.963,1.963,0,0,0-1.672-.828A2.125,2.125,0,0,0,63.9,8.781V12.82a2.129,2.129,0,0,0,1.984,1.156,1.954,1.954,0,0,0,1.652-.824A4.077,4.077,0,0,0,68.148,10.7Zm8.5,4.3a3.036,3.036,0,0,1-.2-.891,3.225,3.225,0,0,1-2.406,1.047,2.984,2.984,0,0,1-2.051-.707,2.288,2.288,0,0,1-.8-1.793,2.39,2.39,0,0,1,1-2.051,4.733,4.733,0,0,1,2.824-.73h1.406V9.211A1.623,1.623,0,0,0,75.969,8a1.821,1.821,0,0,0-1.336-.449,2.108,2.108,0,0,0-1.3.391,1.151,1.151,0,0,0-.523.945H71.359a2,2,0,0,1,.449-1.223,3.066,3.066,0,0,1,1.219-.934,4.1,4.1,0,0,1,1.691-.344,3.342,3.342,0,0,1,2.289.73,2.635,2.635,0,0,1,.859,2.012v3.891a4.757,4.757,0,0,0,.3,1.852V15Zm-2.4-1.1a2.54,2.54,0,0,0,1.289-.352,2.127,2.127,0,0,0,.883-.914V10.9H75.289q-2.656,0-2.656,1.555a1.316,1.316,0,0,0,.453,1.063A1.742,1.742,0,0,0,74.25,13.9Zm9.969-6.055a4.331,4.331,0,0,0-.711-.055A1.9,1.9,0,0,0,81.578,9v6H80.133V6.547h1.406l.023.977a2.251,2.251,0,0,1,2.016-1.133,1.477,1.477,0,0,1,.641.109ZM90.453,15a3.036,3.036,0,0,1-.2-.891,3.225,3.225,0,0,1-2.406,1.047,2.984,2.984,0,0,1-2.051-.707,2.288,2.288,0,0,1-.8-1.793,2.39,2.39,0,0,1,1-2.051,4.733,4.733,0,0,1,2.824-.73h1.406V9.211A1.623,1.623,0,0,0,89.773,8a1.821,1.821,0,0,0-1.336-.449,2.108,2.108,0,0,0-1.3.391,1.151,1.151,0,0,0-.523.945H85.164a2,2,0,0,1,.449-1.223,3.066,3.066,0,0,1,1.219-.934,4.1,4.1,0,0,1,1.691-.344,3.342,3.342,0,0,1,2.289.73,2.635,2.635,0,0,1,.859,2.012v3.891a4.757,4.757,0,0,0,.3,1.852V15Zm-2.4-1.1a2.54,2.54,0,0,0,1.289-.352,2.127,2.127,0,0,0,.883-.914V10.9H89.094q-2.656,0-2.656,1.555a1.316,1.316,0,0,0,.453,1.063A1.742,1.742,0,0,0,88.055,13.9ZM103.117,15a3.036,3.036,0,0,1-.2-.891,3.225,3.225,0,0,1-2.406,1.047,2.984,2.984,0,0,1-2.051-.707,2.288,2.288,0,0,1-.8-1.793,2.39,2.39,0,0,1,1-2.051,4.733,4.733,0,0,1,2.824-.73h1.406V9.211A1.623,1.623,0,0,0,102.438,8a1.821,1.821,0,0,0-1.336-.449,2.108,2.108,0,0,0-1.3.391,1.151,1.151,0,0,0-.523.945H97.828a2,2,0,0,1,.449-1.223A3.066,3.066,0,0,1,99.5,6.734a4.1,4.1,0,0,1,1.691-.344,3.342,3.342,0,0,1,2.289.73,2.635,2.635,0,0,1,.859,2.012v3.891a4.757,4.757,0,0,0,.3,1.852V15Zm-2.4-1.1a2.54,2.54,0,0,0,1.289-.352,2.127,2.127,0,0,0,.883-.914V10.9h-1.133q-2.656,0-2.656,1.555a1.316,1.316,0,0,0,.453,1.063A1.742,1.742,0,0,0,100.719,13.9Zm13.023-3.031a5.062,5.062,0,0,1-.883,3.109,2.829,2.829,0,0,1-2.391,1.18,3.1,3.1,0,0,1-2.422-.977v4.07H106.6V6.547h1.32l.07.938a2.977,2.977,0,0,1,2.453-1.094,2.882,2.882,0,0,1,2.41,1.148,5.117,5.117,0,0,1,.887,3.2ZM112.3,10.7a3.735,3.735,0,0,0-.609-2.258,1.963,1.963,0,0,0-1.672-.828,2.125,2.125,0,0,0-1.969,1.164V12.82a2.129,2.129,0,0,0,1.984,1.156,1.954,1.954,0,0,0,1.652-.824A4.077,4.077,0,0,0,112.3,10.7Zm4.852,4.3H115.7V3h1.445Zm3.883,0h-1.445V6.547h1.445ZM119.469,4.3a.863.863,0,0,1,.215-.594.807.807,0,0,1,.637-.242.819.819,0,0,1,.641.242.854.854,0,0,1,.219.594.826.826,0,0,1-.219.586.834.834,0,0,1-.641.234.821.821,0,0,1-.637-.234A.834.834,0,0,1,119.469,4.3Zm7.266,9.672a2.082,2.082,0,0,0,1.352-.469,1.649,1.649,0,0,0,.641-1.172h1.367a2.621,2.621,0,0,1-.5,1.383,3.293,3.293,0,0,1-1.23,1.047,3.55,3.55,0,0,1-1.629.391A3.482,3.482,0,0,1,123.988,14a4.59,4.59,0,0,1-1.02-3.152v-.242a5.089,5.089,0,0,1,.453-2.2,3.451,3.451,0,0,1,1.3-1.492,3.7,3.7,0,0,1,2-.531,3.39,3.39,0,0,1,2.363.852,3.043,3.043,0,0,1,1,2.211h-1.367a1.992,1.992,0,0,0-.621-1.348,1.932,1.932,0,0,0-1.379-.527,2.023,2.023,0,0,0-1.707.793,3.724,3.724,0,0,0-.605,2.293v.273a3.65,3.65,0,0,0,.6,2.25A2.033,2.033,0,0,0,126.734,13.977ZM136.938,15a3.036,3.036,0,0,1-.2-.891,3.225,3.225,0,0,1-2.406,1.047,2.984,2.984,0,0,1-2.051-.707,2.287,2.287,0,0,1-.8-1.793,2.39,2.39,0,0,1,1-2.051,4.733,4.733,0,0,1,2.824-.73h1.406V9.211A1.623,1.623,0,0,0,136.258,8a1.821,1.821,0,0,0-1.336-.449,2.107,2.107,0,0,0-1.3.391,1.151,1.151,0,0,0-.523.945h-1.453a2,2,0,0,1,.449-1.223,3.066,3.066,0,0,1,1.219-.934,4.1,4.1,0,0,1,1.691-.344,3.342,3.342,0,0,1,2.289.73,2.635,2.635,0,0,1,.859,2.012v3.891a4.757,4.757,0,0,0,.3,1.852V15Zm-2.4-1.1a2.54,2.54,0,0,0,1.289-.352,2.127,2.127,0,0,0,.883-.914V10.9h-1.133q-2.656,0-2.656,1.555a1.316,1.316,0,0,0,.453,1.063A1.742,1.742,0,0,0,134.539,13.9Zm9.273.078a2.082,2.082,0,0,0,1.352-.469,1.649,1.649,0,0,0,.641-1.172h1.367a2.621,2.621,0,0,1-.5,1.383,3.293,3.293,0,0,1-1.23,1.047,3.55,3.55,0,0,1-1.629.391A3.482,3.482,0,0,1,141.066,14a4.59,4.59,0,0,1-1.02-3.152v-.242a5.089,5.089,0,0,1,.453-2.2,3.451,3.451,0,0,1,1.3-1.492,3.7,3.7,0,0,1,2-.531,3.39,3.39,0,0,1,2.363.852,3.043,3.043,0,0,1,1,2.211H145.8a1.992,1.992,0,0,0-.621-1.348,1.932,1.932,0,0,0-1.379-.527,2.023,2.023,0,0,0-1.707.793,3.724,3.724,0,0,0-.605,2.293v.273a3.65,3.65,0,0,0,.6,2.25A2.033,2.033,0,0,0,143.813,13.977ZM150.367,15h-1.445V6.547h1.445ZM148.8,4.3a.863.863,0,0,1,.215-.594.807.807,0,0,1,.637-.242.819.819,0,0,1,.641.242.854.854,0,0,1,.219.594.826.826,0,0,1-.219.586.834.834,0,0,1-.641.234.821.821,0,0,1-.637-.234A.834.834,0,0,1,148.8,4.3ZM152.3,10.7a4.993,4.993,0,0,1,.488-2.234,3.642,3.642,0,0,1,1.359-1.531,3.7,3.7,0,0,1,1.988-.539,3.565,3.565,0,0,1,2.793,1.2,4.6,4.6,0,0,1,1.066,3.18v.1a5.036,5.036,0,0,1-.473,2.215,3.589,3.589,0,0,1-1.352,1.527,3.743,3.743,0,0,1-2.02.547,3.556,3.556,0,0,1-2.785-1.2A4.575,4.575,0,0,1,152.3,10.8Zm1.453.172a3.616,3.616,0,0,0,.652,2.258,2.211,2.211,0,0,0,3.5-.012,3.954,3.954,0,0,0,.648-2.418,3.61,3.61,0,0,0-.66-2.254,2.1,2.1,0,0,0-1.754-.863,2.075,2.075,0,0,0-1.727.852A3.925,3.925,0,0,0,153.75,10.867Zm3.039-7.852h1.75l-2.094,2.3-1.164,0Zm6.383,3.531.047,1.063a3.08,3.08,0,0,1,2.531-1.219q2.68,0,2.7,3.023V15h-1.445V9.406a1.946,1.946,0,0,0-.418-1.352,1.675,1.675,0,0,0-1.277-.437,2.086,2.086,0,0,0-1.234.375,2.546,2.546,0,0,0-.828.984V15H161.8V6.547Zm11.07,4.156a4.952,4.952,0,0,1,.922-3.129,3.137,3.137,0,0,1,4.766-.168V3h1.445V15h-1.328l-.07-.906a2.943,2.943,0,0,1-2.414,1.063,2.887,2.887,0,0,1-2.395-1.2,5.008,5.008,0,0,1-.926-3.141Zm1.445.164a3.749,3.749,0,0,0,.594,2.25,1.919,1.919,0,0,0,1.641.813A2.108,2.108,0,0,0,179.93,12.7V8.813a2.125,2.125,0,0,0-1.992-1.2,1.929,1.929,0,0,0-1.656.82A4.128,4.128,0,0,0,175.688,10.867Zm11.438,4.289a3.693,3.693,0,0,1-2.8-1.129,4.19,4.19,0,0,1-1.078-3.02v-.266a5.073,5.073,0,0,1,.48-2.246,3.748,3.748,0,0,1,1.344-1.547,3.378,3.378,0,0,1,1.871-.559,3.166,3.166,0,0,1,2.563,1.086,4.7,4.7,0,0,1,.914,3.109v.6H184.7a3,3,0,0,0,.73,2.02,2.3,2.3,0,0,0,1.777.77,2.517,2.517,0,0,0,1.3-.312,3.258,3.258,0,0,0,.93-.828l.883.688A3.55,3.55,0,0,1,187.125,15.156Zm-.18-7.578a1.928,1.928,0,0,0-1.469.637A3.1,3.1,0,0,0,184.742,10h4.234V9.891a2.753,2.753,0,0,0-.594-1.707A1.815,1.815,0,0,0,186.945,7.578ZM.742,34.7a4.952,4.952,0,0,1,.922-3.129,2.915,2.915,0,0,1,2.414-1.184A2.932,2.932,0,0,1,6.43,31.406V27H7.875V39H6.547l-.07-.906a2.943,2.943,0,0,1-2.414,1.063,2.887,2.887,0,0,1-2.395-1.2,5.008,5.008,0,0,1-.926-3.141Zm1.445.164a3.749,3.749,0,0,0,.594,2.25,1.92,1.92,0,0,0,1.641.813A2.108,2.108,0,0,0,6.43,36.7V32.813a2.125,2.125,0,0,0-1.992-1.2,1.929,1.929,0,0,0-1.656.82A4.128,4.128,0,0,0,2.188,34.867Zm11.438,4.289a3.693,3.693,0,0,1-2.8-1.129,4.19,4.19,0,0,1-1.078-3.02v-.266a5.073,5.073,0,0,1,.48-2.246,3.748,3.748,0,0,1,1.344-1.547,3.378,3.378,0,0,1,1.871-.559,3.166,3.166,0,0,1,2.563,1.086,4.7,4.7,0,0,1,.914,3.109v.6H11.2a3,3,0,0,0,.73,2.02,2.3,2.3,0,0,0,1.777.77,2.517,2.517,0,0,0,1.3-.312,3.258,3.258,0,0,0,.93-.828l.883.688A3.55,3.55,0,0,1,13.625,39.156Zm-.18-7.578a1.928,1.928,0,0,0-1.469.637A3.1,3.1,0,0,0,11.242,34h4.234v-.109a2.753,2.753,0,0,0-.594-1.707A1.815,1.815,0,0,0,13.445,31.578Zm12.289,3.289a5.062,5.062,0,0,1-.883,3.109,2.829,2.829,0,0,1-2.391,1.18,3.1,3.1,0,0,1-2.422-.977v4.07H18.594v-11.7h1.32l.07.938a2.977,2.977,0,0,1,2.453-1.094,2.882,2.882,0,0,1,2.41,1.148,5.117,5.117,0,0,1,.887,3.2ZM24.289,34.7a3.735,3.735,0,0,0-.609-2.258,1.963,1.963,0,0,0-1.672-.828,2.125,2.125,0,0,0-1.969,1.164V36.82a2.129,2.129,0,0,0,1.984,1.156,1.954,1.954,0,0,0,1.652-.824A4.077,4.077,0,0,0,24.289,34.7Zm7.367-2.859a4.331,4.331,0,0,0-.711-.055A1.9,1.9,0,0,0,29.016,33v6H27.57V30.547h1.406l.023.977a2.251,2.251,0,0,1,2.016-1.133,1.477,1.477,0,0,1,.641.109Zm4.688,7.313a3.693,3.693,0,0,1-2.8-1.129,4.19,4.19,0,0,1-1.078-3.02v-.266a5.073,5.073,0,0,1,.48-2.246,3.748,3.748,0,0,1,1.344-1.547,3.378,3.378,0,0,1,1.871-.559,3.166,3.166,0,0,1,2.563,1.086,4.7,4.7,0,0,1,.914,3.109v.6H33.914a3,3,0,0,0,.73,2.02,2.3,2.3,0,0,0,1.777.77,2.517,2.517,0,0,0,1.3-.312,3.258,3.258,0,0,0,.93-.828l.883.688A3.55,3.55,0,0,1,36.344,39.156Zm-.18-7.578a1.928,1.928,0,0,0-1.469.637A3.1,3.1,0,0,0,33.961,34H38.2v-.109a2.753,2.753,0,0,0-.594-1.707A1.815,1.815,0,0,0,36.164,31.578Zm8.539,6.4a2.082,2.082,0,0,0,1.352-.469,1.649,1.649,0,0,0,.641-1.172h1.367a2.621,2.621,0,0,1-.5,1.383,3.293,3.293,0,0,1-1.23,1.047,3.55,3.55,0,0,1-1.629.391A3.482,3.482,0,0,1,41.957,38a4.59,4.59,0,0,1-1.02-3.152v-.242a5.089,5.089,0,0,1,.453-2.2,3.451,3.451,0,0,1,1.3-1.492,3.7,3.7,0,0,1,2-.531,3.39,3.39,0,0,1,2.363.852,3.043,3.043,0,0,1,1,2.211H46.7a1.992,1.992,0,0,0-.621-1.348,1.932,1.932,0,0,0-1.379-.527,2.023,2.023,0,0,0-1.707.793,3.724,3.724,0,0,0-.605,2.293v.273a3.65,3.65,0,0,0,.6,2.25A2.033,2.033,0,0,0,44.7,37.977ZM51.258,39H49.813V30.547h1.445ZM49.7,28.3a.863.863,0,0,1,.215-.594.807.807,0,0,1,.637-.242.819.819,0,0,1,.641.242.854.854,0,0,1,.219.594.826.826,0,0,1-.219.586.834.834,0,0,1-.641.234.821.821,0,0,1-.637-.234A.834.834,0,0,1,49.7,28.3ZM58.789,39a3.036,3.036,0,0,1-.2-.891,3.225,3.225,0,0,1-2.406,1.047,2.984,2.984,0,0,1-2.051-.707,2.287,2.287,0,0,1-.8-1.793,2.39,2.39,0,0,1,1-2.051,4.733,4.733,0,0,1,2.824-.73h1.406v-.664A1.623,1.623,0,0,0,58.109,32a1.821,1.821,0,0,0-1.336-.449,2.107,2.107,0,0,0-1.3.391,1.151,1.151,0,0,0-.523.945H53.5a2,2,0,0,1,.449-1.223,3.066,3.066,0,0,1,1.219-.934,4.1,4.1,0,0,1,1.691-.344,3.342,3.342,0,0,1,2.289.73,2.635,2.635,0,0,1,.859,2.012v3.891a4.757,4.757,0,0,0,.3,1.852V39Zm-2.4-1.1a2.54,2.54,0,0,0,1.289-.352,2.127,2.127,0,0,0,.883-.914V34.9H57.43q-2.656,0-2.656,1.555a1.316,1.316,0,0,0,.453,1.063A1.742,1.742,0,0,0,56.391,37.9Zm9.273.078a2.082,2.082,0,0,0,1.352-.469,1.649,1.649,0,0,0,.641-1.172h1.367a2.621,2.621,0,0,1-.5,1.383,3.293,3.293,0,0,1-1.23,1.047,3.55,3.55,0,0,1-1.629.391A3.482,3.482,0,0,1,62.918,38a4.59,4.59,0,0,1-1.02-3.152v-.242a5.089,5.089,0,0,1,.453-2.2,3.451,3.451,0,0,1,1.3-1.492,3.7,3.7,0,0,1,2-.531,3.39,3.39,0,0,1,2.363.852,3.043,3.043,0,0,1,1,2.211H67.656a1.992,1.992,0,0,0-.621-1.348,1.932,1.932,0,0,0-1.379-.527,2.023,2.023,0,0,0-1.707.793,3.724,3.724,0,0,0-.605,2.293v.273a3.65,3.65,0,0,0,.6,2.25A2.033,2.033,0,0,0,65.664,37.977ZM72.219,39H70.773V30.547h1.445ZM70.656,28.3a.863.863,0,0,1,.215-.594.807.807,0,0,1,.637-.242.819.819,0,0,1,.641.242.854.854,0,0,1,.219.594.826.826,0,0,1-.219.586.834.834,0,0,1-.641.234.821.821,0,0,1-.637-.234A.834.834,0,0,1,70.656,28.3ZM74.148,34.7a4.993,4.993,0,0,1,.488-2.234A3.643,3.643,0,0,1,76,30.93a3.7,3.7,0,0,1,1.988-.539,3.565,3.565,0,0,1,2.793,1.2,4.6,4.6,0,0,1,1.066,3.18v.1a5.036,5.036,0,0,1-.473,2.215,3.589,3.589,0,0,1-1.352,1.527,3.743,3.743,0,0,1-2.02.547,3.556,3.556,0,0,1-2.785-1.2A4.575,4.575,0,0,1,74.148,34.8Zm1.453.172a3.616,3.616,0,0,0,.652,2.258,2.211,2.211,0,0,0,3.5-.012A3.955,3.955,0,0,0,80.4,34.7a3.61,3.61,0,0,0-.66-2.254,2.1,2.1,0,0,0-1.754-.863,2.075,2.075,0,0,0-1.727.852A3.925,3.925,0,0,0,75.6,34.867Zm3.039-7.852h1.75l-2.094,2.3-1.164,0Zm6.383,3.531.047,1.063A3.08,3.08,0,0,1,87.6,30.391q2.68,0,2.7,3.023V39H88.859V33.406a1.946,1.946,0,0,0-.418-1.352,1.675,1.675,0,0,0-1.277-.437,2.086,2.086,0,0,0-1.234.375,2.546,2.546,0,0,0-.828.984V39H83.656V30.547Zm14.188,6.336,1.969-6.336h1.547l-3.4,9.758q-.789,2.109-2.508,2.109l-.273-.023-.539-.1V41.117l.391.031a1.923,1.923,0,0,0,1.145-.3,2.149,2.149,0,0,0,.676-1.086l.32-.859-3.016-8.359H97.1ZM.742,58.7a4.952,4.952,0,0,1,.922-3.129,2.915,2.915,0,0,1,2.414-1.184A2.932,2.932,0,0,1,6.43,55.406V51H7.875V63H6.547l-.07-.906a2.943,2.943,0,0,1-2.414,1.063,2.887,2.887,0,0,1-2.395-1.2,5.008,5.008,0,0,1-.926-3.141Zm1.445.164a3.749,3.749,0,0,0,.594,2.25,1.92,1.92,0,0,0,1.641.813A2.108,2.108,0,0,0,6.43,60.7V56.813a2.125,2.125,0,0,0-1.992-1.2,1.929,1.929,0,0,0-1.656.82A4.128,4.128,0,0,0,2.188,58.867Zm11.438,4.289a3.693,3.693,0,0,1-2.8-1.129,4.19,4.19,0,0,1-1.078-3.02v-.266a5.073,5.073,0,0,1,.48-2.246,3.748,3.748,0,0,1,1.344-1.547,3.378,3.378,0,0,1,1.871-.559,3.166,3.166,0,0,1,2.563,1.086,4.7,4.7,0,0,1,.914,3.109v.6H11.2a3,3,0,0,0,.73,2.02,2.3,2.3,0,0,0,1.777.77,2.517,2.517,0,0,0,1.3-.312,3.258,3.258,0,0,0,.93-.828l.883.688A3.55,3.55,0,0,1,13.625,63.156Zm-.18-7.578a1.928,1.928,0,0,0-1.469.637A3.1,3.1,0,0,0,11.242,58h4.234v-.109a2.753,2.753,0,0,0-.594-1.707A1.815,1.815,0,0,0,13.445,55.578ZM20.555,52.5v2.047h1.578v1.117H20.555v5.249a1.173,1.173,0,0,0,.211.763.888.888,0,0,0,.719.254,3.5,3.5,0,0,0,.688-.094V63a4.215,4.215,0,0,1-1.109.155A1.8,1.8,0,0,1,19.6,62.57a2.517,2.517,0,0,1-.492-1.664V55.664H17.57V54.547h1.539V52.5Zm6.773,10.656a3.693,3.693,0,0,1-2.8-1.129,4.19,4.19,0,0,1-1.078-3.02v-.266a5.073,5.073,0,0,1,.48-2.246,3.748,3.748,0,0,1,1.344-1.547,3.378,3.378,0,0,1,1.871-.559,3.166,3.166,0,0,1,2.563,1.086,4.7,4.7,0,0,1,.914,3.109v.6H24.9a3,3,0,0,0,.73,2.02,2.3,2.3,0,0,0,1.777.77,2.517,2.517,0,0,0,1.3-.312,3.259,3.259,0,0,0,.93-.828l.883.688A3.55,3.55,0,0,1,27.328,63.156Zm-.18-7.578a1.928,1.928,0,0,0-1.469.637A3.1,3.1,0,0,0,24.945,58H29.18v-.109a2.753,2.753,0,0,0-.594-1.707A1.815,1.815,0,0,0,27.148,55.578Zm9.234.266a4.331,4.331,0,0,0-.711-.055A1.9,1.9,0,0,0,33.742,57v6H32.3V54.547H33.7l.023.977a2.251,2.251,0,0,1,2.016-1.133,1.477,1.477,0,0,1,.641.109Zm2.688-1.3.039.938a3.122,3.122,0,0,1,2.508-1.094,2.417,2.417,0,0,1,2.414,1.359,3.2,3.2,0,0,1,1.1-.984,3.242,3.242,0,0,1,1.6-.375q2.781,0,2.828,2.945V63H48.109V57.422a1.941,1.941,0,0,0-.414-1.355,1.823,1.823,0,0,0-1.391-.449,1.916,1.916,0,0,0-1.336.48,1.949,1.949,0,0,0-.617,1.293V63H42.9V57.461a1.613,1.613,0,0,0-1.8-1.844,1.934,1.934,0,0,0-1.945,1.211V63H37.7V54.547ZM53.3,63H51.859V54.547H53.3ZM51.742,52.3a.863.863,0,0,1,.215-.594.807.807,0,0,1,.637-.242.819.819,0,0,1,.641.242.854.854,0,0,1,.219.594.826.826,0,0,1-.219.586.834.834,0,0,1-.641.234.821.821,0,0,1-.637-.234A.834.834,0,0,1,51.742,52.3Zm5.242,2.242.047,1.063a3.08,3.08,0,0,1,2.531-1.219q2.68,0,2.7,3.023V63H60.82V57.406a1.946,1.946,0,0,0-.418-1.352,1.675,1.675,0,0,0-1.277-.437,2.086,2.086,0,0,0-1.234.375,2.546,2.546,0,0,0-.828.984V63H55.617V54.547ZM69.664,63a3.036,3.036,0,0,1-.2-.891,3.225,3.225,0,0,1-2.406,1.047A2.984,2.984,0,0,1,65,62.449a2.288,2.288,0,0,1-.8-1.793,2.39,2.39,0,0,1,1-2.051,4.733,4.733,0,0,1,2.824-.73h1.406v-.664A1.623,1.623,0,0,0,68.984,56a1.821,1.821,0,0,0-1.336-.449,2.107,2.107,0,0,0-1.3.391,1.151,1.151,0,0,0-.523.945H64.375a2,2,0,0,1,.449-1.223,3.066,3.066,0,0,1,1.219-.934,4.1,4.1,0,0,1,1.691-.344,3.342,3.342,0,0,1,2.289.73,2.635,2.635,0,0,1,.859,2.012v3.891a4.757,4.757,0,0,0,.3,1.852V63Zm-2.4-1.1a2.54,2.54,0,0,0,1.289-.352,2.127,2.127,0,0,0,.883-.914V58.9H68.3q-2.656,0-2.656,1.555a1.316,1.316,0,0,0,.453,1.063A1.742,1.742,0,0,0,67.266,61.9Zm9.273.078a2.082,2.082,0,0,0,1.352-.469,1.649,1.649,0,0,0,.641-1.172H79.9a2.621,2.621,0,0,1-.5,1.383,3.293,3.293,0,0,1-1.23,1.047,3.55,3.55,0,0,1-1.629.391A3.482,3.482,0,0,1,73.793,62a4.59,4.59,0,0,1-1.02-3.152v-.242a5.089,5.089,0,0,1,.453-2.2,3.451,3.451,0,0,1,1.3-1.492,3.7,3.7,0,0,1,2-.531,3.39,3.39,0,0,1,2.363.852,3.043,3.043,0,0,1,1,2.211H78.531a1.992,1.992,0,0,0-.621-1.348,1.932,1.932,0,0,0-1.379-.527,2.023,2.023,0,0,0-1.707.793,3.724,3.724,0,0,0-.605,2.293v.273a3.65,3.65,0,0,0,.6,2.25A2.033,2.033,0,0,0,76.539,61.977ZM83.094,63H81.648V54.547h1.445ZM81.531,52.3a.863.863,0,0,1,.215-.594.807.807,0,0,1,.637-.242.819.819,0,0,1,.641.242.854.854,0,0,1,.219.594.826.826,0,0,1-.219.586.834.834,0,0,1-.641.234.821.821,0,0,1-.637-.234A.834.834,0,0,1,81.531,52.3ZM85.023,58.7a4.993,4.993,0,0,1,.488-2.234,3.643,3.643,0,0,1,1.359-1.531,3.7,3.7,0,0,1,1.988-.539,3.565,3.565,0,0,1,2.793,1.2,4.6,4.6,0,0,1,1.066,3.18v.1a5.036,5.036,0,0,1-.473,2.215,3.589,3.589,0,0,1-1.352,1.527,3.743,3.743,0,0,1-2.02.547,3.556,3.556,0,0,1-2.785-1.2A4.575,4.575,0,0,1,85.023,58.8Zm1.453.172a3.616,3.616,0,0,0,.652,2.258,2.211,2.211,0,0,0,3.5-.012,3.955,3.955,0,0,0,.648-2.418,3.61,3.61,0,0,0-.66-2.254,2.1,2.1,0,0,0-1.754-.863,2.075,2.075,0,0,0-1.727.852A3.925,3.925,0,0,0,86.477,58.867Zm3.039-7.852h1.75l-2.094,2.3-1.164,0ZM95.9,54.547l.047,1.063a3.08,3.08,0,0,1,2.531-1.219q2.68,0,2.7,3.023V63H99.734V57.406a1.946,1.946,0,0,0-.418-1.352,1.675,1.675,0,0,0-1.277-.437,2.086,2.086,0,0,0-1.234.375,2.546,2.546,0,0,0-.828.984V63H94.531V54.547Zm11.07,4.156a4.952,4.952,0,0,1,.922-3.129,3.137,3.137,0,0,1,4.766-.168V51H114.1V63h-1.328l-.07-.906a2.943,2.943,0,0,1-2.414,1.063,2.887,2.887,0,0,1-2.395-1.2,5.008,5.008,0,0,1-.926-3.141Zm1.445.164a3.749,3.749,0,0,0,.594,2.25,1.92,1.92,0,0,0,1.641.813,2.108,2.108,0,0,0,2.008-1.234V56.813a2.125,2.125,0,0,0-1.992-1.2,1.929,1.929,0,0,0-1.656.82A4.128,4.128,0,0,0,108.414,58.867Zm11.438,4.289a3.693,3.693,0,0,1-2.8-1.129,4.19,4.19,0,0,1-1.078-3.02v-.266a5.073,5.073,0,0,1,.48-2.246,3.748,3.748,0,0,1,1.344-1.547,3.378,3.378,0,0,1,1.871-.559,3.166,3.166,0,0,1,2.563,1.086,4.7,4.7,0,0,1,.914,3.109v.6h-5.727a3,3,0,0,0,.73,2.02,2.3,2.3,0,0,0,1.777.77,2.517,2.517,0,0,0,1.3-.312,3.259,3.259,0,0,0,.93-.828l.883.688A3.55,3.55,0,0,1,119.852,63.156Zm-.18-7.578a1.928,1.928,0,0,0-1.469.637A3.1,3.1,0,0,0,117.469,58H121.7v-.109a2.753,2.753,0,0,0-.594-1.707A1.815,1.815,0,0,0,119.672,55.578ZM128.43,58.7a4.952,4.952,0,0,1,.922-3.129,3.137,3.137,0,0,1,4.766-.168V51h1.445V63h-1.328l-.07-.906a2.943,2.943,0,0,1-2.414,1.063,2.887,2.887,0,0,1-2.395-1.2,5.008,5.008,0,0,1-.926-3.141Zm1.445.164a3.749,3.749,0,0,0,.594,2.25,1.919,1.919,0,0,0,1.641.813,2.108,2.108,0,0,0,2.008-1.234V56.813a2.125,2.125,0,0,0-1.992-1.2,1.929,1.929,0,0,0-1.656.82A4.128,4.128,0,0,0,129.875,58.867Zm11.438,4.289a3.693,3.693,0,0,1-2.8-1.129,4.19,4.19,0,0,1-1.078-3.02v-.266a5.073,5.073,0,0,1,.48-2.246,3.748,3.748,0,0,1,1.344-1.547,3.378,3.378,0,0,1,1.871-.559,3.166,3.166,0,0,1,2.563,1.086,4.7,4.7,0,0,1,.914,3.109v.6h-5.727a3,3,0,0,0,.73,2.02,2.3,2.3,0,0,0,1.777.77,2.517,2.517,0,0,0,1.3-.312,3.258,3.258,0,0,0,.93-.828l.883.688A3.55,3.55,0,0,1,141.313,63.156Zm-.18-7.578a1.928,1.928,0,0,0-1.469.637A3.1,3.1,0,0,0,138.93,58h4.234v-.109a2.753,2.753,0,0,0-.594-1.707A1.815,1.815,0,0,0,141.133,55.578Zm7.109-3.078v2.047h1.578v1.117h-1.578v5.249a1.173,1.173,0,0,0,.211.763.888.888,0,0,0,.719.254,3.5,3.5,0,0,0,.688-.094V63a4.215,4.215,0,0,1-1.109.155,1.8,1.8,0,0,1-1.461-.586,2.517,2.517,0,0,1-.492-1.664V55.664h-1.539V54.547H146.8V52.5Zm6.773,10.656a3.693,3.693,0,0,1-2.8-1.129,4.19,4.19,0,0,1-1.078-3.02v-.266a5.073,5.073,0,0,1,.48-2.246,3.748,3.748,0,0,1,1.344-1.547,3.378,3.378,0,0,1,1.871-.559,3.166,3.166,0,0,1,2.563,1.086,4.7,4.7,0,0,1,.914,3.109v.6h-5.727a3,3,0,0,0,.73,2.02,2.3,2.3,0,0,0,1.777.77,2.517,2.517,0,0,0,1.3-.312,3.258,3.258,0,0,0,.93-.828l.883.688A3.55,3.55,0,0,1,155.016,63.156Zm-.18-7.578a1.928,1.928,0,0,0-1.469.637A3.1,3.1,0,0,0,152.633,58h4.234v-.109a2.753,2.753,0,0,0-.594-1.707A1.815,1.815,0,0,0,154.836,55.578Zm9.234.266a4.331,4.331,0,0,0-.711-.055A1.9,1.9,0,0,0,161.43,57v6h-1.445V54.547h1.406l.023.977a2.251,2.251,0,0,1,2.016-1.133,1.477,1.477,0,0,1,.641.109Zm2.9,7.156h-1.445V54.547h1.445Zm-1.562-10.7a.863.863,0,0,1,.215-.594.807.807,0,0,1,.637-.242.819.819,0,0,1,.641.242.854.854,0,0,1,.219.594.826.826,0,0,1-.219.586.834.834,0,0,1-.641.234.821.821,0,0,1-.637-.234A.834.834,0,0,1,165.406,52.3ZM168.9,58.7a4.993,4.993,0,0,1,.488-2.234,3.642,3.642,0,0,1,1.359-1.531,3.7,3.7,0,0,1,1.988-.539,3.565,3.565,0,0,1,2.793,1.2,4.6,4.6,0,0,1,1.066,3.18v.1a5.036,5.036,0,0,1-.473,2.215,3.589,3.589,0,0,1-1.352,1.527,3.743,3.743,0,0,1-2.02.547,3.556,3.556,0,0,1-2.785-1.2A4.575,4.575,0,0,1,168.9,58.8Zm1.453.172A3.616,3.616,0,0,0,171,61.125a2.211,2.211,0,0,0,3.5-.012,3.954,3.954,0,0,0,.648-2.418,3.61,3.61,0,0,0-.66-2.254,2.1,2.1,0,0,0-1.754-.863,2.075,2.075,0,0,0-1.727.852A3.925,3.925,0,0,0,170.352,58.867Zm12.141-3.023a4.331,4.331,0,0,0-.711-.055A1.9,1.9,0,0,0,179.852,57v6h-1.445V54.547h1.406l.023.977a2.251,2.251,0,0,1,2.016-1.133,1.477,1.477,0,0,1,.641.109Zm.789,2.852a4.993,4.993,0,0,1,.488-2.234,3.642,3.642,0,0,1,1.359-1.531,3.7,3.7,0,0,1,1.988-.539,3.565,3.565,0,0,1,2.793,1.2,4.6,4.6,0,0,1,1.066,3.18v.1a5.036,5.036,0,0,1-.473,2.215,3.589,3.589,0,0,1-1.352,1.527,3.743,3.743,0,0,1-2.02.547,3.556,3.556,0,0,1-2.785-1.2,4.575,4.575,0,0,1-1.066-3.164Zm1.453.172a3.616,3.616,0,0,0,.652,2.258,2.211,2.211,0,0,0,3.5-.012,3.954,3.954,0,0,0,.648-2.418,3.61,3.61,0,0,0-.66-2.254,2.1,2.1,0,0,0-1.754-.863,2.075,2.075,0,0,0-1.727.852A3.925,3.925,0,0,0,184.734,58.867Zm8.086,3.375a.905.905,0,0,1,.223-.625.848.848,0,0,1,.668-.25.874.874,0,0,1,.676.25.887.887,0,0,1,.23.625.839.839,0,0,1-.23.6.89.89,0,0,1-.676.242.8.8,0,0,1-.891-.844Z" transform="translate(866 12407)" fill="#12263f"/>
    <g id="Grupo_87022" data-name="Grupo 87022" transform="translate(1089.564 12144.682)">
      <g id="Grupo_87019" data-name="Grupo 87019" transform="translate(-508.755 167.049)">
        <g id="Grupo_87018" data-name="Grupo 87018" transform="translate(23.191 15.943)">
          <path id="Trazado_153561" data-name="Trazado 153561" d="M-141.176,421.838l.327.974a.557.557,0,0,0,.653.366q5.109-1.162,10.254-2a.557.557,0,0,0,.431-.752l-.377-.975a.562.562,0,0,0-.614-.352q-5.151.845-10.267,2.011A.562.562,0,0,0-141.176,421.838Z" transform="translate(173.98 -396.658)" fill="#3d1f71"/>
          <path id="Trazado_153562" data-name="Trazado 153562" d="M-150.245,394.855l.324.965a.557.557,0,0,0,.654.365q5-1.151,10.045-2a.557.557,0,0,0,.428-.751l-.373-.964a.562.562,0,0,0-.617-.351q-5.047.854-10.056,2.007A.562.562,0,0,0-150.245,394.855Z" transform="translate(181.668 -373.788)" fill="#3d1f71"/>
          <path id="Trazado_153563" data-name="Trazado 153563" d="M-258.462,343.986l-.476,1.23a.558.558,0,0,0,.694.732,177.7,177.7,0,0,1,23.688-5.9.557.557,0,0,0,.423-.75l-.376-.973a.562.562,0,0,0-.622-.35,179.786,179.786,0,0,0-22.977,5.68A.563.563,0,0,0-258.462,343.986Z" transform="translate(273.819 -327.882)" fill="#3d1f71"/>
          <path id="Trazado_153564" data-name="Trazado 153564" d="M-271.847,389.526l-.489,1.263a.558.558,0,0,0,.705.728q6.036-2.093,12.172-3.725a.551.551,0,0,0,.377-.338q.214-.566.437-1.2a.562.562,0,0,0-.67-.73q-6.143,1.607-12.189,3.672A.563.563,0,0,0-271.847,389.526Z" transform="translate(285.177 -368.185)" fill="#3d1f71"/>
          <path id="Trazado_153565" data-name="Trazado 153565" d="M-159.445,367.757l.334.98a.557.557,0,0,0,.655.363q4.9-1.141,9.847-1.993a.557.557,0,0,0,.426-.751l-.379-.98a.562.562,0,0,0-.619-.351q-4.95.862-9.859,2A.563.563,0,0,0-159.445,367.757Z" transform="translate(189.467 -350.816)" fill="#3d1f71"/>
          <path id="Trazado_153566" data-name="Trazado 153566" d="M-41.679,634.557s-.171-.584-.649-.53c-3.129.355-6.264.763-9.383,1.309a.561.561,0,0,0,.052,1.112q.176.009.358.009h5.688a6.063,6.063,0,0,0,.751-.047q1.306-.163,2.614-.3a.553.553,0,0,0,.386-.214A1.386,1.386,0,0,0-41.679,634.557Z" transform="translate(98.506 -578.862)" fill="#3d1f71"/>
          <path id="Trazado_153567" data-name="Trazado 153567" d="M-65.8,607.329c-3.924.447-7.848,1.06-11.75,1.843a.562.562,0,0,0-.421.731s.136.394.264.761a.745.745,0,0,0,.849.484c3.833-.758,7.689-1.35,11.545-1.781a.557.557,0,0,0,.459-.755l-.359-.928A.562.562,0,0,0-65.8,607.329Z" transform="translate(120.399 -556.229)" fill="#3d1f71"/>
          <path id="Trazado_153568" data-name="Trazado 153568" d="M-245.292,315.806l-.478,1.235a.558.558,0,0,0,.684.735,182.048,182.048,0,0,1,20.1-4.847.558.558,0,0,0,.421-.75l-.38-.982a.562.562,0,0,0-.624-.35,184.272,184.272,0,0,0-19.358,4.622A.563.563,0,0,0-245.292,315.806Z" transform="translate(262.656 -304.886)" fill="#3d1f71"/>
          <path id="Trazado_153569" data-name="Trazado 153569" d="M-132.1,448.877l.322.96a.557.557,0,0,0,.651.366q5.217-1.17,10.465-1.993a.557.557,0,0,0,.434-.752l-.373-.964a.562.562,0,0,0-.611-.352q-5.255.833-10.48,2.009A.562.562,0,0,0-132.1,448.877Z" transform="translate(166.285 -419.582)" fill="#3d1f71"/>
          <path id="Trazado_153570" data-name="Trazado 153570" d="M-341.021,585.8a138.628,138.628,0,0,0-14.9,6.93,1.27,1.27,0,0,0-.314.519,2.929,2.929,0,0,0-.168,1.439.554.554,0,0,0,.777.257,135.821,135.821,0,0,1,14.611-6.9.556.556,0,0,0,.319-.337l.41-1.211A.561.561,0,0,0-341.021,585.8Z" transform="translate(356.449 -537.945)" fill="#3d1f71"/>
          <path id="Trazado_153571" data-name="Trazado 153571" d="M-111.66,474.358l-.371-.959a.562.562,0,0,0-.608-.353c-3.573.544-7.143,1.195-10.695,2-.947.214-.618,2.3.461,2.067,3.587-.777,7.177-1.458,10.775-2A.557.557,0,0,0-111.66,474.358Z" transform="translate(159.302 -442.391)" fill="#3d1f71"/>
          <path id="Trazado_153572" data-name="Trazado 153572" d="M-83.6,554.029a.56.56,0,0,0-.594-.354c-.5.065-1.007.132-1.511.2q-4.917.692-9.822,1.727a.563.563,0,0,0-.4.75l0,.007.307.907a.557.557,0,0,0,.643.366q5.627-1.18,11.289-1.908a.557.557,0,0,0,.45-.754Z" transform="translate(135.623 -510.744)" fill="#3d1f71"/>
          <path id="Trazado_153573" data-name="Trazado 153573" d="M-304.067,503.37q3.811-.741,7.627-1.284a.558.558,0,0,0,.442-.754l-.369-.954a.562.562,0,0,0-.6-.353q-5.052.735-10.092,1.8a149.2,149.2,0,0,0-35.308,12.239.565.565,0,0,0-.275.3l-.528,1.365a.559.559,0,0,0,.776.7A147.612,147.612,0,0,1-304.067,503.37Z" transform="translate(345.229 -465.262)" fill="#3d1f71"/>
          <path id="Trazado_153574" data-name="Trazado 153574" d="M-159.333,527.8a149.315,149.315,0,0,0-16.289,3.826.56.56,0,0,0,.157,1.1h3.592a.547.547,0,0,0,.142-.019,148.053,148.053,0,0,1,15.272-3.259q1.662-.264,3.324-.487a.558.558,0,0,0,.447-.755l-.364-.939a.561.561,0,0,0-.6-.354Q-156.493,527.3-159.333,527.8Z" transform="translate(203.498 -488.051)" fill="#3d1f71"/>
          <path id="Trazado_153575" data-name="Trazado 153575" d="M-232.266,287.773l-.466,1.2a.558.558,0,0,0,.673.738q8.182-2.3,16.53-3.848a.557.557,0,0,0,.419-.749l-.377-.974a.562.562,0,0,0-.626-.35q-7.957,1.484-15.778,3.641A.563.563,0,0,0-232.266,287.773Z" transform="translate(251.603 -281.952)" fill="#3d1f71"/>
          <path id="Trazado_153576" data-name="Trazado 153576" d="M-74.024,581.835l-.365-.942a.562.562,0,0,0-.592-.355q-5.775.708-11.534,1.893a.562.562,0,0,0-.418.73l.314.927a.557.557,0,0,0,.64.367q5.729-1.171,11.5-1.865A.557.557,0,0,0-74.024,581.835Z" transform="translate(127.995 -533.517)" fill="#3d1f71"/>
          <path id="Trazado_153577" data-name="Trazado 153577" d="M-309.432,622.935a.544.544,0,0,0,.264-.236,3.521,3.521,0,0,0,.224-.5l.287-.848a.561.561,0,0,0-.748-.7q-3.7,1.575-7.3,3.367a.561.561,0,0,0,.25,1.063h2.184a.55.55,0,0,0,.238-.054Q-311.755,623.941-309.432,622.935Z" transform="translate(323.023 -567.492)" fill="#3d1f71"/>
          <path id="Trazado_153578" data-name="Trazado 153578" d="M-304.222,505.4h-3.157a3.631,3.631,0,0,0-1.06.157,151.309,151.309,0,0,0-19.085,7.249.564.564,0,0,0-.29.308l-.518,1.338a.558.558,0,0,0,.759.706,150.093,150.093,0,0,1,23.5-8.662A.558.558,0,0,0-304.222,505.4Z" transform="translate(332.647 -469.824)" fill="#3d1f71"/>
          <path id="Trazado_153579" data-name="Trazado 153579" d="M-219.036,272.184a.562.562,0,0,0-.34.247,1.318,1.318,0,0,0-.106.213l-.421,1.087a.557.557,0,0,0,.663.74q3.311-.869,6.65-1.617a.558.558,0,0,0-.122-1.1h-4.15a3.69,3.69,0,0,0-.891.109Q-218.4,272.02-219.036,272.184Z" transform="translate(240.727 -271.752)" fill="#3d1f71"/>
          <path id="Trazado_153580" data-name="Trazado 153580" d="M-300.668,486.535a2.477,2.477,0,0,0,1.418-1.3l.264-.572a.562.562,0,0,0-.7-.715q-6.787,2.176-13.388,4.985a.565.565,0,0,0-.3.315l-.508,1.313a.558.558,0,0,0,.742.714C-309.622,489.751-303.128,487.411-300.668,486.535Z" transform="translate(320.401 -451.617)" fill="#3d1f71"/>
          <path id="Trazado_153581" data-name="Trazado 153581" d="M-281.282,423.134q4.308-1.479,8.665-2.713a.556.556,0,0,0,.375-.357l.391-1.158a.561.561,0,0,0-.682-.721c-3.487.976-9.837,3.049-11.97,3.794a1.683,1.683,0,0,0-1,.945l-.363.872a.558.558,0,0,0,.718.724Q-283.223,423.8-281.282,423.134Z" transform="translate(296.646 -395.87)" fill="#3d1f71"/>
          <path id="Trazado_153582" data-name="Trazado 153582" d="M-286.275,453.151l.209-.062a.558.558,0,0,0,.371-.357l.4-1.185a.561.561,0,0,0-.69-.717q-1.813.542-3.619,1.125-4.7,1.522-9.32,3.348a.563.563,0,0,0-.318.32l-.5,1.3a.558.558,0,0,0,.731.718Q-292.731,455.117-286.275,453.151Z" transform="translate(308.412 -423.541)" fill="#3d1f71"/>
        </g>
      </g>
    </g>
    <g id="Grupo_87023" data-name="Grupo 87023" transform="translate(915.664 12311.73)">
      <g id="Grupo_87020" data-name="Grupo 87020" transform="translate(29.336 15.897)">
        <path id="Trazado_153583" data-name="Trazado 153583" d="M397.789,408.641a.328.328,0,0,0,.218-.311c0-.439-.007-1.346-.007-1.346a.48.48,0,0,0-.64-.452l-.475.169q-6.069,2.2-11.965,4.9a.482.482,0,0,0-.28.438v1.3a.477.477,0,0,0,.679.433Q391.447,410.936,397.789,408.641Z" transform="translate(-384.639 -385.941)" fill="#3d1f71"/>
        <path id="Trazado_153584" data-name="Trazado 153584" d="M384.639,273.882v1.309a.477.477,0,0,0,.653.443q4.411-1.743,8.9-3.253a.477.477,0,0,0-.153-.93h-1.846a10.907,10.907,0,0,0-3.773.663q-1.742.642-3.472,1.319A.482.482,0,0,0,384.639,273.882Z" transform="translate(-384.639 -271.452)" fill="#3d1f71"/>
        <path id="Trazado_153585" data-name="Trazado 153585" d="M580.661,358.637a10.4,10.4,0,0,1,.057,1.131.475.475,0,0,0,.589.463q6.163-1.5,12.391-2.542a.474.474,0,0,0,.4-.5q-.049-.586-.15-1.212a.483.483,0,0,0-.554-.394q-6.214,1.037-12.369,2.529A.486.486,0,0,0,580.661,358.637Z" transform="translate(-550.811 -342.764)" fill="#3d1f71"/>
        <path id="Trazado_153586" data-name="Trazado 153586" d="M397.678,348.187a.476.476,0,0,0,.322-.451s.016-.715.042-1.282a.452.452,0,0,0-.6-.449q-6.325,2.149-12.514,4.789a.482.482,0,0,0-.292.443v1.286a.477.477,0,0,0,.668.438q.441-.191.882-.378Q391.873,350.172,397.678,348.187Z" transform="translate(-384.639 -334.632)" fill="#3d1f71"/>
        <path id="Trazado_153587" data-name="Trazado 153587" d="M393.342,380.07q2.162-.828,4.339-1.594a.477.477,0,0,0,.319-.45v-1.262a.481.481,0,0,0-.638-.454q-3.792,1.325-7.538,2.831-2.465.994-4.9,2.071a.482.482,0,0,0-.286.44v1.313a.477.477,0,0,0,.673.435Q389.284,381.625,393.342,380.07Z" transform="translate(-384.639 -360.321)" fill="#3d1f71"/>
        <path id="Trazado_153588" data-name="Trazado 153588" d="M384.639,291.693v1.314a.477.477,0,0,0,.663.44,179.452,179.452,0,0,1,34.147-10.425.479.479,0,0,0,.1-.908q-.854-.381-1.76-.682a1.981,1.981,0,0,0-1.039-.054,180.939,180.939,0,0,0-31.813,9.87A.482.482,0,0,0,384.639,291.693Z" transform="translate(-384.639 -279.828)" fill="#3d1f71"/>
        <path id="Trazado_153589" data-name="Trazado 153589" d="M586.8,386.167a10.586,10.586,0,0,0,.33-1.317.485.485,0,0,0-.555-.566q-6.462,1.107-12.863,2.723a.478.478,0,0,0-.336.307c-.046.136-.095.268-.147.4-.006.015-.013.031-.021.046a5.446,5.446,0,0,1-.5.836.479.479,0,0,0,.5.754q6.575-1.7,13.22-2.859A.474.474,0,0,0,586.8,386.167Z" transform="translate(-543.983 -367.098)" fill="#3d1f71"/>
        <path id="Trazado_153590" data-name="Trazado 153590" d="M399.057,583.245a132.011,132.011,0,0,0-14.175,6.977.482.482,0,0,0-.243.419v1a1.7,1.7,0,0,0,.044.388.475.475,0,0,0,.7.294,130.355,130.355,0,0,1,16.952-8.167.478.478,0,0,0-.168-.922C401.27,583.218,399.155,583.2,399.057,583.245Z" transform="translate(-384.639 -535.747)" fill="#3d1f71"/>
        <path id="Trazado_153591" data-name="Trazado 153591" d="M454.854,554.395a136.662,136.662,0,0,0-38.617,13.535.479.479,0,0,0,.221.9c.732,0,1.515.011,2.338.023a.478.478,0,0,0,.224-.052A134.912,134.912,0,0,1,454.7,556.555a.479.479,0,0,0,.365-.323q.2-.621.346-1.251A.483.483,0,0,0,454.854,554.395Z" transform="translate(-411.209 -511.305)" fill="#3d1f71"/>
        <path id="Trazado_153592" data-name="Trazado 153592" d="M567.325,332.624c1.8-.4,8.872-1.956,12.49-2.565a.477.477,0,0,0,.373-.62q-.146-.451-.318-.919c-.006-.016-.012-.031-.019-.046q-.055-.117-.112-.232a.481.481,0,0,0-.511-.264c-4.429.75-9.277,1.762-13.684,2.857a.275.275,0,0,0-.123.466l1.168,1.118A.808.808,0,0,0,567.325,332.624Z" transform="translate(-537.823 -319.365)" fill="#3d1f71"/>
        <path id="Trazado_153593" data-name="Trazado 153593" d="M520.088,307.737q7.415-1.979,14.948-3.31a.479.479,0,0,0,.279-.786,13.125,13.125,0,0,0-1.047-1.059.484.484,0,0,0-.411-.115,180.331,180.331,0,0,0-18.261,4.3.48.48,0,0,0,.139.939,28.243,28.243,0,0,1,3.108.138A3.4,3.4,0,0,0,520.088,307.737Z" transform="translate(-495.365 -297.738)" fill="#3d1f71"/>
        <path id="Trazado_153594" data-name="Trazado 153594" d="M385.3,280.34a181.922,181.922,0,0,1,23.891-7.834.478.478,0,0,0-.086-.941c-1.09-.065-2.185-.1-3.275-.113h-.654a2.984,2.984,0,0,0-.8.109,183.194,183.194,0,0,0-19.432,6.6.482.482,0,0,0-.3.447v1.3A.477.477,0,0,0,385.3,280.34Z" transform="translate(-384.639 -271.452)" fill="#3d1f71"/>
        <path id="Trazado_153595" data-name="Trazado 153595" d="M398,559.52v-1.227a.482.482,0,0,0-.668-.444,137.426,137.426,0,0,0-12.443,6.005.482.482,0,0,0-.25.423v1.288a.476.476,0,0,0,.709.417,134.7,134.7,0,0,1,12.362-6.024A.476.476,0,0,0,398,559.52Z" transform="translate(-384.639 -514.208)" fill="#3d1f71"/>
        <path id="Trazado_153596" data-name="Trazado 153596" d="M398,529.293v-1.24a.481.481,0,0,0-.662-.446c-4.236,1.734-8.394,3.667-12.442,5.8a.482.482,0,0,0-.257.427v1.293a.477.477,0,0,0,.7.421c4.019-2.136,8.151-4.074,12.364-5.812A.476.476,0,0,0,398,529.293Z" transform="translate(-384.639 -488.573)" fill="#3d1f71"/>
        <path id="Trazado_153597" data-name="Trazado 153597" d="M397.7,499.411a.476.476,0,0,0,.3-.443v-1.246h0a.481.481,0,0,0-.657-.449Q391,499.79,384.9,502.884a.482.482,0,0,0-.263.43v1.3a.477.477,0,0,0,.7.424Q391.379,501.935,397.7,499.411Z" transform="translate(-384.639 -462.859)" fill="#3d1f71"/>
        <path id="Trazado_153598" data-name="Trazado 153598" d="M564.81,621.158q-5.368,1.381-10.608,3.209a.48.48,0,0,0,.2.93c2.47-.21,9.328-2.281,10.792-3.272A.481.481,0,0,0,564.81,621.158Z" transform="translate(-528.113 -567.896)" fill="#3d1f71"/>
        <path id="Trazado_153599" data-name="Trazado 153599" d="M403.717,431.559a.587.587,0,0,0-.2-1.14c-1.741.017-3.445.026-3.445.026a.488.488,0,0,0-.162.028,155.7,155.7,0,0,0-14.993,6.178.481.481,0,0,0-.275.435V438.4a.477.477,0,0,0,.682.431C390.241,436.474,398.929,433.274,403.717,431.559Z" transform="translate(-384.639 -406.215)" fill="#3d1f71"/>
        <path id="Trazado_153600" data-name="Trazado 153600" d="M503.629,587.231q.465-.66.869-1.358a.481.481,0,0,0-.517-.708,133.841,133.841,0,0,0-27.544,8.969.48.48,0,0,0,.189.918c.885.011,1.778.019,2.671.022a.475.475,0,0,0,.188-.039,131.986,131.986,0,0,1,23.853-7.614A.48.48,0,0,0,503.629,587.231Z" transform="translate(-462.219 -537.388)" fill="#3d1f71"/>
        <path id="Trazado_153601" data-name="Trazado 153601" d="M600.48,527.142q.009-.608-.034-1.21a.479.479,0,0,0-.566-.43c-4.18.772-8.347,1.727-12.473,2.87a.482.482,0,0,0-.335.344,9.539,9.539,0,0,1-.431,1.247.476.476,0,0,0,.571.64c4.255-1.2,8.557-2.2,12.876-3A.477.477,0,0,0,600.48,527.142Z" transform="translate(-555.851 -486.812)" fill="#3d1f71"/>
        <path id="Trazado_153602" data-name="Trazado 153602" d="M518.349,450.589c-4.6,1.144-9.17,2.507-13.676,4.085a.481.481,0,0,0,.159.934h2.482a7.906,7.906,0,0,0,2.386-.374q5.832-1.846,11.761-3.213.825-.19,1.65-.369a.479.479,0,0,0,.378-.5c-.02-.322-.042-.775-.058-1.13a.483.483,0,0,0-.572-.453c-.408.076-.91.17-1,.189Q520.1,450.155,518.349,450.589Z" transform="translate(-486.124 -422.443)" fill="#3d1f71"/>
        <path id="Trazado_153603" data-name="Trazado 153603" d="M413.635,420.622q4.834-1.292,9.7-2.276a1.774,1.774,0,0,0,.885-.467,16.123,16.123,0,0,0,1.148-1.23.482.482,0,0,0-.46-.779q-7.285,1.387-14.5,3.439a154,154,0,0,0-25.508,9.8.482.482,0,0,0-.269.433v1.3a.477.477,0,0,0,.69.427A152.858,152.858,0,0,1,413.635,420.622Z" transform="translate(-384.639 -393.872)" fill="#3d1f71"/>
        <path id="Trazado_153604" data-name="Trazado 153604" d="M572.561,478.709a.309.309,0,0,0,.319.115c1.346-.322,9.637-2.3,11.175-2.632a.285.285,0,0,0,.161-.456l-.837-1.057a.917.917,0,0,0-.9-.33c-.322.065-.714.146-.973.2-2.793.593-8.364,2.031-9.811,2.411a.268.268,0,0,0-.144.422Z" transform="translate(-543.043 -443.438)" fill="#3d1f71"/>
        <path id="Trazado_153605" data-name="Trazado 153605" d="M594.6,498.4c-3.414.637-11.222,2.569-12.76,2.953a.3.3,0,0,0-.221.367l.357,1.446a.3.3,0,0,0,.368.222c1.551-.387,9.422-2.331,12.872-2.97a.479.479,0,0,0,.361-.633,11.322,11.322,0,0,0-.456-1.123A.478.478,0,0,0,594.6,498.4Z" transform="translate(-551.615 -463.839)" fill="#3d1f71"/>
      </g>
    </g>
  </g>
</svg>
