<svg xmlns="http://www.w3.org/2000/svg" xmlns:xlink="http://www.w3.org/1999/xlink" width="295" height="167" viewBox="0 0 295 167">
  <defs>
    <linearGradient id="linear-gradient" x1="-4.412" y1="0.5" x2="-4.163" y2="0.5" gradientUnits="objectBoundingBox">
      <stop offset="0" stop-color="#bfbfbf"/>
      <stop offset="0.234" stop-color="#b2b2b2"/>
      <stop offset="0.237" stop-color="#b2b2b2"/>
    </linearGradient>
    <linearGradient id="linear-gradient-2" x1="-8.76" y1="0.158" x2="-9.068" y2="0.849" gradientUnits="objectBoundingBox">
      <stop offset="0" stop-color="#d9d9d9"/>
      <stop offset="0.192" stop-color="#d4d5d4"/>
      <stop offset="0.39" stop-color="#c8c9c8"/>
      <stop offset="0.59" stop-color="#b3b5b4"/>
      <stop offset="0.792" stop-color="#979998"/>
      <stop offset="0.993" stop-color="#727674"/>
      <stop offset="1" stop-color="#717573"/>
    </linearGradient>
  </defs>
  <g id="Grupo_87302" data-name="Grupo 87302" transform="translate(-285 -16183)">
    <g id="Grupo_87300" data-name="Grupo 87300" transform="translate(-413.403 15457.998)">
      <g id="Grupo_87252" data-name="Grupo 87252" transform="translate(759.403 755.471)">
        <path id="Trazado_154074" data-name="Trazado 154074" d="M759.4,888.4l108.542-62.667,82.731,47.766L842.136,936.161Z" transform="translate(-759.403 -825.729)" fill="#949494"/>
        <path id="Trazado_154075" data-name="Trazado 154075" d="M759.4,1058.614v-25.72l82.732,47.766v25.72Z" transform="translate(-759.403 -970.228)" fill="#757575"/>
        <path id="Trazado_154076" data-name="Trazado 154076" d="M1141.445,983.635v25.72L1032.9,1072.021V1046.3Z" transform="translate(-950.172 -935.869)" fill="#8a8a8a"/>
        <path id="Trazado_154077" data-name="Trazado 154077" d="M1144.062,1016.2V995.111l-104.532,60.353v21.09Z" transform="translate(-954.793 -943.874)" fill="#b0b0b0"/>
        <path id="Trazado_154078" data-name="Trazado 154078" d="M1038.737,1054.368l105.011-60.629v21.644L1039.1,1075.8l-.359.208Zm104.532-59.8-104.053,60.076v20.537l104.053-60.076Z" transform="translate(-954.241 -942.917)" fill="#fff"/>
        <path id="Trazado_154079" data-name="Trazado 154079" d="M1201.211,1136.514c0,2.142,1.5,3.01,3.359,1.939a7.426,7.426,0,0,0,3.359-5.818c0-2.141-1.5-3.01-3.359-1.939A7.424,7.424,0,0,0,1201.211,1136.514Z" transform="translate(-1067.567 -1038.126)" fill="#4b5148"/>
        <path id="Trazado_154080" data-name="Trazado 154080" d="M1210.552,1141.005a.691.691,0,0,1,.313-.542l2.818-1.627c.173-.1.313-.019.313.18h0a.694.694,0,0,1-.313.543l-2.818,1.626c-.173.1-.313.019-.313-.181Z" transform="translate(-1074.082 -1044.093)" fill="#101110"/>
      </g>
      <path id="Trazado_154081" data-name="Trazado 154081" d="M841.848,1047.294h-14.94L759.4,1008.32l18.46-10.658Z" transform="translate(0 -190.182)" fill="#111" opacity="0.1"/>
      <g id="Grupo_87253" data-name="Grupo 87253" transform="translate(785.21 760.479)">
        <path id="Trazado_154082" data-name="Trazado 154082" d="M848.541,851.854,848.6,874.5l-3.825-2.223-.064-22.644Z" transform="translate(-844.716 -847.408)" fill="#434343"/>
        <path id="Trazado_154083" data-name="Trazado 154083" d="M861.211,849.631l.064,22.644-3.85,2.223-.064-22.645Z" transform="translate(-853.536 -847.408)" fill="#5e5e5e"/>
        <path id="Trazado_154084" data-name="Trazado 154084" d="M848.566,842.283l3.825,2.223-3.85,2.223-3.825-2.223Z" transform="translate(-844.716 -842.283)" fill="#6c6c6c"/>
      </g>
      <path id="Trazado_154085" data-name="Trazado 154085" d="M1128.337,948.549a3.392,3.392,0,0,0,2-2.8l.044,15.617a3.393,3.393,0,0,1-2,2.8l-79.281,45.772-.044-15.617Z" transform="translate(-202.035 -153.973)" fill="#bfbfbf"/>
      <path id="Trazado_154086" data-name="Trazado 154086" d="M821.847,988.983l57.76,33.566a10.615,10.615,0,0,0,9.6,0l.044,15.617a10.613,10.613,0,0,1-9.6,0L821.89,1004.6a3.366,3.366,0,0,1-1.965-2.762l-.044-15.617A3.368,3.368,0,0,0,821.847,988.983Z" transform="translate(-42.184 -182.201)" fill="url(#linear-gradient)"/>
      <path id="Trazado_154087" data-name="Trazado 154087" d="M821.875,868.781l79.28-45.773a10.617,10.617,0,0,1,9.6,0l57.76,33.566c2.631,1.529,2.62,4.031-.031,5.562l-79.281,45.772a10.615,10.615,0,0,1-9.6,0l-57.76-33.566C819.216,872.811,819.227,870.31,821.875,868.781Z" transform="translate(-42.184 -67.56)" fill="#d2d1d4"/>
      <path id="Trazado_154088" data-name="Trazado 154088" d="M834.562,790.565c-2.648,1.529-2.789,4.809-.314,7.287l54.342,54.391c2.478,2.48,6.67,3.254,9.317,1.725l79.281-45.773c2.648-1.528,2.789-4.8.311-7.285l-54.341-54.39c-2.475-2.478-6.667-3.256-9.315-1.727Z" transform="translate(-50.971 -13.257)" fill="#d9d9d9"/>
      <path id="Trazado_154089" data-name="Trazado 154089" d="M1072.892,800.1l-19.639-19.658-23.6,13.722,19.64,19.657Z" transform="translate(-188.504 -38.668)" fill="url(#linear-gradient-2)"/>
      <path id="Trazado_154090" data-name="Trazado 154090" d="M869.551,856.65c-1.9-2.384-1.6-5.28.842-6.689l34.387-19.854a23.065,23.065,0,0,1,2.3.634c.711.294-17.379,45.032-17.379,45.032s-1.351.1-5.066-3.958l-.015-.015C879.559,866.737,870.033,857.137,869.551,856.65Z" transform="translate(-75.966 -73.311)" fill="#2e2c35"/>
      <path id="Trazado_154091" data-name="Trazado 154091" d="M874.559,851.25A1.777,1.777,0,0,0,874.33,854l17.3,21.561a2.566,2.566,0,0,0,3.095.827l34.225-19.76a1.777,1.777,0,0,0,.229-2.745l-17.3-21.562a2.565,2.565,0,0,0-3.1-.826Z" transform="translate(-79.792 -74.109)" fill="#d6def0"/>
      <path id="Trazado_154092" data-name="Trazado 154092" d="M939.231,868.685l-13.286-16.562-28.031,16.184L911.2,884.869Z" transform="translate(-96.612 -88.668)" fill="#2b3815"/>
      <g id="Grupo_87254" data-name="Grupo 87254" transform="translate(777.697 779.828)">
        <path id="Trazado_154093" data-name="Trazado 154093" d="M823.813,906.25a5.109,5.109,0,0,0,1.647,4.766L879.8,965.407a8.883,8.883,0,0,0,5.449,2.475,10.144,10.144,0,0,1-5.644-1.114L821.847,933.2a3.368,3.368,0,0,1-1.966-2.763C819.881,916.232,822.1,909.406,823.813,906.25Z" transform="translate(-819.881 -906.25)" fill="#b2b2b2"/>
      </g>
      <g id="Grupo_87255" data-name="Grupo 87255" transform="translate(888.844 771.532)">
        <path id="Trazado_154094" data-name="Trazado 154094" d="M1187.342,888.449l.342-.9a.518.518,0,0,0,.163.545l3.782,3.786a.865.865,0,0,0,.981.181l4.046-2.336a.43.43,0,0,0,.192-.218l-.342.9a.427.427,0,0,1-.192.218l-4.046,2.337a.867.867,0,0,1-.981-.182l-3.782-3.785A.519.519,0,0,1,1187.342,888.449Z" transform="translate(-1187.317 -884.912)" fill="#8c4c28"/>
        <path id="Trazado_154095" data-name="Trazado 154095" d="M1188.669,881.243l4.046-2.336a.865.865,0,0,1,.981.181l3.782,3.786a.463.463,0,0,1-.033.768l-4.046,2.335a.865.865,0,0,1-.981-.181l-3.782-3.786A.458.458,0,0,1,1188.669,881.243Z" transform="translate(-1188.105 -878.823)" fill="#a85b30"/>
      </g>
      <g id="Grupo_87256" data-name="Grupo 87256" transform="translate(882.693 775.151)">
        <path id="Trazado_154096" data-name="Trazado 154096" d="M1167.006,900.411l.341-.9a.52.52,0,0,0,.164.546l3.782,3.785a.864.864,0,0,0,.98.181l4.046-2.336a.429.429,0,0,0,.193-.218l-.342.9a.43.43,0,0,1-.192.218l-4.047,2.336a.867.867,0,0,1-.981-.181l-3.782-3.786A.52.52,0,0,1,1167.006,900.411Z" transform="translate(-1166.98 -896.876)" fill="#8c4c28"/>
        <path id="Trazado_154097" data-name="Trazado 154097" d="M1168.332,893.207l4.047-2.336a.864.864,0,0,1,.98.181l3.782,3.786a.462.462,0,0,1-.033.767l-4.046,2.336a.864.864,0,0,1-.98-.181l-3.782-3.785A.459.459,0,0,1,1168.332,893.207Z" transform="translate(-1167.768 -890.787)" fill="#a85b30"/>
      </g>
      <g id="Grupo_87257" data-name="Grupo 87257" transform="translate(894.369 777.08)">
        <path id="Trazado_154098" data-name="Trazado 154098" d="M1205.607,906.789l.342-.9a.519.519,0,0,0,.163.546l3.782,3.786a.866.866,0,0,0,.981.181l4.047-2.336a.43.43,0,0,0,.192-.219l-.341.9a.436.436,0,0,1-.193.219l-4.046,2.336a.865.865,0,0,1-.981-.181l-3.782-3.786A.518.518,0,0,1,1205.607,906.789Z" transform="translate(-1205.581 -903.253)" fill="#3f3d52"/>
        <path id="Trazado_154099" data-name="Trazado 154099" d="M1206.933,899.584l4.046-2.336a.866.866,0,0,1,.981.182l3.782,3.786a.463.463,0,0,1-.033.767l-4.047,2.336a.866.866,0,0,1-.981-.181l-3.782-3.786A.458.458,0,0,1,1206.933,899.584Z" transform="translate(-1206.369 -897.164)" fill="#504e68"/>
      </g>
      <g id="Grupo_87258" data-name="Grupo 87258" transform="translate(888.218 780.698)">
        <path id="Trazado_154100" data-name="Trazado 154100" d="M1185.271,918.751l.341-.9a.521.521,0,0,0,.163.547l3.783,3.786a.864.864,0,0,0,.981.181l4.046-2.336a.43.43,0,0,0,.193-.218l-.342.9a.429.429,0,0,1-.192.218l-4.046,2.336a.866.866,0,0,1-.981-.182l-3.782-3.785A.519.519,0,0,1,1185.271,918.751Z" transform="translate(-1185.245 -915.215)" fill="#33695e"/>
        <path id="Trazado_154101" data-name="Trazado 154101" d="M1186.6,911.546l4.047-2.337a.865.865,0,0,1,.981.182l3.782,3.786a.462.462,0,0,1-.033.767l-4.046,2.336a.864.864,0,0,1-.981-.181l-3.783-3.785A.459.459,0,0,1,1186.6,911.546Z" transform="translate(-1186.032 -909.127)" fill="#3f8073"/>
      </g>
      <g id="Grupo_87259" data-name="Grupo 87259" transform="translate(900.053 782.748)">
        <path id="Trazado_154102" data-name="Trazado 154102" d="M1224.4,925.525l.342-.9a.52.52,0,0,0,.163.546l3.782,3.785a.867.867,0,0,0,.981.182l4.047-2.337a.426.426,0,0,0,.193-.218l-.342.9a.428.428,0,0,1-.193.219l-4.046,2.336a.867.867,0,0,1-.981-.181l-3.782-3.786A.519.519,0,0,1,1224.4,925.525Z" transform="translate(-1224.373 -921.99)" fill="#6b4775"/>
        <path id="Trazado_154103" data-name="Trazado 154103" d="M1225.725,918.321l4.046-2.336a.865.865,0,0,1,.98.181l3.783,3.785a.463.463,0,0,1-.033.767l-4.046,2.337a.867.867,0,0,1-.981-.182l-3.782-3.785A.459.459,0,0,1,1225.725,918.321Z" transform="translate(-1225.161 -915.901)" fill="#895b96"/>
      </g>
      <g id="Grupo_87260" data-name="Grupo 87260" transform="translate(893.902 786.366)">
        <path id="Trazado_154104" data-name="Trazado 154104" d="M1204.062,937.488l.342-.9a.519.519,0,0,0,.163.546l3.782,3.786a.865.865,0,0,0,.981.182l4.046-2.336a.428.428,0,0,0,.192-.219l-.342.9a.432.432,0,0,1-.193.219L1208.988,942a.866.866,0,0,1-.981-.182l-3.782-3.786A.518.518,0,0,1,1204.062,937.488Z" transform="translate(-1204.036 -933.952)" fill="#3f3d52"/>
        <path id="Trazado_154105" data-name="Trazado 154105" d="M1205.388,930.283l4.046-2.336a.865.865,0,0,1,.981.181l3.782,3.786a.463.463,0,0,1-.033.767l-4.047,2.336a.865.865,0,0,1-.981-.181l-3.782-3.786A.458.458,0,0,1,1205.388,930.283Z" transform="translate(-1204.824 -927.864)" fill="#504e68"/>
      </g>
      <g id="Grupo_87261" data-name="Grupo 87261" transform="translate(905.578 788.295)">
        <path id="Trazado_154106" data-name="Trazado 154106" d="M1242.662,943.866l.342-.9a.516.516,0,0,0,.164.545l3.782,3.786a.864.864,0,0,0,.981.182l4.046-2.336a.431.431,0,0,0,.192-.218l-.341.9a.432.432,0,0,1-.192.218l-4.046,2.336a.866.866,0,0,1-.981-.182l-3.782-3.785A.518.518,0,0,1,1242.662,943.866Z" transform="translate(-1242.636 -940.33)" fill="#33695e"/>
        <path id="Trazado_154107" data-name="Trazado 154107" d="M1243.989,936.66l4.046-2.336a.865.865,0,0,1,.98.181l3.782,3.786a.463.463,0,0,1-.033.767l-4.046,2.336a.865.865,0,0,1-.981-.182l-3.782-3.786A.458.458,0,0,1,1243.989,936.66Z" transform="translate(-1243.425 -934.241)" fill="#3f8073"/>
      </g>
      <g id="Grupo_87262" data-name="Grupo 87262" transform="translate(899.427 791.914)">
        <path id="Trazado_154108" data-name="Trazado 154108" d="M1222.327,955.829l.342-.9a.52.52,0,0,0,.163.546l3.782,3.786a.865.865,0,0,0,.981.181l4.046-2.336a.432.432,0,0,0,.193-.218l-.342.9a.432.432,0,0,1-.193.219l-4.046,2.336a.868.868,0,0,1-.981-.181l-3.782-3.786A.519.519,0,0,1,1222.327,955.829Z" transform="translate(-1222.301 -952.293)" fill="#8c4c28"/>
        <path id="Trazado_154109" data-name="Trazado 154109" d="M1223.652,948.624l4.047-2.336a.864.864,0,0,1,.98.182l3.782,3.785a.462.462,0,0,1-.033.767l-4.046,2.336a.865.865,0,0,1-.981-.181l-3.782-3.786A.458.458,0,0,1,1223.652,948.624Z" transform="translate(-1223.088 -946.204)" fill="#a85b30"/>
      </g>
      <g id="Grupo_87263" data-name="Grupo 87263" transform="translate(868.418 783.641)">
        <path id="Trazado_154110" data-name="Trazado 154110" d="M1119.815,928.478l.342-.9a.519.519,0,0,0,.163.546l3.782,3.785a.863.863,0,0,0,.98.182l4.047-2.336a.43.43,0,0,0,.192-.218l-.342.9a.426.426,0,0,1-.192.218l-4.047,2.336a.865.865,0,0,1-.981-.182l-3.782-3.786A.519.519,0,0,1,1119.815,928.478Z" transform="translate(-1119.789 -924.942)" fill="#948c6c"/>
        <path id="Trazado_154111" data-name="Trazado 154111" d="M1121.141,921.273l4.046-2.336a.865.865,0,0,1,.981.181l3.782,3.786a.462.462,0,0,1-.032.767l-4.047,2.336a.863.863,0,0,1-.98-.182l-3.782-3.785A.459.459,0,0,1,1121.141,921.273Z" transform="translate(-1120.577 -918.853)" fill="#a9a07b"/>
      </g>
      <g id="Grupo_87264" data-name="Grupo 87264" transform="translate(862.266 787.259)">
        <path id="Trazado_154112" data-name="Trazado 154112" d="M1099.479,940.44l.341-.9a.519.519,0,0,0,.164.546l3.782,3.785a.866.866,0,0,0,.981.182l4.047-2.337a.431.431,0,0,0,.192-.218l-.342.895a.425.425,0,0,1-.193.219l-4.046,2.336a.867.867,0,0,1-.981-.181l-3.782-3.786A.517.517,0,0,1,1099.479,940.44Z" transform="translate(-1099.453 -936.905)" fill="#948c6c"/>
        <path id="Trazado_154113" data-name="Trazado 154113" d="M1100.8,933.236l4.046-2.336a.865.865,0,0,1,.981.182l3.782,3.785a.463.463,0,0,1-.033.767l-4.047,2.337a.866.866,0,0,1-.981-.182L1100.772,934A.459.459,0,0,1,1100.8,933.236Z" transform="translate(-1100.241 -930.816)" fill="#a9a07b"/>
      </g>
      <g id="Grupo_87265" data-name="Grupo 87265" transform="translate(873.942 789.189)">
        <path id="Trazado_154114" data-name="Trazado 154114" d="M1138.08,946.818l.341-.9a.52.52,0,0,0,.163.546l3.782,3.786a.866.866,0,0,0,.981.182l4.046-2.337a.423.423,0,0,0,.193-.218l-.342.9a.428.428,0,0,1-.192.219l-4.046,2.336a.864.864,0,0,1-.981-.182l-3.782-3.786A.517.517,0,0,1,1138.08,946.818Z" transform="translate(-1138.053 -943.282)" fill="#948c6c"/>
        <path id="Trazado_154115" data-name="Trazado 154115" d="M1139.4,939.614l4.047-2.336a.864.864,0,0,1,.98.181l3.782,3.786a.462.462,0,0,1-.033.766l-4.047,2.337a.866.866,0,0,1-.981-.182l-3.782-3.786A.459.459,0,0,1,1139.4,939.614Z" transform="translate(-1138.841 -937.194)" fill="#a9a07b"/>
      </g>
      <g id="Grupo_87266" data-name="Grupo 87266" transform="translate(867.791 792.807)">
        <path id="Trazado_154116" data-name="Trazado 154116" d="M1117.743,958.781l.341-.9a.518.518,0,0,0,.163.546l3.782,3.785a.864.864,0,0,0,.981.181l4.046-2.336a.428.428,0,0,0,.193-.218l-.342.9a.431.431,0,0,1-.192.218l-4.047,2.336a.866.866,0,0,1-.981-.182l-3.782-3.786A.517.517,0,0,1,1117.743,958.781Z" transform="translate(-1117.717 -955.245)" fill="#948c6c"/>
        <path id="Trazado_154117" data-name="Trazado 154117" d="M1119.07,951.575l4.046-2.336a.865.865,0,0,1,.981.181l3.782,3.786a.462.462,0,0,1-.033.767l-4.046,2.336a.864.864,0,0,1-.98-.181l-3.782-3.785A.459.459,0,0,1,1119.07,951.575Z" transform="translate(-1118.506 -949.156)" fill="#a9a07b"/>
      </g>
      <g id="Grupo_87267" data-name="Grupo 87267" transform="translate(879.627 794.856)">
        <path id="Trazado_154118" data-name="Trazado 154118" d="M1156.871,965.555l.342-.9a.52.52,0,0,0,.163.546l3.783,3.785a.864.864,0,0,0,.981.181l4.047-2.336a.43.43,0,0,0,.192-.218l-.342.9a.429.429,0,0,1-.193.218l-4.046,2.336a.867.867,0,0,1-.981-.181l-3.782-3.786A.519.519,0,0,1,1156.871,965.555Z" transform="translate(-1156.845 -962.019)" fill="#948c6c"/>
        <path id="Trazado_154119" data-name="Trazado 154119" d="M1158.2,958.35l4.047-2.336a.865.865,0,0,1,.981.181l3.782,3.785a.463.463,0,0,1-.033.767l-4.047,2.336a.864.864,0,0,1-.981-.181l-3.783-3.785A.459.459,0,0,1,1158.2,958.35Z" transform="translate(-1157.633 -955.93)" fill="#a9a07b"/>
      </g>
      <g id="Grupo_87268" data-name="Grupo 87268" transform="translate(873.475 798.475)">
        <path id="Trazado_154120" data-name="Trazado 154120" d="M1136.535,977.517l.341-.9a.518.518,0,0,0,.163.546l3.782,3.786a.865.865,0,0,0,.981.182l4.046-2.337a.425.425,0,0,0,.192-.218l-.342.9a.431.431,0,0,1-.192.218l-4.047,2.336a.863.863,0,0,1-.98-.182l-3.782-3.785A.517.517,0,0,1,1136.535,977.517Z" transform="translate(-1136.508 -973.981)" fill="#948c6c"/>
        <path id="Trazado_154121" data-name="Trazado 154121" d="M1137.861,970.313l4.046-2.336a.866.866,0,0,1,.981.182l3.782,3.786a.462.462,0,0,1-.032.766l-4.046,2.337a.865.865,0,0,1-.981-.182l-3.782-3.786A.458.458,0,0,1,1137.861,970.313Z" transform="translate(-1137.297 -967.893)" fill="#a9a07b"/>
      </g>
      <g id="Grupo_87269" data-name="Grupo 87269" transform="translate(885.151 800.404)">
        <path id="Trazado_154122" data-name="Trazado 154122" d="M1175.134,983.9l.342-.9a.521.521,0,0,0,.163.547l3.782,3.785a.864.864,0,0,0,.981.182l4.046-2.336a.428.428,0,0,0,.193-.218l-.342.895a.426.426,0,0,1-.193.219l-4.046,2.336a.865.865,0,0,1-.98-.181l-3.782-3.786A.52.52,0,0,1,1175.134,983.9Z" transform="translate(-1175.108 -980.359)" fill="#948c6c"/>
        <path id="Trazado_154123" data-name="Trazado 154123" d="M1176.461,976.69l4.046-2.337a.865.865,0,0,1,.981.182l3.782,3.786a.463.463,0,0,1-.033.767l-4.047,2.336a.864.864,0,0,1-.981-.182l-3.782-3.785A.458.458,0,0,1,1176.461,976.69Z" transform="translate(-1175.896 -974.271)" fill="#a9a07b"/>
      </g>
      <g id="Grupo_87270" data-name="Grupo 87270" transform="translate(879 804.023)">
        <path id="Trazado_154124" data-name="Trazado 154124" d="M1154.8,995.858l.342-.9a.52.52,0,0,0,.163.547l3.782,3.785a.865.865,0,0,0,.981.182l4.046-2.337a.425.425,0,0,0,.193-.217l-.342.9a.424.424,0,0,1-.192.219l-4.046,2.336a.867.867,0,0,1-.981-.182l-3.782-3.786A.52.52,0,0,1,1154.8,995.858Z" transform="translate(-1154.772 -992.322)" fill="#948c6c"/>
        <path id="Trazado_154125" data-name="Trazado 154125" d="M1156.124,988.653l4.047-2.336a.865.865,0,0,1,.981.182l3.782,3.785a.462.462,0,0,1-.033.766l-4.047,2.337a.865.865,0,0,1-.981-.182l-3.782-3.785A.459.459,0,0,1,1156.124,988.653Z" transform="translate(-1155.56 -986.234)" fill="#a9a07b"/>
      </g>
      <g id="Grupo_87271" data-name="Grupo 87271" transform="translate(855.985 790.878)">
        <path id="Trazado_154126" data-name="Trazado 154126" d="M1078.713,952.4l.342-.9a.519.519,0,0,0,.163.546l3.782,3.786a.866.866,0,0,0,.981.182l4.046-2.336a.428.428,0,0,0,.192-.219l-.341.9a.431.431,0,0,1-.192.218l-4.047,2.336a.865.865,0,0,1-.981-.182l-3.782-3.786A.519.519,0,0,1,1078.713,952.4Z" transform="translate(-1078.687 -948.867)" fill="#948c6c"/>
        <path id="Trazado_154127" data-name="Trazado 154127" d="M1080.038,945.2l4.047-2.336a.864.864,0,0,1,.98.182l3.783,3.786a.463.463,0,0,1-.033.767l-4.046,2.336a.866.866,0,0,1-.981-.182L1080,945.966A.459.459,0,0,1,1080.038,945.2Z" transform="translate(-1079.474 -942.779)" fill="#a9a07b"/>
      </g>
      <g id="Grupo_87272" data-name="Grupo 87272" transform="translate(861.509 796.426)">
        <path id="Trazado_154128" data-name="Trazado 154128" d="M1096.977,970.744l.342-.9a.518.518,0,0,0,.164.546l3.782,3.785a.866.866,0,0,0,.981.182l4.047-2.337a.43.43,0,0,0,.192-.218l-.341.9a.428.428,0,0,1-.193.219l-4.046,2.336a.866.866,0,0,1-.981-.181l-3.782-3.786A.518.518,0,0,1,1096.977,970.744Z" transform="translate(-1096.952 -967.208)" fill="#948c6c"/>
        <path id="Trazado_154129" data-name="Trazado 154129" d="M1098.3,963.539l4.046-2.336a.865.865,0,0,1,.981.181l3.782,3.785a.463.463,0,0,1-.033.767l-4.047,2.337a.866.866,0,0,1-.981-.182l-3.782-3.785A.458.458,0,0,1,1098.3,963.539Z" transform="translate(-1097.739 -961.119)" fill="#a9a07b"/>
      </g>
      <g id="Grupo_87273" data-name="Grupo 87273" transform="translate(867.194 802.093)">
        <path id="Trazado_154130" data-name="Trazado 154130" d="M1115.768,989.481l.342-.9a.518.518,0,0,0,.163.546l3.782,3.785a.865.865,0,0,0,.981.182l4.046-2.336a.425.425,0,0,0,.193-.218l-.342.9a.43.43,0,0,1-.193.218l-4.046,2.336a.866.866,0,0,1-.981-.182l-3.782-3.785A.52.52,0,0,1,1115.768,989.481Z" transform="translate(-1115.743 -985.944)" fill="#948c6c"/>
        <path id="Trazado_154131" data-name="Trazado 154131" d="M1117.095,982.275l4.046-2.336a.865.865,0,0,1,.981.181l3.782,3.786a.463.463,0,0,1-.033.767l-4.046,2.336a.865.865,0,0,1-.981-.182l-3.782-3.785A.458.458,0,0,1,1117.095,982.275Z" transform="translate(-1116.531 -979.855)" fill="#a9a07b"/>
      </g>
      <g id="Grupo_87274" data-name="Grupo 87274" transform="translate(872.718 807.641)">
        <path id="Trazado_154132" data-name="Trazado 154132" d="M1134.033,1007.821l.342-.9a.517.517,0,0,0,.164.546l3.782,3.786a.866.866,0,0,0,.981.182l4.046-2.336a.429.429,0,0,0,.193-.218l-.342.9a.437.437,0,0,1-.193.218l-4.047,2.336a.865.865,0,0,1-.981-.182l-3.782-3.786A.517.517,0,0,1,1134.033,1007.821Z" transform="translate(-1134.006 -1004.285)" fill="#948c6c"/>
        <path id="Trazado_154133" data-name="Trazado 154133" d="M1135.359,1000.616l4.046-2.336a.865.865,0,0,1,.981.181l3.782,3.786a.462.462,0,0,1-.032.766l-4.046,2.337a.866.866,0,0,1-.981-.182l-3.782-3.786A.458.458,0,0,1,1135.359,1000.616Z" transform="translate(-1134.794 -998.196)" fill="#a9a07b"/>
      </g>
      <g id="Grupo_87275" data-name="Grupo 87275" transform="translate(844.749 796.961)">
        <path id="Trazado_154134" data-name="Trazado 154134" d="M1041.569,972.513l.342-.9a.52.52,0,0,0,.163.547l3.782,3.786a.865.865,0,0,0,.981.181l4.047-2.336a.434.434,0,0,0,.193-.218l-.342.9a.433.433,0,0,1-.193.218l-4.046,2.336a.864.864,0,0,1-.981-.181l-3.782-3.786A.517.517,0,0,1,1041.569,972.513Z" transform="translate(-1041.543 -968.977)" fill="#bd7b29"/>
        <path id="Trazado_154135" data-name="Trazado 154135" d="M1042.9,965.309l4.047-2.336a.865.865,0,0,1,.981.181l3.782,3.786a.462.462,0,0,1-.033.766l-4.047,2.336a.865.865,0,0,1-.981-.181l-3.782-3.786A.459.459,0,0,1,1042.9,965.309Z" transform="translate(-1042.331 -962.89)" fill="#dd9030"/>
      </g>
      <g id="Grupo_87276" data-name="Grupo 87276" transform="translate(838.597 800.58)">
        <path id="Trazado_154136" data-name="Trazado 154136" d="M1021.233,984.477l.342-.9a.52.52,0,0,0,.164.546l3.782,3.785a.864.864,0,0,0,.981.182l4.047-2.336a.431.431,0,0,0,.192-.218l-.341.9a.433.433,0,0,1-.193.218l-4.047,2.336a.865.865,0,0,1-.981-.182l-3.782-3.785A.518.518,0,0,1,1021.233,984.477Z" transform="translate(-1021.207 -980.94)" fill="#bd7b29"/>
        <path id="Trazado_154137" data-name="Trazado 154137" d="M1022.559,977.271l4.047-2.336a.865.865,0,0,1,.981.182l3.782,3.785a.463.463,0,0,1-.033.768l-4.046,2.336a.864.864,0,0,1-.981-.182l-3.782-3.785A.458.458,0,0,1,1022.559,977.271Z" transform="translate(-1021.995 -974.851)" fill="#dd9030"/>
      </g>
      <g id="Grupo_87277" data-name="Grupo 87277" transform="translate(850.274 802.509)">
        <path id="Trazado_154138" data-name="Trazado 154138" d="M1059.833,990.854l.342-.9a.519.519,0,0,0,.164.547l3.782,3.785a.866.866,0,0,0,.981.182l4.046-2.337a.426.426,0,0,0,.192-.218l-.342.9a.429.429,0,0,1-.192.218l-4.047,2.337a.867.867,0,0,1-.981-.182L1060,991.4A.521.521,0,0,1,1059.833,990.854Z" transform="translate(-1059.808 -987.318)" fill="#bd7b29"/>
        <path id="Trazado_154139" data-name="Trazado 154139" d="M1061.16,983.649l4.046-2.336a.866.866,0,0,1,.981.181l3.781,3.785a.462.462,0,0,1-.033.767l-4.046,2.337a.866.866,0,0,1-.981-.182l-3.782-3.785A.459.459,0,0,1,1061.16,983.649Z" transform="translate(-1060.596 -981.23)" fill="#dd9030"/>
      </g>
      <g id="Grupo_87278" data-name="Grupo 87278" transform="translate(844.122 806.128)">
        <path id="Trazado_154140" data-name="Trazado 154140" d="M1039.5,1002.817l.342-.9a.518.518,0,0,0,.163.546l3.781,3.786a.866.866,0,0,0,.981.182l4.047-2.336a.433.433,0,0,0,.193-.219l-.342.9a.429.429,0,0,1-.193.219l-4.046,2.336a.863.863,0,0,1-.981-.182l-3.782-3.786A.517.517,0,0,1,1039.5,1002.817Z" transform="translate(-1039.472 -999.281)" fill="#bd7b29"/>
        <path id="Trazado_154141" data-name="Trazado 154141" d="M1040.823,995.612l4.047-2.336a.864.864,0,0,1,.98.181l3.783,3.785a.463.463,0,0,1-.033.767l-4.047,2.336a.866.866,0,0,1-.981-.181l-3.781-3.786A.459.459,0,0,1,1040.823,995.612Z" transform="translate(-1040.259 -993.192)" fill="#dd9030"/>
      </g>
      <g id="Grupo_87279" data-name="Grupo 87279" transform="translate(855.958 808.177)">
        <path id="Trazado_154142" data-name="Trazado 154142" d="M1078.625,1009.59l.342-.9a.519.519,0,0,0,.163.547l3.782,3.786a.865.865,0,0,0,.981.181l4.047-2.336a.43.43,0,0,0,.192-.219l-.342.9a.431.431,0,0,1-.193.218l-4.047,2.336a.866.866,0,0,1-.981-.182l-3.782-3.785A.518.518,0,0,1,1078.625,1009.59Z" transform="translate(-1078.599 -1006.054)" fill="#bd7b29"/>
        <path id="Trazado_154143" data-name="Trazado 154143" d="M1079.951,1002.385l4.047-2.337a.866.866,0,0,1,.981.182l3.782,3.786a.463.463,0,0,1-.033.767l-4.047,2.336a.865.865,0,0,1-.981-.182l-3.782-3.785A.458.458,0,0,1,1079.951,1002.385Z" transform="translate(-1079.387 -999.966)" fill="#dd9030"/>
      </g>
      <g id="Grupo_87280" data-name="Grupo 87280" transform="translate(849.806 811.796)">
        <path id="Trazado_154144" data-name="Trazado 154144" d="M1058.289,1021.553l.341-.9a.52.52,0,0,0,.164.546l3.782,3.785a.866.866,0,0,0,.981.181l4.046-2.337a.426.426,0,0,0,.193-.218l-.342.9a.429.429,0,0,1-.193.218l-4.046,2.336a.866.866,0,0,1-.981-.182l-3.782-3.785A.519.519,0,0,1,1058.289,1021.553Z" transform="translate(-1058.263 -1018.018)" fill="#bd7b29"/>
        <path id="Trazado_154145" data-name="Trazado 154145" d="M1059.615,1014.349l4.046-2.337a.865.865,0,0,1,.98.182l3.782,3.785a.462.462,0,0,1-.033.767l-4.046,2.337a.867.867,0,0,1-.981-.181l-3.782-3.786A.458.458,0,0,1,1059.615,1014.349Z" transform="translate(-1059.051 -1011.929)" fill="#dd9030"/>
      </g>
      <g id="Grupo_87281" data-name="Grupo 87281" transform="translate(861.483 813.725)">
        <path id="Trazado_154146" data-name="Trazado 154146" d="M1096.89,1027.93l.342-.9a.52.52,0,0,0,.163.547l3.782,3.786a.865.865,0,0,0,.98.181l4.047-2.336a.426.426,0,0,0,.192-.219l-.341.9a.427.427,0,0,1-.193.218l-4.046,2.336a.864.864,0,0,1-.981-.182l-3.782-3.785A.52.52,0,0,1,1096.89,1027.93Z" transform="translate(-1096.864 -1024.394)" fill="#bd7b29"/>
        <path id="Trazado_154147" data-name="Trazado 154147" d="M1098.215,1020.727l4.047-2.336a.865.865,0,0,1,.981.182l3.782,3.785a.462.462,0,0,1-.033.767l-4.047,2.337a.865.865,0,0,1-.98-.182l-3.782-3.786A.458.458,0,0,1,1098.215,1020.727Z" transform="translate(-1097.651 -1018.308)" fill="#dd9030"/>
      </g>
      <g id="Grupo_87282" data-name="Grupo 87282" transform="translate(855.331 817.343)">
        <path id="Trazado_154148" data-name="Trazado 154148" d="M1076.552,1039.894l.342-.9a.518.518,0,0,0,.163.546l3.782,3.785a.864.864,0,0,0,.981.182l4.046-2.336a.426.426,0,0,0,.193-.218l-.342.9a.426.426,0,0,1-.193.218l-4.047,2.337a.866.866,0,0,1-.98-.182l-3.782-3.786A.518.518,0,0,1,1076.552,1039.894Z" transform="translate(-1076.526 -1036.358)" fill="#bd7b29"/>
        <path id="Trazado_154149" data-name="Trazado 154149" d="M1077.88,1032.689l4.046-2.336a.865.865,0,0,1,.981.182l3.782,3.786a.463.463,0,0,1-.033.767l-4.046,2.336a.864.864,0,0,1-.981-.182l-3.782-3.785A.458.458,0,0,1,1077.88,1032.689Z" transform="translate(-1077.315 -1030.269)" fill="#dd9030"/>
      </g>
      <g id="Grupo_87283" data-name="Grupo 87283" transform="translate(832.315 804.199)">
        <path id="Trazado_154150" data-name="Trazado 154150" d="M1000.466,996.439l.342-.9a.521.521,0,0,0,.163.547l3.782,3.785a.865.865,0,0,0,.981.181l4.046-2.336a.425.425,0,0,0,.193-.218l-.342.895a.424.424,0,0,1-.192.219l-4.046,2.337a.866.866,0,0,1-.981-.182l-3.782-3.786A.52.52,0,0,1,1000.466,996.439Z" transform="translate(-1000.44 -992.904)" fill="#bd7b29"/>
        <path id="Trazado_154151" data-name="Trazado 154151" d="M1001.794,989.235l4.046-2.336a.865.865,0,0,1,.981.181l3.782,3.786a.462.462,0,0,1-.033.767l-4.047,2.336a.865.865,0,0,1-.981-.181L1001.76,990A.459.459,0,0,1,1001.794,989.235Z" transform="translate(-1001.229 -986.815)" fill="#dd9030"/>
      </g>
      <g id="Grupo_87284" data-name="Grupo 87284" transform="translate(837.84 809.746)">
        <path id="Trazado_154152" data-name="Trazado 154152" d="M1018.731,1014.78l.342-.9a.519.519,0,0,0,.163.546l3.782,3.785a.864.864,0,0,0,.981.182l4.047-2.336a.431.431,0,0,0,.192-.218l-.342.9a.432.432,0,0,1-.192.218l-4.047,2.337a.865.865,0,0,1-.98-.182l-3.782-3.785A.519.519,0,0,1,1018.731,1014.78Z" transform="translate(-1018.705 -1011.244)" fill="#bd7b29"/>
        <path id="Trazado_154153" data-name="Trazado 154153" d="M1020.057,1007.575l4.047-2.336a.865.865,0,0,1,.981.182l3.782,3.786a.462.462,0,0,1-.033.767l-4.047,2.336a.865.865,0,0,1-.981-.182l-3.782-3.785A.459.459,0,0,1,1020.057,1007.575Z" transform="translate(-1019.493 -1005.155)" fill="#dd9030"/>
      </g>
      <g id="Grupo_87285" data-name="Grupo 87285" transform="translate(843.525 815.414)">
        <path id="Trazado_154154" data-name="Trazado 154154" d="M1037.523,1033.516l.342-.9a.52.52,0,0,0,.163.546l3.782,3.786a.867.867,0,0,0,.981.181l4.046-2.336a.43.43,0,0,0,.193-.218l-.342.9a.43.43,0,0,1-.193.219l-4.046,2.335a.864.864,0,0,1-.981-.181l-3.782-3.785A.52.52,0,0,1,1037.523,1033.516Z" transform="translate(-1037.497 -1029.98)" fill="#bd7b29"/>
        <path id="Trazado_154155" data-name="Trazado 154155" d="M1038.849,1026.311l4.047-2.336a.865.865,0,0,1,.981.181l3.782,3.785a.463.463,0,0,1-.033.767l-4.046,2.336a.866.866,0,0,1-.981-.181l-3.782-3.786A.459.459,0,0,1,1038.849,1026.311Z" transform="translate(-1038.285 -1023.892)" fill="#dd9030"/>
      </g>
      <g id="Grupo_87286" data-name="Grupo 87286" transform="translate(849.05 820.962)">
        <path id="Trazado_154156" data-name="Trazado 154156" d="M1055.787,1051.857l.342-.9a.518.518,0,0,0,.163.546l3.782,3.786a.865.865,0,0,0,.981.181l4.046-2.336a.427.427,0,0,0,.192-.218l-.342.9a.429.429,0,0,1-.192.218l-4.047,2.336a.864.864,0,0,1-.98-.182l-3.782-3.785A.518.518,0,0,1,1055.787,1051.857Z" transform="translate(-1055.761 -1048.322)" fill="#bd7b29"/>
        <path id="Trazado_154157" data-name="Trazado 154157" d="M1057.113,1044.652l4.047-2.336a.865.865,0,0,1,.98.181l3.782,3.786a.462.462,0,0,1-.033.766l-4.047,2.336a.865.865,0,0,1-.981-.182l-3.782-3.786A.458.458,0,0,1,1057.113,1044.652Z" transform="translate(-1056.549 -1042.232)" fill="#dd9030"/>
      </g>
      <g id="Grupo_87287" data-name="Grupo 87287" transform="translate(826.124 807.896)">
        <path id="Trazado_154158" data-name="Trazado 154158" d="M980,1008.661l.342-.9a.519.519,0,0,0,.163.546l3.782,3.786a.866.866,0,0,0,.981.181l4.047-2.336a.432.432,0,0,0,.193-.219l-.342.9a.43.43,0,0,1-.193.218l-4.046,2.336a.865.865,0,0,1-.981-.182l-3.782-3.786A.518.518,0,0,1,980,1008.661Z" transform="translate(-979.974 -1005.126)" fill="#bd7b29"/>
        <path id="Trazado_154159" data-name="Trazado 154159" d="M981.325,1001.457l4.046-2.336a.864.864,0,0,1,.981.182l3.782,3.785a.463.463,0,0,1-.033.767l-4.047,2.336a.866.866,0,0,1-.981-.181l-3.782-3.786A.458.458,0,0,1,981.325,1001.457Z" transform="translate(-980.761 -999.038)" fill="#dd9030"/>
      </g>
      <g id="Grupo_87288" data-name="Grupo 87288" transform="translate(831.649 813.443)">
        <path id="Trazado_154160" data-name="Trazado 154160" d="M998.263,1027l.342-.9a.518.518,0,0,0,.163.546l3.782,3.786a.867.867,0,0,0,.981.181l4.046-2.336a.429.429,0,0,0,.192-.218l-.342.9a.426.426,0,0,1-.192.218l-4.047,2.336a.865.865,0,0,1-.981-.181l-3.782-3.786A.519.519,0,0,1,998.263,1027Z" transform="translate(-998.237 -1023.466)" fill="#bd7b29"/>
        <path id="Trazado_154161" data-name="Trazado 154161" d="M999.59,1019.8l4.046-2.336a.864.864,0,0,1,.981.182l3.783,3.785a.463.463,0,0,1-.033.767l-4.046,2.336a.867.867,0,0,1-.981-.181l-3.782-3.786A.458.458,0,0,1,999.59,1019.8Z" transform="translate(-999.025 -1017.377)" fill="#dd9030"/>
      </g>
      <g id="Grupo_87289" data-name="Grupo 87289" transform="translate(837.333 819.111)">
        <path id="Trazado_154162" data-name="Trazado 154162" d="M1017.055,1045.738l.342-.9a.518.518,0,0,0,.163.546l3.782,3.786a.864.864,0,0,0,.98.182l4.046-2.336a.429.429,0,0,0,.193-.218l-.342.9a.428.428,0,0,1-.193.218l-4.047,2.337a.865.865,0,0,1-.98-.182l-3.782-3.785A.52.52,0,0,1,1017.055,1045.738Z" transform="translate(-1017.029 -1042.203)" fill="#bd7b29"/>
        <path id="Trazado_154163" data-name="Trazado 154163" d="M1018.382,1038.533l4.046-2.336a.865.865,0,0,1,.981.181l3.782,3.786a.462.462,0,0,1-.033.767l-4.046,2.336a.864.864,0,0,1-.98-.182l-3.782-3.786A.458.458,0,0,1,1018.382,1038.533Z" transform="translate(-1017.817 -1036.114)" fill="#dd9030"/>
      </g>
      <g id="Grupo_87290" data-name="Grupo 87290" transform="translate(842.858 824.659)">
        <path id="Trazado_154164" data-name="Trazado 154164" d="M1035.319,1064.079l.342-.9a.518.518,0,0,0,.164.546l3.782,3.785a.865.865,0,0,0,.981.182l4.047-2.337a.429.429,0,0,0,.192-.218l-.341.9a.429.429,0,0,1-.193.218l-4.046,2.337a.866.866,0,0,1-.981-.182l-3.782-3.786A.518.518,0,0,1,1035.319,1064.079Z" transform="translate(-1035.294 -1060.543)" fill="#bd7b29"/>
        <path id="Trazado_154165" data-name="Trazado 154165" d="M1036.645,1056.874l4.047-2.337a.865.865,0,0,1,.98.182l3.783,3.785a.463.463,0,0,1-.033.767l-4.047,2.336a.864.864,0,0,1-.981-.182l-3.782-3.785A.458.458,0,0,1,1036.645,1056.874Z" transform="translate(-1036.081 -1054.454)" fill="#dd9030"/>
      </g>
      <g id="Grupo_87291" data-name="Grupo 87291" transform="translate(770.879 734.234)">
        <path id="Trazado_154166" data-name="Trazado 154166" d="M903.832,820.277l5.679-3.3-.048,16.967-5.678,3.3Z" transform="translate(-871.586 -798.388)" fill="#b2b2b2"/>
        <path id="Trazado_154167" data-name="Trazado 154167" d="M803.178,755.521l32.2,18.59-5.679,3.3-32.2-18.59Z" transform="translate(-797.452 -755.521)" fill="#bfbfbf"/>
        <path id="Trazado_154168" data-name="Trazado 154168" d="M797.389,766.431l32.2,18.59-.047,16.967-32.2-18.59Z" transform="translate(-797.341 -763.131)" fill="#010103"/>
      </g>
      <path id="Trazado_154169" data-name="Trazado 154169" d="M1127.3,800.1l-4.769-1.69-14.87-17.967Z" transform="translate(-242.912 -38.668)" fill="#484848"/>
      <path id="Trazado_154170" data-name="Trazado 154170" d="M1036.375,738.081a87.206,87.206,0,0,1,18.041,36.141,203.643,203.643,0,0,1,19.211-10.892c-.961-12.1-2.3-24.4-6.8-38.328C1055.024,728.329,1045.484,733.313,1036.375,738.081Z" transform="translate(-193.19 0)" fill="#f7f7f7"/>
      <g id="Grupo_87292" data-name="Grupo 87292" transform="translate(866.137 760.833)">
        <path id="Trazado_154171" data-name="Trazado 154171" d="M1112.251,850.6l.259,1.035,12.58-7.146-.26-1.035Z" transform="translate(-1112.251 -843.455)" fill="#86928b"/>
      </g>
      <g id="Grupo_87293" data-name="Grupo 87293" transform="translate(865.957 758.04)">
        <path id="Trazado_154172" data-name="Trazado 154172" d="M1111.656,841.366l.26,1.035,12.58-7.146-.26-1.035Z" transform="translate(-1111.656 -834.22)" fill="#86928b"/>
      </g>
      <g id="Grupo_87294" data-name="Grupo 87294" transform="translate(865.801 755.274)">
        <path id="Trazado_154173" data-name="Trazado 154173" d="M1111.139,832.223l.26,1.034,12.58-7.147-.259-1.035Z" transform="translate(-1111.139 -825.076)" fill="#86928b"/>
      </g>
      <g id="Grupo_87295" data-name="Grupo 87295" transform="translate(865.801 752.556)">
        <path id="Trazado_154174" data-name="Trazado 154174" d="M1111.139,823.237l.26,1.035,12.58-7.147-.259-1.034Z" transform="translate(-1111.139 -816.09)" fill="#86928b"/>
      </g>
      <g id="Grupo_87296" data-name="Grupo 87296" transform="translate(865.333 750.21)">
        <path id="Trazado_154175" data-name="Trazado 154175" d="M1109.592,815.484l.259,1.035,12.58-7.146-.26-1.035Z" transform="translate(-1109.592 -808.337)" fill="#86928b"/>
      </g>
      <g id="Grupo_87297" data-name="Grupo 87297" transform="translate(821.378 787.569)">
        <rect id="Rectángulo_7686" data-name="Rectángulo 7686" width="36.416" height="0.479" transform="translate(0 18.208) rotate(-29.999)" fill="#b0b0b0"/>
      </g>
      <g id="Grupo_87298" data-name="Grupo 87298" transform="translate(862.146 760.833)">
        <rect id="Rectángulo_7687" data-name="Rectángulo 7687" width="43.252" height="0.479" transform="matrix(0.866, -0.5, 0.5, 0.866, 0, 21.634)" fill="#b0b0b0"/>
      </g>
      <path id="Trazado_154176" data-name="Trazado 154176" d="M881.626,875.149l-2.732,1.578L873.8,874.07l2.979-1.72Z" transform="translate(-79.792 -102.776)" fill="#b0b0b0"/>
      <g id="Grupo_87299" data-name="Grupo 87299" transform="translate(831.39 749.445)">
        <rect id="Rectángulo_7688" data-name="Rectángulo 7688" width="0.479" height="45.354" transform="matrix(0.734, -0.679, 0.679, 0.734, 0, 0.326)" fill="#b0b0b0"/>
      </g>
    </g>
    <rect id="Rectángulo_7689" data-name="Rectángulo 7689" width="295" height="167" transform="translate(285 16183)" fill="none"/>
  </g>
</svg>
