<svg id="Grupo_88116" data-name="Grupo 88116" xmlns="http://www.w3.org/2000/svg" xmlns:xlink="http://www.w3.org/1999/xlink" width="295" height="304" viewBox="0 0 295 304">
  <defs>
    <clipPath id="clip-path">
      <rect id="Rectángulo_8736" data-name="Rectángulo 8736" width="295" height="304" fill="none"/>
    </clipPath>
    <clipPath id="clip-path-3">
      <rect id="Rectángulo_8733" data-name="Rectángulo 8733" width="2.544" height="3.258" transform="translate(160.607 142.895)" fill="none"/>
    </clipPath>
    <clipPath id="clip-path-4">
      <rect id="Rectángulo_8734" data-name="Rectángulo 8734" width="3.259" height="3.258" transform="translate(150.244 141.266)" fill="none"/>
    </clipPath>
  </defs>
  <g id="Grupo_88124" data-name="Grupo 88124" clip-path="url(#clip-path)">
    <g id="Grupo_88123" data-name="Grupo 88123">
      <g id="Grupo_88122" data-name="Grupo 88122" clip-path="url(#clip-path)">
        <path id="Trazado_155355" data-name="Trazado 155355" d="M165.5,277c71.521,0,129.5,6.044,129.5,13.5S237.021,304,165.5,304,36,297.956,36,290.5,93.979,277,165.5,277" fill="#b19dd2"/>
        <rect id="Rectángulo_8565" data-name="Rectángulo 8565" width="181.734" height="269.448" transform="translate(106.647 8.445)" fill="#fff"/>
        <path id="Trazado_155356" data-name="Trazado 155356" d="M288.38,8.446H106.647q-3.311-4.146-6.619-8.3H295q-3.307,4.146-6.62,8.3" fill="#fff"/>
        <rect id="Rectángulo_8566" data-name="Rectángulo 8566" width="12.008" height="10.289" transform="translate(111.032 277.221)" fill="#fff"/>
        <rect id="Rectángulo_8567" data-name="Rectángulo 8567" width="12.008" height="10.289" transform="translate(271.393 277.221)" fill="#fff"/>
        <path id="Trazado_155357" data-name="Trazado 155357" d="M283,271.776H112.024a.4.4,0,0,1-.414-.381V15.685a.4.4,0,0,1,.414-.381H283a.4.4,0,0,1,.417.381v255.71a.4.4,0,0,1-.417.381m-170.563-.759H282.59V16.063H112.442Z" fill="#210b04"/>
        <path id="Trazado_155358" data-name="Trazado 155358" d="M286.515,8.824H109.889a.381.381,0,0,1-.068-.759.386.386,0,0,1,.068,0H286.515a.381.381,0,0,1,.068.759.386.386,0,0,1-.068,0" fill="#210b04"/>
        <path id="Trazado_155359" data-name="Trazado 155359" d="M122.589,277.494H111.3a.381.381,0,0,1-.068-.759.389.389,0,0,1,.068,0h11.288a.381.381,0,1,1,0,.759Z" fill="#210b04"/>
        <path id="Trazado_155360" data-name="Trazado 155360" d="M283.4,277.53H271.395a.381.381,0,0,1-.068-.759.389.389,0,0,1,.068,0H283.4a.381.381,0,1,1,0,.759" fill="#210b04"/>
        <path id="Trazado_155361" data-name="Trazado 155361" d="M283,59.171H112.024a.381.381,0,0,1-.068-.759.386.386,0,0,1,.068,0H283a.381.381,0,0,1,.068.759.386.386,0,0,1-.068,0" fill="#210b04"/>
        <path id="Trazado_155362" data-name="Trazado 155362" d="M283,63.6H112.024a.381.381,0,0,1-.068-.759.386.386,0,0,1,.068,0H283a.381.381,0,0,1,.068.759.386.386,0,0,1-.068,0" fill="#210b04"/>
        <path id="Trazado_155363" data-name="Trazado 155363" d="M283,112.576H112.024a.381.381,0,0,1-.068-.759.386.386,0,0,1,.068,0H283a.381.381,0,0,1,.068.759.385.385,0,0,1-.068,0" fill="#210b04"/>
        <path id="Trazado_155364" data-name="Trazado 155364" d="M283,117.009H112.024a.38.38,0,0,1-.078-.756.339.339,0,0,1,.078,0H283a.38.38,0,0,1,.078.756.339.339,0,0,1-.078,0" fill="#210b04"/>
        <path id="Trazado_155365" data-name="Trazado 155365" d="M283,165.981H112.024a.381.381,0,0,1-.068-.759.386.386,0,0,1,.068,0H283a.381.381,0,0,1,.068.759.386.386,0,0,1-.068,0" fill="#210b04"/>
        <path id="Trazado_155366" data-name="Trazado 155366" d="M283,170.414H112.024a.381.381,0,0,1-.068-.759.386.386,0,0,1,.068,0H283a.381.381,0,0,1,.068.759.386.386,0,0,1-.068,0" fill="#210b04"/>
        <path id="Trazado_155367" data-name="Trazado 155367" d="M283,220.641H112.024a.381.381,0,0,1-.068-.759.386.386,0,0,1,.068,0H283a.381.381,0,0,1,.068.759.386.386,0,0,1-.068,0" fill="#210b04"/>
        <path id="Trazado_155368" data-name="Trazado 155368" d="M283,225.074H112.024a.38.38,0,0,1-.078-.756.34.34,0,0,1,.078,0H283a.38.38,0,0,1,.078.756.34.34,0,0,1-.078,0" fill="#210b04"/>
        <rect id="Rectángulo_8568" data-name="Rectángulo 8568" width="8.603" height="40.455" transform="translate(113.742 17.699)" fill="#edca96"/>
        <rect id="Rectángulo_8569" data-name="Rectángulo 8569" width="8.603" height="0.909" transform="translate(113.742 20.368)" fill="#edca96"/>
        <rect id="Rectángulo_8570" data-name="Rectángulo 8570" width="8.603" height="1.688" transform="translate(113.742 22.186)" fill="#edca96"/>
        <rect id="Rectángulo_8571" data-name="Rectángulo 8571" width="8.603" height="40.455" transform="translate(123.241 17.699)" fill="#edca96"/>
        <rect id="Rectángulo_8572" data-name="Rectángulo 8572" width="8.603" height="0.909" transform="translate(123.241 20.368)" fill="#edca96"/>
        <rect id="Rectángulo_8573" data-name="Rectángulo 8573" width="8.603" height="1.688" transform="translate(123.241 22.186)" fill="#edca96"/>
        <rect id="Rectángulo_8574" data-name="Rectángulo 8574" width="8.603" height="40.455" transform="translate(132.65 17.699)" fill="#edca96"/>
        <rect id="Rectángulo_8575" data-name="Rectángulo 8575" width="8.603" height="0.909" transform="translate(132.65 20.368)" fill="#edca96"/>
        <rect id="Rectángulo_8576" data-name="Rectángulo 8576" width="8.603" height="1.688" transform="translate(132.65 22.186)" fill="#edca96"/>
        <rect id="Rectángulo_8577" data-name="Rectángulo 8577" width="8.603" height="40.455" transform="translate(141.858 17.699)" fill="#edca96"/>
        <rect id="Rectángulo_8578" data-name="Rectángulo 8578" width="8.603" height="0.909" transform="translate(141.858 20.368)" fill="#edca96"/>
        <rect id="Rectángulo_8579" data-name="Rectángulo 8579" width="8.603" height="1.688" transform="translate(141.858 22.186)" fill="#edca96"/>
        <rect id="Rectángulo_8580" data-name="Rectángulo 8580" width="8.603" height="40.455" transform="translate(151.02 17.699)" fill="#db8200"/>
        <rect id="Rectángulo_8581" data-name="Rectángulo 8581" width="8.603" height="0.909" transform="translate(151.02 20.368)" fill="#edca96"/>
        <rect id="Rectángulo_8582" data-name="Rectángulo 8582" width="8.603" height="1.688" transform="translate(151.02 22.186)" fill="#edca96"/>
        <rect id="Rectángulo_8583" data-name="Rectángulo 8583" width="8.603" height="40.455" transform="translate(160.519 17.699)" fill="#edca96"/>
        <rect id="Rectángulo_8584" data-name="Rectángulo 8584" width="8.603" height="0.909" transform="translate(160.519 20.368)" fill="#edca96"/>
        <rect id="Rectángulo_8585" data-name="Rectángulo 8585" width="8.603" height="1.688" transform="translate(160.519 22.186)" fill="#edca96"/>
        <rect id="Rectángulo_8586" data-name="Rectángulo 8586" width="8.603" height="40.455" transform="translate(169.928 17.699)" fill="#edca96"/>
        <rect id="Rectángulo_8587" data-name="Rectángulo 8587" width="8.603" height="0.909" transform="translate(169.928 20.368)" fill="#edca96"/>
        <rect id="Rectángulo_8588" data-name="Rectángulo 8588" width="8.603" height="1.688" transform="translate(169.928 22.186)" fill="#edca96"/>
        <rect id="Rectángulo_8589" data-name="Rectángulo 8589" width="8.603" height="40.455" transform="translate(179.136 17.699)" fill="#edca96"/>
        <rect id="Rectángulo_8590" data-name="Rectángulo 8590" width="8.603" height="0.909" transform="translate(179.136 20.368)" fill="#edca96"/>
        <rect id="Rectángulo_8591" data-name="Rectángulo 8591" width="8.603" height="1.688" transform="translate(179.136 22.186)" fill="#edca96"/>
        <rect id="Rectángulo_8592" data-name="Rectángulo 8592" width="8.603" height="37.785" transform="translate(189.145 20.578)" fill="#edca96"/>
        <rect id="Rectángulo_8593" data-name="Rectángulo 8593" width="8.603" height="0.849" transform="translate(189.145 23.072)" fill="#edca96"/>
        <rect id="Rectángulo_8594" data-name="Rectángulo 8594" width="8.603" height="1.576" transform="translate(189.145 24.769)" fill="#edca96"/>
        <rect id="Rectángulo_8595" data-name="Rectángulo 8595" width="8.603" height="37.785" transform="translate(198.644 20.578)" fill="#db8200"/>
        <rect id="Rectángulo_8596" data-name="Rectángulo 8596" width="8.603" height="0.849" transform="translate(198.644 23.072)" fill="#edca96"/>
        <rect id="Rectángulo_8597" data-name="Rectángulo 8597" width="8.603" height="1.576" transform="translate(198.644 24.769)" fill="#edca96"/>
        <rect id="Rectángulo_8598" data-name="Rectángulo 8598" width="8.603" height="37.785" transform="translate(208.053 20.578)" fill="#edca96"/>
        <rect id="Rectángulo_8599" data-name="Rectángulo 8599" width="8.603" height="0.849" transform="translate(208.053 23.072)" fill="#edca96"/>
        <rect id="Rectángulo_8600" data-name="Rectángulo 8600" width="8.603" height="1.576" transform="translate(208.053 24.769)" fill="#edca96"/>
        <rect id="Rectángulo_8601" data-name="Rectángulo 8601" width="8.603" height="37.785" transform="translate(217.261 20.578)" fill="#edca96"/>
        <rect id="Rectángulo_8602" data-name="Rectángulo 8602" width="8.603" height="0.849" transform="translate(217.261 23.072)" fill="#edca96"/>
        <rect id="Rectángulo_8603" data-name="Rectángulo 8603" width="8.603" height="1.576" transform="translate(217.261 24.769)" fill="#edca96"/>
        <rect id="Rectángulo_8604" data-name="Rectángulo 8604" width="8.603" height="42.018" transform="translate(114.144 177.783)" fill="#edca96"/>
        <rect id="Rectángulo_8605" data-name="Rectángulo 8605" width="8.603" height="0.944" transform="translate(114.144 180.556)" fill="#edca96"/>
        <rect id="Rectángulo_8606" data-name="Rectángulo 8606" width="8.603" height="1.753" transform="translate(114.144 182.443)" fill="#edca96"/>
        <rect id="Rectángulo_8607" data-name="Rectángulo 8607" width="8.603" height="42.018" transform="translate(123.643 177.783)" fill="#edca96"/>
        <rect id="Rectángulo_8608" data-name="Rectángulo 8608" width="8.603" height="0.944" transform="translate(123.643 180.556)" fill="#edca96"/>
        <rect id="Rectángulo_8609" data-name="Rectángulo 8609" width="8.603" height="1.753" transform="translate(123.643 182.443)" fill="#edca96"/>
        <rect id="Rectángulo_8610" data-name="Rectángulo 8610" width="8.603" height="42.018" transform="translate(133.052 177.783)" fill="#edca96"/>
        <rect id="Rectángulo_8611" data-name="Rectángulo 8611" width="8.603" height="0.944" transform="translate(133.052 180.556)" fill="#edca96"/>
        <rect id="Rectángulo_8612" data-name="Rectángulo 8612" width="8.603" height="1.753" transform="translate(133.052 182.443)" fill="#edca96"/>
        <rect id="Rectángulo_8613" data-name="Rectángulo 8613" width="8.603" height="42.018" transform="translate(142.26 177.783)" fill="#edca96"/>
        <rect id="Rectángulo_8614" data-name="Rectángulo 8614" width="8.603" height="0.944" transform="translate(142.26 180.556)" fill="#edca96"/>
        <rect id="Rectángulo_8615" data-name="Rectángulo 8615" width="8.603" height="1.753" transform="translate(142.26 182.443)" fill="#edca96"/>
        <rect id="Rectángulo_8616" data-name="Rectángulo 8616" width="8.603" height="42.018" transform="translate(152.51 177.783)" fill="#edca96"/>
        <rect id="Rectángulo_8617" data-name="Rectángulo 8617" width="8.603" height="0.944" transform="translate(152.51 180.556)" fill="#edca96"/>
        <rect id="Rectángulo_8618" data-name="Rectángulo 8618" width="8.603" height="1.753" transform="translate(152.51 182.443)" fill="#edca96"/>
        <rect id="Rectángulo_8619" data-name="Rectángulo 8619" width="8.603" height="42.018" transform="translate(162.009 177.783)" fill="#edca96"/>
        <rect id="Rectángulo_8620" data-name="Rectángulo 8620" width="8.603" height="0.944" transform="translate(162.009 180.556)" fill="#edca96"/>
        <rect id="Rectángulo_8621" data-name="Rectángulo 8621" width="8.603" height="1.753" transform="translate(162.009 182.443)" fill="#edca96"/>
        <rect id="Rectángulo_8622" data-name="Rectángulo 8622" width="8.603" height="42.018" transform="translate(171.418 177.783)" fill="#edca96"/>
        <rect id="Rectángulo_8623" data-name="Rectángulo 8623" width="8.603" height="0.944" transform="translate(171.418 180.556)" fill="#edca96"/>
        <rect id="Rectángulo_8624" data-name="Rectángulo 8624" width="8.603" height="1.753" transform="translate(171.418 182.443)" fill="#edca96"/>
        <rect id="Rectángulo_8625" data-name="Rectángulo 8625" width="8.603" height="42.018" transform="translate(180.626 177.783)" fill="#edca96"/>
        <rect id="Rectángulo_8626" data-name="Rectángulo 8626" width="8.603" height="0.944" transform="translate(180.626 180.556)" fill="#edca96"/>
        <rect id="Rectángulo_8627" data-name="Rectángulo 8627" width="8.603" height="1.753" transform="translate(180.626 182.443)" fill="#edca96"/>
        <rect id="Rectángulo_8628" data-name="Rectángulo 8628" width="8.603" height="42.018" transform="translate(190.425 177.783)" fill="#edca96"/>
        <rect id="Rectángulo_8629" data-name="Rectángulo 8629" width="8.603" height="0.944" transform="translate(190.425 180.556)" fill="#edca96"/>
        <rect id="Rectángulo_8630" data-name="Rectángulo 8630" width="8.603" height="1.753" transform="translate(190.425 182.443)" fill="#edca96"/>
        <rect id="Rectángulo_8631" data-name="Rectángulo 8631" width="8.603" height="42.018" transform="translate(199.924 177.783)" fill="#edca96"/>
        <rect id="Rectángulo_8632" data-name="Rectángulo 8632" width="8.603" height="0.944" transform="translate(199.924 180.556)" fill="#edca96"/>
        <rect id="Rectángulo_8633" data-name="Rectángulo 8633" width="8.603" height="1.753" transform="translate(199.924 182.443)" fill="#edca96"/>
        <rect id="Rectángulo_8634" data-name="Rectángulo 8634" width="8.603" height="42.018" transform="translate(209.333 177.783)" fill="#edca96"/>
        <rect id="Rectángulo_8635" data-name="Rectángulo 8635" width="8.603" height="0.944" transform="translate(209.333 180.556)" fill="#edca96"/>
        <rect id="Rectángulo_8636" data-name="Rectángulo 8636" width="8.603" height="1.753" transform="translate(209.333 182.443)" fill="#edca96"/>
        <rect id="Rectángulo_8637" data-name="Rectángulo 8637" width="8.603" height="42.018" transform="translate(218.541 177.783)" fill="#edca96"/>
        <rect id="Rectángulo_8638" data-name="Rectángulo 8638" width="8.603" height="0.944" transform="translate(218.541 180.556)" fill="#edca96"/>
        <rect id="Rectángulo_8639" data-name="Rectángulo 8639" width="8.603" height="1.753" transform="translate(218.541 182.443)" fill="#edca96"/>
        <rect id="Rectángulo_8640" data-name="Rectángulo 8640" width="8.603" height="42.018" transform="translate(228.792 177.783)" fill="#edca96"/>
        <rect id="Rectángulo_8641" data-name="Rectángulo 8641" width="8.603" height="0.944" transform="translate(228.792 180.556)" fill="#edca96"/>
        <rect id="Rectángulo_8642" data-name="Rectángulo 8642" width="8.603" height="1.753" transform="translate(228.792 182.443)" fill="#edca96"/>
        <rect id="Rectángulo_8643" data-name="Rectángulo 8643" width="8.603" height="42.018" transform="translate(238.291 177.783)" fill="#db8200"/>
        <rect id="Rectángulo_8644" data-name="Rectángulo 8644" width="8.603" height="0.944" transform="translate(238.291 180.556)" fill="#edca96"/>
        <rect id="Rectángulo_8645" data-name="Rectángulo 8645" width="8.603" height="1.753" transform="translate(238.291 182.443)" fill="#edca96"/>
        <rect id="Rectángulo_8646" data-name="Rectángulo 8646" width="8.603" height="42.018" transform="translate(247.7 177.783)" fill="#edca96"/>
        <rect id="Rectángulo_8647" data-name="Rectángulo 8647" width="8.603" height="0.944" transform="translate(247.7 180.556)" fill="#edca96"/>
        <rect id="Rectángulo_8648" data-name="Rectángulo 8648" width="8.603" height="1.753" transform="translate(247.7 182.443)" fill="#edca96"/>
        <rect id="Rectángulo_8649" data-name="Rectángulo 8649" width="8.603" height="42.018" transform="translate(256.908 177.783)" fill="#edca96"/>
        <rect id="Rectángulo_8650" data-name="Rectángulo 8650" width="8.603" height="0.944" transform="translate(256.908 180.556)" fill="#edca96"/>
        <rect id="Rectángulo_8651" data-name="Rectángulo 8651" width="8.603" height="1.753" transform="translate(256.908 182.443)" fill="#edca96"/>
        <rect id="Rectángulo_8652" data-name="Rectángulo 8652" width="8.603" height="42.263" transform="translate(114.29 69.259)" fill="#edca96"/>
        <rect id="Rectángulo_8653" data-name="Rectángulo 8653" width="8.603" height="38.525" transform="translate(124.484 72.997)" fill="#edca96"/>
        <rect id="Rectángulo_8654" data-name="Rectángulo 8654" width="8.603" height="41.447" transform="translate(132.65 70.076)" fill="#edca96"/>
        <rect id="Rectángulo_8655" data-name="Rectángulo 8655" width="5.309" height="41.447" transform="translate(141.857 70.076)" fill="#edca96"/>
        <rect id="Rectángulo_8656" data-name="Rectángulo 8656" width="5.31" height="31.974" transform="translate(148.365 79.548)" fill="#edca96"/>
        <rect id="Rectángulo_8657" data-name="Rectángulo 8657" width="5.309" height="37.037" transform="translate(153.675 74.485)" fill="#edca96"/>
        <rect id="Rectángulo_8658" data-name="Rectángulo 8658" width="9.611" height="39.474" transform="translate(159.948 72.048)" fill="#edca96"/>
        <rect id="Rectángulo_8659" data-name="Rectángulo 8659" width="9.611" height="45.53" transform="translate(169.929 65.993)" fill="#db8200"/>
        <rect id="Rectángulo_8660" data-name="Rectángulo 8660" width="6.878" height="39.474" transform="translate(181.298 72.048)" fill="#edca96"/>
        <rect id="Rectángulo_8661" data-name="Rectángulo 8661" width="6.878" height="42.917" transform="translate(189.145 68.606)" fill="#edca96"/>
        <rect id="Rectángulo_8662" data-name="Rectángulo 8662" width="6.878" height="37.037" transform="translate(197.514 74.485)" fill="#edca96"/>
        <rect id="Rectángulo_8663" data-name="Rectángulo 8663" width="4.968" height="37.037" transform="translate(206.267 74.485)" fill="#db8200"/>
        <rect id="Rectángulo_8664" data-name="Rectángulo 8664" width="4.968" height="39.474" transform="translate(213.256 72.048)" fill="#edca96"/>
        <rect id="Rectángulo_8665" data-name="Rectángulo 8665" width="10.174" height="33.444" transform="translate(219.078 78.078)" fill="#edca96"/>
        <rect id="Rectángulo_8666" data-name="Rectángulo 8666" width="9.611" height="39.475" transform="translate(113.785 231.433)" fill="#edca96"/>
        <rect id="Rectángulo_8667" data-name="Rectángulo 8667" width="9.611" height="45.53" transform="translate(123.766 225.378)" fill="#edca96"/>
        <rect id="Rectángulo_8668" data-name="Rectángulo 8668" width="6.878" height="39.475" transform="translate(135.135 231.433)" fill="#edca96"/>
        <rect id="Rectángulo_8669" data-name="Rectángulo 8669" width="6.878" height="42.917" transform="translate(142.982 227.991)" fill="#edca96"/>
        <rect id="Rectángulo_8670" data-name="Rectángulo 8670" width="6.878" height="37.037" transform="translate(151.351 233.87)" fill="#edca96"/>
        <rect id="Rectángulo_8671" data-name="Rectángulo 8671" width="4.968" height="37.037" transform="translate(160.104 233.87)" fill="#edca96"/>
        <rect id="Rectángulo_8672" data-name="Rectángulo 8672" width="4.968" height="39.475" transform="translate(167.093 231.433)" fill="#edca96"/>
        <rect id="Rectángulo_8673" data-name="Rectángulo 8673" width="10.174" height="33.444" transform="translate(172.915 237.463)" fill="#edca96"/>
        <rect id="Rectángulo_8674" data-name="Rectángulo 8674" width="9.611" height="39.475" transform="translate(183.889 231.433)" fill="#edca96"/>
        <rect id="Rectángulo_8675" data-name="Rectángulo 8675" width="9.611" height="45.53" transform="translate(193.87 225.378)" fill="#edca96"/>
        <rect id="Rectángulo_8676" data-name="Rectángulo 8676" width="6.878" height="39.475" transform="translate(205.239 231.433)" fill="#edca96"/>
        <rect id="Rectángulo_8677" data-name="Rectángulo 8677" width="6.878" height="42.917" transform="translate(213.086 227.991)" fill="#edca96"/>
        <rect id="Rectángulo_8678" data-name="Rectángulo 8678" width="6.878" height="37.037" transform="translate(221.455 233.87)" fill="#db8200"/>
        <rect id="Rectángulo_8679" data-name="Rectángulo 8679" width="4.968" height="37.037" transform="translate(230.208 233.87)" fill="#db8200"/>
        <rect id="Rectángulo_8680" data-name="Rectángulo 8680" width="4.968" height="39.475" transform="translate(237.197 231.433)" fill="#db8200"/>
        <rect id="Rectángulo_8681" data-name="Rectángulo 8681" width="10.174" height="33.444" transform="translate(243.019 237.463)" fill="#edca96"/>
        <rect id="Rectángulo_8682" data-name="Rectángulo 8682" width="8.722" height="38.999" transform="translate(229.939 72.523)" fill="#db8200"/>
        <rect id="Rectángulo_8683" data-name="Rectángulo 8683" width="5.755" height="38.999" transform="translate(240.164 72.523)" fill="#db8200"/>
        <rect id="Rectángulo_8684" data-name="Rectángulo 8684" width="5.755" height="41.283" transform="translate(248.05 70.239)" fill="#edca96"/>
        <rect id="Rectángulo_8685" data-name="Rectángulo 8685" width="5.755" height="43.896" transform="translate(255.577 67.626)" fill="#edca96"/>
        <rect id="Rectángulo_8686" data-name="Rectángulo 8686" width="6.246" height="39" transform="translate(255.025 231.908)" fill="#edca96"/>
        <rect id="Rectángulo_8687" data-name="Rectángulo 8687" width="4.122" height="39" transform="translate(262.348 231.908)" fill="#edca96"/>
        <rect id="Rectángulo_8688" data-name="Rectángulo 8688" width="4.122" height="41.283" transform="translate(267.995 229.624)" fill="#db8200"/>
        <rect id="Rectángulo_8689" data-name="Rectángulo 8689" width="4.122" height="43.896" transform="translate(273.386 227.011)" fill="#edca96"/>
        <rect id="Rectángulo_8690" data-name="Rectángulo 8690" width="12.448" height="43.896" transform="translate(262.506 67.626)" fill="#db8200"/>
        <rect id="Rectángulo_8691" data-name="Rectángulo 8691" width="3.372" height="43.896" transform="translate(276.78 67.626)" fill="#edca96"/>
        <rect id="Rectángulo_8692" data-name="Rectángulo 8692" width="8.603" height="36.206" transform="translate(271.549 128.543)" fill="#edca96"/>
        <rect id="Rectángulo_8693" data-name="Rectángulo 8693" width="8.603" height="38.525" transform="translate(261.355 126.224)" fill="#db8200"/>
        <rect id="Rectángulo_8694" data-name="Rectángulo 8694" width="8.603" height="41.447" transform="translate(253.189 123.302)" fill="#db8200"/>
        <rect id="Rectángulo_8695" data-name="Rectángulo 8695" width="5.309" height="41.447" transform="translate(247.276 123.302)" fill="#edca96"/>
        <rect id="Rectángulo_8696" data-name="Rectángulo 8696" width="5.31" height="31.974" transform="translate(240.767 132.776)" fill="#edca96"/>
        <rect id="Rectángulo_8697" data-name="Rectángulo 8697" width="5.309" height="37.037" transform="translate(235.458 127.713)" fill="#edca96"/>
        <rect id="Rectángulo_8698" data-name="Rectángulo 8698" width="9.611" height="39.475" transform="translate(224.883 125.275)" fill="#edca96"/>
        <rect id="Rectángulo_8699" data-name="Rectángulo 8699" width="9.611" height="45.53" transform="translate(214.902 119.22)" fill="#edca96"/>
        <rect id="Rectángulo_8700" data-name="Rectángulo 8700" width="6.878" height="39.475" transform="translate(206.266 125.275)" fill="#edca96"/>
        <rect id="Rectángulo_8701" data-name="Rectángulo 8701" width="6.878" height="42.917" transform="translate(198.419 121.832)" fill="#edca96"/>
        <rect id="Rectángulo_8702" data-name="Rectángulo 8702" width="6.878" height="37.037" transform="translate(190.05 127.713)" fill="#edca96"/>
        <rect id="Rectángulo_8703" data-name="Rectángulo 8703" width="4.968" height="37.037" transform="translate(183.208 127.713)" fill="#edca96"/>
        <rect id="Rectángulo_8704" data-name="Rectángulo 8704" width="4.968" height="39.475" transform="translate(176.218 125.275)" fill="#edca96"/>
        <rect id="Rectángulo_8705" data-name="Rectángulo 8705" width="10.174" height="33.444" transform="translate(165.19 131.306)" fill="#edca96"/>
        <rect id="Rectángulo_8706" data-name="Rectángulo 8706" width="8.722" height="39" transform="translate(155.781 125.749)" fill="#edca96"/>
        <rect id="Rectángulo_8707" data-name="Rectángulo 8707" width="5.755" height="39" transform="translate(148.523 125.749)" fill="#edca96"/>
        <rect id="Rectángulo_8708" data-name="Rectángulo 8708" width="5.755" height="41.283" transform="translate(140.637 123.466)" fill="#edca96"/>
        <rect id="Rectángulo_8709" data-name="Rectángulo 8709" width="5.755" height="43.897" transform="translate(133.109 120.852)" fill="#edca96"/>
        <rect id="Rectángulo_8710" data-name="Rectángulo 8710" width="5.455" height="43.897" transform="translate(119.488 120.852)" fill="#edca96"/>
        <rect id="Rectángulo_8711" data-name="Rectángulo 8711" width="5.455" height="43.897" transform="translate(126.299 120.852)" fill="#edca96"/>
        <rect id="Rectángulo_8712" data-name="Rectángulo 8712" width="3.372" height="41.188" transform="translate(114.29 123.562)" fill="#edca96"/>
        <rect id="Rectángulo_8713" data-name="Rectángulo 8713" width="8.603" height="0.949" transform="translate(114.29 72.048)" fill="#edca96"/>
        <rect id="Rectángulo_8714" data-name="Rectángulo 8714" width="8.603" height="37.785" transform="translate(226.423 20.578)" fill="#edca96"/>
        <rect id="Rectángulo_8715" data-name="Rectángulo 8715" width="8.603" height="0.849" transform="translate(226.423 23.072)" fill="#edca96"/>
        <rect id="Rectángulo_8716" data-name="Rectángulo 8716" width="8.603" height="1.576" transform="translate(226.423 24.769)" fill="#edca96"/>
        <rect id="Rectángulo_8717" data-name="Rectángulo 8717" width="8.603" height="37.785" transform="translate(235.922 20.578)" fill="#db8200"/>
        <rect id="Rectángulo_8718" data-name="Rectángulo 8718" width="8.603" height="0.849" transform="translate(235.922 23.072)" fill="#edca96"/>
        <rect id="Rectángulo_8719" data-name="Rectángulo 8719" width="8.603" height="1.576" transform="translate(235.922 24.769)" fill="#edca96"/>
        <rect id="Rectángulo_8720" data-name="Rectángulo 8720" width="8.603" height="37.785" transform="translate(245.332 20.578)" fill="#edca96"/>
        <rect id="Rectángulo_8721" data-name="Rectángulo 8721" width="8.603" height="0.849" transform="translate(245.332 23.072)" fill="#edca96"/>
        <rect id="Rectángulo_8722" data-name="Rectángulo 8722" width="8.603" height="1.576" transform="translate(245.332 24.769)" fill="#edca96"/>
        <rect id="Rectángulo_8723" data-name="Rectángulo 8723" width="8.603" height="37.785" transform="translate(254.539 20.578)" fill="#edca96"/>
        <rect id="Rectángulo_8724" data-name="Rectángulo 8724" width="8.603" height="0.849" transform="translate(254.539 23.072)" fill="#edca96"/>
        <rect id="Rectángulo_8725" data-name="Rectángulo 8725" width="8.603" height="1.576" transform="translate(254.539 24.769)" fill="#edca96"/>
        <rect id="Rectángulo_8726" data-name="Rectángulo 8726" width="8.603" height="37.785" transform="translate(263.96 20.578)" fill="#edca96"/>
        <rect id="Rectángulo_8727" data-name="Rectángulo 8727" width="8.603" height="0.849" transform="translate(263.96 23.072)" fill="#edca96"/>
        <rect id="Rectángulo_8728" data-name="Rectángulo 8728" width="8.603" height="1.576" transform="translate(263.96 24.769)" fill="#edca96"/>
        <rect id="Rectángulo_8729" data-name="Rectángulo 8729" width="8.603" height="37.785" transform="translate(273.168 20.578)" fill="#edca96"/>
        <rect id="Rectángulo_8730" data-name="Rectángulo 8730" width="8.603" height="0.849" transform="translate(273.168 23.072)" fill="#edca96"/>
        <rect id="Rectángulo_8731" data-name="Rectángulo 8731" width="8.603" height="1.576" transform="translate(273.168 24.769)" fill="#edca96"/>
        <path id="Trazado_155369" data-name="Trazado 155369" d="M169.245,187.052c.756.854,1.578,1.775,2.432,2.7l.231.229c3.452,3.749,8.186,8.614,14,14.17l8.087-7.563c-3.649-5.16-7.265-10.355-10.914-15.549-1.775-2.563-3.584-5.1-5.359-7.659-7.068-4.109-14.168-8.186-21.236-12.295a9.611,9.611,0,0,0-.822,1.938c-1.146,4.14.6,9.662,13.581,24.029" fill="#f97f55"/>
        <path id="Trazado_155370" data-name="Trazado 155370" d="M168.26,182.089c.328,1.677.657,3.319.985,4.963.756.854,1.578,1.775,2.432,2.7l.231.229c3.747-2.957,7.462-5.982,11.177-8.942-1.775-.032-3.55-.1-5.325-.131-3.156.393-6.346.785-9.5,1.181" fill="#210b04"/>
        <path id="Trazado_155371" data-name="Trazado 155371" d="M164.81,189.1l19.418-8.571a40.713,40.713,0,0,0-26-23.12l-6.012,12.083q6.3,9.8,12.594,19.608" fill="#3f5433"/>
        <path id="Trazado_155372" data-name="Trazado 155372" d="M214.546,175.385h9.248V158.947q-4.163,6.78-8.323,13.56Z" fill="#ffa1a1"/>
        <path id="Trazado_155373" data-name="Trazado 155373" d="M214.064,172.37h10.685q.755-6.712,1.507-13.423l-8.115,9.04Z" fill="#ffa1a1"/>
        <path id="Trazado_155374" data-name="Trazado 155374" d="M187.119,242.94c2.991,9.995,8.678,14.729,15.549,30.574.131.362.3.724.46,1.118.525,1.25.985,2.4,1.413,3.486.657,1.709,1.184,3.156,1.578,4.239l6.608-1.479c-.591-2.137-1.216-4.274-1.807-6.443-3.124-11.44-6.049-23.6-8.614-36.426-1.61-7.954-2.959-15.68-4.109-23.176-3.978,2.235-7.989,4.5-11.967,6.773a45.363,45.363,0,0,0,.889,21.334" fill="#f97f55"/>
        <path id="Trazado_155375" data-name="Trazado 155375" d="M202.669,273.514c.131.362.3.724.46,1.118.525,1.25.985,2.4,1.413,3.486.231-.1.492-.231.756-.362a48.249,48.249,0,0,0,5.623-3.321c-.955-.3-1.908-.591-2.893-.921Z" fill="#210b04"/>
        <path id="Trazado_155376" data-name="Trazado 155376" d="M212.959,279.6c2.137.69,4.274,1.413,6.411,2.137.458-1.743.953-3.518,1.445-5.293.3-1.053.591-2.073.921-3.124,3.09-10.783,6.706-22.058,10.914-33.664,2.762-7.6,5.591-14.926,8.483-21.928l-13.71-.394A45.282,45.282,0,0,0,217.1,236.005c-2.661,10.355-.1,17.455-2.7,35.439q-.247,1.627-.492,3.058c-.36,2.1-.69,3.845-.951,5.095" fill="#f97f55"/>
        <path id="Trazado_155377" data-name="Trazado 155377" d="M213.91,274.5a21.6,21.6,0,0,0,5.95,1.807c.328.034.657.1.953.133.3-1.053.591-2.073.921-3.124Z" fill="#210b04"/>
        <path id="Trazado_155378" data-name="Trazado 155378" d="M239.828,290.44l-29.732.083a7.435,7.435,0,0,1,.167-4.567,7.2,7.2,0,0,1,.7-1.364,19.552,19.552,0,0,0,2.419-7.139l5.184-.593c6.807,9.158,10.657,10.993,12.939,10.86,1.61-.1,3.156.8,4.771.811,1.034.009,2.31-.09,3.047.734a2.205,2.205,0,0,1,.505,1.175" fill="#f97f55"/>
        <path id="Trazado_155379" data-name="Trazado 155379" d="M210.557,292.5h31.5a1.575,1.575,0,1,0,.006-3.15H210.557a1.575,1.575,0,0,0,0,3.15" fill="#3f5433"/>
        <path id="Trazado_155380" data-name="Trazado 155380" d="M221.173,290.924h20.958l-.178-2.741a40.247,40.247,0,0,0-5.267-2.978,41.238,41.238,0,0,0-14.438-3.764q-.535,4.741-1.075,9.483" fill="#3f5433"/>
        <path id="Trazado_155381" data-name="Trazado 155381" d="M168.177,143.9a.316.316,0,0,0,.21-.555l-6.58-5.783a.313.313,0,0,0-.443.023l-.005,0a.319.319,0,0,0,.03.45l6.58,5.781a.312.312,0,0,0,.208.079" fill="#210b04"/>
        <path id="Trazado_155382" data-name="Trazado 155382" d="M192.087,290.534l-1.644-35.62a.318.318,0,0,1,.3-.332h7.822a.321.321,0,0,1,.319.325v.013l-2.33,35.621a.319.319,0,0,1-.317.3H192.4a.318.318,0,0,1-.314-.307m6.143-35.316h-7.137l1.614,34.985h3.235Z" fill="#210b04"/>
        <rect id="Rectángulo_8732" data-name="Rectángulo 8732" width="102.014" height="4.931" transform="translate(103.079 251.612)" fill="#210b04"/>
        <path id="Trazado_155383" data-name="Trazado 155383" d="M212.147,236.135H143.556v-34.7a5.593,5.593,0,0,1,5.591-5.591h54a9,9,0,0,1,9,9Z" fill="#db8200"/>
        <path id="Trazado_155384" data-name="Trazado 155384" d="M173.108,236.634H93.935V185.1a12.731,12.731,0,0,1,12.73-12.731h53.712A12.731,12.731,0,0,1,173.108,185.1Z" fill="#d2a140"/>
        <path id="Trazado_155385" data-name="Trazado 155385" d="M122.9,186.243a39.188,39.188,0,0,0,9.357,19.727,35.632,35.632,0,0,0,4.456,4.113q5.428,12,10.86,24.02c3.366.48,18.7-3.417,32.968-8.057-.24-1.259-.816-3.758-2.218-9.61-1.439-6.012-2.156-9.019-2.542-10.483-.248-.942-.409-1.621-.475-1.882-.67-2.644-2.638-10.552-9.5-36.171-.953-3.556-1.45-5.359-2.456-6.548-6.308-7.46-22.99-3.175-24.943-2.565-1.713.535-3.533,1.238-3.533,1.238q-1.483.572-2.878,1.193a62.014,62.014,0,0,0-6.738,3.482c-5.7,3.842-2.681,19.832-2.358,21.543" fill="#f97f55"/>
        <path id="Trazado_155386" data-name="Trazado 155386" d="M208,253.894H100.55a6.615,6.615,0,0,1-6.615-6.615V231.585a6.615,6.615,0,0,1,6.615-6.615H208a6.615,6.615,0,0,1,6.615,6.615v15.694A6.615,6.615,0,0,1,208,253.894" fill="#fcc14a"/>
        <path id="Trazado_155387" data-name="Trazado 155387" d="M228.947,209.832c3.837,1.09,12.534,3.561,12.552,6.98.021,3.993-11.809,6.925-13.594,7.355-8.935,4.342-67.518,8.2-74.53,6.055l14.372-20.251c31.736-6.1,50.794-3.1,61.2-.139" fill="#f97f55"/>
        <path id="Trazado_155388" data-name="Trazado 155388" d="M140.2,233.341c3.188,1.184,19,.625,33.927-.886,12.459-1.184,24.26-3.026,27.615-5,1.477-.428,11.243-3.321,11.209-7.3,0-3.419-7.2-5.916-10.355-7.034-14.25-5.047-27.621.253-28.929-3.255a2.392,2.392,0,0,1,.411-2.092l-22.043,5.346q-5.921,10.111-11.835,20.221" fill="#3d1f71"/>
        <path id="Trazado_155389" data-name="Trazado 155389" d="M153.028,153.818a30.089,30.089,0,0,1,.46-8.877,36.6,36.6,0,0,1,1.051-3.88c-4.077-.559-8.154-1.083-12.228-1.642q-2.468,11.635-5,23.242l18.277.525a30.2,30.2,0,0,1-2.071-6.31c-.1-.46-.2-.955-.263-1.447-.1-.493-.16-1.052-.226-1.611" fill="#f97f55"/>
        <path id="Trazado_155390" data-name="Trazado 155390" d="M151.253,157.138a3.113,3.113,0,0,0,2.267-.261c-.1-.46-.2-.955-.263-1.447-.1-.492-.163-1.051-.229-1.61a30.089,30.089,0,0,1,.46-8.877l-5.687-.165a17.627,17.627,0,0,0-.231,2.1c-.2,3.652.756,9.468,3.683,10.26" fill="#210b04"/>
        <path id="Trazado_155391" data-name="Trazado 155391" d="M140.733,140.438a14.287,14.287,0,0,0,.525,2.893,15.712,15.712,0,0,0,1.578,3.484c2.2,3.518,10.29,9.106,14.926,6.312,1.807-1.086,2.762-3.188,4.636-7.4a8.322,8.322,0,0,0,.756-2.368,14.867,14.867,0,0,1,.165-2.366,15.2,15.2,0,0,1,.591-1.775c.165-.559.362-1.283.657-2.434l.066-.3a1.185,1.185,0,0,0,.064-.328,8.925,8.925,0,0,0,.3-1.184c.064-.229.1-.46.163-.657.495-2.169.889-4.109,1.152-5.785a19.387,19.387,0,0,0-20.941-5.162,29.266,29.266,0,0,0-4.143,10.126,28.18,28.18,0,0,0-.495,6.944" fill="#f97f55"/>
        <g id="Grupo_88118" data-name="Grupo 88118" opacity="0.57">
          <g id="Grupo_88117" data-name="Grupo 88117">
            <g id="Grupo_88116-2" data-name="Grupo 88116" clip-path="url(#clip-path-3)">
              <path id="Trazado_155392" data-name="Trazado 155392" d="M162.879,144.524a5.885,5.885,0,0,0,.271-1.349,1.629,1.629,0,1,0-.925,2.977c.217-.483.478-1.1.654-1.628" fill="#d82400"/>
            </g>
          </g>
        </g>
        <g id="Grupo_88121" data-name="Grupo 88121" opacity="0.57">
          <g id="Grupo_88120" data-name="Grupo 88120">
            <g id="Grupo_88119" data-name="Grupo 88119" clip-path="url(#clip-path-4)">
              <path id="Trazado_155393" data-name="Trazado 155393" d="M151.874,141.266A1.629,1.629,0,1,0,153.5,142.9a1.629,1.629,0,0,0-1.629-1.629" fill="#d82400"/>
            </g>
          </g>
        </g>
        <path id="Trazado_155394" data-name="Trazado 155394" d="M153.534,138.263a1.125,1.125,0,1,0,1.381-.919,1.176,1.176,0,0,0-1.381.919" fill="#210b04"/>
        <path id="Trazado_155395" data-name="Trazado 155395" d="M160.621,140.025a1.125,1.125,0,1,0,1.381-.919,1.174,1.174,0,0,0-1.381.919" fill="#210b04"/>
        <path id="Trazado_155396" data-name="Trazado 155396" d="M150.726,131.747a5.179,5.179,0,0,1,1.116.137,21.249,21.249,0,0,1,4.693,2.332,2.282,2.282,0,0,0,.9-2.274,23.308,23.308,0,0,1-3.424-1.208,6.236,6.236,0,0,0-2.27-.585,2.361,2.361,0,0,0-.938.092,2.627,2.627,0,0,0-1.48,1.49,11.134,11.134,0,0,1,1.4.016" fill="#210b04"/>
        <path id="Trazado_155397" data-name="Trazado 155397" d="M161.674,135.67a28.086,28.086,0,0,1,3.023.495,8.924,8.924,0,0,0,.3-1.184c.064-.229.1-.46.163-.657a24.9,24.9,0,0,1-2.794-.987,2.11,2.11,0,0,0-.657.987,2.615,2.615,0,0,0-.035,1.346" fill="#210b04"/>
        <path id="Trazado_155398" data-name="Trazado 155398" d="M157.359,144.93a2.1,2.1,0,0,0,1.557.687,2,2,0,0,0,1.139-.411Z" fill="#210b04"/>
        <path id="Trazado_155399" data-name="Trazado 155399" d="M187.487,231.408l31.914-3.835a59.363,59.363,0,0,0-2.876,6.025c-6.426,15.676-4.841,30.955-2.614,40.911a33.023,33.023,0,0,0,16.037-1.118c3.918-27.91,7.794-43.28,11.233-52.257.5-1.3,1.6-4.053.582-6.918-3-8.5-21.472-9.094-33.2-9.466a147.955,147.955,0,0,0-37.107,3.586q8.022,11.535,16.031,23.072" fill="#3d1f71"/>
        <path id="Trazado_155400" data-name="Trazado 155400" d="M193.792,275.381a24.96,24.96,0,0,0,11.918.685,24.466,24.466,0,0,0,6.438-2.19q-4.789-27.624-9.575-55.244l-20.7-.233c.167,4.452.516,9.117,1.1,13.973a175.381,175.381,0,0,0,10.819,43.009" fill="#3d1f71"/>
        <path id="Trazado_155401" data-name="Trazado 155401" d="M204.687,231.148a.329.329,0,0,0,.316-.34c0-.011,0-.022,0-.033l-2.368-13.511a.318.318,0,0,0-.627.109l2.37,13.511a.314.314,0,0,0,.312.264" fill="#210b04"/>
        <path id="Trazado_155402" data-name="Trazado 155402" d="M202.422,215.875a.317.317,0,0,0,.19-.572,20.19,20.19,0,0,0-3.689-2.193,22.415,22.415,0,0,0-14.138-1.255.32.32,0,0,0-.242.379.31.31,0,0,0,.363.246l.018,0a21.768,21.768,0,0,1,13.736,1.212,19.677,19.677,0,0,1,3.571,2.124.319.319,0,0,0,.191.063" fill="#210b04"/>
        <path id="Trazado_155403" data-name="Trazado 155403" d="M220.093,227.788a.316.316,0,0,0,.227-.1l4.057-4.16a.318.318,0,0,0-.006-.45.324.324,0,0,0-.45,0l-4.057,4.162a.326.326,0,0,0,.229.548" fill="#210b04"/>
        <path id="Trazado_155404" data-name="Trazado 155404" d="M222.865,227.942a.318.318,0,0,0,.139-.032l1.591-.771a.318.318,0,0,0-.278-.572l-1.591.771a.318.318,0,0,0,.139.6Z" fill="#210b04"/>
        <path id="Trazado_155405" data-name="Trazado 155405" d="M182.61,231.845c.253-.058.353-.231.306-.4l-1.559-5.668a.316.316,0,0,0-.387-.224h0a.32.32,0,0,0-.221.392l1.557,5.668a.317.317,0,0,0,.307.231" fill="#210b04"/>
        <path id="Trazado_155406" data-name="Trazado 155406" d="M136.038,212.163c18.913,14.935,27.893,15.755,32.55,13.08,2.062-1.184,2.751-2.751,5.89-6.3a65.733,65.733,0,0,1,17.042-13.716q-6.057-.947-12.11-1.9l-12.327-37a12.009,12.009,0,0,0-3.289-5.946c-4.032-3.914-9.43-3.345-10.216-3.25,2.126,6.443,1.2,8.34.353,9-2.938,2.3-11.991-4.719-16.029-8.038-1.293.146-10.963,1.4-16.71,10.3a23.507,23.507,0,0,0-2.876,18.217l17.722,25.553" fill="#3f5433"/>
        <path id="Trazado_155407" data-name="Trazado 155407" d="M168.867,290.534,167.261,255.7l-.039-.788a.318.318,0,0,1,.3-.332h7.822a.321.321,0,0,1,.319.325v.013l-2.33,35.621a.321.321,0,0,1-.317.3h-3.837a.318.318,0,0,1-.316-.306m6.143-35.316h-7.137l1.614,34.985h3.239Z" fill="#210b04"/>
        <path id="Trazado_155408" data-name="Trazado 155408" d="M128.318,290.534l-1.642-35.62a.319.319,0,0,1,.086-.233.331.331,0,0,1,.231-.1H134.8a.315.315,0,0,1,.231.1.3.3,0,0,1,.086.238l-2.327,35.621a.322.322,0,0,1-.319.3h-3.835a.321.321,0,0,1-.32-.306m6.143-35.316h-7.134l1.612,34.985h3.235Z" fill="#210b04"/>
        <path id="Trazado_155409" data-name="Trazado 155409" d="M105.1,290.534,103.5,255.7l-.036-.788a.315.315,0,0,1,.086-.233.327.327,0,0,1,.231-.1h7.809a.317.317,0,0,1,.231.1.3.3,0,0,1,.086.238l-2.327,35.621a.322.322,0,0,1-.319.3h-3.835a.321.321,0,0,1-.32-.3m6.14-35.316h-7.137L105.72,290.2h3.235Z" fill="#210b04"/>
        <path id="Trazado_155410" data-name="Trazado 155410" d="M157.562,149.25a5.264,5.264,0,0,0,1.218-.146.318.318,0,1,0-.15-.619,4.116,4.116,0,0,1-2.831-.283,3.842,3.842,0,0,1-.961-.713.316.316,0,1,0-.452.443,4.385,4.385,0,0,0,1.122.833,4.467,4.467,0,0,0,2.054.485" fill="#fff"/>
        <path id="Trazado_155411" data-name="Trazado 155411" d="M158.83,141.169a5.09,5.09,0,1,1,5.09,5.092,5.09,5.09,0,0,1-5.09-5.092m.636,0a4.454,4.454,0,1,0,4.454-4.454,4.454,4.454,0,0,0-4.454,4.454" fill="#210b04"/>
        <path id="Trazado_155412" data-name="Trazado 155412" d="M148.037,138.441a5.09,5.09,0,1,1,5.09,5.092,5.09,5.09,0,0,1-5.09-5.092m.636,0a4.454,4.454,0,1,0,4.454-4.454,4.454,4.454,0,0,0-4.454,4.454" fill="#210b04"/>
        <path id="Trazado_155413" data-name="Trazado 155413" d="M159.323,140.2a.317.317,0,0,0,.1-.619L158,139.117a.317.317,0,0,0-.4.2.321.321,0,0,0,.206.4l1.424.467a.315.315,0,0,0,.1.019" fill="#210b04"/>
        <path id="Trazado_155414" data-name="Trazado 155414" d="M148.356,137.353a.317.317,0,0,0,.208-.557l-6.582-5.781a.313.313,0,0,0-.442.021l-.006.007a.315.315,0,0,0,.028.446l0,0,6.582,5.783a.313.313,0,0,0,.21.079" fill="#210b04"/>
        <path id="Trazado_155415" data-name="Trazado 155415" d="M160.452,119.416c-.869-.3-2.336,2.644-3.486,2.3a10.112,10.112,0,0,1-.959-.55,8.408,8.408,0,0,0-.946-.433c-.882-.343-4.929-1.918-7.224-.223-1.238.914-.946,2.028-2.469,2.869-1.165.645-1.788.246-2.636.642-2.891,1.349-1.711,9.483-1.507,9.483.113,0,.2-2.464.308-2.458.176.011-.788,5.86.719,6.5,2.092.891,6.119-9.443,11.318-8.957,2.873.268,3.9,3.634,8.528,4.006.351.028.088-.013,3.471-.143,5.509-.212,6.233-.107,6.659-.728.8-1.167-1.193-2.347-1.861-6.886-.156-1.058-.214-2.126-.882-2.413-.844-.366-1.572.983-2.811.8-1.514-.223-1.737-2.43-3.16-2.5-.946-.045-1.422.9-2.058.625-.739-.319-.425-1.734-1-1.934" fill="#210b04"/>
        <path id="Trazado_155416" data-name="Trazado 155416" d="M140.987,131.054c1.475,0,2.671,1.989,2.671,4.443s-1.2,4.443-2.671,4.443-2.671-1.989-2.671-4.443,1.2-4.443,2.671-4.443" fill="#f97f55"/>
        <path id="Trazado_155417" data-name="Trazado 155417" d="M232.585,290.44l-29.732.083a7.434,7.434,0,0,1,.167-4.567,7.349,7.349,0,0,1,.7-1.364,17.605,17.605,0,0,0,2.214-7.115l5.389-.617c6.807,9.158,10.657,10.993,12.939,10.86,1.61-.1,3.156.8,4.771.811,1.034.009,2.31-.09,3.047.734a2.2,2.2,0,0,1,.505,1.175" fill="#f97f55"/>
        <path id="Trazado_155418" data-name="Trazado 155418" d="M203.313,292.5h31.5a1.575,1.575,0,1,0,.006-3.15H203.313a1.575,1.575,0,1,0-.006,3.15Z" fill="#3f5433"/>
        <path id="Trazado_155419" data-name="Trazado 155419" d="M213.927,290.924h20.958q-.087-1.368-.178-2.741a40.13,40.13,0,0,0-5.267-2.978A41.238,41.238,0,0,0,215,281.441q-.535,4.741-1.075,9.483" fill="#3f5433"/>
        <path id="Trazado_155420" data-name="Trazado 155420" d="M214.544,290.839h26.848a.318.318,0,1,0,0-.636H214.544a.318.318,0,0,0,0,.636" fill="#210b04"/>
        <path id="Trazado_155421" data-name="Trazado 155421" d="M241.136,289.187a.317.317,0,0,0,.161-.591,55.267,55.267,0,0,0-17.17-6.561.318.318,0,0,0-.124.623,54.605,54.605,0,0,1,16.973,6.486.3.3,0,0,0,.16.043" fill="#210b04"/>
        <path id="Trazado_155422" data-name="Trazado 155422" d="M180.752,202.134l31.625,5.644,2.235-1.848q.585-2.021,1.165-4.043L229.337,161q-4.689,3.017-9.383,6.027-1.413.2-2.831.394l-27.118-5.691q-4.628,20.2-9.253,40.4" fill="#210b04"/>
        <path id="Trazado_155423" data-name="Trazado 155423" d="M192.215,177.633l4.239,6.481c-3.612,3.552-6.374,6.653-8.252,8.858-7.01,8.235-9.378,13.027-15.511,15.487a19.1,19.1,0,0,1-6.149,1.334l-6.862-8.68a54.388,54.388,0,0,1,6.7-5.828c8.721-6.4,14.81-6.781,22.129-13.65a39.409,39.409,0,0,0,3.706-4" fill="#f97f55"/>
        <path id="Trazado_155424" data-name="Trazado 155424" d="M212.148,207.174a.323.323,0,0,0,.31-.246l8.974-38.875a.319.319,0,0,0-.24-.381.307.307,0,0,0-.376.215l0,.023-8.974,38.875a.317.317,0,0,0,.237.381h0a.3.3,0,0,0,.073.008" fill="#fff"/>
        <path id="Trazado_155425" data-name="Trazado 155425" d="M135.044,193.957c.758.857,1.578,1.777,2.435,2.7.064.066.131.133.229.231,3.452,3.747,8.186,8.614,14.005,14.168l8.087-7.561c-3.651-5.162-7.265-10.355-10.916-15.549-1.775-2.565-3.582-5.1-5.357-7.661-7.068-4.109-14.17-8.186-21.238-12.295a9.768,9.768,0,0,0-.822,1.94c-1.15,4.138.593,9.662,13.577,24.027" fill="#f97f55"/>
        <path id="Trazado_155426" data-name="Trazado 155426" d="M134.059,188.994c.328,1.677.657,3.321.985,4.963.758.857,1.578,1.777,2.435,2.7.064.066.131.133.229.231,3.747-2.959,7.462-5.985,11.177-8.942-1.775-.034-3.55-.1-5.325-.133Z" fill="#210b04"/>
        <path id="Trazado_155427" data-name="Trazado 155427" d="M130.611,196.01q9.707-4.288,19.416-8.573a42.2,42.2,0,0,0-25.683-23.285L118.017,176.4q6.3,9.806,12.594,19.611" fill="#3f5433"/>
        <path id="Trazado_155428" data-name="Trazado 155428" d="M178.963,238.631H93.935V202.415a6.406,6.406,0,0,1,6.4-6.4h68.317a10.306,10.306,0,0,1,10.306,10.306Z" fill="#fcc14a"/>
        <path id="Trazado_155429" data-name="Trazado 155429" d="M193.714,184.9a36.029,36.029,0,0,0,18.213-8.65,2.716,2.716,0,0,0-.987-.606,3.6,3.6,0,0,0-2.672.338,59.924,59.924,0,0,0-6.366,3.494c.077.107,7.438-4.533,7.064-5.327-.238-.5-3.586.418-11.948,3.657,5.441-3.584,6.269-4.711,6.079-5.09-.332-.666-4.115.33-7.122,1.9a20.459,20.459,0,0,0-5.567,4.289l-7.3,8.389,4.143,4.113Z" fill="#f97f55"/>
        <path id="Trazado_155430" data-name="Trazado 155430" d="M206.255,183.423c2.97-2.9,4.8-5.629,4.152-6.535-.668-.938-4.07-.032-8.231,2.218l-3.646,3.672,2.28,2.263Z" fill="#f97f55"/>
        <path id="Trazado_155431" data-name="Trazado 155431" d="M208.995,180.389q-4,.238-8,.473l-7.794,3.946a6.524,6.524,0,0,0-1.685.991,7.736,7.736,0,0,0-2.584,5.338l16.626-6.777Z" fill="#f97f55"/>
        <path id="Trazado_155432" data-name="Trazado 155432" d="M198.636,181.025a.312.312,0,0,0,.131-.028l5.651-2.552a.319.319,0,0,0-.228-.6l-.035.016-5.651,2.554a.317.317,0,0,0,.133.606Z" fill="#210b04"/>
        <path id="Trazado_155433" data-name="Trazado 155433" d="M204.834,182.44a.3.3,0,0,0,.208-.079l5.426-4.756a.317.317,0,1,0-.418-.477l-5.424,4.758a.316.316,0,0,0,.208.555Z" fill="#210b04"/>
        <path id="Trazado_155434" data-name="Trazado 155434" d="M198.555,183.917c.071-.009,6.351-1.486,6.351-1.486a.317.317,0,0,0,.239-.378v0a.321.321,0,0,0-.383-.236l-6.278,1.477a.317.317,0,0,0,.073.625Z" fill="#210b04"/>
        <path id="Trazado_155435" data-name="Trazado 155435" d="M201.8,185.5c.109-.021,4.374-1.58,4.374-1.58a.318.318,0,0,0,.188-.407.313.313,0,0,0-.4-.191l-.008,0-4.268,1.554a.318.318,0,0,0,.109.617Z" fill="#210b04"/>
        <path id="Trazado_155436" data-name="Trazado 155436" d="M176.573,190.3a.314.314,0,0,0,.171-.051l7.657-4.935a.317.317,0,0,0-.33-.541l-.013.008-7.657,4.935a.317.317,0,0,0,.171.585Z" fill="#210b04"/>
        <path id="Trazado_155437" data-name="Trazado 155437" d="M221.226,179.279c-.041,1.146,1.377,2.124,3.167,2.188s3.272-.816,3.31-1.961-1.377-2.124-3.165-2.188-3.271.815-3.312,1.961" fill="#f97f55"/>
        <path id="Trazado_155438" data-name="Trazado 155438" d="M220.007,181.947c-.041,1.146,1.377,2.126,3.167,2.188s3.272-.816,3.31-1.959-1.377-2.126-3.165-2.188-3.271.815-3.312,1.959" fill="#f97f55"/>
        <path id="Trazado_155439" data-name="Trazado 155439" d="M218.92,184.24c-.041,1.146,1.377,2.124,3.165,2.186s3.272-.814,3.312-1.959-1.377-2.124-3.167-2.188-3.271.815-3.31,1.961" fill="#f97f55"/>
        <path id="Trazado_155440" data-name="Trazado 155440" d="M217.53,186.575c-.039,1.146,1.379,2.124,3.167,2.186s3.272-.814,3.312-1.959-1.377-2.124-3.167-2.188-3.271.814-3.312,1.961" fill="#f97f55"/>
        <path id="Trazado_155441" data-name="Trazado 155441" d="M148.486,187.311a.317.317,0,0,0,.317-.319.313.313,0,0,0-.039-.152l-8-14.622a.318.318,0,0,0-.569.284l.012.022,8,14.622a.318.318,0,0,0,.279.165" fill="#210b04"/>
        <path id="Trazado_155442" data-name="Trazado 155442" d="M129.481,195.426a.314.314,0,0,0,.316-.313.309.309,0,0,0-.042-.16l-4.135-7.3a.318.318,0,0,0-.564.294l.012.021,4.137,7.3a.319.319,0,0,0,.276.158" fill="#210b04"/>
        <path id="Trazado_155443" data-name="Trazado 155443" d="M156.976,145.623l3.166.391-1.16-6.074Z" fill="#9b3f27"/>
        <path id="Trazado_155444" data-name="Trazado 155444" d="M68.22,149.076c5.631,33.873.351,72.928-8.3,73.87-9.385,1.023-23.4-42.785-26.229-81.1-1.338-18.129-1.465-52.559,6.424-54.065,7.942-1.51,22.988,30.5,28.1,61.3" fill="#ffa1a1"/>
        <path id="Trazado_155445" data-name="Trazado 155445" d="M69.627,261.959c-1.4-14.517-3.145-29.3-5.182-43.945-2.981-21.786-6.64-43.731-10.875-65.227-4.285-21.756-9.226-43.479-14.684-64.563l.518-.135c5.462,21.1,10.4,42.828,14.693,64.593,4.235,21.506,7.9,43.464,10.879,65.259,2.036,14.65,3.779,29.443,5.184,43.969Z" fill="#210b04"/>
        <path id="Trazado_155446" data-name="Trazado 155446" d="M99.964,109.215c-3.34,21.619-12.562,51.088-19.358,50.3-6.244-.724-10.729-27.022-5.621-50.3C79.678,87.82,92.845,67.3,98.538,68.948c6.119,1.771,3.16,29.046,1.426,40.267" fill="#ffa1a1"/>
        <path id="Trazado_155447" data-name="Trazado 155447" d="M74.635,254.822a489.691,489.691,0,0,1,2.529-98.074c1.895-14.885,4.524-29.82,7.82-44.391C88.284,97.705,92.33,83.066,97,68.846l.507.167c-4.666,14.2-8.7,28.827-12,43.462-3.291,14.554-5.918,29.473-7.811,44.339a489.336,489.336,0,0,0-2.527,97.971Z" fill="#210b04"/>
        <path id="Trazado_155448" data-name="Trazado 155448" d="M130.913,125.272c-13.682,34.89-38.571,68.834-44.17,65.965-5.706-2.929,7.935-44.5,29.906-77.4,1.563-2.34,17.832-26.527,22.2-24.3,3.791,1.926-2.96,23.049-7.936,35.735" fill="#ffa1a1"/>
        <path id="Trazado_155449" data-name="Trazado 155449" d="M77.847,250.529a166.991,166.991,0,0,1,6.777-51.469c.839-2.809,1.677-5.344,2.554-7.749,4.173-11.605,9.535-21.362,18.414-37.53l2.608-4.751c6.7-12.153,17.577-32.1,31.345-58.086l.473.253c-13.77,25.985-24.649,45.935-31.351,58.092l-2.606,4.749c-8.867,16.144-14.22,25.891-18.38,37.455-.876,2.4-1.707,4.92-2.544,7.719a166.453,166.453,0,0,0-6.755,51.3Z" fill="#210b04"/>
        <path id="Trazado_155450" data-name="Trazado 155450" d="M87.207,291.644H61.513l-4.555-48.879H90.6q-1.7,24.438-3.391,48.879" fill="#210b04"/>
      </g>
    </g>
  </g>
</svg>
