<svg xmlns="http://www.w3.org/2000/svg" width="190" height="38" viewBox="0 0 190 38">
  <g id="Grupo_88185" data-name="Grupo 88185" transform="translate(-9610 12896)">
    <path id="Trazado_155557" data-name="Trazado 155557" d="M0,0H190V38H0Z" transform="translate(9610 -12896)" fill="#e7e3ee"/>
    <path id="Trazado_155558" data-name="Trazado 155558" d="M10.063-3.852a4.154,4.154,0,0,1-.641,2.1A3.866,3.866,0,0,1,7.777-.344a5.6,5.6,0,0,1-2.418.5A4.467,4.467,0,0,1,1.828-1.3,6.032,6.032,0,0,1,.539-5.43v-.562a6.885,6.885,0,0,1,.582-2.926A4.41,4.41,0,0,1,2.8-10.855a4.676,4.676,0,0,1,2.531-.684,4.9,4.9,0,0,1,3.328,1.09,4.306,4.306,0,0,1,1.43,3H7.352a2.037,2.037,0,0,0-.523-1.492,2.153,2.153,0,0,0-1.5-.453,1.638,1.638,0,0,0-1.5.766,4.921,4.921,0,0,0-.5,2.445v.8a5.445,5.445,0,0,0,.457,2.6,1.672,1.672,0,0,0,1.574.781A2.106,2.106,0,0,0,6.8-2.437a1.89,1.89,0,0,0,.531-1.414Zm.844-.453A4.989,4.989,0,0,1,11.4-6.559a3.52,3.52,0,0,1,1.414-1.52,4.259,4.259,0,0,1,2.164-.531,3.887,3.887,0,0,1,2.992,1.176,4.512,4.512,0,0,1,1.094,3.2v.094A4.378,4.378,0,0,1,17.965-1,3.9,3.9,0,0,1,14.992.156a3.942,3.942,0,0,1-2.9-1.082,4.232,4.232,0,0,1-1.18-2.934Zm2.633.164a3.145,3.145,0,0,0,.367,1.719,1.223,1.223,0,0,0,1.086.547q1.406,0,1.438-2.164V-4.3q0-2.273-1.453-2.273-1.32,0-1.43,1.961Zm9.1-4.312.086.992a2.867,2.867,0,0,1,2.414-1.148,2.412,2.412,0,0,1,1.973.789,3.757,3.757,0,0,1,.676,2.375V0H25.148V-5.336a1.426,1.426,0,0,0-.258-.941,1.193,1.193,0,0,0-.937-.3,1.256,1.256,0,0,0-1.148.609V0H20.172V-8.453Zm9.672-2.1v2.1H33.7v1.828H32.313v3.867a.987.987,0,0,0,.172.664.922.922,0,0,0,.68.188,3.862,3.862,0,0,0,.656-.047V-.07a4.859,4.859,0,0,1-1.484.227,2.758,2.758,0,0,1-2.008-.641A2.626,2.626,0,0,1,29.68-2.43v-4.2H28.6V-8.453H29.68v-2.1ZM38.828.156A4.345,4.345,0,0,1,35.68-1a4.006,4.006,0,0,1-1.2-3.02v-.219a5.191,5.191,0,0,1,.48-2.289,3.516,3.516,0,0,1,1.4-1.535,4.233,4.233,0,0,1,2.188-.543A3.659,3.659,0,0,1,41.359-7.5a4.344,4.344,0,0,1,1.031,3.082V-3.4H37.156a1.9,1.9,0,0,0,.617,1.117,1.836,1.836,0,0,0,1.234.406,2.366,2.366,0,0,0,1.953-.875l1.2,1.422A3.363,3.363,0,0,1,40.77-.246,4.713,4.713,0,0,1,38.828.156Zm-.3-6.734q-1.156,0-1.375,1.531h2.656v-.2a1.3,1.3,0,0,0-.32-.98A1.275,1.275,0,0,0,38.531-6.578Zm7.336-1.875.086.992a2.867,2.867,0,0,1,2.414-1.148,2.412,2.412,0,0,1,1.973.789,3.757,3.757,0,0,1,.676,2.375V0H48.375V-5.336a1.426,1.426,0,0,0-.258-.941,1.193,1.193,0,0,0-.937-.3,1.256,1.256,0,0,0-1.148.609V0H43.4V-8.453ZM55.25,0H52.609V-8.453H55.25Zm-2.8-10.641a1.186,1.186,0,0,1,.406-.927,1.527,1.527,0,0,1,1.055-.362,1.527,1.527,0,0,1,1.055.362,1.186,1.186,0,0,1,.406.927,1.186,1.186,0,0,1-.406.927,1.527,1.527,0,0,1-1.055.362,1.527,1.527,0,0,1-1.055-.362A1.186,1.186,0,0,1,52.453-10.641Zm4.086,6.352a5.164,5.164,0,0,1,.867-3.164,2.854,2.854,0,0,1,2.422-1.156,2.428,2.428,0,0,1,1.906.891V-12h2.641V0H62.008l-.133-.906A2.493,2.493,0,0,1,59.813.156,2.849,2.849,0,0,1,57.422-1,5.327,5.327,0,0,1,56.539-4.289Zm2.633.164q0,2.25,1.313,2.25a1.3,1.3,0,0,0,1.25-.734V-5.828a1.261,1.261,0,0,0-1.234-.75q-1.219,0-1.32,1.969Zm6.367-.18a4.989,4.989,0,0,1,.492-2.254,3.52,3.52,0,0,1,1.414-1.52,4.259,4.259,0,0,1,2.164-.531A3.887,3.887,0,0,1,72.6-7.434a4.512,4.512,0,0,1,1.094,3.2v.094A4.378,4.378,0,0,1,72.6-1,3.9,3.9,0,0,1,69.625.156a3.942,3.942,0,0,1-2.9-1.082,4.232,4.232,0,0,1-1.18-2.934Zm2.633.164a3.145,3.145,0,0,0,.367,1.719,1.223,1.223,0,0,0,1.086.547q1.406,0,1.438-2.164V-4.3q0-2.273-1.453-2.273-1.32,0-1.43,1.961Zm10.336-.148a5.164,5.164,0,0,1,.867-3.164A2.854,2.854,0,0,1,81.8-8.609a2.428,2.428,0,0,1,1.906.891V-12h2.641V0H83.977l-.133-.906A2.493,2.493,0,0,1,81.781.156,2.849,2.849,0,0,1,79.391-1,5.327,5.327,0,0,1,78.508-4.289Zm2.633.164q0,2.25,1.313,2.25a1.3,1.3,0,0,0,1.25-.734V-5.828a1.261,1.261,0,0,0-1.234-.75q-1.219,0-1.32,1.969ZM91.93.156A4.345,4.345,0,0,1,88.781-1a4.006,4.006,0,0,1-1.2-3.02v-.219a5.191,5.191,0,0,1,.48-2.289,3.516,3.516,0,0,1,1.4-1.535,4.233,4.233,0,0,1,2.188-.543A3.659,3.659,0,0,1,94.461-7.5a4.344,4.344,0,0,1,1.031,3.082V-3.4H90.258a1.9,1.9,0,0,0,.617,1.117,1.836,1.836,0,0,0,1.234.406,2.366,2.366,0,0,0,1.953-.875l1.2,1.422A3.363,3.363,0,0,1,93.871-.246,4.713,4.713,0,0,1,91.93.156Zm-.3-6.734q-1.156,0-1.375,1.531h2.656v-.2a1.3,1.3,0,0,0-.32-.98A1.275,1.275,0,0,0,91.633-6.578ZM99.328,0H96.688V-12h2.641Zm8.383,0H105.07V-12h2.641Zm4.4,0h-2.641V-8.453h2.641Zm-2.8-10.641a1.186,1.186,0,0,1,.406-.927,1.527,1.527,0,0,1,1.055-.362,1.527,1.527,0,0,1,1.055.362,1.186,1.186,0,0,1,.406.927,1.186,1.186,0,0,1-.406.927,1.527,1.527,0,0,1-1.055.362,1.527,1.527,0,0,1-1.055-.362A1.186,1.186,0,0,1,109.313-10.641Zm12.266,6.484a5.152,5.152,0,0,1-.859,3.2A2.878,2.878,0,0,1,118.3.156a2.5,2.5,0,0,1-2.078-1.023L116.109,0H113.75V-12h2.633v4.227a2.41,2.41,0,0,1,1.9-.836,2.879,2.879,0,0,1,2.438,1.133,5.179,5.179,0,0,1,.859,3.188Zm-2.641-.168a3.437,3.437,0,0,0-.324-1.735,1.093,1.093,0,0,0-1-.519,1.261,1.261,0,0,0-1.234.679v3.354a1.268,1.268,0,0,0,1.25.671,1.118,1.118,0,0,0,1.18-.9A6.5,6.5,0,0,0,118.938-4.324Zm8.914-1.746-.867-.062a1.558,1.558,0,0,0-1.594.781V0h-2.633V-8.453h2.469l.086,1.086a2.039,2.039,0,0,1,1.852-1.242,2.567,2.567,0,0,1,.734.094Zm.336,1.766a4.989,4.989,0,0,1,.492-2.254,3.52,3.52,0,0,1,1.414-1.52,4.259,4.259,0,0,1,2.164-.531,3.887,3.887,0,0,1,2.992,1.176,4.512,4.512,0,0,1,1.094,3.2v.094A4.378,4.378,0,0,1,135.246-1a3.9,3.9,0,0,1-2.973,1.16,3.942,3.942,0,0,1-2.9-1.082,4.232,4.232,0,0,1-1.18-2.934Zm2.633.164a3.145,3.145,0,0,0,.367,1.719,1.223,1.223,0,0,0,1.086.547q1.406,0,1.438-2.164V-4.3q0-2.273-1.453-2.273-1.32,0-1.43,1.961Z" transform="translate(9636 -12873)" fill="#111e61"/>
    <path id="Trazado_154972" data-name="Trazado 154972" d="M7841.3-10079.56h5.649l-3.931,4.756-3.93-4.756Z" transform="translate(1861.915 -2786.189)" fill="#636363"/>
  </g>
</svg>
