<svg xmlns="http://www.w3.org/2000/svg" width="108" height="108" viewBox="0 0 108 108">
  <g id="Grupo_87316" data-name="Grupo 87316" transform="translate(-1141 -706)">
    <circle id="Elipse_4055" data-name="Elipse 4055" cx="54" cy="54" r="54" transform="translate(1141 706)" fill="#fcc14a"/>
    <g id="Grupo_86912" data-name="Grupo 86912" transform="translate(1159 729.518)">
      <path id="Trazado_152677" data-name="Trazado 152677" d="M71.981,0H4.8A4.689,4.689,0,0,0,0,4.561V52.446a4.689,4.689,0,0,0,4.8,4.561H71.981a4.689,4.689,0,0,0,4.8-4.561V4.561A4.689,4.689,0,0,0,71.981,0Z" fill="#f4f6f7"/>
      <path id="Trazado_152678" data-name="Trazado 152678" d="M3.6,52.446V4.561A4.689,4.689,0,0,1,8.4,0H4.8A4.689,4.689,0,0,0,0,4.561V52.446a4.689,4.689,0,0,0,4.8,4.561H8.4A4.689,4.689,0,0,1,3.6,52.446Z" fill="#eaecee"/>
      <path id="Trazado_152679" data-name="Trazado 152679" d="M221.2,344.5h-12a1.171,1.171,0,0,0-1.2,1.14V361.6a1.171,1.171,0,0,0,1.2,1.14h12a1.171,1.171,0,0,0,1.2-1.14V345.64A1.171,1.171,0,0,0,221.2,344.5Z" transform="translate(-176.808 -295.403)" fill="#808e9b"/>
      <path id="Trazado_152680" data-name="Trazado 152680" d="M222.4,385.14a1.171,1.171,0,0,0-1.2-1.14h-12a1.171,1.171,0,0,0-1.2,1.14v3.42h14.4Z" transform="translate(-176.808 -329.274)" fill="#6b7b8b"/>
      <path id="Trazado_152681" data-name="Trazado 152681" d="M71.981,0H4.8A4.684,4.684,0,0,0,0,4.561V9.121H76.78V4.561A4.684,4.684,0,0,0,71.981,0Z" fill="#808e9b"/>
      <path id="Trazado_152682" data-name="Trazado 152682" d="M8.4,0H4.8A4.684,4.684,0,0,0,0,4.561V9.121H3.6V4.561A4.684,4.684,0,0,1,8.4,0Z" fill="#6b7b8b"/>
      <path id="Trazado_152683" data-name="Trazado 152683" d="M76.78,320H0v6.841A4.684,4.684,0,0,0,4.8,331.4H71.981a4.684,4.684,0,0,0,4.8-4.561Z" transform="translate(0 -274.395)" fill="#808e9b"/>
      <path id="Trazado_152684" data-name="Trazado 152684" d="M3.6,326.841V320H0v6.841A4.684,4.684,0,0,0,4.8,331.4H8.4A4.684,4.684,0,0,1,3.6,326.841Z" transform="translate(0 -274.395)" fill="#6b7b8b"/>
      <path id="Trazado_152685" data-name="Trazado 152685" d="M204.395,458.78H185.2a1.142,1.142,0,1,1,0-2.28h19.195a1.142,1.142,0,1,1,0,2.28Z" transform="translate(-156.407 -391.441)" fill="#55697a"/>
      <path id="Trazado_152686" data-name="Trazado 152686" d="M238,354.28h-4.8a1.142,1.142,0,1,1,0-2.28H238a1.142,1.142,0,1,1,0,2.28Z" transform="translate(-197.209 -301.834)" fill="#55697a"/>
      <ellipse id="Elipse_4059" data-name="Elipse 4059" cx="1.125" cy="1.069" rx="1.125" ry="1.069" transform="translate(37.265 3.492)" fill="#40566a"/>
      <g id="Grupo_86909" data-name="Grupo 86909" transform="translate(17.995 22.802)">
        <path id="Trazado_152687" data-name="Trazado 152687" d="M121.2,217.12a1.22,1.22,0,0,1-.961-.456,1.1,1.1,0,0,1,.24-1.6l9.6-6.841a1.242,1.242,0,0,1,1.68.228,1.1,1.1,0,0,1-.24,1.6l-9.6,6.841A1.235,1.235,0,0,1,121.2,217.12Z" transform="translate(-120 -201.158)" fill="#fec7b0"/>
        <path id="Trazado_152688" data-name="Trazado 152688" d="M226.8,214.839a1.245,1.245,0,0,1-.536-.121l-9.6-4.561a1.114,1.114,0,0,1-.536-1.53,1.229,1.229,0,0,1,1.61-.51l9.6,4.561a1.114,1.114,0,0,1,.536,1.53A1.208,1.208,0,0,1,226.8,214.839Z" transform="translate(-201.603 -201.157)" fill="#fec7b0"/>
        <path id="Trazado_152689" data-name="Trazado 152689" d="M313.2,173.681a1.232,1.232,0,0,1-.8-.293,1.1,1.1,0,0,1-.089-1.61l10.8-11.4a1.244,1.244,0,0,1,1.694-.085,1.1,1.1,0,0,1,.089,1.61l-10.8,11.4A1.225,1.225,0,0,1,313.2,173.681Z" transform="translate(-283.207 -159.999)" fill="#fec7b0"/>
      </g>
      <g id="Grupo_86910" data-name="Grupo 86910" transform="translate(13.197 18.242)">
        <path id="Trazado_152690" data-name="Trazado 152690" d="M91.6,256a3.425,3.425,0,1,0,3.6,3.42A3.517,3.517,0,0,0,91.6,256Z" transform="translate(-88 -237.758)" fill="#fd8e61"/>
        <path id="Trazado_152691" data-name="Trazado 152691" d="M187.6,184a3.425,3.425,0,1,0,3.6,3.42A3.517,3.517,0,0,0,187.6,184Z" transform="translate(-169.604 -176.019)" fill="#fd8e61"/>
        <path id="Trazado_152692" data-name="Trazado 152692" d="M283.6,232a3.425,3.425,0,1,0,3.6,3.42A3.517,3.517,0,0,0,283.6,232Z" transform="translate(-251.208 -217.178)" fill="#fd8e61"/>
        <path id="Trazado_152693" data-name="Trazado 152693" d="M379.6,128a3.425,3.425,0,1,0,3.6,3.42A3.517,3.517,0,0,0,379.6,128Z" transform="translate(-332.811 -128)" fill="#fd8e61"/>
      </g>
      <g id="Grupo_86911" data-name="Grupo 86911" transform="translate(5.998 11.401)">
        <path id="Trazado_152694" data-name="Trazado 152694" d="M423.438,191.468a1.171,1.171,0,0,0,1.2-1.14v-.741a3.434,3.434,0,0,0-3.119-3.339V185.14a1.2,1.2,0,0,0-2.4,0V186.3A3.791,3.791,0,0,0,416,189.957a3.839,3.839,0,0,0,3.929,3.734h.78a1.456,1.456,0,1,1,0,2.907h-1.17a1.114,1.114,0,0,1-1.14-1.083,1.2,1.2,0,0,0-2.4,0,3.434,3.434,0,0,0,3.119,3.339v1.108a1.2,1.2,0,0,0,2.4,0V198.8a3.791,3.791,0,0,0,3.119-3.654,3.839,3.839,0,0,0-3.929-3.734h-.78a1.456,1.456,0,1,1,0-2.907h1.17a1.114,1.114,0,0,1,1.14,1.083v.741A1.171,1.171,0,0,0,423.438,191.468Z" transform="translate(-359.615 -169.178)" fill="#49dfe5"/>
        <path id="Trazado_152695" data-name="Trazado 152695" d="M247.438,87.468a1.171,1.171,0,0,0,1.2-1.14v-.741a3.434,3.434,0,0,0-3.119-3.339V81.14a1.2,1.2,0,0,0-2.4,0V82.3A3.791,3.791,0,0,0,240,85.957a3.839,3.839,0,0,0,3.929,3.734h.78a1.456,1.456,0,1,1,0,2.907h-1.17a1.114,1.114,0,0,1-1.14-1.083,1.2,1.2,0,0,0-2.4,0,3.434,3.434,0,0,0,3.119,3.339v1.108a1.2,1.2,0,0,0,2.4,0V94.8a3.791,3.791,0,0,0,3.119-3.654,3.839,3.839,0,0,0-3.929-3.734h-.78a1.456,1.456,0,1,1,0-2.907h1.17a1.114,1.114,0,0,1,1.14,1.083v.741A1.171,1.171,0,0,0,247.438,87.468Z" transform="translate(-210.008 -80)" fill="#49dfe5"/>
        <path id="Trazado_152696" data-name="Trazado 152696" d="M47.438,143.468a1.171,1.171,0,0,0,1.2-1.14v-.741a3.434,3.434,0,0,0-3.119-3.339V137.14a1.2,1.2,0,0,0-2.4,0V138.3A3.791,3.791,0,0,0,40,141.957a3.839,3.839,0,0,0,3.929,3.734h.78a1.456,1.456,0,1,1,0,2.907h-1.17a1.114,1.114,0,0,1-1.14-1.083,1.2,1.2,0,0,0-2.4,0,3.434,3.434,0,0,0,3.119,3.339v1.108a1.2,1.2,0,0,0,2.4,0V150.8a3.791,3.791,0,0,0,3.119-3.654,3.839,3.839,0,0,0-3.929-3.734h-.78a1.456,1.456,0,1,1,0-2.907H45.1a1.114,1.114,0,0,1,1.14,1.083v.741A1.171,1.171,0,0,0,47.438,143.468Z" transform="translate(-40 -128.019)" fill="#49dfe5"/>
      </g>
    </g>
  </g>
</svg>
