<svg xmlns="http://www.w3.org/2000/svg" xmlns:xlink="http://www.w3.org/1999/xlink" width="295" height="176.251" viewBox="0 0 295 176.251">
  <defs>
    <clipPath id="clip-path">
      <rect id="Rectángulo_7433" data-name="Rectángulo 7433" width="69.543" height="57.271" fill="#e85f5b"/>
    </clipPath>
  </defs>
  <g id="Grupo_88174" data-name="Grupo 88174" transform="translate(-180 -2084.75)">
    <rect id="Rectángulo_8805" data-name="Rectángulo 8805" width="295" height="176" transform="translate(180 2085)" fill="#fcfbed"/>
    <g id="Grupo_86921" data-name="Grupo 86921">
      <g id="Grupo_86920" data-name="Grupo 86920" transform="translate(724 902.259) rotate(90)" opacity="0.61">
        <g id="Grupo_86889" data-name="Grupo 86889" transform="translate(1285.698 406)">
          <g id="Grupo_86895" data-name="Grupo 86895">
            <g id="Grupo_86894" data-name="Grupo 86894" clip-path="url(#clip-path)">
              <path id="Trazado_152651" data-name="Trazado 152651" d="M4.545,2.272A2.273,2.273,0,1,1,2.272,0,2.273,2.273,0,0,1,4.545,2.272M34.772,0a2.273,2.273,0,1,0,2.273,2.273A2.273,2.273,0,0,0,34.772,0m32.5,0a2.273,2.273,0,1,0,2.272,2.273A2.273,2.273,0,0,0,67.271,0m-65,26.363a2.273,2.273,0,1,0,2.273,2.273,2.273,2.273,0,0,0-2.273-2.273m32.5,0a2.273,2.273,0,1,0,2.273,2.273,2.273,2.273,0,0,0-2.273-2.273m32.5,0a2.273,2.273,0,1,0,2.272,2.273,2.273,2.273,0,0,0-2.272-2.273m-65,26.363A2.273,2.273,0,1,0,4.545,55a2.273,2.273,0,0,0-2.273-2.272m32.5,0A2.273,2.273,0,1,0,37.045,55a2.273,2.273,0,0,0-2.273-2.272m32.5,0A2.273,2.273,0,1,0,69.543,55a2.273,2.273,0,0,0-2.272-2.272" transform="translate(0 0.001)" fill="#e85f5b"/>
            </g>
          </g>
          <g id="Grupo_86896" data-name="Grupo 86896" transform="translate(0 80.729)">
            <g id="Grupo_86894-2" data-name="Grupo 86894" clip-path="url(#clip-path)">
              <path id="Trazado_152651-2" data-name="Trazado 152651" d="M4.545,2.272A2.273,2.273,0,1,1,2.272,0,2.273,2.273,0,0,1,4.545,2.272M34.772,0a2.273,2.273,0,1,0,2.273,2.273A2.273,2.273,0,0,0,34.772,0m32.5,0a2.273,2.273,0,1,0,2.272,2.273A2.273,2.273,0,0,0,67.271,0m-65,26.363a2.273,2.273,0,1,0,2.273,2.273,2.273,2.273,0,0,0-2.273-2.273m32.5,0a2.273,2.273,0,1,0,2.273,2.273,2.273,2.273,0,0,0-2.273-2.273m32.5,0a2.273,2.273,0,1,0,2.272,2.273,2.273,2.273,0,0,0-2.272-2.273m-65,26.363A2.273,2.273,0,1,0,4.545,55a2.273,2.273,0,0,0-2.273-2.272m32.5,0A2.273,2.273,0,1,0,37.045,55a2.273,2.273,0,0,0-2.273-2.272m32.5,0A2.273,2.273,0,1,0,69.543,55a2.273,2.273,0,0,0-2.272-2.272" transform="translate(0 0.001)" fill="#e85f5b"/>
            </g>
          </g>
        </g>
      </g>
      <g id="Grupo_86922" data-name="Grupo 86922" transform="translate(881 902.259) rotate(90)" opacity="0.61">
        <g id="Grupo_86889-2" data-name="Grupo 86889" transform="translate(1285.698 406)">
          <g id="Grupo_86895-2" data-name="Grupo 86895">
            <g id="Grupo_86894-3" data-name="Grupo 86894" clip-path="url(#clip-path)">
              <path id="Trazado_152651-3" data-name="Trazado 152651" d="M4.545,2.272A2.273,2.273,0,1,1,2.272,0,2.273,2.273,0,0,1,4.545,2.272M34.772,0a2.273,2.273,0,1,0,2.273,2.273A2.273,2.273,0,0,0,34.772,0m32.5,0a2.273,2.273,0,1,0,2.272,2.273A2.273,2.273,0,0,0,67.271,0m-65,26.363a2.273,2.273,0,1,0,2.273,2.273,2.273,2.273,0,0,0-2.273-2.273m32.5,0a2.273,2.273,0,1,0,2.273,2.273,2.273,2.273,0,0,0-2.273-2.273m32.5,0a2.273,2.273,0,1,0,2.272,2.273,2.273,2.273,0,0,0-2.272-2.273m-65,26.363A2.273,2.273,0,1,0,4.545,55a2.273,2.273,0,0,0-2.273-2.272m32.5,0A2.273,2.273,0,1,0,37.045,55a2.273,2.273,0,0,0-2.273-2.272m32.5,0A2.273,2.273,0,1,0,69.543,55a2.273,2.273,0,0,0-2.272-2.272" transform="translate(0 0.001)" fill="#e85f5b"/>
            </g>
          </g>
          <g id="Grupo_86896-2" data-name="Grupo 86896" transform="translate(0 80.729)">
            <g id="Grupo_86894-4" data-name="Grupo 86894" clip-path="url(#clip-path)">
              <path id="Trazado_152651-4" data-name="Trazado 152651" d="M4.545,2.272A2.273,2.273,0,1,1,2.272,0,2.273,2.273,0,0,1,4.545,2.272M34.772,0a2.273,2.273,0,1,0,2.273,2.273A2.273,2.273,0,0,0,34.772,0m32.5,0a2.273,2.273,0,1,0,2.272,2.273A2.273,2.273,0,0,0,67.271,0m-65,26.363a2.273,2.273,0,1,0,2.273,2.273,2.273,2.273,0,0,0-2.273-2.273m32.5,0a2.273,2.273,0,1,0,2.273,2.273,2.273,2.273,0,0,0-2.273-2.273m32.5,0a2.273,2.273,0,1,0,2.272,2.273,2.273,2.273,0,0,0-2.272-2.273m-65,26.363A2.273,2.273,0,1,0,4.545,55a2.273,2.273,0,0,0-2.273-2.272m32.5,0A2.273,2.273,0,1,0,37.045,55a2.273,2.273,0,0,0-2.273-2.272m32.5,0A2.273,2.273,0,1,0,69.543,55a2.273,2.273,0,0,0-2.272-2.272" transform="translate(0 0.001)" fill="#e85f5b"/>
            </g>
          </g>
        </g>
      </g>
      <g id="contador" transform="translate(243 2084.25)">
        <path id="Trazado_152728" data-name="Trazado 152728" d="M324.776,99.354H264V32.5l9.116,6.078,6.078-6.078,9.116,6.078,6.078-6.078,6.078,6.078,9.116-6.078,6.078,6.078,9.116-6.078Zm0,0" transform="translate(-163.719 -19.845)" fill="#ebebeb"/>
        <path id="Trazado_152729" data-name="Trazado 152729" d="M329.116,87.694a3.039,3.039,0,1,1,3.039-3.039h6.078a9.118,9.118,0,0,0-6.078-8.557V72.5h-6.078v3.6a9.095,9.095,0,0,0,3.039,17.673,3.039,3.039,0,1,1-3.039,3.039H320a9.117,9.117,0,0,0,6.078,8.557v3.6h6.078v-3.6a9.095,9.095,0,0,0-3.039-17.673Zm0,0" transform="translate(-198.448 -44.651)" fill="#d9d9d9"/>
        <path id="Trazado_152730" data-name="Trazado 152730" d="M336,184.5h6.078v9.116H336Zm0,0" transform="translate(-208.37 -114.107)" fill="#d9d9d9"/>
        <path id="Trazado_152731" data-name="Trazado 152731" d="M368,176.5h6.078v12.155H368Zm0,0" transform="translate(-228.215 -109.146)" fill="#d9d9d9"/>
        <path id="Trazado_152732" data-name="Trazado 152732" d="M304,176.5h6.078v12.155H304Zm0,0" transform="translate(-188.525 -109.146)" fill="#d9d9d9"/>
        <path id="Trazado_152733" data-name="Trazado 152733" d="M192.31,44.655A12.155,12.155,0,1,1,180.155,32.5,12.156,12.156,0,0,1,192.31,44.655Zm0,0" transform="translate(-104.185 -19.845)" fill="#c0f5f9"/>
        <path id="Trazado_152734" data-name="Trazado 152734" d="M38.388,15.694A15.194,15.194,0,1,1,23.194.5,15.195,15.195,0,0,1,38.388,15.694Zm0,0" transform="translate(-4.961 0)" fill="#fbedbf"/>
        <path id="Trazado_152735" data-name="Trazado 152735" d="M56,200.5h54.7v57.737H56Zm0,0" transform="translate(-34.728 -124.03)" fill="#fcc14a"/>
        <path id="Trazado_152736" data-name="Trazado 152736" d="M99.164,385.121H8V359.853a18.235,18.235,0,0,1,13.811-17.69L44.466,336.5H65.737l19.993,5.451a18.234,18.234,0,0,1,13.434,17.592Zm0,0" transform="translate(-4.961 -208.37)" fill="#e85f5b"/>
        <path id="Trazado_152737" data-name="Trazado 152737" d="M40.943,418.492l-1.177-2.356a15.87,15.87,0,0,1,.988-15.871,3.047,3.047,0,0,0,.51-1.687V392.5H35.187v5.193a21.973,21.973,0,0,0-.856,21.159l.5,1h6.431a3.08,3.08,0,0,0-.316-1.358Zm0,0" transform="translate(-19.86 -243.099)" fill="#b53b37"/>
        <path id="Trazado_152738" data-name="Trazado 152738" d="M205.726,397.693V392.5h-6.078v6.078a3.047,3.047,0,0,0,.51,1.687,15.87,15.87,0,0,1,.988,15.871l-1.177,2.356a3,3,0,0,0-.3,1.358H206.1l.5-1a21.974,21.974,0,0,0-.869-21.159Zm0,0" transform="translate(-123.812 -243.098)" fill="#b53b37"/>
        <path id="Trazado_152739" data-name="Trazado 152739" d="M104,296.5h18.233v27.349H104Zm0,0" transform="translate(-64.496 -183.564)" fill="#fdc9a6"/>
        <path id="Trazado_152740" data-name="Trazado 152740" d="M104,303.54a21.06,21.06,0,0,0,18.233,0V296.5H104Zm0,0" transform="translate(-64.496 -183.564)" fill="#f6bb92"/>
        <path id="Trazado_152741" data-name="Trazado 152741" d="M93.272,220.16A21.271,21.271,0,0,1,72,198.888V168.5h42.543v30.388A21.271,21.271,0,0,1,93.272,220.16Zm0,0" transform="translate(-44.651 -104.185)" fill="#fdc9a6"/>
        <path id="Trazado_152742" data-name="Trazado 152742" d="M83.349,136.81l6.263,6.263a35.279,35.279,0,0,0,13.8,8.527l1.212.4H110.7V139.849a27.349,27.349,0,1,0-54.7,0V152h6.078a35.293,35.293,0,0,0,19.674-13.066Zm0,0" transform="translate(-34.728 -69.457)" fill="#fcc14a"/>
        <path id="Trazado_152743" data-name="Trazado 152743" d="M60.155,228.655H54.078a6.078,6.078,0,0,1,0-12.155h6.078Zm0,0" transform="translate(-29.767 -133.952)" fill="#fdc9a6"/>
        <path id="Trazado_152744" data-name="Trazado 152744" d="M176,228.655h6.078a6.078,6.078,0,0,0,0-12.155H176Zm0,0" transform="translate(-109.146 -133.952)" fill="#fdc9a6"/>
        <path id="Trazado_152746" data-name="Trazado 152746" d="M99.039,225.616A3.039,3.039,0,0,1,96,222.578v-3.039a3.039,3.039,0,0,1,6.078,0v3.039A3.039,3.039,0,0,1,99.039,225.616Zm0,0" transform="translate(-59.534 -133.952)" fill="#eeb58e"/>
        <path id="Trazado_152747" data-name="Trazado 152747" d="M147.039,225.616A3.039,3.039,0,0,1,144,222.578v-3.039a3.039,3.039,0,1,1,6.078,0v3.039A3.039,3.039,0,0,1,147.039,225.616Zm0,0" transform="translate(-89.301 -133.952)" fill="#eeb58e"/>
        <path id="Trazado_152748" data-name="Trazado 152748" d="M251.039,208.5h75.97a6.078,6.078,0,0,1,6.078,6.078v85.087a6.078,6.078,0,0,1-6.078,6.078H248v-94.2A3.039,3.039,0,0,1,251.039,208.5Zm0,0" transform="translate(-153.797 -128.991)" fill="#4799cf"/>
        <path id="Trazado_152749" data-name="Trazado 152749" d="M251.039,208.5h69.893v97.242H248v-94.2A3.039,3.039,0,0,1,251.039,208.5Zm0,0" transform="translate(-153.797 -128.991)" fill="#6cbae5"/>
        <path id="Trazado_152750" data-name="Trazado 152750" d="M280,240.5h48.621v12.155H280Zm0,0" transform="translate(-173.642 -148.836)" fill="#b3e4e8"/>
        <path id="Trazado_152751" data-name="Trazado 152751" d="M280,240.5h45.582v9.116H280Zm0,0" transform="translate(-173.642 -148.836)" fill="#c0f5f9"/>
        <path id="Trazado_152752" data-name="Trazado 152752" d="M280,304.5h18.233v18.233H280Zm0,0" transform="translate(-173.642 -188.525)" fill="#ea9d2d"/>
        <path id="Trazado_152753" data-name="Trazado 152753" d="M280,304.5h12.155v12.155H280Zm0,0" transform="translate(-173.642 -188.525)" fill="#fbb540"/>
        <path id="Trazado_152754" data-name="Trazado 152754" d="M280,384.5h18.233v18.233H280Zm0,0" transform="translate(-173.642 -238.137)" fill="#ea9d2d"/>
        <path id="Trazado_152755" data-name="Trazado 152755" d="M360,384.5h18.233v18.233H360Zm0,0" transform="translate(-223.254 -238.137)" fill="#ea9d2d"/>
        <path id="Trazado_152756" data-name="Trazado 152756" d="M360,304.5h18.233v18.233H360Zm0,0" transform="translate(-223.254 -188.525)" fill="#ea9d2d"/>
        <path id="Trazado_152757" data-name="Trazado 152757" d="M448,88.5h6.078v6.078H448Zm0,0" transform="translate(-277.827 -54.573)" fill="#3d1f71"/>
        <path id="Trazado_152758" data-name="Trazado 152758" d="M448,120.5h6.078v6.078H448Zm0,0" transform="translate(-277.827 -74.418)" fill="#3d1f71"/>
        <path id="Trazado_152759" data-name="Trazado 152759" d="M448,152.5h6.078v12.155H448Zm0,0" transform="translate(-277.827 -94.263)" fill="#3d1f71"/>
        <path id="Trazado_152760" data-name="Trazado 152760" d="M184,56.5h12.155v6.078H184Zm0,0" transform="translate(-114.107 -34.728)" fill="#6cbae5"/>
        <path id="Trazado_152761" data-name="Trazado 152761" d="M42.233,22.578H36.155V16.5H30.078v6.078H24v6.078h6.078v6.078h6.078V28.655h6.078Zm0,0" transform="translate(-14.884 -9.922)" fill="#fd9226"/>
        <g id="Grupo_86919" data-name="Grupo 86919" transform="translate(0 40.004)">
          <path id="Trazado_152762" data-name="Trazado 152762" d="M16,104.5h6.078v6.078H16Zm0,0" transform="translate(-9.922 -104.5)" fill="#fbedbf"/>
          <path id="Trazado_152763" data-name="Trazado 152763" d="M16,136.5h6.078v6.078H16Zm0,0" transform="translate(-9.922 -124.345)" fill="#fbedbf"/>
          <path id="Trazado_152764" data-name="Trazado 152764" d="M32,120.5h6.078v6.078H32Zm0,0" transform="translate(-19.845 -114.422)" fill="#fbedbf"/>
          <path id="Trazado_152765" data-name="Trazado 152765" d="M0,120.5H6.078v6.078H0Zm0,0" transform="translate(0 -114.422)" fill="#fbedbf"/>
          <path id="Trazado_152766" data-name="Trazado 152766" d="M224,136.5h6.078v6.078H224Zm0,0" transform="translate(-138.913 -124.345)" fill="#fbedbf"/>
          <path id="Trazado_152767" data-name="Trazado 152767" d="M224,168.5h6.078v6.078H224Zm0,0" transform="translate(-138.913 -144.19)" fill="#fbedbf"/>
        </g>
        <path id="Trazado_152768" data-name="Trazado 152768" d="M112,368.5h12.155v36.466H112Zm0,0" transform="translate(-69.457 -228.215)" fill="#dbdbdb"/>
        <path id="Trazado_152769" data-name="Trazado 152769" d="M87.432,351.694l12.155-3.039L90.471,336.5l-8.287,2.073Zm0,0" transform="translate(-50.966 -208.37)" fill="#ebebeb"/>
        <path id="Trazado_152770" data-name="Trazado 152770" d="M140.155,351.694l5.48-13.7-5.48-1.5h-3.039L128,348.655Zm0,0" transform="translate(-79.379 -208.37)" fill="#ebebeb"/>
        <path id="Trazado_152771" data-name="Trazado 152771" d="M360,304.5h12.155v12.155H360Zm0,0" transform="translate(-223.254 -188.525)" fill="#fbb540"/>
        <path id="Trazado_152772" data-name="Trazado 152772" d="M280,384.5h12.155v12.155H280Zm0,0" transform="translate(-173.642 -238.137)" fill="#fbb540"/>
        <path id="Trazado_152773" data-name="Trazado 152773" d="M360,384.5h12.155v12.155H360Zm0,0" transform="translate(-223.254 -238.137)" fill="#fbb540"/>
      </g>
      <rect id="Rectángulo_7448" data-name="Rectángulo 7448" width="295" height="176" transform="translate(180 2085)" fill="none"/>
    </g>
  </g>
</svg>
